<!-- Generated by IcoMoon.io -->
<svg version="1.1" xmlns="http://www.w3.org/2000/svg" width="32" height="32" viewBox="0 0 32 32">
<title>another-line</title>
<path d="M0.028 16.447l0.067-0.16 0.067-0.12v-0.067l0.080-0.093 12.789-11.723c0.186-0.176 0.438-0.284 0.713-0.284 0.31 0 0.587 0.135 0.777 0.35l0.001 0.001c0.169 0.188 0.273 0.438 0.273 0.712 0 0.308-0.13 0.585-0.339 0.779l-0.001 0.001-10.658 9.765h27.15c0.581 0 1.052 0.472 1.052 1.052s-0.472 1.052-1.052 1.052h-27.15l10.658 9.765c0.217 0.194 0.353 0.474 0.353 0.786 0 0.582-0.472 1.052-1.052 1.052-0.007 0-0.014 0-0.021 0-0.273 0-0.522-0.107-0.705-0.28l-12.656-11.603-0.080-0.093v-0.067l-0.067-0.12-0.2-0.24c-0.017-0.064-0.027-0.138-0.027-0.213s0.010-0.149 0.028-0.219l-0.001 0.006 0.001-0.041z"></path>
</svg>
