<!-- Generated by IcoMoon.io -->
<svg version="1.1" xmlns="http://www.w3.org/2000/svg" width="32" height="32" viewBox="0 0 32 32">
<title>another-person-customer</title>
<path d="M23.895 14.91c2.724 0.135 4.942 2.318 5.214 5.132s-1.486 5.409-4.13 6.101v2.067c0 0.62-0.485 1.123-1.083 1.123-0.593-0.012-1.072-0.508-1.083-1.123v-2.067c-2.539-0.528-4.379-2.82-4.42-5.504 0-0.62 0.485-1.123 1.083-1.123s1.083 0.503 1.083 1.123c0 1.41 0.821 2.681 2.078 3.219s2.704 0.235 3.663-0.765c0.959-1 1.241-2.502 0.714-3.802s-1.758-2.143-3.118-2.134c-2.68-0.201-4.832-2.371-5.1-5.144s1.428-5.342 4.016-6.089v-2.134c0-0.62 0.485-1.123 1.083-1.123 0.564 0.047 0.998 0.536 0.997 1.123v2.044c2.582 0.535 4.441 2.886 4.442 5.616 0 0.62-0.485 1.123-1.083 1.123s-1.083-0.503-1.083-1.123c0.008-1.418-0.814-2.7-2.079-3.241s-2.72-0.231-3.677 0.782c-0.958 1.013-1.227 2.527-0.681 3.827s1.798 2.128 3.166 2.091z"></path>
<path d="M2.684 16.534l0.045 0.117 0.045 0.087v0.049l0.053 0.068 6.933 6.843c0.137 0.141 0.32 0.215 0.509 0.206s0.365-0.101 0.49-0.255c0.26-0.315 0.24-0.798-0.045-1.087l-5.507-5.416h11.24c0.389 0 0.704-0.343 0.704-0.767s-0.315-0.767-0.704-0.767h-11.24l5.507-4.924c0.22-0.213 0.295-0.553 0.188-0.852s-0.374-0.493-0.669-0.487c-0.176-0-0.345 0.073-0.472 0.204l-6.844 6.263-0.053 0.068v0.049l-0.045 0.087-0.134 0.175c-0.024 0.102-0.024 0.209 0 0.311v0.029z"></path>
</svg>
