<!-- Generated by IcoMoon.io -->
<svg version="1.1" xmlns="http://www.w3.org/2000/svg" width="32" height="32" viewBox="0 0 32 32">
<title>articles-videos-ns</title>
<path d="M29.289 8.744c0.022 0.021 0.044 0.043 0.044 0.086v10.473c0 0.257-0.176 0.429-0.44 0.429h-1.32v1.288c0 0.257-0.176 0.429-0.44 0.429h-2.464v-0.858h2.024v-0.858h-2.024v-0.858h3.784v-9.442h-3.96c-0.264 0-0.44-0.172-0.44-0.429v-3.863h-6.161v5.408h-0.88v-3.691h-0.88v3.691h-0.88v-4.12c0-0.258 0.176-0.429 0.44-0.429h1.32v-1.288c0-0.258 0.176-0.429 0.44-0.429h7.217c0.088 0 0.176 0.086 0.176 0.086l4.4 4.292c0 0.043 0.022 0.064 0.044 0.086zM24.932 5.739v2.833h2.904l-2.904-2.833zM3.987 11.405h18.482c0.704 0 1.32 0.515 1.32 1.288v11.159c0 0.687-0.616 1.288-1.32 1.288h-7.481v1.717h2.64c0.264 0 0.44 0.172 0.44 0.429s-0.176 0.429-0.44 0.429h-8.801c-0.264 0-0.44-0.172-0.44-0.429s0.176-0.429 0.44-0.429h2.64v-1.717h-7.481c-0.704 0-1.32-0.601-1.32-1.288v-11.159c0-0.773 0.616-1.288 1.32-1.288zM12.348 26.856h1.76v-1.717h-1.76v1.717zM22.469 24.281c0.264 0 0.44-0.172 0.44-0.429v-11.159c0-0.258-0.176-0.429-0.44-0.429h-18.482c-0.264 0-0.44 0.172-0.44 0.429v11.159c0 0.172 0.176 0.429 0.44 0.429h18.482zM21.589 13.122h-16.722c-0.264 0-0.44 0.172-0.44 0.429v9.442c0 0.257 0.176 0.429 0.44 0.429h16.722c0.264 0 0.44-0.172 0.44-0.429v-9.442c0-0.258-0.176-0.429-0.44-0.429zM21.149 22.564h-15.842v-8.584h15.842v8.584zM11.931 20.396l3.862-2.193c0.082-0.047 0.127-0.132 0.116-0.219 0.002-0.077-0.043-0.148-0.116-0.187l-3.862-2.177c-0.079-0.036-0.171-0.036-0.25 0-0.075 0.041-0.122 0.115-0.125 0.195v4.418c-0.001 0.083 0.047 0.16 0.125 0.203 0.038 0.007 0.078 0.007 0.116 0 0.048-0.002 0.094-0.017 0.134-0.041z"></path>
</svg>
