<!-- Generated by IcoMoon.io -->
<svg version="1.1" xmlns="http://www.w3.org/2000/svg" width="28" height="32" viewBox="0 0 28 32">
<title>bell-outline</title>
<path d="M23.652 12.522c0-5.648-3.114-9.567-7.144-10.744-0.146-0.378-0.377-0.728-0.69-1.023-1.071-1.006-2.74-1.006-3.811 0-0.313 0.294-0.543 0.644-0.689 1.020-4.035 1.172-7.145 5.083-7.145 10.747 0 3.665-0.739 5.718-2.107 7.206-0.229 0.249-0.848 0.819-1.268 1.205l-0 0c-0.198 0.183-0.352 0.324-0.399 0.371l-0.401 0.406v4.745h8.47c0.286 1.478 1.088 2.466 2.538 3.351 1.784 1.088 4.026 1.088 5.81 0 1.28-0.781 2.137-1.981 2.486-3.351h8.523v-4.745l-0.401-0.406c-0.042-0.043-0.19-0.179-0.383-0.357-0.418-0.386-1.050-0.969-1.282-1.222-1.369-1.495-2.108-3.551-2.108-7.203zM16.329 26.454h-4.95c0.197 0.366 0.532 0.642 1.079 0.976 0.894 0.545 2.017 0.545 2.911 0 0.414-0.253 0.737-0.587 0.961-0.976zM23.708 21.603c0.293 0.32 0.92 0.904 1.335 1.286v0.782h-22.261v-0.782c0.412-0.377 1.041-0.962 1.334-1.28 1.858-2.022 2.84-4.751 2.84-9.089 0-5.259 3.246-8.331 6.957-8.331 3.7 0 6.957 3.087 6.957 8.331 0 4.324 0.982 7.054 2.839 9.082z"></path>
</svg>
