<!-- Generated by IcoMoon.io -->
<svg version="1.1" xmlns="http://www.w3.org/2000/svg" width="32" height="32" viewBox="0 0 32 32">
<title>bell</title>
<path d="M17.445 26.167c0.291 0 0.528 0.237 0.528 0.528 0 1.456-1.184 2.639-2.639 2.639s-2.639-1.183-2.639-2.639c0-0.291 0.237-0.528 0.528-0.528h4.221zM15.334 9.279c1.628 0 2.971 1.234 3.148 2.815 2.587 1.217 4.241 3.807 4.241 6.685v3.695c0 0.873 0.71 1.583 1.583 1.583 0.291 0 0.528 0.237 0.528 0.528s-0.237 0.528-0.528 0.528h-17.944c-0.291 0-0.528-0.237-0.528-0.528s0.237-0.528 0.528-0.528c0.873 0 1.583-0.71 1.583-1.583v-3.695c0-2.881 1.654-5.469 4.241-6.685 0.177-1.58 1.52-2.814 3.148-2.814h0.001zM12.167 7.167c0.291 0 0.528 0.237 0.528 0.528s-0.237 0.528-0.528 0.528c-2.91 0-5.278 2.368-5.278 5.278 0 0.291-0.237 0.528-0.528 0.528s-0.528-0.237-0.528-0.528c0-3.493 2.84-6.333 6.333-6.333l0.001-0.001zM12.167 4.001c0.291 0 0.528 0.237 0.528 0.528s-0.237 0.528-0.528 0.528c-4.656 0-8.444 3.788-8.444 8.445 0 0.291-0.237 0.528-0.528 0.528s-0.528-0.237-0.528-0.528c0-5.238 4.261-9.5 9.5-9.5l0.001-0.001zM18.5 7.167c3.492 0 6.333 2.84 6.333 6.333 0 0.291-0.237 0.528-0.528 0.528s-0.528-0.237-0.528-0.528c0-2.91-2.368-5.278-5.278-5.278-0.291 0-0.528-0.237-0.528-0.528s0.237-0.528 0.528-0.528l0.001 0.001zM18.5 4.001c5.238 0 9.5 4.261 9.5 9.5 0 0.291-0.237 0.528-0.528 0.528s-0.528-0.237-0.528-0.528c0-4.656-3.788-8.444-8.445-8.444-0.291 0-0.528-0.237-0.528-0.528s0.237-0.528 0.528-0.528l0.001 0.001z"></path>
</svg>
