<!-- Generated by IcoMoon.io -->
<svg version="1.1" xmlns="http://www.w3.org/2000/svg" width="32" height="32" viewBox="0 0 32 32">
<title>bicep</title>
<path d="M23.354 13.267c-2.551-0.106-5.418 1.301-6.277 4.584-0.659-0.515-1.555-0.867-2.609-1.008-1.369-0.186-3.070-0.007-4.392 0.695l0.348-3.209v-1.069c0-0.121 0.037-0.238 0.107-0.336l2.186-3.061-1.475-1.080-2.042 2.493c-0.207 0.252-0.585 0.296-0.846 0.091-0.26-0.202-0.302-0.572-0.094-0.826l2.407-2.938c0.202-0.247 0.569-0.294 0.83-0.102l2.407 1.763c0.26 0.189 0.319 0.545 0.133 0.806l-1.438 2.029-0.656 0.876c-0.094 0.125-0.133 0.282-0.109 0.438 0.024 0.154 0.111 0.291 0.239 0.384l0.667 0.476c0.107 0.077 0.232 0.114 0.354 0.114 0.186 0 0.369-0.084 0.487-0.241l3.367-4.495c0.196-0.261 0.139-0.63-0.13-0.822l-6.571-4.716c-0.128-0.091-0.284-0.129-0.448-0.106-0.156 0.023-0.298 0.107-0.392 0.234 0 0-4.503 5.38-4.457 6.183-1.241 4.457-2.552 9.567-2.238 11.079 0 1.836 1.65 3.528 4.649 4.765 2.665 1.101 6.12 1.732 9.476 1.732 6.041 0 12.494-2.168 12.494-8.251 0-4.282-3.099-6.363-5.979-6.482v-0.001z"></path>
</svg>
