<!-- Generated by IcoMoon.io -->
<svg version="1.1" xmlns="http://www.w3.org/2000/svg" width="32" height="32" viewBox="0 0 32 32">
<title>box-opening</title>
<path d="M23.763 27.18c0 0.237-0.187 0.431-0.42 0.431h-6.729c-0.232 0-0.42-0.194-0.42-0.431v-2.584c0-0.237 0.188-0.431 0.42-0.431h6.729c0.233 0 0.42 0.194 0.42 0.431v2.584zM5.256 15.553v13.35c0 0.237 0.188 0.431 0.42 0.431h19.347c0.233 0 0.421-0.194 0.421-0.431v-13.35h-20.188zM20.152 9.117c-0.072-0.103-0.187-0.163-0.309-0.163h-4.937v5.445h8.932l-3.686-5.282zM16.733 8.955h-5.869c-0.122 0-0.237 0.060-0.309 0.163l-3.685 5.282h9.863v-5.445zM8.271 4l1.418 4.509c0.042 0.133 0.019 0.277-0.063 0.39l-4.187 5.769-2.773-8.819 5.605-1.848zM22.395 4l-1.418 4.509c-0.042 0.133-0.019 0.277 0.063 0.39l4.187 5.769 2.773-8.819-5.605-1.848z"></path>
</svg>
