<!-- Generated by IcoMoon.io -->
<svg version="1.1" xmlns="http://www.w3.org/2000/svg" width="32" height="32" viewBox="0 0 32 32">
<title>box-open</title>
<path d="M16 29.2v0c0 0 0 0 0 0s-0.133 0-0.133 0v0c0 0 0 0 0 0s-0.133 0-0.133 0c0 0 0 0 0 0l-9.733-6.133c-0.133-0.133-0.267-0.4-0.267-0.533v-4.667l-3.333-2.133c-0.133-0.133-0.267-0.267-0.267-0.533 0-0.133 0-0.4 0.133-0.533l3.067-3.333-3.2-3.333c-0.133-0.133-0.133-0.267-0.133-0.533s0.133-0.4 0.4-0.533l9.6-4.8c0.267-0.133 0.533-0.133 0.8 0.133l3.2 3.2 3.2-3.2c0.267-0.267 0.533-0.267 0.8-0.133l9.733 4.933c0.133 0.133 0.267 0.267 0.4 0.533 0 0.267 0 0.4-0.133 0.533l-3.333 3.2 3.2 3.2c0.133 0.133 0.267 0.4 0.133 0.533 0 0.267-0.133 0.4-0.267 0.533l-3.333 2.133v4.667c0 0.267-0.133 0.4-0.267 0.533l-9.733 6.133c0 0 0 0 0 0s-0.133 0-0.133 0-0.267 0.133-0.267 0.133zM6.933 22l8.4 5.333v-8.267l-2.533 2.533c-0.267 0.267-0.533 0.267-0.8 0.133l-5.067-3.2v3.467zM16.667 19.067v8.267l8.4-5.333v-3.467l-5.067 3.067c-0.267 0.133-0.667 0.133-0.8-0.133l-2.533-2.4zM6.667 16.667l5.6 3.6 2.667-2.667-8.533-5.467-2.667 2.667 2.933 1.867c0 0 0 0 0 0zM17.067 17.6l2.667 2.667 5.6-3.6c0 0 0 0 0 0l2.933-1.867-2.667-2.667-8.533 5.467zM7.6 11.333l8.4 5.333 8.4-5.333-8.4-4.267-8.4 4.267zM17.067 6.133l8.4 4.267 2.667-2.667-8.4-4.267-2.667 2.667zM3.733 7.733l2.667 2.667 8.4-4.267-2.667-2.667-8.4 4.267z"></path>
</svg>
