<!-- Generated by IcoMoon.io -->
<svg version="1.1" xmlns="http://www.w3.org/2000/svg" width="33" height="32" viewBox="0 0 33 32">
<title>bubbles-outline</title>
<path d="M3.2 10.752c0-3.922 4.031-7.552 9.6-7.552s9.6 3.63 9.6 7.552c0 0.707 0.573 1.28 1.28 1.28s1.28-0.573 1.28-1.28c0-5.806-5.697-10.112-12.16-10.112s-12.16 4.306-12.16 10.112c0 2.604 1.034 4.97 2.857 6.788l-2.049 3.585c-0.27 0.473-0.212 1.065 0.146 1.475s0.935 0.55 1.441 0.348l6.046-2.419c0.507 0.102 0.976 0.2 1.36 0.296 0.686 0.172 1.381-0.245 1.552-0.931s-0.246-1.381-0.931-1.552c-0.542-0.135-1.206-0.268-1.83-0.393l-0.021-0.004c-0.243-0.049-0.496-0.025-0.726 0.067l-2.992 1.197 0.739-1.293c0.311-0.544 0.182-1.233-0.304-1.628-1.769-1.437-2.727-3.385-2.727-5.535zM22.4 12.8c-5.528 0-10.24 3.997-10.24 8.96 0 6.375 7.083 10.867 13.463 8.415l4.648 1.743c0.493 0.185 1.049 0.049 1.401-0.342s0.429-0.958 0.194-1.429l-1.479-2.957c1.459-1.449 2.254-3.332 2.254-5.431 0-4.963-4.712-8.96-10.24-8.96zM14.72 21.76c0-3.229 3.224-6.4 7.68-6.4s7.68 3.171 7.68 6.4c0 1.639-0.702 3.061-2.060 4.105-0.486 0.373-0.638 1.039-0.364 1.587l0.462 0.925-2.068-0.775c-0.314-0.118-0.662-0.108-0.969 0.029-5.017 2.23-10.36-1.404-10.36-5.87z"></path>
</svg>
