<!-- Generated by IcoMoon.io -->
<svg version="1.1" xmlns="http://www.w3.org/2000/svg" width="34" height="32" viewBox="0 0 34 32">
<title>bubble-outline</title>
<path d="M16.762 0c-9.147 0-16.762 6.093-16.762 13.979 0 3.546 1.835 6.647 4.363 9.065l-3.009 6.021c-0.102 0.199-0.161 0.434-0.161 0.682 0 0.842 0.682 1.524 1.524 1.524 0.235 0 0.457-0.053 0.655-0.148l-0.009 0.004 8.363-3.929c1.598 0.447 3.294 0.759 5.036 0.759 9.147 0 16.762-6.093 16.762-13.979s-7.615-13.979-16.762-13.979zM16.762 3.048c7.814 0 13.714 5.038 13.714 10.932s-5.901 10.932-13.714 10.932c-1.71 0-3.421-0.252-4.818-0.717-0.143-0.049-0.308-0.078-0.48-0.078-0.236 0-0.46 0.054-0.66 0.15l0.009-0.004-4.771 2.241 1.482-2.964c0.101-0.198 0.161-0.433 0.161-0.681 0-0.477-0.219-0.903-0.563-1.183l-0.003-0.002c-2.495-2.020-4.071-4.795-4.071-7.693 0-5.894 5.901-10.932 13.714-10.932z"></path>
</svg>
