<!-- Generated by IcoMoon.io -->
<svg version="1.1" xmlns="http://www.w3.org/2000/svg" width="32" height="32" viewBox="0 0 32 32">
<title>calendar-outline</title>
<path d="M25.783 0c0.446 0.002 0.815 0.329 0.883 0.757l0.001 0.005v2.789h4.45c0 0 0 0 0 0 0.488 0 0.884 0.396 0.884 0.884 0 0.005-0 0.011-0 0.016v-0.001 26.667c0 0.488-0.396 0.884-0.884 0.884v0h-30.232c-0.488 0-0.884-0.396-0.884-0.884v0-26.667c-0-0.005-0-0.010-0-0.015 0-0.488 0.396-0.884 0.884-0.884 0 0 0 0 0 0h4.45v-2.667c-0.001-0.018-0.002-0.039-0.002-0.061 0-0.489 0.397-0.886 0.886-0.886 0.468 0 0.851 0.363 0.884 0.822l0 0.003v2.789h17.783v-2.667c0-0 0-0 0-0 0-0.488 0.396-0.884 0.884-0.884 0.005 0 0.011 0 0.016 0h-0.001zM30.217 13.333h-28.434v16.884h28.434zM5.333 5.333h-3.55v6.217h28.434v-6.217h-3.55v0.884c0.001 0.016 0.002 0.035 0.002 0.053 0 0.489-0.396 0.885-0.885 0.885-0.47 0-0.855-0.367-0.884-0.83l-0-0.003v-0.99h-17.783v0.884c0 0.005 0 0.010 0 0.015 0 0.488-0.396 0.884-0.884 0.884-0.005 0-0.011-0-0.016-0h0.001c-0.455-0.005-0.829-0.347-0.883-0.788l-0-0.004v-0.99z"></path>
</svg>
