<!-- Generated by IcoMoon.io -->
<svg version="1.1" xmlns="http://www.w3.org/2000/svg" width="32" height="32" viewBox="0 0 32 32">
<title>campaign</title>
<path d="M18.785 16.683c0 0.387-0.314 0.701-0.701 0.701v-2.103c0.387 0 0.701 0.314 0.701 0.701v0.701zM18.075 14.581v-3.854c0.017-0.245-0.251-0.426-0.487-0.319-2.544 1.164-4.683 2.247-8.623 2.628v6.595c3.94 0.381 6.079 1.463 8.623 2.627 0.236 0.107 0.505-0.074 0.487-0.319v-3.854c0.781 0 1.41-0.629 1.41-1.401v-0.701c0-0.773-0.629-1.401-1.41-1.401v-0.001zM5.12 13.178c-1.353 0-2.453 1.1-2.453 2.453v1.401c0 1.353 1.099 2.452 2.453 2.452h1.744v-6.307l-1.744 0.001zM7.564 19.505v-6.676c0-0.194 0.157-0.35 0.35-0.35s0.35 0.156 0.35 0.35v6.676c0 1.799 1 3.417 2.61 4.222 0.173 0.088 0.242 0.299 0.156 0.47-0.086 0.173-0.297 0.243-0.47 0.157-1.848-0.925-2.996-2.784-2.996-4.849zM24.193 16.636c0.194 0 0.35-0.157 0.35-0.35s-0.157-0.35-0.35-0.35h-1.401v-5.606h1.401c0.194 0 0.35-0.157 0.35-0.35s-0.157-0.35-0.35-0.35h-1.753c-0.194 0-0.35 0.157-0.35 0.35v5.957h-1.401c-0.194 0-0.35 0.157-0.35 0.35s0.157 0.35 0.35 0.35h1.401v5.256c0 0.194 0.157 0.35 0.35 0.35h1.753c0.194 0 0.35-0.157 0.35-0.35s-0.157-0.35-0.35-0.35h-1.401v-4.906h1.401zM29.326 12.141c-0.021-0.9-0.603-1.662-1.407-1.955 0.4-0.247 0.67-0.685 0.67-1.188 0-0.772-0.627-1.398-1.398-1.398s-1.398 0.627-1.398 1.398c0 0.502 0.271 0.942 0.67 1.188-0.819 0.299-1.407 1.084-1.407 2.004 0 0.094 0.075 0.17 0.17 0.167h3.937c0.093 0 0.17-0.072 0.17-0.167 0-0.017-0.002-0.034-0.007-0.050l-0.001 0.001zM29.326 18.135c-0.021-0.9-0.603-1.662-1.407-1.955 0.4-0.247 0.67-0.684 0.67-1.188 0-0.77-0.627-1.398-1.398-1.398s-1.398 0.627-1.398 1.398c0 0.503 0.271 0.942 0.67 1.188-0.819 0.299-1.407 1.084-1.407 2.005 0 0.094 0.075 0.17 0.17 0.167h3.937c0.093 0 0.17-0.072 0.17-0.167 0-0.017-0.002-0.035-0.007-0.050l-0.001 0.001zM29.326 24.129c-0.021-0.901-0.603-1.662-1.407-1.955 0.4-0.247 0.67-0.685 0.67-1.188 0-0.77-0.627-1.398-1.398-1.398s-1.398 0.627-1.398 1.398c0 0.503 0.271 0.942 0.67 1.188-0.819 0.299-1.407 1.082-1.407 2.004 0 0.094 0.075 0.171 0.17 0.167h3.937c0.093 0 0.17-0.071 0.17-0.167 0-0.017-0.002-0.034-0.007-0.048l-0.001-0.001z"></path>
</svg>
