<!-- Generated by IcoMoon.io -->
<svg version="1.1" xmlns="http://www.w3.org/2000/svg" width="32" height="32" viewBox="0 0 32 32">
<title>cart</title>
<path d="M16.23 11.442l3.107-3.11 3.171 3.11h-6.278zM13.777 11.442v-2.225h3.103l-2.222 2.225h-0.881zM6.357 11.442l-2.403-5.293 1.772-0.844 2.749 6.138h-2.117zM28.778 4.767h-3.334c-0.258 0-0.482 0.178-0.541 0.429l-1.344 5.719-3.837-3.763c-0.217-0.215-0.566-0.212-0.782 0.005l-0.948 0.947h-4.77c-0.306 0-0.556 0.249-0.556 0.556v2.781h-2.975l-3.186-7.112c-0.13-0.287-0.467-0.407-0.745-0.275l-2.778 1.324c-0.273 0.13-0.392 0.456-0.267 0.733l2.42 5.331h-1.359c-0.382 0-0.647 0.373-0.528 0.733l3.334 10.011c0.077 0.225 0.288 0.38 0.528 0.38h13.71l-0.262 1.112h-11.781c-1.226 0-2.222 0.999-2.222 2.225 0 1.228 0.996 2.225 2.222 2.225 1.664 0 2.8-1.807 1.914-3.337h8.394c-0.879 1.515 0.235 3.337 1.914 3.337 1.226 0 2.222-0.997 2.222-2.225 0-0.99-0.653-1.821-1.549-2.109l4.21-17.914h2.894c0.306 0 0.556-0.249 0.556-0.556s-0.25-0.556-0.556-0.556z"></path>
</svg>
