<!-- Generated by IcoMoon.io -->
<svg version="1.1" xmlns="http://www.w3.org/2000/svg" width="37" height="32" viewBox="0 0 37 32">
<title>cart-outline</title>
<path d="M1.684 0.253c-0 0-0 0-0.001 0-0.605 0-1.095 0.49-1.095 1.095 0 0 0 0 0 0.001v-0c0.001 0.603 0.491 1.092 1.095 1.092 0 0 0 0 0.001 0h3.691c0.284 0 0.516 0.189 0.576 0.467l0.438 2.036 3.97 18.526c0.11 0.498 0.546 0.864 1.069 0.865h20.572c0 0 0 0 0.001 0 0.604 0 1.093-0.489 1.095-1.092v-0c0-0 0-0 0-0.001 0-0.605-0.49-1.095-1.095-1.095-0 0-0 0-0.001 0h-19.687l-0.612-2.865h16.355c2.815 0 5.281-1.924 5.964-4.655l2.411-9.648c0.020-0.079 0.032-0.17 0.032-0.264 0-0.605-0.49-1.095-1.095-1.095h-27.026l-0.25-1.171c-0.273-1.275-1.413-2.197-2.717-2.197zM8.813 5.809h25.155l-2.072 8.286c-0.442 1.767-2.017 3-3.839 3h-16.822zM12.632 25.516c-1.522 0-2.78 1.258-2.78 2.78s1.258 2.776 2.78 2.776 2.78-1.255 2.78-2.776c0-1.522-1.258-2.78-2.78-2.78zM30.316 25.516c-1.522 0-2.78 1.258-2.78 2.78s1.258 2.776 2.78 2.776 2.78-1.255 2.78-2.776c0-1.522-1.258-2.78-2.78-2.78zM12.632 27.704c0.338 0 0.589 0.254 0.589 0.592s-0.25 0.589-0.589 0.589-0.589-0.25-0.589-0.589c0-0.338 0.25-0.592 0.589-0.592zM30.316 27.704c0.338 0 0.589 0.254 0.589 0.592s-0.25 0.589-0.589 0.589-0.589-0.25-0.589-0.589c0-0.338 0.25-0.592 0.589-0.592z"></path>
</svg>
