<!-- Generated by IcoMoon.io -->
<svg version="1.1" xmlns="http://www.w3.org/2000/svg" width="32" height="32" viewBox="0 0 32 32">
<title>category-remove</title>
<path d="M6.105 8.24h22.629c0.155-0 0.304 0.060 0.416 0.167s0.178 0.254 0.184 0.409v16.147c-0.006 0.155-0.072 0.302-0.184 0.409s-0.261 0.168-0.416 0.167h-4.706c-0.155 0-0.304-0.060-0.416-0.167s-0.178-0.254-0.184-0.409v-0.877c0-0.404-0.16-0.791-0.446-1.077s-0.673-0.446-1.077-0.446c-0.404 0-0.791 0.16-1.077 0.446s-0.446 0.673-0.446 1.077v0.969c0 0.153-0.061 0.3-0.169 0.408s-0.255 0.169-0.408 0.169h-4.775c-0.155 0-0.304-0.060-0.416-0.167s-0.178-0.254-0.184-0.409v-0.877c-0.045-0.363-0.221-0.696-0.495-0.938s-0.627-0.375-0.992-0.375-0.718 0.134-0.992 0.375c-0.274 0.242-0.45 0.576-0.495 0.938v0.784c-0.006 0.155-0.072 0.302-0.184 0.409s-0.261 0.168-0.416 0.167h-4.752c-0.078 0.003-0.155-0.009-0.228-0.037s-0.139-0.070-0.195-0.123c-0.056-0.054-0.101-0.118-0.131-0.19s-0.046-0.148-0.046-0.226v-16.147c0-0.125 0.040-0.246 0.115-0.346 0.115-0.115 0.115-0.115 0.115-0.115 0.105-0.082 0.236-0.123 0.369-0.115zM24.79 24.249h3.114v-14.625h-20.969v14.625h3.091c0.065-0.729 0.4-1.408 0.94-1.902s1.246-0.768 1.978-0.768c0.732 0 1.437 0.274 1.978 0.768s0.876 1.173 0.941 1.902h3.091v-0.161c0.065-0.729 0.4-1.408 0.94-1.902s1.246-0.768 1.978-0.768 1.437 0.274 1.978 0.768c0.54 0.494 0.876 1.173 0.941 1.902v0.161z"></path>
<path d="M3.359 22.635c-0.184 0-0.36-0.073-0.489-0.203s-0.203-0.306-0.203-0.489v-15.917c-0.003-0.092 0.012-0.183 0.046-0.269s0.084-0.163 0.149-0.228c0.065-0.065 0.143-0.116 0.228-0.149s0.177-0.049 0.269-0.046h22.514c0.183 0 0.36 0.073 0.489 0.203s0.203 0.306 0.203 0.489c0 0.184-0.073 0.36-0.203 0.489s-0.306 0.203-0.489 0.203h-21.822v15.225c0 0.183-0.073 0.359-0.203 0.489s-0.306 0.203-0.489 0.203z"></path>
<path d="M20.037 18.159l-1.638-1.661 1.638-1.661c0.1-0.133 0.149-0.298 0.137-0.464s-0.083-0.323-0.201-0.44c-0.118-0.118-0.274-0.189-0.44-0.201s-0.331 0.037-0.464 0.137l-1.661 1.661-1.638-1.661c-0.065-0.066-0.142-0.119-0.227-0.155s-0.177-0.055-0.269-0.055c-0.092 0-0.184 0.019-0.269 0.055s-0.162 0.089-0.227 0.155c-0.066 0.063-0.118 0.138-0.153 0.221s-0.054 0.173-0.054 0.263c0 0.091 0.018 0.18 0.054 0.264s0.088 0.158 0.153 0.221l1.73 1.661-1.661 1.661c-0.066 0.062-0.118 0.138-0.153 0.221s-0.054 0.173-0.054 0.263c0 0.091 0.018 0.18 0.054 0.263s0.088 0.158 0.153 0.221c0.065 0.066 0.142 0.119 0.227 0.155s0.177 0.055 0.269 0.055c0.093 0 0.184-0.019 0.269-0.055s0.162-0.089 0.227-0.155l1.638-1.661 1.592 1.707c0.133 0.1 0.298 0.149 0.464 0.137s0.323-0.083 0.44-0.201 0.189-0.274 0.201-0.44c0.012-0.166-0.037-0.331-0.137-0.464v-0.046z"></path>
</svg>
