<!-- Generated by IcoMoon.io -->
<svg version="1.1" xmlns="http://www.w3.org/2000/svg" width="32" height="32" viewBox="0 0 32 32">
<title>celebrate-outline</title>
<path d="M2.202 30.527c-0.195-0.015-0.367-0.103-0.491-0.237l-0-0c-0.143-0.139-0.233-0.333-0.233-0.547 0-0.105 0.021-0.206 0.060-0.297l-0.002 0.005 7.366-18.661c0.124-0.297 0.412-0.501 0.747-0.501 0.072 0 0.142 0.009 0.209 0.027l-0.006-0.001c5.644 1.871 9.988 6.268 11.751 11.815l0.035 0.129c0.024 0.072 0.038 0.155 0.038 0.241 0 0.337-0.211 0.625-0.507 0.739l-0.005 0.002-18.677 7.24c-0.085 0.030-0.183 0.047-0.285 0.048h-0zM10.107 12.071l-6.495 16.269 16.269-6.337c-1.716-4.581-5.23-8.146-9.66-9.893l-0.114-0.040z"></path>
<path d="M28.99 24.428c-0.002 0-0.005 0-0.008 0-0.197 0-0.377-0.072-0.516-0.191l0.001 0.001c-0.934-0.68-2.104-1.087-3.37-1.087-0.491 0-0.968 0.061-1.423 0.177l0.040-0.009c-0.060 0.016-0.128 0.025-0.199 0.025-0.368 0-0.677-0.251-0.766-0.59l-0.001-0.006c-0.019-0.064-0.030-0.138-0.030-0.214 0-0.361 0.246-0.664 0.579-0.751l0.005-0.001c0.544-0.145 1.169-0.228 1.813-0.228 1.665 0 3.2 0.556 4.43 1.493l-0.018-0.013c0.141 0.145 0.228 0.344 0.228 0.562s-0.087 0.417-0.228 0.563l0-0c-0.133 0.152-0.323 0.253-0.536 0.269l-0.003 0z"></path>
<path d="M31.208 16.269c-0.127-0.002-0.246-0.031-0.354-0.081l0.005 0.002c-1.587-0.776-3.453-1.23-5.426-1.23s-3.839 0.454-5.5 1.263l0.075-0.033c-0.108 0.061-0.237 0.097-0.375 0.097-0.296 0-0.553-0.166-0.684-0.409l-0.002-0.004c-0.065-0.111-0.104-0.245-0.104-0.387 0-0.299 0.169-0.558 0.416-0.688l0.004-0.002c1.795-0.893 3.91-1.416 6.147-1.416s4.351 0.523 6.229 1.452l-0.082-0.037c0.259 0.134 0.433 0.4 0.433 0.706 0 0.13-0.031 0.252-0.086 0.36l0.002-0.004c-0.129 0.247-0.383 0.412-0.676 0.412-0.007 0-0.015-0-0.022-0l0.001 0z"></path>
<path d="M9.711 9.315h-0.206c-0.338-0.096-0.581-0.401-0.581-0.763 0-0.072 0.010-0.142 0.028-0.208l-0.001 0.006c0.104-0.411 0.163-0.883 0.163-1.37 0-1.269-0.405-2.443-1.094-3.4l0.012 0.017c-0.144-0.141-0.233-0.337-0.233-0.554s0.089-0.413 0.233-0.554l0-0c0.139-0.148 0.336-0.24 0.554-0.24s0.415 0.092 0.554 0.24l0 0c0.924 1.21 1.481 2.745 1.481 4.409 0 0.646-0.084 1.272-0.241 1.868l0.011-0.051c-0.079 0.322-0.347 0.563-0.678 0.602l-0.004 0z"></path>
<path d="M16.776 13.18c-0.139-0.001-0.27-0.036-0.385-0.097l0.005 0.002c-0.246-0.142-0.409-0.403-0.409-0.703 0-0.137 0.034-0.266 0.094-0.379l-0.002 0.004c0.763-1.592 1.209-3.461 1.209-5.434s-0.446-3.842-1.242-5.511l0.033 0.077c-0.051-0.102-0.081-0.222-0.081-0.349 0-0.311 0.18-0.581 0.441-0.71l0.005-0.002c0.1-0.048 0.218-0.076 0.342-0.076 0.312 0 0.583 0.177 0.717 0.436l0.002 0.004c0.884 1.802 1.401 3.922 1.401 6.162s-0.517 4.36-1.438 6.247l0.037-0.084c-0.145 0.248-0.41 0.412-0.713 0.412-0.005 0-0.011-0-0.016-0h0.001z"></path>
<path d="M13.766 9.853c-0.005 0-0.010 0-0.016 0-1.347 0-2.44-1.092-2.44-2.44s1.092-2.44 2.44-2.44c1.347 0 2.44 1.092 2.44 2.44v0c0 0 0 0 0 0 0 1.342-1.083 2.431-2.423 2.44h-0.001zM13.766 6.527c-0.005-0-0.010-0-0.016-0-0.472 0-0.855 0.383-0.855 0.855s0.383 0.855 0.855 0.855c0.472 0 0.855-0.383 0.855-0.855 0-0.006-0-0.011-0-0.017v0.001c0-0.464-0.376-0.84-0.84-0.84v0z"></path>
<path d="M21.861 12.578c-1.339 0-2.424-1.085-2.424-2.424s1.085-2.424 2.424-2.424c1.339 0 2.424 1.085 2.424 2.424v0c-0.009 1.335-1.089 2.415-2.423 2.424h-0.001zM21.861 9.315c-0.464 0-0.84 0.376-0.84 0.84s0.376 0.84 0.84 0.84c0.464 0 0.84-0.376 0.84-0.84v0c0-0.464-0.376-0.84-0.84-0.84v0z"></path>
<path d="M24.333 20.42c-1.339 0-2.424-1.085-2.424-2.424s1.085-2.424 2.424-2.424c1.339 0 2.424 1.085 2.424 2.424v0c0 1.339-1.085 2.424-2.424 2.424v0zM24.333 17.156c-0.464 0-0.84 0.376-0.84 0.84v0c0 0.464 0.376 0.84 0.84 0.84s0.84-0.376 0.84-0.84v0c0-0.464-0.376-0.84-0.84-0.84v0z"></path>
<path d="M3.976 12.436c-0.020 0.001-0.043 0.002-0.067 0.002-0.23 0-0.443-0.072-0.618-0.194l0.003 0.002c-0.204-0.13-0.358-0.321-0.441-0.547l-0.002-0.008-0.491-1.141h-1.204c-0.037 0.005-0.080 0.008-0.123 0.008-0.195 0-0.377-0.056-0.531-0.153l0.004 0.002c-0.164-0.123-0.293-0.283-0.377-0.468l-0.003-0.008c-0.037-0.109-0.059-0.234-0.059-0.364s0.022-0.256 0.061-0.373l-0.002 0.008c0.065-0.241 0.205-0.443 0.393-0.584l0.003-0.002 0.84-0.713-0.491-1.141c-0.031-0.1-0.050-0.214-0.050-0.333s0.018-0.233 0.052-0.341l-0.002 0.008c0.046-0.256 0.178-0.475 0.363-0.632l0.002-0.001c0.126-0.129 0.288-0.224 0.469-0.268l0.007-0.001c0.031-0.004 0.068-0.006 0.105-0.006 0.226 0 0.433 0.080 0.594 0.213l-0.002-0.001 1.014 0.634 0.871-0.745c0.16-0.138 0.359-0.234 0.58-0.268l0.007-0.001c0.042-0.006 0.090-0.009 0.139-0.009 0.201 0 0.388 0.056 0.547 0.154l-0.005-0.003-0.428 0.76 0.475-0.745c0.203 0.125 0.358 0.311 0.441 0.531l0.002 0.007c0.081 0.154 0.129 0.337 0.129 0.53 0 0.099-0.012 0.194-0.035 0.285l0.002-0.008-0.238 1.141 1.077 0.681c0.197 0.118 0.351 0.292 0.441 0.5l0.003 0.007c0.037 0.106 0.059 0.229 0.059 0.356s-0.022 0.25-0.061 0.364l0.002-0.008c-0.060 0.236-0.189 0.437-0.363 0.585l-0.002 0.001c-0.171 0.109-0.379 0.173-0.602 0.174h-1.141l-0.253 1.141c-0.048 0.231-0.16 0.431-0.317 0.586l-0 0c-0.169 0.171-0.394 0.286-0.644 0.316l-0.005 0.001zM4.372 11.089v0zM1.457 9.838v0zM3.438 8.919l0.364 0.855 0.19-0.903h0.919l-0.792-0.491 0.206-0.95-0.729 0.618-0.745-0.475 0.349 0.824-0.713 0.618zM6.131 9.6v0zM1.109 9.030v0zM6.368 8.745v0zM1.616 6.717v0zM5.402 6.527v0zM2.234 6.131v0s0-0.032 0-0.048zM4.61 6.131v0z"></path>
<path d="M25.046 8.554c-0.006 0-0.014 0-0.021 0-0.204 0-0.393-0.059-0.553-0.161l0.004 0.002c-0.219-0.135-0.386-0.338-0.473-0.578l-0.002-0.008c-0.038-0.106-0.060-0.229-0.060-0.356s0.022-0.25 0.062-0.364l-0.002 0.008 0.317-1.204-1.014-0.697c-0.188-0.123-0.336-0.296-0.425-0.5l-0.003-0.007c-0.034-0.107-0.053-0.229-0.053-0.356s0.019-0.25 0.056-0.365l-0.002 0.009c0.061-0.252 0.202-0.465 0.394-0.616l0.002-0.002c0.167-0.119 0.376-0.19 0.601-0.19 0.006 0 0.012 0 0.017 0h1.076l0.317-1.204c0.055-0.23 0.178-0.425 0.347-0.569l0.002-0.001c0.177-0.161 0.407-0.266 0.662-0.285l0.004-0c0.009-0 0.021-0 0.032-0 0.261 0 0.503 0.083 0.701 0.225l-0.004-0.002c0.2 0.144 0.347 0.353 0.41 0.595l0.002 0.007 0.396 1.109h1.156c0.027-0.002 0.059-0.004 0.091-0.004 0.2 0 0.387 0.054 0.547 0.149l-0.005-0.003c0.203 0.123 0.362 0.302 0.457 0.515l0.003 0.007-0.681 0.301 0.824-0.364c0.038 0.106 0.060 0.229 0.060 0.356s-0.022 0.25-0.062 0.364l0.002-0.008c-0.070 0.243-0.215 0.445-0.409 0.584l-0.003 0.002-0.887 0.745 0.428 1.22c0.036 0.099 0.056 0.213 0.056 0.333s-0.021 0.234-0.058 0.34l0.002-0.007c-0.070 0.249-0.209 0.459-0.394 0.616l-0.002 0.002c-0.174 0.122-0.385 0.202-0.613 0.221l-0.005 0c-0.288-0.007-0.549-0.12-0.745-0.302l0.001 0.001-0.935-0.634-0.871 0.745c-0.168 0.143-0.38 0.24-0.612 0.269l-0.006 0.001zM25.521 7.525v0zM27.818 7.43v0zM24.776 7.065v0zM28.499 6.891v0zM25.331 4.673l0.792 0.554-0.238 0.903 0.697-0.586 0.745 0.523-0.269-0.887 0.729-0.602h-0.935l-0.301-0.84-0.238 0.871zM23.984 4.673v0zM29.101 4.452v0zM24.158 3.802v0zM28.8 3.628v0zM25.996 2.281v0zM26.899 2.17v0c-0 0.009-0.001 0.021-0.001 0.032s0 0.022 0.001 0.033l-0-0.002z"></path>
<path d="M22.305 32c-0.006 0-0.013 0-0.020 0-0.177 0-0.345-0.041-0.494-0.114l0.007 0.003c-0.222-0.123-0.397-0.308-0.504-0.531l-0.003-0.007c-0.034-0.109-0.053-0.234-0.053-0.364s0.019-0.255 0.055-0.373l-0.002 0.009 0.206-1.204-1.061-0.618c-0.195-0.114-0.351-0.276-0.456-0.469l-0.003-0.006c-0.074-0.143-0.117-0.313-0.117-0.493 0-0.078 0.008-0.154 0.024-0.227l-0.001 0.007c0.047-0.256 0.178-0.475 0.363-0.632l0.002-0.001c0.184-0.154 0.42-0.253 0.678-0.269l0.003-0 1.061-0.143 0.206-1.22c0.044-0.24 0.15-0.45 0.302-0.619l-0.001 0.001c0.158-0.17 0.372-0.285 0.613-0.316l0.005-0.001c0.059-0.012 0.126-0.018 0.195-0.018 0.217 0 0.418 0.066 0.585 0.179l-0.004-0.002c0.207 0.132 0.366 0.322 0.457 0.547l0.003 0.008 0.491 1.077 1.125-0.158c0.046-0.007 0.098-0.011 0.152-0.011 0.182 0 0.353 0.045 0.503 0.125l-0.006-0.003c0.219 0.099 0.394 0.264 0.504 0.47l0.003 0.006-0.539 0.301 0.475-0.285c0.074 0.148 0.117 0.322 0.117 0.506 0 0.079-0.008 0.156-0.023 0.23l0.001-0.007c-0.059 0.255-0.194 0.472-0.379 0.632l-0.001 0.001-0.824 0.808 0.539 1.172c0.070 0.142 0.11 0.309 0.11 0.486 0 0.32-0.133 0.608-0.347 0.813l-0 0c-0.157 0.146-0.357 0.248-0.58 0.284l-0.007 0.001c-0.051 0.008-0.111 0.013-0.171 0.013-0.224 0-0.433-0.064-0.61-0.174l0.005 0.003-0.998-0.57-0.808 0.824c-0.159 0.16-0.365 0.272-0.595 0.316l-0.007 0.001zM22.78 30.923v0zM25.061 30.638v0zM22.004 30.527v0zM25.711 30.052v0zM22.305 28.103l0.824 0.491-0.143 0.919 0.634-0.649 0.792 0.459-0.38-0.84 0.681-0.681-0.951 0.111-0.317-0.792-0.158 0.887zM20.974 28.277v0zM26.123 27.612v0zM21.085 27.406v0zM25.679 26.836v0zM22.764 25.727v0zM23.651 25.552v0z"></path>
</svg>
