<!-- Generated by IcoMoon.io -->
<svg version="1.1" xmlns="http://www.w3.org/2000/svg" width="32" height="32" viewBox="0 0 32 32">
<title>chain</title>
<path d="M19.279 13.018l-0.936-0.936c-2.068-2.069-5.432-2.070-7.498-0.002l-6.093 6.093c-2.068 2.068-2.068 5.431 0 7.498l0.937 0.936c1.002 1.003 2.333 1.555 3.75 1.555s2.746-0.554 3.747-1.555l2.88-2.876c0.519-0.519 0.519-1.357 0-1.874-0.517-0.519-1.356-0.519-1.874 0l-2.881 2.876c-1.001 1.003-2.745 1.003-3.749 0l-0.937-0.936c-1.032-1.034-1.032-2.716 0-3.749l6.093-6.092c1.002-1.003 2.748-1.003 3.749 0l0.937 0.936c0.519 0.519 1.356 0.519 1.874 0 0.519-0.517 0.519-1.357 0-1.874h0.001zM27.248 5.050l-0.937-0.936c-1.002-1.002-2.333-1.553-3.75-1.553s-2.746 0.554-3.747 1.553l-2.636 2.631c-0.517 0.519-0.517 1.357 0 1.873 0.519 0.519 1.357 0.519 1.876 0l2.635-2.63c1.001-1.002 2.746-1.003 3.749 0l0.937 0.936c1.032 1.034 1.032 2.716 0 3.75l-6.093 6.092c-1.003 1.002-2.748 1.002-3.749 0-0.517-0.519-1.356-0.519-1.874 0s-0.52 1.356-0.002 1.873c2.068 2.070 5.432 2.070 7.498 0.002l6.093-6.093c2.068-2.066 2.068-5.431 0-7.498l-0.001-0.001z"></path>
</svg>
