<!-- Generated by IcoMoon.io -->
<svg version="1.1" xmlns="http://www.w3.org/2000/svg" width="32" height="32" viewBox="0 0 32 32">
<title>checkin</title>
<path d="M16 4c-7.354 0-13.334 4.93-13.334 10.981 0 2.859 1.307 5.541 3.694 7.59l-2.678 5.347c-0.037 0.073-0.059 0.158-0.059 0.249 0 0.307 0.25 0.557 0.557 0.557 0.084 0 0.164-0.019 0.235-0.051l-0.003 0.002 7.169-3.331c1.315 0.394 2.826 0.62 4.39 0.62 0.010 0 0.020 0 0.030 0h-0.002c7.35 0 13.334-4.925 13.334-10.964s-5.984-10.998-13.334-10.998l0.001-0.001zM16.241 21.989c-0.051 0.079-0.138 0.131-0.238 0.131s-0.187-0.051-0.238-0.13l-0.001-0.001c-0.181-0.27-4.356-6.621-4.356-9.058-0.002-0.041-0.002-0.090-0.002-0.139 0-2.539 2.058-4.596 4.596-4.596s4.596 2.058 4.596 4.596c0 0.049-0.001 0.098-0.003 0.146v-0.007c0 2.437-4.175 8.788-4.356 9.058zM16 14.939c-0.001 0-0.003 0-0.004 0-1.111 0-2.011-0.901-2.011-2.011s0.901-2.011 2.011-2.011c1.111 0 2.011 0.901 2.011 2.011 0 0.002 0 0.003 0 0.004-0.003 1.107-0.9 2.005-2.007 2.007z"></path>
</svg>
