<!-- Generated by IcoMoon.io -->
<svg version="1.1" xmlns="http://www.w3.org/2000/svg" width="32" height="32" viewBox="0 0 32 32">
<title>checkins</title>
<path d="M8.086 6.172l-4.714 2.053 9.298 4.462 4.253-1.749-8.837-4.766zM2.667 20.123c-0.001 0.009-0.001 0.020-0.001 0.031 0 0.179 0.106 0.333 0.259 0.404l0.003 0.001 9.306 4.2v-11.306l-9.567-4.592-0.001 11.263zM5.277 12.73c0-0.003 0-0.007 0-0.011 0-0.235 0.191-0.426 0.426-0.426 0.070 0 0.136 0.017 0.194 0.047l-0.002-0.001 4.349 2.174c0.149 0.070 0.251 0.219 0.252 0.391v4.349c-0.005 0.242-0.201 0.436-0.443 0.436-0.063 0-0.122-0.013-0.177-0.037l0.003 0.001-4.349-2.174c-0.151-0.073-0.252-0.225-0.252-0.4l-0.001-4.349zM22.836 8.225l-9.558-4.192c-0.051-0.021-0.112-0.033-0.174-0.033s-0.122 0.012-0.177 0.034l0.003-0.002-3.827 1.739 8.802 4.714 4.931-2.261zM22.671 16.139c-3.679 0-6.671 2.461-6.671 5.488 0.028 1.53 0.741 2.888 1.843 3.784l0.009 0.007-1.34 2.67c-0.021 0.038-0.033 0.083-0.033 0.131 0 0.154 0.125 0.278 0.278 0.278 0.044 0 0.085-0.010 0.122-0.028l-0.002 0.001 3.574-1.67c0.657 0.199 1.411 0.313 2.192 0.313 0.009 0 0.018 0 0.027 0h-0.001c3.671 0 6.662-2.461 6.662-5.488s-2.992-5.488-6.662-5.488v0.001zM15.478 21.627c0-3.314 3.226-6.010 7.193-6.010 0.296 0 0.583 0 0.87 0v-6.758l-10.437 4.583v11.306l2.775-1.157c-0.25-0.58-0.397-1.255-0.4-1.964l-0.001-0.001z"></path>
</svg>
