<!-- Generated by IcoMoon.io -->
<svg version="1.1" xmlns="http://www.w3.org/2000/svg" width="32" height="32" viewBox="0 0 32 32">
<title>chevron-down-lrg</title>
<path d="M15.585 27.094l-12.753-12.613c-0.101-0.099-0.164-0.238-0.166-0.391v-9.527c0-0.23 0.141-0.426 0.341-0.508l0.003-0.002c0.063-0.026 0.135-0.042 0.212-0.042 0.153 0 0.291 0.061 0.392 0.161l12.396 12.319 12.392-12.328c0.099-0.101 0.235-0.164 0.388-0.164 0.078 0 0.152 0.017 0.219 0.047l-0.003-0.002c0.195 0.088 0.327 0.281 0.327 0.505 0 0.005 0 0.009 0 0.014v-0.001 9.514c-0.003 0.155-0.065 0.293-0.166 0.395l-12.787 12.621c-0.1 0.105-0.241 0.171-0.397 0.171s-0.298-0.065-0.397-0.17l-0.001-0.001z"></path>
</svg>
