<!-- Generated by IcoMoon.io -->
<svg version="1.1" xmlns="http://www.w3.org/2000/svg" width="32" height="32" viewBox="0 0 32 32">
<title>chevron-right-lrg</title>
<path d="M27.083 15.583l-12.615-12.755c-0.102-0.099-0.241-0.161-0.395-0.162h-9.515c-0.002 0-0.003 0-0.005 0-0.305 0-0.553 0.247-0.553 0.553 0 0.153 0.062 0.291 0.162 0.391l12.334 12.398-12.326 12.377c-0.099 0.1-0.161 0.239-0.161 0.391 0 0.307 0.249 0.556 0.556 0.557h9.515c0.001 0 0.002 0 0.003 0 0.154 0 0.293-0.064 0.393-0.166l12.606-12.789c0.104-0.1 0.168-0.241 0.168-0.397s-0.065-0.297-0.168-0.397v-0.001z"></path>
</svg>
