<!-- Generated by IcoMoon.io -->
<svg version="1.1" xmlns="http://www.w3.org/2000/svg" width="32" height="32" viewBox="0 0 32 32">
<title>chevron-up-lrg</title>
<path d="M16.415 4.182l12.753 12.613c0.101 0.1 0.164 0.238 0.166 0.391v9.506c0 0.229-0.141 0.426-0.341 0.507l-0.003 0.002c-0.073 0.037-0.159 0.060-0.251 0.060-0.145 0-0.275-0.055-0.375-0.145h0.001l-12.375-12.353-12.392 12.328c-0.099 0.101-0.236 0.164-0.388 0.164-0.078 0-0.152-0.017-0.219-0.047l0.003 0.002c-0.195-0.089-0.327-0.281-0.327-0.505 0-0.005 0-0.010 0-0.014v0.001-9.514c0.003-0.155 0.065-0.293 0.166-0.395l12.787-12.621c0.1-0.099 0.236-0.16 0.388-0.16 0.162 0 0.307 0.070 0.407 0.181v0.001z"></path>
</svg>
