<!-- Generated by IcoMoon.io -->
<svg version="1.1" xmlns="http://www.w3.org/2000/svg" width="32" height="32" viewBox="0 0 32 32">
<title>chevron-left-lrg</title>
<path d="M4.713 15.575l12.607-12.747c0.101-0.099 0.24-0.161 0.393-0.161 0.001 0 0.001 0 0.002 0h9.509c0.002 0 0.003 0 0.005 0 0.305 0 0.552 0.247 0.552 0.552 0 0.153-0.062 0.291-0.162 0.391l-12.326 12.39 12.322 12.386c0.099 0.1 0.161 0.239 0.161 0.391 0 0.307-0.249 0.556-0.556 0.557h-9.513c-0.001 0-0.002 0-0.003 0-0.154 0-0.293-0.064-0.393-0.166l-12.598-12.798c-0.104-0.1-0.168-0.241-0.168-0.397s0.065-0.297 0.168-0.397v-0.001z"></path>
</svg>
