<!-- Generated by IcoMoon.io -->
<svg version="1.1" xmlns="http://www.w3.org/2000/svg" width="63" height="32" viewBox="0 0 63 32">
<title>close-to-milestone-fill</title>
<path d="M62.325 1.399c-0.944 0.224-2.028 0.352-3.142 0.352-1.7 0-3.33-0.299-4.841-0.846l0.099 0.031c-1.477-0.595-3.19-0.941-4.984-0.941-1.313 0-2.583 0.185-3.786 0.531l0.096-0.024-0.434 0.148v10.299l0.808-0.266c0.985-0.282 2.117-0.445 3.287-0.445 1.63 0 3.186 0.315 4.611 0.888l-0.083-0.030c1.523 0.681 3.299 1.085 5.167 1.104l0.007 0c0.060 0.001 0.131 0.002 0.202 0.002 1.211 0 2.368-0.232 3.428-0.655l-0.063 0.022 0.365-0.168v-10.21z"></path>
<path d="M28.58 22.224l-3.942 4.287-1.636-1.36c-0.107-0.086-0.244-0.138-0.394-0.138-0.349 0-0.631 0.283-0.631 0.631 0 0.199 0.092 0.376 0.236 0.492l0.001 0.001 1.912 1.587c0.147 0.12 0.336 0.193 0.541 0.197h0.001c0.254-0.002 0.481-0.112 0.64-0.285l0.001-0.001 4.129-4.553c0.11-0.113 0.177-0.268 0.177-0.439s-0.068-0.325-0.178-0.439l0 0c-0.11-0.101-0.257-0.162-0.418-0.162-0.171 0-0.327 0.070-0.439 0.182v0z"></path>
<path d="M45.334 17.986h-0.148v1.242h0.108c2.76 0.488 4.829 2.867 4.829 5.73 0 3.211-2.603 5.815-5.815 5.815s-5.815-2.603-5.815-5.815c0-2.863 2.069-5.243 4.794-5.725l0.035-0.005h0.099v-1.261h-0.138c-3.215 0.492-5.697 3.088-6.009 6.318l-0.002 0.029h-4.425c-0.313-3.625-3.333-6.448-7.012-6.448s-6.699 2.824-7.010 6.422l-0.002 0.026h-4.77c-0.327-3.623-3.349-6.44-7.029-6.44-3.897 0-7.056 3.159-7.056 7.056s3.159 7.056 7.056 7.056c3.68 0 6.703-2.817 7.027-6.413l0.002-0.027h4.77c0.313 3.625 3.333 6.448 7.012 6.448s6.699-2.824 7.010-6.422l0.002-0.026h4.425c0.314 3.63 3.338 6.457 7.022 6.457 3.892 0 7.047-3.155 7.047-7.047 0-3.525-2.588-6.445-5.967-6.964l-0.039-0.005zM10.841 23.042l-4.11 4.553c-0.156 0.17-0.378 0.276-0.626 0.276-0.002 0-0.003 0-0.005 0h0c-0.208-0.006-0.399-0.075-0.555-0.189l0.003 0.002-1.902-1.577c-0.137-0.113-0.224-0.283-0.224-0.472 0-0.151 0.055-0.289 0.145-0.396l-0.001 0.001c0.115-0.138 0.286-0.225 0.479-0.225 0.148 0 0.283 0.052 0.39 0.138l-0.001-0.001 1.626 1.36 3.893-4.297c0.112-0.109 0.265-0.177 0.434-0.177s0.322 0.067 0.434 0.177l-0-0c0.106 0.11 0.172 0.26 0.172 0.425 0 0.155-0.058 0.296-0.152 0.404l0.001-0.001zM25.801 30.768c-3.211 0-5.815-2.603-5.815-5.815s2.603-5.815 5.815-5.815c3.211 0 5.815 2.603 5.815 5.815v0c-0.006 3.199-2.589 5.792-5.783 5.815h-0.002z"></path>
<path d="M43.649 0h1.281v25.18h-1.281v-25.18z"></path>
</svg>
