<!-- Generated by IcoMoon.io -->
<svg version="1.1" xmlns="http://www.w3.org/2000/svg" width="32" height="32" viewBox="0 0 32 32">
<title>connect</title>
<path d="M22.555 12.245c0.933-5.4-4.122-9.578-9.889-9.578-5.556 0-10 3.7-10 8.255 0.010 2.291 1.019 4.344 2.614 5.748l0.008 0.007-1.989 3.489c-0.045 0.078-0.071 0.172-0.071 0.273 0 0.307 0.249 0.556 0.556 0.556 0.073 0 0.144-0.015 0.208-0.041l-0.004 0.002 5.345-2.144c0.568 0.193 1.222 0.305 1.903 0.305 0.156 0 0.309-0.006 0.462-0.017l-0.020 0.002c0.845-4.211 5.544-7.677 10.878-6.856v-0.001zM21 13.222c-4.522 0-8.334 3.333-8.334 7.222 0 5.145 5.911 8.889 11.111 6.667l4.233 1.589c0.060 0.025 0.131 0.038 0.204 0.038 0.307 0 0.556-0.249 0.556-0.556 0-0.091-0.022-0.177-0.061-0.253l0.002 0.003-1.478-2.944c1.28-1.107 2.089-2.73 2.1-4.542v-0.002c0-3.911-3.811-7.222-8.333-7.222z"></path>
</svg>
