<!-- Generated by IcoMoon.io -->
<svg version="1.1" xmlns="http://www.w3.org/2000/svg" width="32" height="32" viewBox="0 0 32 32">
<title>contact-outline</title>
<path d="M4 15.072c0-5.27 5.216-9.738 12.063-9.738s12.063 4.469 12.063 9.738c0 5.27-5.216 9.738-12.063 9.738-1.491 0-2.968-0.213-4.217-0.63-0.162-0.054-0.339-0.044-0.494 0.029l-5.567 2.615 2.019-4.038c0.14-0.28 0.066-0.619-0.177-0.816-2.207-1.787-3.627-4.267-3.627-6.898zM16.063 4c-7.322 0-13.396 4.829-13.396 11.072 0 2.946 1.493 5.633 3.71 7.587l-2.644 5.287c-0.127 0.254-0.079 0.561 0.119 0.764s0.504 0.259 0.761 0.138l7.069-3.32c1.346 0.414 2.87 0.616 4.381 0.616 7.322 0 13.396-4.829 13.396-11.072s-6.074-11.072-13.396-11.072zM8.428 15.182c0-0.549 0.445-0.994 0.994-0.994s0.994 0.445 0.994 0.994c0 0.549-0.445 0.994-0.994 0.994s-0.994-0.445-0.994-0.994zM9.421 12.855c-1.285 0-2.327 1.042-2.327 2.327s1.042 2.327 2.327 2.327c1.285 0 2.327-1.042 2.327-2.327s-1.042-2.327-2.327-2.327zM16.063 14.189c-0.549 0-0.994 0.445-0.994 0.994s0.445 0.994 0.994 0.994c0.549 0 0.994-0.445 0.994-0.994s-0.445-0.994-0.994-0.994zM13.736 15.182c0-1.285 1.042-2.327 2.327-2.327s2.327 1.042 2.327 2.327c0 1.285-1.042 2.327-2.327 2.327s-2.327-1.042-2.327-2.327zM21.711 15.182c0-0.549 0.445-0.994 0.994-0.994s0.994 0.445 0.994 0.994c0 0.549-0.445 0.994-0.994 0.994s-0.994-0.445-0.994-0.994zM22.704 12.855c-1.285 0-2.327 1.042-2.327 2.327s1.042 2.327 2.327 2.327c1.285 0 2.327-1.042 2.327-2.327s-1.042-2.327-2.327-2.327z"></path>
</svg>
