<!-- Generated by IcoMoon.io -->
<svg version="1.1" xmlns="http://www.w3.org/2000/svg" width="32" height="32" viewBox="0 0 32 32">
<title>content-outline</title>
<path d="M22.4 15.467h-12.8c-0.667 0-1.2 0.533-1.2 1.2v7.333c0 0.667 0.533 1.2 1.2 1.2h2.533l3.067 2.4v-2.267h7.2c0.667 0 1.2-0.533 1.2-1.2v-7.333c0-0.8-0.533-1.333-1.2-1.333zM22.267 24h-8.4v0.933l-1.333-0.933h-2.8v-7.2h12.533v7.2z"></path>
<path d="M10.933 23.867v0h10.8c0.133 0 0.267-0.133 0.267-0.267s-0.133-0.267-0.267-0.267v0h-1.733l-1.733-4.667c0-0.133-0.133-0.133-0.267-0.267-0.133 0-0.267 0-0.267 0.133v0l-1.333 3.067-1.2-1.467c0-0.133-0.133-0.133-0.267-0.133s-0.133 0-0.267 0.133v0l-1.733 2.933h-2c-0.133 0-0.267 0.133-0.267 0.267 0 0.267 0.133 0.4 0.267 0.533z"></path>
<path d="M13.733 20c0.8 0 1.467-0.667 1.467-1.467s-0.667-1.467-1.467-1.467c-0.8 0-1.467 0.667-1.467 1.467-0.133 0.8 0.667 1.467 1.467 1.467z"></path>
<path d="M16 13.333v-6.533c0-0.667-0.533-1.2-1.2-1.2h-13.6c-0.667-0.133-1.2 0.533-1.2 1.2v6.533c0 0.667 0.533 1.333 1.2 1.333h2.533l3.067 2.4v-2.4h8c0.667 0 1.2-0.667 1.2-1.333zM14.667 13.333h-9.2v0.933l-1.333-0.933h-2.8v-6.533h13.333v6.533z"></path>
<path d="M32 5.067c-0.133-0.533-0.667-1.067-1.2-1.067h-12.133c-0.667 0.133-1.067 0.667-1.067 1.2v7.467c0.133 0.667 0.533 1.067 1.2 1.067h6.933v2.4l3.067-2.4h2.133c0.667-0.133 1.067-0.667 1.067-1.2v-7.467zM28.4 12.533l-1.333 0.933v-0.933h-1.333l-6.933 0.133v-7.333l11.867-0.133 0.133 7.2h-2.4z"></path>
<path d="M3.067 10.8h9.867v0.8h-9.867v-0.8z"></path>
<path d="M3.067 8.533h5.333v0.8h-5.333v-0.8z"></path>
<path d="M9.2 8.533h1.467v0.8h-1.467v-0.8z"></path>
<path d="M27.2 7.467v0l-1.333 0.8v-1.067c0-0.133-0.133-0.133-0.133-0.133h-3.467c-0.133 0-0.133 0-0.133 0.133v0 3.467c0 0.133 0 0.133 0.133 0.133v0h3.467c0.133 0 0.133 0 0.133-0.133v0-0.933l1.2 0.8c0.133 0.133 0.267 0 0.267-0.133v0-2.667c0.133-0.267 0-0.267-0.133-0.267z"></path>
</svg>
