<!-- Generated by IcoMoon.io -->
<svg version="1.1" xmlns="http://www.w3.org/2000/svg" width="32" height="32" viewBox="0 0 32 32">
<title>contact-import</title>
<path d="M22.225 23.502l0.283 1.329c0.254 1.197-0.491 2.377-1.668 2.668l-0.076 0.017-7.975 1.695c-1.196 0.254-2.376-0.49-2.668-1.668l-0.018-0.076-0.283-1.329 12.405-2.637zM16.117 25.263c-0.488 0.104-0.802 0.585-0.698 1.074s0.586 0.802 1.074 0.698c0.488-0.104 0.802-0.585 0.697-1.074s-0.586-0.802-1.074-0.697zM15.284 11.517c0.057 0.087 0.122 0.168 0.195 0.242 0.285 0.287 0.673 0.448 1.077 0.448h1.787l0.138-0.011 0.051-0.008 0.078-0.015 0.078-0.019c0.102-0.027 0.202-0.066 0.296-0.114l0.066-0.037 0.067 0.037 0.081 0.038c0.191 0.084 0.398 0.128 0.611 0.128h0.015l2.3 10.821-12.404 2.637-2.637-12.404 8.203-1.742zM13.304 7.824v1.178l0.009 0.127 0.007 0.047 0.012 0.069c0.027 0.14 0.073 0.273 0.136 0.395l-2.858 0.607c-0.244 0.052-0.401 0.293-0.349 0.537 0.049 0.23 0.265 0.383 0.494 0.356l0.043-0.007 3.522-0.748c0.158 0.055 0.326 0.085 0.501 0.085h0.218v0.263l0.009 0.133 0.007 0.051 0.014 0.079c0.010 0.050 0.023 0.1 0.038 0.148l-8.11 1.723-0.282-1.329c-0.254-1.197 0.491-2.377 1.668-2.668l0.076-0.018 4.845-1.031z"></path>
<path d="M24.795 4.402c0.057 0 0.113 0.022 0.153 0.063s0.063 0.096 0.063 0.152v6.071c0.001 0.057-0.023 0.113-0.063 0.154s-0.096 0.064-0.153 0.064h-1.735c-0.12 0-0.218-0.098-0.218-0.217v-0.325c0.012-0.201-0.089-0.392-0.262-0.495s-0.387-0.104-0.56 0c-0.173 0.104-0.273 0.294-0.262 0.495v0.325c0.001 0.057-0.022 0.113-0.062 0.154s-0.096 0.064-0.153 0.064h-1.735c-0.057 0-0.113-0.023-0.153-0.064s-0.063-0.097-0.063-0.154v-0.325c0-0.3-0.243-0.543-0.542-0.543s-0.543 0.243-0.543 0.543v0.325c0.001 0.057-0.023 0.113-0.063 0.154s-0.096 0.064-0.153 0.064h-1.735c-0.058 0-0.113-0.023-0.153-0.064s-0.063-0.097-0.063-0.154v-6.071c0-0.119 0.097-0.216 0.216-0.216l8.238-0.001zM23.061 2.667c0.057 0 0.112 0.023 0.153 0.064s0.063 0.097 0.062 0.154v1.083h-7.154c-0.119 0-0.216 0.097-0.216 0.216v4.987h-1.085c-0.119 0-0.216-0.097-0.216-0.216v-6.071c-0.001-0.058 0.023-0.113 0.063-0.154s0.096-0.064 0.153-0.064h8.239zM19.42 5.959c-0.364-0.112-0.758 0.027-0.972 0.342s-0.196 0.733 0.043 1.030c-0.514 0.168-0.859 0.65-0.851 1.191v0.221h3.036l0.010-0.221c0.008-0.541-0.337-1.023-0.851-1.191 0.126-0.152 0.194-0.343 0.194-0.541 0.002-0.381-0.247-0.718-0.61-0.83l0.001-0.001zM23.711 7.87h-2.167v0.434h2.167v-0.434zM23.711 7.003h-2.167v0.434h2.167v-0.434zM22.627 6.142h-1.083v0.434h1.083v-0.434z"></path>
</svg>
