<!-- Generated by IcoMoon.io -->
<svg version="1.1" xmlns="http://www.w3.org/2000/svg" width="32" height="32" viewBox="0 0 32 32">
<title>content</title>
<path d="M29.333 7.197v6.128c0 0.572-0.459 1.037-1.026 1.037h-1.633l-2.564 1.957v-1.957h-5.816c-0.566 0-1.025-0.464-1.025-1.037v-6.128c0-0.572 0.459-1.037 1.025-1.037h10.012c0.566 0 1.026 0.464 1.026 1.037h0.001zM25.524 11.399v-2.223c0-0.125-0.138-0.201-0.243-0.135l-1.027 0.643v-0.825c0-0.088-0.071-0.158-0.159-0.158h-2.857c-0.088 0-0.158 0.071-0.158 0.158v2.857c0 0.088 0.071 0.158 0.158 0.158h2.857c0.088 0 0.159-0.071 0.159-0.158v-0.825l1.027 0.642c0.105 0.065 0.243-0.011 0.243-0.135zM2.667 8.467c0-0.572 0.459-1.037 1.026-1.037h11.282c0.566 0 1.025 0.463 1.025 1.037v5.494c0 0.573-0.459 1.037-1.025 1.037h-6.621v1.957l-2.564-1.957h-2.097c-0.566 0-1.026-0.464-1.026-1.037v-5.494zM5.207 9.97v0.635h4.444v-0.635h-4.444zM5.207 11.874v0.635h8.254v-0.635h-8.254zM10.285 9.97v0.635h1.27v-0.635h-1.27zM9.651 16.721c0-0.573 0.459-1.037 1.026-1.037h10.648c0.566 0 1.025 0.464 1.025 1.037v6.128c0 0.573-0.459 1.037-1.025 1.037h-5.982v1.957l-2.564-1.957h-2.102c-0.566 0-1.026-0.464-1.026-1.037v-6.128zM15.365 18.224c0-0.7-0.569-1.27-1.27-1.27s-1.27 0.569-1.27 1.27c0 0.7 0.569 1.269 1.27 1.269s1.27-0.569 1.27-1.269zM11.82 22.668h8.994c0.146 0 0.265-0.12 0.265-0.267s-0.119-0.267-0.265-0.267h-1.465l-1.487-3.743c-0.039-0.099-0.134-0.165-0.24-0.167-0.101 0.003-0.204 0.059-0.248 0.157l-1.15 2.546-1.055-1.274c-0.055-0.066-0.139-0.101-0.224-0.095s-0.163 0.055-0.207 0.129l-1.452 2.447h-1.468c-0.146 0-0.265 0.119-0.265 0.267s0.119 0.267 0.265 0.267l0.001-0.001z"></path>
</svg>
