<!-- Generated by IcoMoon.io -->
<svg version="1.1" xmlns="http://www.w3.org/2000/svg" width="32" height="32" viewBox="0 0 32 32">
<title>contacts-organizer</title>
<path d="M25.42 22.719c-0.26-3.747-3.384-6.72-7.197-6.72h-2.222v-6.723c1.573-0.266 2.777-1.627 2.777-3.277 0-1.837-1.494-3.333-3.333-3.333-1.837 0-3.333 1.496-3.333 3.333 0 1.649 1.204 3.011 2.777 3.277v6.723h-2.222c-3.812 0-6.936 2.972-7.196 6.72-1.586 0.256-2.803 1.623-2.803 3.28 0 1.837 1.496 3.333 3.333 3.333 1.839 0 3.333-1.496 3.333-3.333 0-1.639-1.191-2.997-2.752-3.274 0.254-3.137 2.886-5.614 6.086-5.614h2.222v5.612c-1.573 0.266-2.777 1.629-2.777 3.277 0 1.837 1.496 3.333 3.333 3.333 1.839 0 3.333-1.496 3.333-3.333 0-1.647-1.204-3.011-2.777-3.277v-5.612h2.222c3.201 0 5.832 2.477 6.087 5.614-1.561 0.277-2.753 1.636-2.753 3.274 0 1.837 1.496 3.333 3.333 3.333 1.839 0 3.333-1.496 3.333-3.333 0-1.657-1.217-3.024-2.802-3.28z"></path>
</svg>
