<!-- Generated by IcoMoon.io -->
<svg version="1.1" xmlns="http://www.w3.org/2000/svg" width="32" height="32" viewBox="0 0 32 32">
<title>content-ns</title>
<path d="M28.4 5.787l-9.256 0.007c-0.817 0.079-1.445 0.771-1.445 1.602v5.587l0.006 0.122 0.001 0.016c0.077 0.811 0.754 1.456 1.592 1.456h4.621v2.46l3.223-2.46h1.275l0.122-0.006 0.016-0.002c0.817-0.079 1.445-0.77 1.445-1.602v-5.587l-0.006-0.122-0.001-0.016c-0.077-0.812-0.755-1.456-1.592-1.456zM19.261 7.122l0.053-0.003h9.086c0.129 0 0.245 0.098 0.263 0.237l0.003 0.055v5.556c0 0.145-0.105 0.256-0.229 0.273l-0.053 0.003h-1.693l-1.439 1.098v-1.098h-5.954c-0.128 0-0.244-0.098-0.263-0.237l-0.003-0.055v-5.556c0-0.145 0.105-0.256 0.229-0.273zM3.599 8.274c-0.14 0-0.266 0.117-0.266 0.276v4.994c0 0.159 0.126 0.276 0.266 0.276h2.132l1.439 1.098v-1.098h6.686c0.14 0 0.265-0.116 0.265-0.276v-4.994c0-0.159-0.126-0.276-0.265-0.276h-10.257zM2 8.55c0-0.883 0.71-1.609 1.599-1.609h10.257c0.89 0 1.599 0.727 1.599 1.609v4.994c0 0.882-0.709 1.609-1.599 1.609h-5.353v2.46l-3.223-2.46h-1.681c-0.89 0-1.599-0.727-1.599-1.609v-4.994zM11.16 16.99c-0.14 0-0.266 0.117-0.266 0.276v5.571c0 0.159 0.126 0.276 0.266 0.276h2.137l1.439 1.098v-1.098h6.104c0.14 0 0.265-0.116 0.265-0.276v-5.571c0-0.159-0.126-0.276-0.265-0.276h-9.68zM9.561 17.266c0-0.883 0.71-1.609 1.599-1.609h9.679c0.89 0 1.599 0.727 1.599 1.609v5.571c0 0.882-0.709 1.609-1.599 1.609h-4.771v2.46l-3.223-2.46h-1.686c-0.89 0-1.599-0.727-1.599-1.609v-5.571zM17.476 18.632c-0.077 0.002-0.154 0.038-0.201 0.101l-0.024 0.041-1.046 2.315-0.959-1.158c-0.050-0.060-0.127-0.092-0.204-0.086-0.062 0.005-0.12 0.034-0.16 0.080l-0.027 0.038-1.32 2.225h-1.334c-0.133 0-0.241 0.108-0.241 0.242 0 0.117 0.083 0.215 0.192 0.238l0.049 0.005h8.176c0.133 0 0.241-0.109 0.241-0.243 0-0.117-0.083-0.215-0.192-0.237l-0.049-0.005h-1.331l-1.351-3.403c-0.036-0.090-0.122-0.15-0.218-0.153zM13.115 18.633c0-0.637 0.518-1.155 1.154-1.155s1.155 0.518 1.155 1.155c0 0.637-0.518 1.154-1.155 1.154s-1.154-0.518-1.154-1.154zM12.48 11.648h-7.504v0.577h7.504v-0.577zM4.977 9.916h4.040v0.577h-4.040v-0.577zM10.748 9.916h-1.154v0.577h1.154v-0.577zM21.974 8.762h2.597c0.080 0 0.145 0.064 0.145 0.144v0.75l0.934-0.584 0.037-0.016c0.088-0.025 0.184 0.040 0.184 0.139v2.020l-0.006 0.040c-0.025 0.088-0.131 0.134-0.215 0.082l-0.934-0.584v0.75l-0.005 0.038c-0.017 0.061-0.073 0.106-0.139 0.106h-2.597l-0.038-0.005c-0.061-0.017-0.106-0.073-0.106-0.139v-2.598l0.005-0.038c0.017-0.061 0.073-0.106 0.139-0.106z"></path>
</svg>
