<!-- Generated by IcoMoon.io -->
<svg version="1.1" xmlns="http://www.w3.org/2000/svg" width="32" height="32" viewBox="0 0 32 32">
<title>contact-analyzing</title>
<path d="M24.931 6.944c2.749 0.669 4.442 3.447 3.774 6.197-0.668 2.748-3.449 4.441-6.197 3.774s-4.441-3.448-3.772-6.197c0.668-2.749 3.447-4.441 6.196-3.774h-0.001zM22.163 18.339c1.517 0.369 3.041 0.174 4.356-0.443l4.122 6.807c0.208 0.346 0.658 0.456 1.006 0.247 0.347-0.211 0.456-0.661 0.248-1.007l-4.126-6.815c1.137-0.882 1.996-2.137 2.362-3.641 0.859-3.534-1.317-7.109-4.851-7.966s-7.109 1.317-7.967 4.851c-0.859 3.534 1.317 7.109 4.852 7.968l-0.001-0.001zM16.572 10.192c0.169-0.697 0.451-1.338 0.796-1.934h-16.862c-0.278 0-0.506 0.227-0.506 0.506v14.167c0 0.28 0.228 0.506 0.506 0.506h2.53v-11.637c0-0.28 0.228-0.506 0.506-0.506h12.859c0.032-0.366 0.082-0.733 0.172-1.102l-0.001-0.001zM16.192 21.414v-1.012h5.060v1.012h-5.060zM14.168 22.426h-7.083v-0.506c0-1.072 0.546-2.277 1.971-2.786-0.278-0.348-0.454-0.783-0.454-1.262 0-1.116 0.907-2.024 2.024-2.024s2.024 0.909 2.024 2.024c0 0.479-0.174 0.914-0.454 1.262 1.426 0.509 1.971 1.714 1.971 2.786v0.506h0.001zM23.712 19.285c-0.581 0-1.163-0.070-1.731-0.208-0.25-0.061-0.493-0.134-0.731-0.219v0.532h-5.060v-1.012h4.007c-0.54-0.296-1.037-0.65-1.478-1.060v0.048h-2.53v-1.012h1.658c-0.871-1.158-1.394-2.565-1.472-4.048h-11.822c-0.28 0-0.506 0.226-0.506 0.506v14.167c0 0.28 0.227 0.506 0.506 0.506h4.048c0.28 0 0.506-0.226 0.506-0.506v-0.759c0-0.698 0.568-1.265 1.265-1.265s1.265 0.567 1.265 1.265v0.759c0 0.28 0.227 0.506 0.506 0.506h4.048c0.279 0 0.506-0.226 0.506-0.506v-0.759c0-0.698 0.568-1.265 1.265-1.265s1.265 0.567 1.265 1.265v0.759c0 0.28 0.227 0.506 0.506 0.506h4.048c0.28 0 0.506-0.226 0.506-0.506v-7.746c-0.192 0.016-0.382 0.052-0.574 0.052l-0.001-0.001z"></path>
</svg>
