<!-- Generated by IcoMoon.io -->
<svg version="1.1" xmlns="http://www.w3.org/2000/svg" width="32" height="32" viewBox="0 0 32 32">
<title>contact-recommended</title>
<path d="M25.707 11.24l-1.489 1.232 0.746 1.991c0.041 0.112 0.005 0.238-0.088 0.311-0.095 0.073-0.226 0.074-0.324 0.005l-1.734-1.242-1.733 1.242c-0.098 0.069-0.229 0.068-0.322-0.005-0.095-0.073-0.131-0.199-0.088-0.311l0.746-1.991-1.49-1.232c-0.088-0.073-0.12-0.192-0.081-0.301 0.039-0.107 0.141-0.178 0.254-0.178h1.722l0.743-1.737c0.043-0.1 0.141-0.165 0.249-0.165s0.206 0.065 0.249 0.165l0.745 1.737h1.72c0.115 0 0.217 0.071 0.256 0.178 0.040 0.109 0.006 0.227-0.081 0.301zM29.236 11.632l-1.035-0.862 0.625-1.192c0.080-0.149 0.002-0.335-0.159-0.385l-1.287-0.399 0.123-1.341c0.014-0.166-0.123-0.307-0.295-0.295l-1.342 0.122-0.401-1.286c-0.051-0.163-0.238-0.237-0.385-0.159l-1.193 0.625-0.861-1.033c-0.102-0.124-0.313-0.124-0.417 0l-0.862 1.033-1.191-0.625c-0.152-0.080-0.337-0.001-0.385 0.159l-0.401 1.286-1.341-0.122c-0.171-0.013-0.309 0.128-0.295 0.295l0.122 1.341-1.286 0.399c-0.162 0.051-0.237 0.236-0.159 0.385l0.625 1.192-1.033 0.862c-0.131 0.109-0.129 0.309 0 0.417l1.033 0.861-0.625 1.194c-0.078 0.151-0.001 0.336 0.159 0.385l1.286 0.401-0.122 1.341c-0.014 0.166 0.122 0.309 0.295 0.295l1.341-0.122 0.401 1.286c0.048 0.159 0.231 0.239 0.385 0.159l1.191-0.627 0.862 1.035c0.109 0.131 0.31 0.129 0.417 0l0.861-1.035 1.193 0.627c0.149 0.077 0.334 0.003 0.385-0.159l0.401-1.286 1.341 0.122c0.173 0.014 0.309-0.131 0.295-0.295l-0.123-1.341 1.287-0.401c0.161-0.050 0.238-0.236 0.159-0.385l-0.625-1.194 1.035-0.861c0.131-0.108 0.131-0.308 0-0.417h0.001zM14.871 21.113v-1.017h5.086v1.017h-5.086zM12.837 22.13h-7.12v-0.509c0-1.076 0.548-2.289 1.981-2.801-0.281-0.35-0.456-0.786-0.456-1.268 0-1.121 0.914-2.035 2.034-2.035s2.034 0.914 2.034 2.035c0 0.482-0.176 0.918-0.456 1.268 1.432 0.512 1.981 1.724 1.981 2.801v0.509zM22.821 19.118c-0.307 0-0.596-0.135-0.796-0.372l-0.468-0.56-0.649 0.341c-0.148 0.077-0.313 0.117-0.477 0.117-0.172 0-0.33-0.053-0.474-0.128v0.564h-5.086v-1.017h4.644c-0.024-0.048-0.056-0.092-0.073-0.145l-0.217-0.698-0.732 0.067-0.056 0.003h-0.031c-0.289 0-0.567-0.122-0.762-0.335-0.121-0.132-0.19-0.296-0.23-0.468v0.559h-2.543v-1.017h2.517l0.053-0.593-0.694-0.217c-0.294-0.091-0.531-0.306-0.649-0.59s-0.105-0.604 0.037-0.88l0.34-0.646-0.56-0.466c-0.206-0.171-0.315-0.416-0.345-0.678h-12.396c-0.281 0-0.509 0.227-0.509 0.509v14.24c0 0.281 0.227 0.509 0.509 0.509h4.068c0.281 0 0.509-0.227 0.509-0.509v-0.763c0-0.701 0.571-1.272 1.272-1.272s1.272 0.571 1.272 1.272v0.763c0 0.281 0.227 0.509 0.509 0.509h4.068c0.281 0 0.509-0.227 0.509-0.509v-0.763c0-0.701 0.571-1.272 1.272-1.272s1.272 0.571 1.272 1.272v0.763c0 0.281 0.227 0.509 0.509 0.509h4.068c0.281 0 0.509-0.227 0.509-0.509v-7.631c-0.063 0.011-0.122 0.041-0.188 0.041l-0.002-0.001z"></path>
</svg>
