<!-- Generated by IcoMoon.io -->
<svg version="1.1" xmlns="http://www.w3.org/2000/svg" width="32" height="32" viewBox="0 0 32 32">
<title>contacts</title>
<path d="M24.888 5.891c0-0.002 0-0.003 0-0.004 0-0.306-0.248-0.554-0.554-0.554h-21.114c-0.306 0-0.554 0.248-0.554 0.554 0 0.002 0 0.003 0 0.004v15.557c0 0.306 0.248 0.554 0.554 0.554h2.781v-12.78c0-0.306 0.248-0.554 0.554-0.554h18.333v-2.777zM28.781 9.779h-21.114c-0.306 0-0.554 0.248-0.554 0.554v15.557c0 0.002 0 0.003 0 0.004 0 0.306 0.248 0.554 0.554 0.554h4.446c0.306 0 0.554-0.248 0.554-0.554 0-0.002 0-0.003 0-0.004v-0.833c0-0.768 0.622-1.391 1.39-1.391s1.39 0.623 1.39 1.391v0.833c0 0.002 0 0.003 0 0.004 0 0.306 0.248 0.554 0.554 0.554h4.446c0.306 0 0.553-0.248 0.553-0.554 0-0.002 0-0.003 0-0.004v-0.833c-0.002-0.024-0.003-0.051-0.003-0.078 0-0.768 0.622-1.391 1.39-1.391s1.391 0.623 1.391 1.391c0 0.027-0.001 0.055-0.003 0.082v-0.003 0.833c0 0.308 0.25 0.558 0.558 0.558h4.446c0.306 0 0.554-0.248 0.554-0.554 0-0.002 0-0.003 0-0.004v-15.557c0-0.306-0.248-0.554-0.554-0.554l0.001-0.001zM18.223 20.903h-7.781v-0.567c0-0.015 0-0.032 0-0.050 0-1.394 0.904-2.577 2.158-2.995l0.023-0.006c-0.307-0.377-0.493-0.864-0.493-1.394 0-1.226 0.993-2.219 2.219-2.219s2.219 0.993 2.219 2.219c0 0.003 0 0.005 0 0.008v0.001c0 0.527-0.187 1.012-0.5 1.389l0.003-0.003c1.276 0.425 2.179 1.607 2.179 3.001 0 0.017 0 0.035 0 0.053v-0.003l-0.027 0.565zM20.447 14.239h2.777v1.111h-2.777v-1.111zM26 19.779h-5.553v-1.112h5.553v1.112zM26 17.556h-5.553v-1.111h5.553v1.111z"></path>
</svg>
