<!-- Generated by IcoMoon.io -->
<svg version="1.1" xmlns="http://www.w3.org/2000/svg" width="32" height="32" viewBox="0 0 32 32">
<title>contacts-outline</title>
<path d="M2 5.653v16.092c0 0.368 0.298 0.667 0.667 0.667h2.299c0.368 0 0.667-0.299 0.667-0.667s-0.298-0.667-0.667-0.667h-1.632v-14.759h20.506v1.632c0 0.368 0.299 0.667 0.667 0.667s0.667-0.298 0.667-0.667v-2.299c0-0.368-0.298-0.667-0.667-0.667h-21.839c-0.368 0-0.667 0.298-0.667 0.667zM6.598 10.251c0-0.368 0.298-0.667 0.667-0.667h22.069c0.368 0 0.667 0.298 0.667 0.667v16.092c0 0.368-0.299 0.667-0.667 0.667h-4.598c-0.368 0-0.667-0.299-0.667-0.667v-0.92c0-0.781-0.621-1.402-1.402-1.402s-1.402 0.621-1.402 1.402v0.92c0 0.368-0.298 0.667-0.667 0.667h-4.598c-0.368 0-0.667-0.299-0.667-0.667v-0.92c0-0.781-0.621-1.402-1.402-1.402s-1.402 0.621-1.402 1.402v0.92c0 0.368-0.298 0.667-0.667 0.667h-4.598c-0.368 0-0.667-0.299-0.667-0.667v-16.092zM7.931 10.918v14.759h3.264v-0.253c0-1.518 1.218-2.736 2.736-2.736s2.736 1.218 2.736 2.736v0.253h3.264v-0.253c0-1.518 1.218-2.736 2.736-2.736s2.736 1.218 2.736 2.736v0.253h3.264v-14.759h-20.736zM13.103 15.308c0 0.584 0.473 1.057 1.058 1.057s1.057-0.473 1.057-1.057c0-0.584-0.473-1.057-1.057-1.057s-1.058 0.473-1.058 1.057zM14.16 12.918c1.32 0 2.391 1.070 2.391 2.391 0 0.561-0.193 1.077-0.516 1.484 0.516 0.261 0.941 0.625 1.277 1.046 0.663 0.832 0.964 1.873 0.964 2.757 0 0.368-0.299 0.667-0.667 0.667h-6.897c-0.368 0-0.667-0.298-0.667-0.667 0-0.884 0.302-1.925 0.964-2.757 0.335-0.421 0.76-0.785 1.276-1.046-0.323-0.408-0.516-0.923-0.516-1.484 0-1.32 1.070-2.391 2.391-2.391zM16.864 19.929c-0.1-0.435-0.296-0.883-0.596-1.26-0.442-0.555-1.116-0.97-2.108-0.97s-1.666 0.415-2.108 0.97c-0.3 0.377-0.496 0.825-0.596 1.26h5.407zM20.483 18.78h5.747v1.333h-5.747v-1.333zM26.23 16.481h-5.747v1.333h5.747v-1.333zM20.483 15.515v-1.333h2.874v1.333h-2.874z"></path>
</svg>
