<!-- Generated by IcoMoon.io -->
<svg version="1.1" xmlns="http://www.w3.org/2000/svg" width="32" height="32" viewBox="0 0 32 32">
<title>content-2</title>
<path d="M4.885 11.922h20.948c0.578 0 1.047-0.572 1.047-1.281 0-0.707-0.469-1.279-1.047-1.279h-20.948c-0.578 0-1.046 0.572-1.046 1.279 0 0.709 0.467 1.281 1.046 1.281zM4.885 17.042h20.948c0.578 0 1.047-0.572 1.047-1.279s-0.469-1.281-1.047-1.281h-20.948c-0.578 0-1.046 0.573-1.046 1.281s0.467 1.279 1.046 1.279zM25.833 22.162h-20.948c-0.578 0-1.046-0.572-1.046-1.281 0-0.707 0.467-1.279 1.046-1.279h20.948c0.578 0 1.047 0.572 1.047 1.279 0 0.709-0.469 1.281-1.047 1.281zM4.886 27.282h12.572c0.578 0 1.045-0.572 1.045-1.279s-0.467-1.281-1.045-1.281h-12.572c-0.579 0-1.047 0.573-1.047 1.281s0.467 1.279 1.047 1.279z"></path>
</svg>
