<!-- Generated by IcoMoon.io -->
<svg version="1.1" xmlns="http://www.w3.org/2000/svg" width="32" height="32" viewBox="0 0 32 32">
<title>copy</title>
<path d="M7.22 4.507c-0.762 0-1.38 0.618-1.38 1.38v15.185h-1.38c-0.254 0-0.46-0.206-0.46-0.46v-17.486c0-0.254 0.207-0.46 0.46-0.46h17.486c0.254 0 0.46 0.206 0.46 0.46v1.38h-15.185zM25.326 23.811h-2.050v2.050c0 0.254-0.205 0.46-0.46 0.46s-0.46-0.206-0.46-0.46v-2.050h-2.049c-0.254 0-0.46-0.206-0.46-0.46s0.206-0.46 0.46-0.46h2.049v-2.050c0-0.254 0.206-0.46 0.46-0.46s0.46 0.206 0.46 0.46v2.050h2.050c0.254 0 0.46 0.206 0.46 0.46s-0.206 0.46-0.46 0.46zM22.815 17.37c-3.299 0-5.982 2.683-5.982 5.982s2.683 5.982 5.982 5.982c3.298 0 5.982-2.683 5.982-5.982s-2.683-5.982-5.982-5.982zM15.913 23.351c0-3.807 3.096-6.902 6.902-6.902 1.183 0 2.297 0.299 3.272 0.825v-11.389c0-0.254-0.206-0.46-0.46-0.46h-18.406c-0.255 0-0.46 0.207-0.46 0.46v18.406c0 0.255 0.205 0.46 0.46 0.46h8.835c-0.093-0.452-0.143-0.922-0.143-1.401v0.001z"></path>
</svg>
