<!-- Generated by IcoMoon.io -->
<svg version="1.1" xmlns="http://www.w3.org/2000/svg" width="32" height="32" viewBox="0 0 32 32">
<title>customer-referral-2</title>
<path d="M7.428 11.428c0-2.63 2.132-4.762 4.762-4.762s4.762 2.132 4.762 4.762v1.905c0 2.63-2.132 4.762-4.762 4.762s-4.762-2.132-4.762-4.762v-1.905zM2.667 22.552c2.724-1.605 6-2.552 9.499-2.552h0.025c1.664 0 3.281 0.213 4.821 0.615 0.751 1.983 2.866 3.834 4.702 4.931v0.168h-19.047v-3.162h-0.001zM26.614 16.191c-1.004 0-2.109 0.524-2.629 1.673-0.513-1.131-1.591-1.646-2.569-1.646-1.825 0-2.781 1.487-2.781 2.954 0 2.577 2.894 5.185 5.215 6.509 0.087 0.049 0.201 0.045 0.283-0.009 0.212-0.141 5.201-3.482 5.201-6.746 0-1.795-1.368-2.734-2.72-2.734z"></path>
</svg>
