<!-- Generated by IcoMoon.io -->
<svg version="1.1" xmlns="http://www.w3.org/2000/svg" width="32" height="32" viewBox="0 0 32 32">
<title>customer-care-outline</title>
<path d="M23.725 2c-1.793 0-3.749 0.807-4.983 2.556-1.212-1.712-3.116-2.505-4.866-2.505-1.934 0-3.438 0.813-4.446 2.036-0.996 1.209-1.49 2.794-1.49 4.347 0 2.728 1.491 5.389 3.455 7.644 1.976 2.269 4.506 4.215 6.756 5.526l0.003 0.002c0.383 0.221 0.873 0.207 1.242-0.043 0.216-0.146 2.721-1.859 5.179-4.344 1.229-1.243 2.463-2.694 3.392-4.255 0.927-1.557 1.577-3.265 1.577-5.007 0-3.895-2.945-5.958-5.82-5.958zM19.353 6.173c0.864-1.948 2.695-2.84 4.373-2.84 2.248 0 4.486 1.571 4.486 4.624 0 1.416-0.532 2.885-1.389 4.325-0.855 1.436-2.010 2.802-3.194 4-2.182 2.206-4.41 3.785-4.893 4.119-2.124-1.249-4.494-3.085-6.334-5.198-1.877-2.155-3.128-4.511-3.128-6.769 0-1.287 0.412-2.56 1.186-3.499 0.762-0.925 1.893-1.551 3.417-1.551 1.624 0 3.406 0.873 4.257 2.79l0.61 1.373 0.609-1.373zM9.226 27.865c-0.066 0.675-0.635 1.202-1.327 1.202h-2.1c-0.736 0-1.333-0.597-1.333-1.333v-7.333c0-0.736 0.597-1.333 1.333-1.333h2.1c0.736 0 1.333 0.597 1.333 1.333v0.028h1.678c2.102 0 3.632 1.258 4.232 1.843h2.679c0.729 0 1.248 0.333 1.559 0.789 0.030 0.044 0.057 0.088 0.083 0.133l3.091-0.87c1.693-0.521 3.056-0.26 3.834 0.426 0.384 0.339 0.647 0.811 0.626 1.331-0.022 0.548-0.354 0.998-0.857 1.248-2.462 1.229-4.166 2.192-5.421 2.901l-0.041 0.023c-1.965 1.109-3.097 1.748-4.426 1.748-1.075 0-2.241-0.42-4.043-1.075l-0.168-0.061c-0.778-0.281-1.705-0.617-2.832-1zM18.404 24.135l-0.003-0.017c-0.022-0.11-0.063-0.22-0.121-0.307-0.072-0.106-0.186-0.207-0.458-0.207h-2.764c-0.299 0-0.587-0.12-0.798-0.331-0.476-0.478-1.713-1.512-3.349-1.512h-1.637v4.712c1.315 0.441 2.374 0.825 3.238 1.137l0.17 0.062c1.891 0.687 2.801 0.995 3.588 0.995 0.903 0 1.699-0.407 3.776-1.579l0.037-0.021c1.26-0.712 2.989-1.689 5.482-2.933 0.073-0.036 0.101-0.069 0.109-0.081 0.007-0.011 0.009-0.018 0.010-0.027 0.001-0.021-0.011-0.132-0.175-0.277-0.318-0.28-1.148-0.588-2.567-0.15l-0.016 0.005-3.176 0.894c-0.033 0.444-0.191 0.881-0.474 1.221-0.369 0.441-0.882 0.65-1.453 0.65h-5.068c-0.368 0-0.667-0.299-0.667-0.667s0.298-0.667 0.667-0.667h5.068c0.226 0 0.345-0.070 0.43-0.172 0.093-0.111 0.171-0.306 0.171-0.544 0-0.058-0.006-0.121-0.018-0.185zM5.799 20.4h2.1v7.333h-2.1v-7.333z"></path>
</svg>
