<!-- Generated by IcoMoon.io -->
<svg version="1.1" xmlns="http://www.w3.org/2000/svg" width="32" height="32" viewBox="0 0 32 32">
<title>customer-care</title>
<path d="M7.225 20.182h-2.764c-0.255 0-0.461 0.205-0.461 0.461v7.363c0 0.255 0.206 0.461 0.461 0.461h2.764c0.253 0 0.461-0.206 0.461-0.461v-7.363c0-0.256-0.207-0.461-0.461-0.461zM25.979 23.995c-1.083-1.081-2.014-1.382-3.236-1.033l-2.771 0.919c0.025 0.144 0.038 0.291 0.038 0.439 0 0.589-0.19 1.144-0.539 1.561-0.403 0.484-0.974 0.742-1.649 0.742h-5.068c-0.255 0-0.461-0.207-0.461-0.461 0-0.256 0.206-0.461 0.461-0.461h5.068c0.398 0 0.715-0.139 0.942-0.411 0.207-0.248 0.326-0.6 0.326-0.971 0-0.515-0.266-1.382-1.267-1.382h-2.764c-0.122 0-0.239-0.048-0.326-0.135-0.514-0.515-1.914-1.708-3.821-1.708h-1.843c-0.255 0-0.461 0.205-0.461 0.461v5.068c0 0.197 0.127 0.374 0.315 0.435 1.46 0.488 2.609 0.906 3.532 1.24 1.846 0.671 2.884 1.035 3.815 1.035 1.117 0 2.081-0.524 4.103-1.665 1.261-0.712 2.986-1.689 5.487-2.937 0.133-0.066 0.225-0.193 0.25-0.338 0.022-0.149-0.026-0.296-0.13-0.4v0.002zM23.726 2.667c-1.902 0-3.997 1.014-4.982 3.237-0.972-2.188-3.014-3.186-4.867-3.186-3.458 0-5.269 2.877-5.269 5.717 0 4.986 5.484 10.033 9.88 12.594 0.165 0.095 0.381 0.088 0.536-0.017 0.403-0.272 9.855-6.737 9.855-13.054 0-3.474-2.592-5.291-5.153-5.291z"></path>
</svg>
