<!-- Generated by IcoMoon.io -->
<svg version="1.1" xmlns="http://www.w3.org/2000/svg" width="32" height="32" viewBox="0 0 32 32">
<title>custom-lists-outline</title>
<path d="M29.603 12.541c0.004 0.016 0.007 0.032 0.007 0.049 0 0.094-0.077 0.167-0.17 0.167h-3.937c-0.094 0.003-0.17-0.072-0.17-0.167 0-0.921 0.588-1.706 1.407-2.004-0.4-0.246-0.67-0.686-0.67-1.188 0-0.771 0.627-1.398 1.398-1.398s1.398 0.626 1.398 1.398c0 0.503-0.27 0.941-0.67 1.188 0.804 0.293 1.386 1.055 1.407 1.955zM22.44 8.933h1.753c0.221 0 0.4 0.179 0.4 0.4s-0.179 0.4-0.4 0.4h-1.703v5.838h1.51c0.221 0 0.4 0.179 0.4 0.4s-0.179 0.4-0.4 0.4h-1.51v5.176h1.703c0.221 0 0.4 0.179 0.4 0.4s-0.179 0.4-0.4 0.4h-1.753c-0.415 0-0.75-0.336-0.75-0.75v-5.225h-0.357c-0.221 0-0.4-0.179-0.4-0.4s0.179-0.4 0.4-0.4h0.357v-5.888c0-0.415 0.336-0.75 0.75-0.75zM7.733 12.372v7.019c0 1.648 0.915 3.127 2.389 3.865 0.198 0.099 0.278 0.339 0.179 0.537s-0.339 0.278-0.537 0.179c-1.745-0.873-2.831-2.629-2.831-4.58v-7.019c0-0.221 0.179-0.4 0.4-0.4s0.4 0.179 0.4 0.4zM18.487 10.666v3.312c0.305 0.057 0.611 0.172 0.875 0.366 0.423 0.311 0.702 0.802 0.702 1.47v0.701c0 0.631-0.297 1.083-0.72 1.361-0.26 0.17-0.559 0.271-0.857 0.321v3.645c0.034 0.77-0.777 1.241-1.43 0.944l-0.001-0.001c-0.215-0.098-0.424-0.195-0.63-0.29-2.234-1.033-4.031-1.863-7.526-2.201l-0.603-0.058v-7.806l0.603-0.058c3.225-0.312 4.989-1.15 7.023-2.118 0.365-0.174 0.739-0.352 1.132-0.531l0.003-0.001c0.651-0.294 1.462 0.174 1.428 0.945zM18.487 14.799v2.582c0.157-0.038 0.3-0.097 0.418-0.174 0.214-0.14 0.359-0.349 0.359-0.692v-0.701c0-0.419-0.162-0.668-0.376-0.826-0.114-0.084-0.251-0.147-0.401-0.19zM17.154 11.147c-0.215 0.101-0.427 0.202-0.638 0.302-1.932 0.921-3.784 1.803-6.885 2.184v5.399c3.34 0.396 5.217 1.264 7.351 2.251l0.172 0.079v-10.216zM6.28 12.51v7.642h-1.16c-1.722 0-3.12-1.398-3.12-3.119v-1.401c0-1.72 1.399-3.119 3.119-3.119h0.001l1.16-0.002zM4.947 13.853c-0.904 0.087-1.614 0.852-1.614 1.777v1.401c0 0.926 0.709 1.69 1.614 1.778v-4.956zM29.603 17.875c-0.021-0.9-0.603-1.662-1.407-1.955 0.4-0.247 0.67-0.685 0.67-1.188 0-0.772-0.627-1.398-1.398-1.398s-1.398 0.627-1.398 1.398c0 0.502 0.271 0.942 0.67 1.188-0.819 0.299-1.407 1.084-1.407 2.005 0 0.094 0.075 0.17 0.17 0.167h3.937c0.093 0 0.17-0.072 0.17-0.167 0-0.017-0.003-0.034-0.007-0.049zM28.196 21.253c0.804 0.293 1.386 1.055 1.407 1.955 0.004 0.016 0.007 0.032 0.007 0.049 0 0.094-0.077 0.167-0.17 0.167h-3.937c-0.094 0.003-0.17-0.072-0.17-0.167 0-0.921 0.588-1.706 1.407-2.005-0.4-0.246-0.67-0.686-0.67-1.188 0-0.771 0.627-1.398 1.398-1.398s1.398 0.626 1.398 1.398c0 0.503-0.27 0.941-0.67 1.188z"></path>
</svg>
