<!-- Generated by IcoMoon.io -->
<svg version="1.1" xmlns="http://www.w3.org/2000/svg" width="32" height="32" viewBox="0 0 32 32">
<title>custom-lists</title>
<path d="M2.667 8.588c0 0.818 0.663 1.481 1.481 1.481s1.481-0.663 1.481-1.481c0-0.818-0.663-1.481-1.481-1.481s-1.481 0.663-1.481 1.481zM29.333 8.094v0.988h-19.358v-0.988h19.358zM29.333 15.995v-0.988h-19.358v0.988h19.358zM29.333 23.897v-0.988h-19.358v0.988h19.358zM2.667 23.403c0 0.818 0.663 1.482 1.481 1.482s1.481-0.663 1.481-1.482c0-0.818-0.663-1.481-1.481-1.481s-1.481 0.663-1.481 1.481zM4.148 16.983c-0.818 0-1.481-0.663-1.481-1.482s0.663-1.481 1.481-1.481 1.481 0.663 1.481 1.481c0 0.818-0.663 1.482-1.481 1.482z"></path>
</svg>
