<!-- Generated by IcoMoon.io -->
<svg version="1.1" xmlns="http://www.w3.org/2000/svg" width="32" height="32" viewBox="0 0 32 32">
<title>customer-care-ns</title>
<path d="M28.554 7.953c0 1.339-0.619 2.712-1.45 3.971-0.84 1.271-1.948 2.502-3.038 3.569-1.092 1.070-2.182 1.992-2.997 2.645-0.408 0.327-0.749 0.588-0.988 0.768-0.12 0.090-0.214 0.159-0.279 0.207l-0.1 0.073-0.002 0.001-0 0c-0 0-0 0-0.387-0.543l0.387 0.543c-0.233 0.166-0.547 0.165-0.779-0.003l0.392-0.539c-0.392 0.539-0.392 0.539-0.392 0.539l-0-0-0.002-0.001-0.005-0.004-0.020-0.015-0.075-0.055c-0.065-0.048-0.159-0.119-0.279-0.21-0.239-0.183-0.58-0.447-0.987-0.779-0.815-0.662-1.904-1.595-2.996-2.671-1.089-1.074-2.196-2.307-3.035-3.572-0.829-1.25-1.451-2.61-1.451-3.922 0-2.919 2.010-4.904 4.292-5.213 1.142-0.155 2.344 0.113 3.366 0.88 0.626 0.47 1.169 1.115 1.59 1.937 0.434-0.85 0.988-1.516 1.623-2 1.025-0.782 2.224-1.061 3.365-0.905 2.285 0.312 4.248 2.341 4.248 5.301zM18.392 17.083c0.378 0.307 0.695 0.554 0.923 0.729 0.227-0.171 0.543-0.414 0.92-0.715 0.793-0.635 1.847-1.527 2.898-2.557 1.054-1.033 2.090-2.189 2.858-3.351 0.777-1.176 1.229-2.284 1.229-3.236 0-2.327-1.503-3.763-3.095-3.98-0.797-0.109-1.639 0.082-2.376 0.644-0.739 0.563-1.41 1.53-1.792 3.030-0.076 0.297-0.344 0.504-0.65 0.502s-0.572-0.213-0.644-0.511c-0.353-1.465-1.007-2.405-1.736-2.952s-1.576-0.735-2.387-0.625c-1.624 0.22-3.138 1.642-3.138 3.891 0 0.92 0.45 2.012 1.229 3.185 0.769 1.158 1.805 2.319 2.861 3.359 1.052 1.038 2.107 1.941 2.9 2.586zM2.747 17.624c-0.368 0-0.667 0.299-0.667 0.667v9.398c0 0.368 0.298 0.667 0.667 0.667h4.699c0.368 0 0.667-0.299 0.667-0.667v-0.835c0.931 0.315 1.767 0.605 2.522 0.867l0 0c1.337 0.464 2.42 0.84 3.329 1.111 1.606 0.479 2.803 0.676 4.087 0.469 1.256-0.203 2.536-0.785 4.321-1.709 0.582-0.302 1.221-0.641 1.936-1.022v0l0.001-0c1.511-0.803 3.364-1.789 5.754-2.984 0.192-0.096 0.325-0.278 0.36-0.489s-0.035-0.427-0.187-0.578c-0.683-0.683-1.331-1.147-2.033-1.368-0.717-0.226-1.412-0.176-2.138 0.022-0.013 0.004-0.027 0.008-0.040 0.012l-4.209 1.435c-0.073-0.342-0.249-0.665-0.524-0.923-0.377-0.353-0.901-0.547-1.513-0.547h-3.253c-0.789-0.749-2.737-2.349-5.558-2.349h-2.858v-0.508c0-0.368-0.298-0.667-0.667-0.667h-4.699zM21.295 24.284c0.040-0.037 0.078-0.076 0.113-0.116l5.029-1.715c0.556-0.149 0.972-0.156 1.367-0.032 0.237 0.075 0.492 0.205 0.78 0.417-1.989 1.007-3.599 1.863-4.925 2.568l-0.001 0-0.001 0.001c-0.708 0.376-1.335 0.71-1.897 1.001-1.794 0.929-2.901 1.412-3.92 1.577-0.992 0.16-1.961 0.027-3.494-0.43-0.889-0.265-1.924-0.624-3.227-1.077-0.87-0.302-1.86-0.646-3.006-1.031v-5.315h2.858c2.539 0 4.252 1.591 4.815 2.154 0.125 0.125 0.295 0.195 0.471 0.195h3.524c0.327 0 0.508 0.099 0.601 0.187 0.097 0.091 0.142 0.207 0.142 0.321s-0.045 0.231-0.142 0.321c-0.093 0.087-0.274 0.187-0.601 0.187h-6.461c-0.368 0-0.667 0.298-0.667 0.667s0.298 0.667 0.667 0.667h6.461c0.613 0 1.137-0.194 1.513-0.547zM3.414 27.022v-8.065h3.366v8.065h-3.366z"></path>
</svg>
