<!-- Generated by IcoMoon.io -->
<svg version="1.1" xmlns="http://www.w3.org/2000/svg" width="34" height="32" viewBox="0 0 34 32">
<title>daily-outline</title>
<path d="M33.956 27.822c0 1.866-1.512 3.378-3.378 3.378h-27.022c-1.865 0-3.378-1.512-3.378-3.378v-12.169l5.24-12.22c0.761-1.55 1.721-2.51 3.205-2.633l17.11 0.014c1.272 0.168 2.203 1.099 3.020 2.698l5.203 12.141v12.169zM3.555 17.689v10.133h27.022v-10.133h-6.756c0 1.866-1.512 3.378-3.378 3.378h-6.756c-1.866 0-3.378-1.512-3.378-3.378h-6.756zM4.428 14.311h9.261v3.378h6.756v-3.378h9.262l-4.008-9.361c-0.189-0.368-0.364-0.626-0.505-0.772l-16.274-0.006c-0.13 0.141-0.291 0.387-0.434 0.672l-4.058 9.468z"></path>
</svg>
