<!-- Generated by IcoMoon.io -->
<svg version="1.1" xmlns="http://www.w3.org/2000/svg" width="32" height="32" viewBox="0 0 32 32">
<title>declining</title>
<path d="M28.235 29.333c-0.004 0-0.009 0.001-0.013 0.001h-6.667c-0.613 0-1.111-0.498-1.111-1.111s0.498-1.111 1.111-1.111h3.984l-22.548-22.547c-0.433-0.434-0.433-1.137 0-1.571s1.138-0.434 1.571 0l22.547 22.547v-3.984c0-0.613 0.497-1.111 1.111-1.111s1.111 0.498 1.111 1.111v6.667c0 0.576-0.457 1.099-1.097 1.11l0.001-0.001z"></path>
<path d="M7.667 19.333c2.757 0 5 2.243 5 5s-2.243 5-5 5c-2.757 0-5-2.243-5-5s2.243-5 5-5z"></path>
<path d="M24.333 12.667c-2.757 0-5-2.242-5-5s2.243-5 5-5c2.757 0 5 2.242 5 5s-2.243 5-5 5z"></path>
</svg>
