<!-- Generated by IcoMoon.io -->
<svg version="1.1" xmlns="http://www.w3.org/2000/svg" width="32" height="32" viewBox="0 0 32 32">
<title>declining-outline</title>
<path d="M30.674 31.999l0.331 2.646zM30.682 31.999l0.046 2.666-0.023 0h-0.023zM27.447 29.333l1.886-1.886 4.552 4.552h-6.438zM0.39 2.276l-1.886 1.886-0.002-0.002zM0.39 0.391l-1.888-1.883 0.002-0.002zM2.276 0.391l-1.886 1.886-0.002-0.002zM29.333 27.448h2.667v6.438l-4.552-4.552zM6 17.333c4.78 0 8.667 3.884 8.667 8.667h-5.333c0-1.836-1.498-3.333-3.333-3.333zM-2.667 26c0-4.782 3.886-8.667 8.667-8.667v5.333c-1.836 0-3.333 1.497-3.333 3.333zM6 34.667c-4.78 0-8.667-3.884-8.667-8.667h5.333c0 1.836 1.498 3.333 3.333 3.333zM14.667 26c0 4.783-3.886 8.667-8.667 8.667v-5.333c1.836 0 3.333-1.497 3.333-3.333zM30.343 29.353c0 0 0.001 0 0.002-0s0.002-0 0.004-0.001 0.009-0.001 0.016-0.002 0.036-0.004 0.063-0.007c0.054-0.005 0.143-0.012 0.253-0.012v5.333c0.107 0 0.194-0.007 0.245-0.011 0.047-0.004 0.086-0.009 0.078-0.008zM30.666 29.333c-0.108 0-0.194 0.007-0.245 0.011-0.046 0.004-0.086 0.009-0.078 0.008l0.661 5.292c-0 0-0.001 0-0.002 0s-0.002 0-0.004 0.001-0.009 0.001-0.016 0.002-0.036 0.004-0.063 0.007c-0.054 0.005-0.143 0.012-0.253 0.012zM22.666 29.333h8v5.333h-8zM23.999 30.667c0-0.737-0.597-1.333-1.333-1.333v5.333c-2.209 0-4-1.791-4-4zM22.666 32c0.737 0 1.333-0.597 1.333-1.333h-5.333c0-2.209 1.791-4 4-4zM27.447 32h-4.781v-5.333h4.781zM2.276 0.391l27.057 27.057-3.771 3.771-27.057-27.057zM2.278 2.274c0.518-0.52 0.518-1.362 0-1.881l-3.776 3.766c-1.558-1.562-1.558-4.090 0-5.652zM0.388 2.274c0.523 0.525 1.37 0.521 1.888 0.002l-3.771-3.771c1.561-1.561 4.096-1.565 5.659 0.002zM27.447 29.334l-27.057-27.057 3.771-3.771 27.057 27.057zM31.999 22.667v4.781h-5.333v-4.781zM30.666 24c0.737 0 1.333-0.597 1.333-1.333h-5.333c0-2.209 1.791-4 4-4zM29.333 22.667c0 0.737 0.597 1.333 1.333 1.333v-5.333c2.209 0 4 1.791 4 4zM29.333 30.667v-8h5.333v8zM30.636 29.332c-0.765 0.013-1.303 0.651-1.303 1.334h5.333c0 2.065-1.634 3.958-3.938 3.998zM22.666 6c0 1.836 1.498 3.333 3.333 3.333v5.333c-4.78 0-8.667-3.884-8.667-8.667zM26 2.667c-1.836 0-3.333 1.497-3.333 3.333h-5.333c0-4.782 3.886-8.667 8.667-8.667zM29.333 6c0-1.836-1.498-3.333-3.333-3.333v-5.333c4.78 0 8.667 3.884 8.667 8.667zM26 9.334c1.836 0 3.333-1.497 3.333-3.333h5.333c0 4.782-3.886 8.667-8.667 8.667z"></path>
</svg>
