<!-- Generated by IcoMoon.io -->
<svg version="1.1" xmlns="http://www.w3.org/2000/svg" width="32" height="32" viewBox="0 0 32 32">
<title>delete-outline</title>
<path d="M12.667 3.333h6.667c0.177 0 0.346 0.070 0.471 0.195l1.138 1.138h4.391c0.368 0 0.667 0.298 0.667 0.667v3.333c0 0.368-0.299 0.667-0.667 0.667h-0.667v16c0 1.835-1.499 3.333-3.333 3.333h-10.667c-1.835 0-3.333-1.499-3.333-3.333v-16h-0.667c-0.368 0-0.667-0.298-0.667-0.667v-3.333c0-0.368 0.298-0.667 0.667-0.667h4.391l1.138-1.138c0.125-0.125 0.295-0.195 0.471-0.195zM23.333 9.333h-14.667v16c0 1.098 0.902 2 2 2h10.667c1.099 0 2-0.902 2-2v-16zM24 8h0.667v-2h-4c-0.177 0-0.346-0.070-0.471-0.195l-1.138-1.138h-6.114l-1.138 1.138c-0.125 0.125-0.295 0.195-0.471 0.195h-4v2h16.667z"></path>
</svg>
