<!-- Generated by IcoMoon.io -->
<svg version="1.1" xmlns="http://www.w3.org/2000/svg" width="32" height="32" viewBox="0 0 32 32">
<title>delivery-followup</title>
<path d="M11.875 20.774c0-4.085 4.001-7.407 8.943-7.464v-4.598h-18.152v11.717c0.003 0.208 0.171 0.377 0.38 0.38h8.833l-0.004-0.035zM16.967 2.826c-0.070-0.096-0.182-0.158-0.309-0.159h-4.911v5.3h8.886l-3.666-5.141zM10.992 2.667h-4.156c-0.127 0.001-0.239 0.063-0.308 0.158l-0.001 0.001-3.666 5.132h8.131v-5.291zM20.942 13.968c4.633 0 8.391 3.052 8.391 6.806s-3.772 6.806-8.391 6.806c-0.009 0-0.019 0-0.028 0-0.999 0-1.963-0.145-2.874-0.416l0.072 0.019-0.239-0.066-0.225 0.106-4.125 1.917 1.457-2.906 0.23-0.464-0.393-0.336c-1.367-1.111-2.243-2.779-2.279-4.653v-0.006c0-3.754 3.767-6.806 8.391-6.806h0.013z"></path>
</svg>
