<!-- Generated by IcoMoon.io -->
<svg version="1.1" xmlns="http://www.w3.org/2000/svg" width="32" height="32" viewBox="0 0 32 32">
<title>dials</title>
<path d="M28.592 8.571h-8.994c-0.345 1.737-1.842 3.047-3.63 3.047s-3.283-1.31-3.628-3.047h-8.933c-0.409 0-0.741-0.341-0.741-0.762s0.332-0.762 0.741-0.762h8.933c0.345-1.737 1.84-3.047 3.628-3.047s3.285 1.311 3.63 3.047h8.994c0.409 0 0.741 0.341 0.741 0.762s-0.332 0.762-0.741 0.762zM28.592 17.143h-14.919c-0.345 1.737-1.842 3.047-3.63 3.047s-3.283-1.31-3.628-3.047h-3.007c-0.409 0-0.741-0.341-0.741-0.762s0.332-0.762 0.741-0.762h3.007c0.345-1.737 1.84-3.047 3.628-3.047s3.285 1.311 3.63 3.047h14.919c0.409 0 0.741 0.341 0.741 0.762s-0.332 0.762-0.741 0.762zM28.592 25.714h-11.957c-0.345 1.737-1.842 3.047-3.63 3.047s-3.283-1.311-3.628-3.047h-5.97c-0.409 0-0.741-0.341-0.741-0.762s0.332-0.762 0.741-0.762h5.97c0.345-1.737 1.84-3.047 3.628-3.047s3.285 1.31 3.63 3.047h11.957c0.409 0 0.741 0.341 0.741 0.762s-0.332 0.762-0.741 0.762z"></path>
</svg>
