<!-- Generated by IcoMoon.io -->
<svg version="1.1" xmlns="http://www.w3.org/2000/svg" width="27" height="32" viewBox="0 0 27 32">
<title>doc-outline</title>
<path d="M26.667 32h-26.667v-32h4.008v5.333h2.651v-5.333h2.682v5.333h2.667v-5.333h2.667v5.333h2.667v-5.333h2.667v5.333h2.667v-5.333h3.992zM1.524 30.476h23.619v-28.952h-0.945v5.333h-21.714v-5.333h-0.96z"></path>
<path d="M6.004 10.667h14.659c0.37 0 0.67-0.3 0.67-0.67s-0.3-0.67-0.67-0.67h-14.659c-0.37 0-0.67 0.3-0.67 0.67s0.3 0.67 0.67 0.67v0z"></path>
<path d="M6.004 14.659h14.659c0 0 0 0 0 0 0.365 0 0.662-0.292 0.67-0.654v-0.001c0-0.37-0.3-0.67-0.67-0.67h-14.659c-0.37 0-0.67 0.3-0.67 0.67v0c0.009 0.364 0.305 0.655 0.67 0.655 0 0 0 0 0 0v0z"></path>
<path d="M6.004 18.667h14.659c0.37 0 0.67-0.3 0.67-0.67s-0.3-0.67-0.67-0.67v0h-14.659c-0.37 0-0.67 0.3-0.67 0.67s0.3 0.67 0.67 0.67v0z"></path>
<path d="M6.004 22.659h14.659c0 0 0 0 0 0 0.365 0 0.662-0.292 0.67-0.654v-0.001c0-0.37-0.3-0.67-0.67-0.67h-14.659c-0.37 0-0.67 0.3-0.67 0.67v0c0.009 0.364 0.305 0.655 0.67 0.655 0 0 0 0 0 0v0z"></path>
<path d="M6.004 26.667h14.659c0.37 0 0.67-0.3 0.67-0.67s-0.3-0.67-0.67-0.67h-14.659c-0.37 0-0.67 0.3-0.67 0.67s0.3 0.67 0.67 0.67v0z"></path>
</svg>
