<!-- Generated by IcoMoon.io -->
<svg version="1.1" xmlns="http://www.w3.org/2000/svg" width="32" height="32" viewBox="0 0 32 32">
<title>dollar</title>
<path d="M16.373 14.911c3.032 0.149 5.434 2.644 5.434 5.7 0 2.656-1.815 4.888-4.271 5.524l-0.039 0.008v2.067c0 0.62-0.503 1.123-1.123 1.123-0.615-0.013-1.111-0.508-1.123-1.122v-2.067c-2.602-0.536-4.539-2.788-4.583-5.5v-0.005c0-0.62 0.503-1.123 1.123-1.123s1.123 0.503 1.123 1.123c0 1.923 1.559 3.482 3.482 3.482s3.482-1.559 3.482-3.482c0-1.923-1.559-3.482-3.482-3.482-0.008 0-0.016 0-0.024 0h0.001c-2.982-0.222-5.316-2.695-5.316-5.714 0-2.618 1.755-4.825 4.153-5.509l0.040-0.010v-2.134c0-0.62 0.503-1.123 1.123-1.123 0.581 0.048 1.034 0.531 1.034 1.12 0 0.002 0 0.003 0 0.003v2.045c2.645 0.543 4.605 2.851 4.606 5.617 0 0.62-0.503 1.123-1.123 1.123s-1.123-0.503-1.123-1.123c0-0.007 0-0.013 0-0.021 0-1.923-1.559-3.482-3.482-3.482s-3.482 1.559-3.482 3.482c0 1.923 1.56 3.482 3.482 3.482 0.031 0 0.063-0.001 0.094-0.002h-0.005z"></path>
</svg>
