<!-- Generated by IcoMoon.io -->
<svg version="1.1" xmlns="http://www.w3.org/2000/svg" width="32" height="32" viewBox="0 0 32 32">
<title>downline</title>
<path d="M16.167 29.333l0.133-0.056 0.1-0.056h0.056l0.077-0.067 9.678-10.556c0.147-0.155 0.237-0.365 0.237-0.595 0-0.258-0.112-0.489-0.292-0.648l-0.001-0.001c-0.157-0.141-0.365-0.227-0.594-0.227-0.257 0-0.488 0.108-0.65 0.283l-0.001 0.001-8.144 8.889v-22.756c0-0.485-0.393-0.877-0.877-0.877s-0.878 0.393-0.878 0.877v22.644l-8.144-8.889c-0.162-0.174-0.394-0.283-0.651-0.283-0.228 0-0.438 0.087-0.595 0.228l0.001-0.001c-0.178 0.163-0.289 0.397-0.289 0.656 0 0.001 0 0.001 0 0.002 0 0.228 0.089 0.434 0.233 0.588l9.677 10.556 0.078 0.067h0.056l0.1 0.056 0.133 0.056h0.178l0.379 0.111z"></path>
</svg>
