<!-- Generated by IcoMoon.io -->
<svg version="1.1" xmlns="http://www.w3.org/2000/svg" width="32" height="32" viewBox="0 0 32 32">
<title>edit-outline</title>
<path d="M24.267 27.467h-8.933c-0.533 0-1.067-0.4-1.067-1.067s0.4-1.067 1.067-1.067h8.933c0.533 0 1.067 0.4 1.067 1.067s-0.533 1.067-1.067 1.067zM9.067 27.467h-4.8v-4.8l14.8-14.667c0 0 0 0 0 0s0 0 0 0 0 0 0 0v0l1.6-1.6c1.2-1.333 3.467-1.333 4.8 0 0.667 0.667 0.933 1.467 0.933 2.4s-0.4 1.733-0.933 2.4l-16.4 16.267zM6.4 25.467h1.867l13.467-13.467-1.867-1.867-13.467 13.333v2zM21.2 8.667l1.867 1.867 0.933-0.933c0.267-0.267 0.4-0.533 0.4-0.933s-0.133-0.667-0.267-0.933c-0.533-0.533-1.467-0.533-1.867 0l-1.067 0.933z"></path>
</svg>
