<!-- Generated by IcoMoon.io -->
<svg version="1.1" xmlns="http://www.w3.org/2000/svg" width="32" height="32" viewBox="0 0 32 32">
<title>email</title>
<path d="M16.001 16.8l12.236-9.733c-0.381-0.251-0.838-0.4-1.328-0.4h-21.818c-0.469 0-0.904 0.14-1.276 0.371l12.187 9.762zM29.047 7.971l-12.689 10.078c-0.216 0.163-0.504 0.163-0.72-0.001l-12.656-10.126c-0.195 0.348-0.314 0.742-0.315 1.169v13.333c0.001 1.336 1.089 2.425 2.425 2.425h21.816c1.337 0 2.424-1.089 2.426-2.425v-13.333c0-0.406-0.109-0.784-0.286-1.12h-0.001z"></path>
</svg>
