<!-- Generated by IcoMoon.io -->
<svg version="1.1" xmlns="http://www.w3.org/2000/svg" width="32" height="32" viewBox="0 0 32 32">
<title>events</title>
<path d="M2.667 28.779c0 0.306 0.249 0.554 0.554 0.554h25.549c0.306 0 0.554-0.249 0.554-0.554v-17.222h-26.658v17.222zM15.446 15.446c0-0.002 0-0.003 0-0.004 0-0.306 0.249-0.554 0.554-0.554h5.556c0.301 0.013 0.541 0.26 0.541 0.562 0 0.068-0.012 0.134-0.035 0.195l0.001-0.004-1.386 3.694h0.312c0.306 0 0.554 0.249 0.554 0.554s-0.249 0.554-0.554 0.554h-0.715l-1.533 4.088c-0.081 0.211-0.283 0.359-0.52 0.359-0.307 0-0.556-0.249-0.556-0.556 0-0.071 0.013-0.139 0.037-0.201l-0.002 0.003 1.386-3.694h-1.42c-0.306 0-0.554-0.249-0.554-0.554s0.249-0.554 0.554-0.554h1.836l1.26-3.334h-4.2v0.554c0 0.306-0.249 0.554-0.554 0.554s-0.554-0.249-0.554-0.554l-0.008-1.107zM11.392 18.044c-0.1 0.1-0.239 0.162-0.392 0.162-0.307 0-0.556-0.249-0.556-0.556 0-0.154 0.062-0.294 0.164-0.394l2.221-2.222c0.1-0.101 0.24-0.165 0.394-0.165 0.306 0 0.554 0.249 0.554 0.554 0 0.002 0 0.003 0 0.004v8.366h1.667c0.287 0.026 0.509 0.265 0.509 0.556s-0.223 0.53-0.508 0.556h-4.449c-0.287-0.026-0.509-0.265-0.509-0.556s0.223-0.53 0.508-0.556h1.669v-7.011l-1.272 1.26zM28.779 4.888h-3.897v-1.667c0-0.306-0.249-0.554-0.554-0.554-0.002 0-0.003 0-0.004 0h-3.321c-0.002 0-0.003 0-0.004 0-0.306 0-0.554 0.249-0.554 0.554v1.667h-8.886v-1.667c0-0.306-0.249-0.554-0.554-0.554-0.002 0-0.003 0-0.004 0h-3.33c-0.002 0-0.003 0-0.004 0-0.306 0-0.554 0.249-0.554 0.554v1.667h-3.897c-0.302 0.005-0.546 0.251-0.546 0.554v5.002h26.667v-5.002c0-0.306-0.249-0.554-0.554-0.554zM10.444 7.11h-2.239v-3.334h2.222l0.017 3.334zM23.777 7.11h-2.222v-3.334h2.239l-0.017 3.334z"></path>
</svg>
