<!-- Generated by IcoMoon.io -->
<svg version="1.1" xmlns="http://www.w3.org/2000/svg" width="32" height="32" viewBox="0 0 32 32">
<title>expiring</title>
<path d="M22.153 16.952c-3.419 0-6.191 2.771-6.191 6.191s2.771 6.191 6.191 6.191c3.419 0 6.191-2.771 6.191-6.191-0.005-3.416-2.774-6.185-6.19-6.191h-0.001zM24.534 24.571h-2.381c-0.263 0-0.476-0.213-0.476-0.476v-3.333c0-0.263 0.213-0.476 0.476-0.476s0.476 0.213 0.476 0.476v2.857h1.905c0.263 0 0.476 0.213 0.476 0.476s-0.213 0.476-0.476 0.476zM13.105 24.571h2.048c-0.091-0.423-0.143-0.908-0.143-1.406 0-0.007 0-0.016 0-0.023v0.001c0.007-3.401 2.387-6.244 5.571-6.962l0.047-0.009-6.571-13.266c-0.091-0.144-0.249-0.238-0.429-0.238s-0.338 0.094-0.427 0.236l-0.001 0.002-10.476 20.952c-0.037 0.067-0.058 0.147-0.058 0.231 0 0.252 0.191 0.459 0.437 0.484h10.002zM13.105 10.409c0-0.263 0.213-0.476 0.476-0.476s0.476 0.213 0.476 0.476v7.285c0 0.263-0.213 0.476-0.476 0.476s-0.476-0.213-0.476-0.476v-7.285zM13.581 19.933c0.526 0 0.952 0.426 0.952 0.952s-0.426 0.952-0.952 0.952c-0.526 0-0.952-0.426-0.952-0.952 0.021-0.509 0.439-0.914 0.951-0.914h0.001v-0.038z"></path>
</svg>
