<!-- Generated by IcoMoon.io -->
<svg version="1.1" xmlns="http://www.w3.org/2000/svg" width="32" height="32" viewBox="0 0 32 32">
<title>external-link</title>
<path d="M19.613 6.508c0.263 0 0.476 0.213 0.476 0.476s-0.213 0.476-0.476 0.476h-12.669c-1.836 0.004-3.324 1.492-3.329 3.328v14.267c0.004 1.836 1.492 3.324 3.327 3.328h14.267c1.836-0.004 3.324-1.492 3.328-3.327v-13.543c0-0.263 0.213-0.475 0.476-0.475s0.476 0.213 0.476 0.475v13.544c-0.005 2.36-1.917 4.271-4.278 4.277h-14.269c-2.36-0.005-4.271-1.917-4.277-4.277v-14.269c0.005-2.36 1.917-4.271 4.278-4.277l12.669-0.003zM28.315 2.806c0.186-0.186 0.487-0.186 0.672 0s0.186 0.487 0 0.672l-15.47 15.47c-0.186 0.186-0.487 0.186-0.672 0s-0.186-0.487 0-0.672l15.47-15.47zM28.141 3.65l-8.046 0.5c-0.262 0.016-0.488-0.183-0.504-0.445s0.183-0.488 0.445-0.504l8.585-0.533c0.286-0.018 0.523 0.22 0.504 0.506l-0.524 7.916c-0.017 0.262-0.244 0.46-0.505 0.443s-0.46-0.244-0.443-0.506l0.489-7.377h-0.001z"></path>
</svg>
