<!-- Generated by IcoMoon.io -->
<svg version="1.1" xmlns="http://www.w3.org/2000/svg" width="32" height="32" viewBox="0 0 32 32">
<title>fencesitter</title>
<path d="M25.394 2.668c-0.843 0-1.525 0.683-1.525 1.525v3.835h-16.814v-3.835c-0.044-0.81-0.711-1.449-1.528-1.449s-1.484 0.64-1.527 1.445v23.695c0.044 0.809 0.711 1.449 1.527 1.449s1.484-0.64 1.527-1.445v-3.064h16.814v3.059c0.044 0.81 0.711 1.449 1.528 1.449s1.484-0.64 1.527-1.445v-23.695c0-0.843-0.683-1.525-1.525-1.525-0.002 0-0.003 0-0.004 0l0.001 0.001zM20.809 11.070h3.059v10.699h-3.059v-10.699zM17.754 21.769h-4.585v-10.699h4.585v10.699zM7.055 11.070h3.081v10.699h-3.081v-10.699z"></path>
</svg>
