<!-- Generated by IcoMoon.io -->
<svg version="1.1" xmlns="http://www.w3.org/2000/svg" width="32" height="32" viewBox="0 0 32 32">
<title>fence</title>
<path d="M24.938 10.043c-0.176 0-0.318-0.143-0.318-0.318s0.142-0.318 0.318-0.318c0.176 0 0.318 0.143 0.318 0.318s-0.143 0.318-0.318 0.318zM24.938 25.729c-0.176 0-0.318-0.142-0.318-0.318s0.142-0.318 0.318-0.318c0.176 0 0.318 0.143 0.318 0.318s-0.143 0.318-0.318 0.318zM21.017 24.627v-14.118h3.138v14.118h-3.138zM18.664 10.043c-0.176 0-0.318-0.143-0.318-0.318s0.143-0.318 0.318-0.318c0.176 0 0.318 0.143 0.318 0.318s-0.142 0.318-0.318 0.318zM18.664 25.729c-0.176 0-0.318-0.142-0.318-0.318s0.143-0.318 0.318-0.318c0.176 0 0.318 0.143 0.318 0.318s-0.142 0.318-0.318 0.318zM14.743 24.627v-14.118h3.138v14.118h-3.138zM12.389 10.043c-0.176 0-0.317-0.143-0.317-0.318s0.142-0.318 0.317-0.318c0.177 0 0.318 0.143 0.318 0.318s-0.142 0.318-0.318 0.318zM12.389 25.729c-0.176 0-0.317-0.142-0.317-0.318s0.142-0.318 0.317-0.318c0.177 0 0.318 0.143 0.318 0.318s-0.142 0.318-0.318 0.318zM8.468 24.627v-14.118h3.138v14.118h-3.138zM6.114 10.043c-0.174 0-0.317-0.143-0.317-0.318s0.143-0.318 0.317-0.318c0.178 0 0.318 0.143 0.318 0.318s-0.142 0.318-0.318 0.318zM6.114 25.729c-0.174 0-0.317-0.142-0.317-0.318s0.143-0.318 0.317-0.318c0.178 0 0.318 0.143 0.318 0.318s-0.142 0.318-0.318 0.318zM25.564 2.667c-0.952 0-1.727 1.023-1.727 2.273v3.888h-2.61v-3.888c0-1.25-0.778-2.273-1.728-2.273-0.952 0-1.728 1.023-1.728 2.273v3.888h-2.765v-3.888c0-1.25-0.778-2.273-1.728-2.273s-1.728 1.023-1.728 2.273v3.888h-2.763v-3.888c0-1.25-0.779-2.273-1.729-2.273s-1.726 1.023-1.726 2.273v24.394h3.456v-3.636h2.763v3.636h3.456v-3.636h2.765v3.636h3.456v-3.636h2.61v3.636h3.456v-24.394c0-1.25-0.777-2.273-1.728-2.273h-0.004z"></path>
</svg>
