<!-- Generated by IcoMoon.io -->
<svg version="1.1" xmlns="http://www.w3.org/2000/svg" width="32" height="32" viewBox="0 0 32 32">
<title>fill-your-funnel</title>
<path d="M19.863 14.125c-0.258-1.043-1.061-1.849-2.082-2.109l-0.020-0.004c0.231-0.294 0.37-0.67 0.37-1.078 0-0.971-0.786-1.757-1.757-1.757s-1.757 0.786-1.757 1.757c0 0.634 0.336 1.19 0.84 1.499l0.007 0.004c-0.73 0.527-1.199 1.375-1.199 2.333 0 0.19 0.018 0.376 0.053 0.555l-0.003-0.018c0.033 0.162 0.174 0.282 0.343 0.282 0.025 0 0.049-0.003 0.072-0.008h-0.003l4.892-0.947c0.165-0.036 0.287-0.181 0.287-0.354 0-0.021-0.002-0.042-0.005-0.062v0.002c-0.013-0.038-0.027-0.071-0.043-0.102l0.002 0.004 0.003 0.001zM21.97 19.384c0.483-0.654 0.791-1.464 0.838-2.343l0.001-0.011v-1.723c0-0.999-1.085-1.723-2.624-2.216 0.141 0.239 0.258 0.517 0.339 0.808l0.006 0.024c0 0 0 0 0 0.034 0.993 0.391 1.573 0.878 1.573 1.35 0 0.999-2.601 2.107-6.316 2.107s-6.315-1.108-6.315-2.107c0-0.821 1.751-1.723 4.439-2.009 0.136-0.285 0.292-0.53 0.476-0.753l-0.005 0.007c-2.934 0.207-5.627 1.154-5.627 2.756v1.723c0.051 1.025 0.458 1.946 1.1 2.65l-0.003-0.003 4.524 4.53v4.070c0 0.583 0.473 1.056 1.056 1.056h0.701c0.583 0 1.056-0.473 1.056-1.056v-2.142c0.513 0.243 1.115 0.385 1.75 0.385 0.003 0 0.005 0 0.007 0s0.002 0 0.003 0c2.324 0 4.209-1.884 4.209-4.209 0-1.139-0.452-2.172-1.187-2.929l0.001 0.001-0.001 0.001zM18.944 25.82c-0.648-0.003-1.254-0.182-1.773-0.491l0.016 0.009v-1.148l4.306-4.289c0.599 0.627 0.968 1.479 0.968 2.417 0 1.934-1.568 3.502-3.502 3.502-0.005 0-0.010 0-0.016 0l0.001-0.001zM23.681 10.972c0.041-0.156 0.064-0.335 0.064-0.519 0-0.656-0.296-1.245-0.761-1.637l-0.003-0.002c0.458-0.217 0.769-0.676 0.769-1.207 0-0.736-0.596-1.332-1.332-1.332s-1.332 0.596-1.332 1.332c0 0.265 0.077 0.511 0.21 0.719l-0.003-0.005c-0.846 0.122-1.527 0.721-1.765 1.512l-0.004 0.015c-0.007 0.023-0.010 0.047-0.010 0.074 0 0.122 0.081 0.225 0.192 0.258l0.002 0.001 3.623 1.050c0.022 0.007 0.047 0.011 0.074 0.011 0.119 0 0.22-0.078 0.252-0.187l0.001-0.002c0.013-0.023 0.021-0.051 0.023-0.080v-0.002zM12.549 10.582c-0.322-0.79-1.048-1.353-1.914-1.435l-0.009-0.001c0.112-0.197 0.177-0.432 0.177-0.682 0-0.774-0.627-1.401-1.401-1.401s-1.401 0.627-1.401 1.401c0 0.162 0.027 0.317 0.078 0.462l-0.003-0.010c0.137 0.382 0.424 0.681 0.789 0.829l0.009 0.003c-0.432 0.418-0.7 1.003-0.7 1.65 0 0.268 0.046 0.526 0.131 0.766l-0.005-0.016c0.040 0.11 0.143 0.187 0.265 0.187 0.033 0 0.064-0.006 0.092-0.016l-0.002 0.001 3.772-1.304c0.107-0.043 0.182-0.147 0.182-0.267 0-0.034-0.006-0.067-0.017-0.097l0.001 0.002c-0.012-0.028-0.028-0.053-0.047-0.075v0.001l0.002 0.001zM17.979 7.705c0.002-0.035 0.003-0.077 0.003-0.117 0-0.934-0.515-1.748-1.276-2.173l-0.013-0.007c0.339-0.252 0.567-0.635 0.608-1.073l0.001-0.006c0.003-0.039 0.006-0.084 0.006-0.13 0-0.846-0.686-1.533-1.533-1.533s-1.533 0.686-1.533 1.533c0 0.414 0.164 0.79 0.431 1.066v-0.001c-0.906 0.327-1.559 1.143-1.641 2.121l-0.001 0.009c-0.001 0.008-0.001 0.016-0.001 0.024 0 0.162 0.123 0.294 0.281 0.309h0.001l4.33 0.35c0.006 0 0.012 0.001 0.018 0.001 0.162 0 0.294-0.123 0.309-0.281v-0.002c0.008-0.022 0.012-0.048 0.012-0.075 0-0.006 0-0.012-0.001-0.018l-0.001 0.001z"></path>
</svg>
