<!-- Generated by IcoMoon.io -->
<svg version="1.1" xmlns="http://www.w3.org/2000/svg" width="32" height="32" viewBox="0 0 32 32">
<title>filter-horizontal</title>
<path d="M18.779 12.444h-12.331l2.546-2.546c0.202-0.202 0.326-0.479 0.326-0.786 0-0.614-0.498-1.112-1.112-1.112-0.307 0-0.585 0.124-0.786 0.326l-4.43 4.444c-0.2 0.201-0.324 0.479-0.324 0.786s0.124 0.585 0.324 0.786l4.444 4.443c0.202 0.202 0.479 0.326 0.786 0.326 0.614 0 1.112-0.498 1.112-1.112 0-0.307-0.124-0.585-0.326-0.786l-2.546-2.546h12.331c0.585-0.038 1.044-0.521 1.044-1.112s-0.46-1.074-1.041-1.112h-0.017zM13.226 16.887h12.331l-2.55-2.546c-0.201-0.202-0.326-0.479-0.326-0.786 0-0.614 0.498-1.112 1.112-1.112 0.307 0 0.585 0.124 0.786 0.326l4.43 4.444c0.2 0.201 0.325 0.479 0.325 0.786s-0.124 0.585-0.325 0.786l-4.443 4.444c-0.202 0.202-0.479 0.326-0.786 0.326-0.614 0-1.112-0.498-1.112-1.112 0-0.307 0.124-0.585 0.326-0.786l2.55-2.546h-12.331c-0.052 0.008-0.111 0.013-0.171 0.013-0.615 0-1.114-0.499-1.114-1.114s0.499-1.114 1.114-1.114c0.061 0 0.12 0.005 0.178 0.014l-0.006-0.001 0.014-0.022z"></path>
</svg>
