<!-- Generated by IcoMoon.io -->
<svg version="1.1" xmlns="http://www.w3.org/2000/svg" width="33" height="32" viewBox="0 0 33 32">
<title>first-month</title>
<path d="M14.173 18.059c-0.217 0.217-0.569 0.217-0.786 0s-0.217-0.569 0-0.786l2.223-2.223c0.159-0.16 0.397-0.209 0.606-0.12 0.207 0.086 0.342 0.289 0.342 0.513v8.333h1.667c0.308 0 0.556 0.249 0.556 0.556s-0.247 0.556-0.556 0.556h-4.444c-0.306 0-0.556-0.248-0.556-0.556 0-0.307 0.25-0.556 0.556-0.556h1.667v-6.991l-1.274 1.273zM2.668 28.777c0 0.307 0.25 0.556 0.556 0.556h25.556c0.307 0 0.556-0.247 0.556-0.556v-17.222h-26.667v17.222h-0.001zM21.558 7.111v-3.333h2.223v3.333h-2.223zM8.225 7.111v-3.333h2.223v3.333h-2.223zM28.78 4.889h-3.889v-1.667c0-0.307-0.249-0.556-0.556-0.556h-3.333c-0.306 0-0.556 0.249-0.556 0.556v1.667h-8.889v-1.667c0-0.307-0.249-0.556-0.556-0.556h-3.333c-0.306 0-0.556 0.249-0.556 0.556v1.667h-3.889c-0.306 0-0.556 0.249-0.556 0.556v5h26.667v-5c0-0.307-0.249-0.556-0.556-0.556h0.003z"></path>
</svg>
