<!-- Generated by IcoMoon.io -->
<svg version="1.1" xmlns="http://www.w3.org/2000/svg" width="32" height="32" viewBox="0 0 32 32">
<title>ghost-penny</title>
<path d="M18.284 16.497c0.123 0.522-0.2 1.044-0.722 1.168s-1.044-0.2-1.168-0.722 0.2-1.044 0.722-1.168c0.522-0.123 1.044 0.2 1.168 0.722zM12.487 16.719c0 0.536-0.434 0.97-0.97 0.97s-0.97-0.434-0.97-0.97c0-0.536 0.434-0.97 0.97-0.97s0.97 0.434 0.97 0.97zM18.557 6.64c0.049-0.036 0.092-0.071 0.133-0.108l-0.002 0.001 2.691 0.629h0.631l-0.583-0.389-2.465-0.565c0.035-0.052 0.072-0.113 0.107-0.175l0.006-0.011 2.603 0.078 0.679-0.173-0.628-0.212-2.506-0.066c0-0.026 0.014-0.052 0.017-0.071v-0.022c0-0.004-0.001-0.009-0.001-0.015s0-0.010 0.001-0.015v0.001c0.011-0.066 0.017-0.143 0.017-0.22 0-0.356-0.127-0.682-0.339-0.935l0.002 0.003c-0.213-0.271-0.488-0.484-0.802-0.623l-0.013-0.005c-0.248-0.099-0.538-0.176-0.838-0.215l-0.018-0.002c-0.122-0.025-0.261-0.039-0.403-0.039-0.115 0-0.228 0.009-0.338 0.027l0.012-0.002c-0.037 0.007-0.081 0.012-0.126 0.012-0.199 0-0.378-0.087-0.499-0.225l-0.001-0.001c-0.093-0.139-0.055-0.613-1.365-0.613 0 0 0.728 0.284 0.723 0.703 0 0-0.879-1.265-2.413-0.452 0 0 0.97 0.027 1.188 0.417-0.962-0.018-1.379 0.431-1.379 0.431-0.029 0.015-0.054 0.031-0.078 0.047l0.002-0.001c-0.293 0.198-0.538 0.443-0.728 0.728l-0.006 0.009-2.334-0.526c0 0-0.389-0.786-0.389-0.3v0.873l0.345-0.243 2.22 0.517c-0.072 0.161-0.121 0.348-0.138 0.543v0.006l-2.124-0.055-0.268-0.321-0.226 0.846c-0.123 0.469 0.45-0.184 0.45-0.184l2.192 0.066c0 0.032 0.014 0.066 0.024 0.098 0.129 0.381 0.345 0.588 0.479 0.812-3.196 1.348-5.399 4.452-5.403 8.073v13.1c0.001 0.804 0.653 1.455 1.456 1.456h0.484c0.803-0.002 1.454-0.653 1.456-1.456-0.001-0.008-0.001-0.019-0.001-0.029 0-0.268 0.218-0.486 0.486-0.486s0.486 0.217 0.486 0.486c0 0.010 0 0.020-0.001 0.030v-0.002c0.001 0.804 0.653 1.455 1.456 1.456h0.97c0.803-0.002 1.454-0.653 1.454-1.456-0.001-0.008-0.001-0.019-0.001-0.029 0-0.268 0.217-0.486 0.486-0.486s0.486 0.217 0.486 0.486c0 0.010 0 0.020-0.001 0.030v-0.002c0.001 0.804 0.653 1.455 1.456 1.456h0.97c0.801-0.004 1.449-0.652 1.453-1.453-0.001-0.008-0.001-0.019-0.001-0.029 0-0.268 0.217-0.486 0.486-0.486s0.486 0.218 0.486 0.486c0 0.010 0 0.020-0.001 0.030v-0.002c0.001 0.803 0.652 1.454 1.454 1.456h0.486c0.803-0.002 1.454-0.653 1.456-1.456v-13.1c-0.003-3.686-2.286-6.838-5.515-8.121l-0.059-0.021 0.002 0.005zM14.421 17.692c-0.033 1.048-0.889 1.884-1.942 1.884s-1.91-0.837-1.942-1.882v-2.916c0.002-0.353 0.1-0.683 0.268-0.965l-0.005 0.009c-0.562-0.166-1.005-0.573-1.216-1.099l-0.004-0.012c0.412 0.594 1.243 0.573 1.675 0.568 0.333-0.275 0.763-0.442 1.233-0.442 1.072 0 1.941 0.869 1.941 1.941l-0.008 2.914zM20.243 17.692c0 1.072-0.869 1.941-1.941 1.941s-1.941-0.869-1.941-1.941v-2.913c0-0.001 0-0.001 0-0.002 0-0.352 0.095-0.682 0.26-0.966l-0.005 0.009c-0.56-0.166-1.002-0.573-1.213-1.098l-0.004-0.012c0.412 0.593 1.238 0.573 1.672 0.568 0.333-0.275 0.763-0.442 1.233-0.442 1.071 0 1.939 0.869 1.939 1.939 0 0.001 0 0.002 0 0.003l0.001 2.914z"></path>
</svg>
