<!-- Generated by IcoMoon.io -->
<svg version="1.1" xmlns="http://www.w3.org/2000/svg" width="32" height="32" viewBox="0 0 32 32">
<title>ghostbusters</title>
<path d="M15.63 6.556c2.36 0 3.939 0.777 5.654 1.947l-12.781 12.781c-0.758-1.111-1.947-2.817-1.947-5.654 0-5.003 4.071-9.073 9.074-9.073zM16.357 25.43c-2.364 0-3.94-0.779-5.654-1.947l12.783-12.781c0.756 1.111 1.947 2.817 1.947 5.654 0 5.003-4.071 9.074-9.074 9.074h-0.001zM16 2.667c-7.351 0-13.333 5.98-13.333 13.333 0 7.351 5.982 13.333 13.333 13.333 7.353 0 13.333-5.983 13.333-13.333 0-7.353-5.981-13.333-13.333-13.333z"></path>
</svg>
