<!-- Generated by IcoMoon.io -->
<svg version="1.1" xmlns="http://www.w3.org/2000/svg" width="32" height="32" viewBox="0 0 32 32">
<title>ghost</title>
<path d="M20.889 16c0 1.225-0.998 2.222-2.222 2.222-1.226 0-2.222-0.997-2.222-2.222v-3.333c0-1.226 0.995-2.222 2.222-2.222 1.225 0 2.222 0.995 2.222 2.222v3.333zM14.222 16c0 1.225-0.998 2.222-2.222 2.222-1.226 0-2.222-0.997-2.222-2.222v-3.333c0-1.226 0.995-2.222 2.222-2.222 1.225 0 2.222 0.995 2.222 2.222v3.333zM15.334 2.667c-5.515 0-10 4.486-10 10v15c0 0.919 0.747 1.667 1.667 1.667h0.556c0.917 0 1.667-0.747 1.667-1.667 0-0.306 0.249-0.556 0.556-0.556 0.306 0 0.556 0.249 0.556 0.556 0 0.919 0.748 1.667 1.667 1.667h1.111c0.917 0 1.667-0.747 1.667-1.667 0-0.306 0.249-0.556 0.556-0.556 0.305 0 0.556 0.249 0.556 0.556 0 0.919 0.747 1.667 1.667 1.667h1.111c0.917 0 1.667-0.747 1.667-1.667 0-0.306 0.249-0.556 0.556-0.556 0.305 0 0.556 0.249 0.556 0.556 0 0.919 0.747 1.667 1.667 1.667h0.556c0.917 0 1.667-0.747 1.667-1.667v-15c0-5.514-4.487-10-10-10zM17.555 16c0.612 0 1.111-0.499 1.111-1.111 0-0.613-0.499-1.111-1.111-1.111-0.614 0-1.111 0.498-1.111 1.111s0.498 1.111 1.111 1.111zM10.889 16c0.612 0 1.111-0.499 1.111-1.111 0-0.613-0.499-1.111-1.111-1.111-0.614 0-1.111 0.498-1.111 1.111s0.498 1.111 1.111 1.111z"></path>
</svg>
