<!-- Generated by IcoMoon.io -->
<svg version="1.1" xmlns="http://www.w3.org/2000/svg" width="32" height="32" viewBox="0 0 32 32">
<title>groupcare-ns</title>
<path d="M8.389 16.444c-0.385 0-0.761-0.038-1.125-0.109-0.967-0.185-1.662-0.567-2.072-0.853-1.522-1.013-2.524-2.726-2.524-4.666 0-3.104 2.566-5.629 5.722-5.629s5.722 2.525 5.722 5.629c0 0.609-0.099 1.196-0.282 1.745l4.479 1.398c0.851-2.060 2.907-3.517 5.304-3.517 3.155 0 5.722 2.525 5.722 5.629 0 1.71-0.779 3.244-2.007 4.277l-0.031 0.032c-0.051 0.055-1.313 1.32-3.686 1.32s-3.635-1.267-3.688-1.32l-0.048-0.050c-0.301-0.256-0.574-0.542-0.816-0.853l-1.934 1.057c0.296 0.583 0.463 1.24 0.463 1.935 0 2.393-1.979 4.339-4.411 4.339l-0.055-0c-1.357-0.015-2.255-0.598-2.63-0.899-1.049-0.794-1.725-2.041-1.725-3.44 0-2.393 1.979-4.339 4.411-4.339 1.419 0 2.683 0.662 3.491 1.689l1.923-1.051c-0.447-0.801-0.701-1.721-0.701-2.697 0-0.451 0.054-0.889 0.156-1.309l-4.546-1.419c-0.303 0.591-0.709 1.123-1.195 1.572l0.007 0.018-0.187 0.193c-0.076 0.075-1.335 1.318-3.686 1.318h-0.050zM3.524 10.816c0 1.297 0.527 2.475 1.382 3.338 0.703-1.26 2.057-2.074 3.533-2.074 1.449 0 2.783 0.785 3.496 2.008 0.817-0.856 1.318-2.008 1.318-3.272 0-2.638-2.182-4.785-4.864-4.785s-4.864 2.147-4.864 4.785zM5.577 14.715c0.018 0.014 0.038 0.029 0.059 0.044 0.559 0.379 1.202 0.646 1.895 0.768 0.271 0.046 0.568 0.073 0.889 0.075 1.068-0.007 2.056-0.353 2.856-0.936-0.536-1.054-1.635-1.742-2.836-1.742-1.221 0-2.338 0.71-2.863 1.792zM27.126 19.377c0.836-0.86 1.351-2.025 1.351-3.306-0.001-2.638-2.184-4.785-4.864-4.785-2.682 0-4.865 2.147-4.865 4.785 0 1.28 0.514 2.444 1.349 3.304 0.707-1.24 2.051-2.040 3.514-2.040s2.807 0.8 3.515 2.042zM26.462 19.947c-0.531-1.068-1.638-1.767-2.849-1.767-1.212 0-2.321 0.698-2.85 1.767 0.801 0.572 1.787 0.91 2.85 0.91s2.048-0.337 2.849-0.909zM23.613 16.84c-1.098 0-1.991-0.879-1.991-1.959s0.893-1.959 1.991-1.959 1.991 0.878 1.991 1.959c0 1.080-0.893 1.959-1.991 1.959zM23.613 13.766c-0.625 0-1.134 0.501-1.134 1.115 0 0.616 0.509 1.115 1.134 1.115s1.134-0.501 1.134-1.115c0-0.615-0.509-1.115-1.134-1.115zM6.397 9.626c0 1.080 0.893 1.959 1.991 1.959s1.991-0.878 1.991-1.959c0-1.080-0.893-1.959-1.991-1.959s-1.991 0.878-1.991 1.959zM7.255 9.624c0-0.614 0.507-1.115 1.134-1.115 0.625 0 1.134 0.501 1.134 1.115s-0.509 1.115-1.134 1.115c-0.625 0-1.134-0.501-1.134-1.115zM16.731 22.469c0-1.928-1.595-3.496-3.553-3.496-1.96 0-3.553 1.569-3.553 3.496 0 0.873 0.326 1.671 0.865 2.284 0.543-0.814 1.457-1.269 2.587-1.269 1.203 0 2.165 0.515 2.665 1.402 0.612-0.628 0.989-1.48 0.989-2.417zM11.134 25.333c0.327 0.24 1.019 0.631 2.044 0.631 0.854 0 1.522-0.373 1.851-0.602-0.341-0.66-1.035-1.033-1.951-1.033-0.886 0-1.564 0.352-1.941 1l-0.003 0.005zM11.438 21.328c0 0.862 0.713 1.563 1.589 1.563s1.589-0.701 1.589-1.563c0-0.862-0.713-1.563-1.589-1.563s-1.589 0.701-1.589 1.563zM12.295 21.328c0-0.397 0.329-0.719 0.731-0.719s0.731 0.322 0.731 0.719c0 0.398-0.329 0.719-0.731 0.719-0.404 0-0.731-0.322-0.731-0.719z"></path>
</svg>
