<!-- Generated by IcoMoon.io -->
<svg version="1.1" xmlns="http://www.w3.org/2000/svg" width="38" height="32" viewBox="0 0 38 32">
<title>heart</title>
<path d="M18.883 30.667c-0.443 0-1.059-0.139-1.461-0.531-0.394-0.33-10.808-9.131-13.643-12.078-2.856-2.968-3.747-4.408-3.747-7.626 0-5.366 4.44-9.731 9.898-9.731 0.009-0 0.020-0 0.031-0 3.898 0 7.271 2.246 8.897 5.514l0.026 0.058c1.652-3.326 5.025-5.571 8.923-5.571 0.011 0 0.022 0 0.032 0h-0.002c5.456 0 9.896 4.365 9.896 9.731 0 3.216-0.89 4.658-3.744 7.626-2.835 2.947-13.251 11.749-13.691 12.122-0.355 0.349-0.971 0.488-1.414 0.488z"></path>
</svg>
