<!-- Generated by IcoMoon.io -->
<svg version="1.1" xmlns="http://www.w3.org/2000/svg" width="32" height="32" viewBox="0 0 32 32">
<title>help-outline</title>
<path d="M16 4c-6.627 0-12 5.373-12 12s5.373 12 12 12c6.627 0 12-5.373 12-12s-5.373-12-12-12zM2.667 16c0-7.364 5.97-13.333 13.333-13.333s13.333 5.97 13.333 13.333c0 7.364-5.97 13.333-13.333 13.333s-13.333-5.97-13.333-13.333z"></path>
<path d="M15.32 18.867l1.48-0.56c-0.28-0.24-0.48-0.62-0.48-0.94 0-0.84 0.74-1.34 1.54-1.92 1.040-0.72 2.18-1.54 2.18-3.2 0-1.76-1.5-3.12-3.98-3.12-1.86 0-3.36 0.76-4.34 2.020l1.16 1.28c0.7-0.92 1.62-1.52 2.98-1.52 1.44 0 2.12 0.76 2.12 1.64 0 0.92-0.74 1.42-1.54 1.98-0.9 0.64-1.86 1.32-1.86 2.66 0 0.64 0.24 1.2 0.74 1.68zM15.88 22.887c0.68 0 1.26-0.58 1.26-1.26s-0.58-1.24-1.26-1.24c-0.68 0-1.24 0.56-1.24 1.24s0.56 1.26 1.24 1.26z"></path>
</svg>
