<!-- Generated by IcoMoon.io -->
<svg version="1.1" xmlns="http://www.w3.org/2000/svg" width="32" height="32" viewBox="0 0 32 32">
<title>hot-prospect-sq</title>
<path d="M8.222 2.667h15.555c3.068 0 5.556 2.487 5.556 5.556v15.555c0 3.068-2.487 5.556-5.556 5.556h-15.555c-3.068 0-5.556-2.487-5.556-5.556v-15.555c0-3.068 2.487-5.556 5.556-5.556v0zM22.385 15.24c-0.031-0.104-0.114-0.186-0.222-0.218s-0.225-0.009-0.312 0.060c-0.457 0.372-0.971 0.672-1.525 0.891-0.147-3.891-3.148-7.137-7.161-7.748-0.127-0.017-0.252 0.037-0.323 0.139s-0.076 0.233-0.012 0.339c1 1.625 1.109 3.615 0.293 5.332-0.389-0.518-0.684-1.094-0.873-1.706-0.031-0.103-0.115-0.185-0.223-0.217s-0.224-0.008-0.311 0.061c-2.368 1.902-3.063 5.114-1.677 7.761s4.487 4.034 7.494 3.352c3.007-0.682 5.131-3.255 5.131-6.216 0.002-0.621-0.093-1.237-0.281-1.832l0.001 0.002zM16 23.141c-0.719-0.003-1.407-0.283-1.909-0.778s-0.774-1.162-0.757-1.851c0.022-2.176 1.57-4.064 3.771-4.598-1.244 0.877-1.175 2.577-0.685 3.286 0.335-0.264 0.633-0.552 0.685-0.987 1.143 0.432 1.561 1.365 1.561 2.37 0.016 0.682-0.26 1.342-0.763 1.825s-1.191 0.748-1.902 0.735v-0.001z"></path>
</svg>
