<!-- Generated by IcoMoon.io -->
<svg version="1.1" xmlns="http://www.w3.org/2000/svg" width="28" height="32" viewBox="0 0 28 32">
<title>hot-prospect-outline</title>
<path d="M7.107 1.627c0.002 0.291 0.080 0.576 0.227 0.827 0.935 1.563 1.424 3.352 1.413 5.173-0.002 0.767-0.087 1.531-0.253 2.28-0.157-0.37-0.295-0.749-0.413-1.133v-0.093c-0.102-0.334-0.309-0.627-0.59-0.836s-0.621-0.322-0.97-0.324c-0.382-0-0.751 0.137-1.040 0.387-1.75 1.448-3.106 3.315-3.94 5.428s-1.119 4.403-0.83 6.656 1.145 4.396 2.487 6.229c1.342 1.833 3.125 3.297 5.185 4.254s4.329 1.378 6.595 1.222c2.266-0.156 4.456-0.883 6.365-2.114s3.476-2.925 4.554-4.924c1.078-2 1.632-4.239 1.61-6.511-0.001-1.329-0.203-2.651-0.6-3.92-0.028-0.1-0.073-0.195-0.133-0.28-0.14-0.231-0.335-0.423-0.568-0.561s-0.495-0.215-0.765-0.226c-0.382-0-0.751 0.137-1.040 0.387-0.416 0.353-0.862 0.67-1.333 0.947-0.462-3.599-2.073-6.953-4.592-9.564s-5.814-4.34-9.394-4.93h-0.347c-0.431 0-0.845 0.171-1.15 0.476s-0.476 0.719-0.476 1.15zM14.067 28.933c-1.045-0.017-2.041-0.443-2.776-1.185s-1.15-1.743-1.157-2.788v-0.107c0.017-1.285 0.333-2.547 0.923-3.688s1.438-2.129 2.477-2.885c-0.067 0.272-0.116 0.548-0.147 0.827-0.193 1.292 0.066 2.611 0.733 3.733 0.074 0.118 0.174 0.219 0.291 0.295s0.25 0.125 0.389 0.145c0.139 0.019 0.28 0.009 0.415-0.027s0.261-0.1 0.372-0.186c0.459-0.353 0.856-0.782 1.173-1.267 0.461 0.382 0.824 0.871 1.056 1.423s0.327 1.153 0.278 1.75v0.107c-0.002 0.508-0.103 1.010-0.299 1.479s-0.482 0.894-0.843 1.252c-0.36 0.358-0.787 0.641-1.257 0.834s-0.973 0.291-1.481 0.289h-0.147zM9.453 2.133c3.227 0.686 6.133 2.429 8.259 4.952s3.348 5.684 3.475 8.981c0.008 0.156 0.053 0.308 0.129 0.444s0.184 0.252 0.313 0.34c0.129 0.088 0.277 0.145 0.431 0.166s0.312 0.007 0.46-0.043h0.067c0.917-0.387 1.782-0.889 2.573-1.493 0.217 0.873 0.329 1.768 0.333 2.667-0.003 2.162-0.62 4.278-1.779 6.102s-2.812 3.283-4.767 4.204c0.702-0.99 1.080-2.173 1.080-3.387v-0.12c0.065-1.176-0.243-2.343-0.88-3.334s-1.57-1.756-2.666-2.186c-0.146-0.053-0.301-0.074-0.456-0.060s-0.304 0.062-0.438 0.14c-0.16 0.095-0.29 0.234-0.373 0.4-0.013-0.191-0.013-0.382 0-0.573 0.041-0.52 0.19-1.026 0.438-1.485s0.589-0.861 1.002-1.181c0.178-0.137 0.304-0.331 0.359-0.549s0.034-0.448-0.059-0.653c-0.092-0.205-0.251-0.373-0.451-0.476s-0.428-0.137-0.649-0.094h-0.107c-2.18 0.592-4.105 1.884-5.48 3.676s-2.125 3.986-2.133 6.244v0.147c0.001 1.277 0.412 2.521 1.173 3.547-1.699-0.78-3.18-1.967-4.311-3.457s-1.876-3.235-2.17-5.081c-0.294-1.847-0.128-3.737 0.484-5.504s1.65-3.355 3.023-4.625c0.364 1.105 0.895 2.148 1.573 3.093 0.104 0.14 0.241 0.252 0.4 0.324s0.333 0.103 0.507 0.089c0.173-0.020 0.338-0.083 0.48-0.183s0.257-0.234 0.334-0.39c0.745-1.614 1.132-3.369 1.133-5.147 0.003-1.908-0.445-3.79-1.307-5.493z"></path>
</svg>
