<!-- Generated by IcoMoon.io -->
<svg version="1.1" xmlns="http://www.w3.org/2000/svg" width="32" height="32" viewBox="0 0 32 32">
<title>hot-prospect</title>
<path d="M27.223 14.949c-0.068-0.237-0.283-0.406-0.537-0.406-0.137 0-0.262 0.049-0.359 0.13l0.001-0.001c-0.733 0.625-1.578 1.149-2.494 1.536l-0.063 0.023c-0.257-6.864-5.332-12.47-11.927-13.549l-0.082-0.011c-0.022-0.003-0.049-0.005-0.076-0.005-0.31 0-0.562 0.251-0.562 0.562 0 0.104 0.028 0.2 0.077 0.284l-0.002-0.003c0.881 1.47 1.402 3.243 1.402 5.138 0 1.52-0.335 2.962-0.936 4.255l0.026-0.062c-0.622-0.854-1.121-1.846-1.446-2.915l-0.018-0.070c-0.069-0.235-0.283-0.403-0.536-0.403-0.137 0-0.263 0.049-0.359 0.131l0.001-0.001c-2.453 2.065-4 5.136-4 8.57 0 6.175 5.005 11.18 11.18 11.18s11.179-5.005 11.18-11.179c0-0.007 0-0.015 0-0.022 0-1.135-0.172-2.23-0.492-3.261l0.021 0.078h0.001zM16.514 28.777c-2.473-0.011-4.473-2.018-4.473-4.493 0-0.038 0.001-0.076 0.002-0.114v0.005c0.038-3.866 2.687-7.104 6.266-8.035l0.058-0.013c-2.087 1.533-1.97 4.51-1.149 5.75 0.561-0.462 1.063-0.968 1.149-1.728 1.918 0.756 2.618 2.389 2.618 4.147 0.001 0.028 0.001 0.062 0.001 0.096 0 2.422-1.963 4.385-4.385 4.385-0.031 0-0.061 0-0.092-0.001h0.004l0.001 0.001z"></path>
</svg>
