<!-- Generated by IcoMoon.io -->
<svg version="1.1" xmlns="http://www.w3.org/2000/svg" width="31" height="32" viewBox="0 0 31 32">
<title>import_file</title>
<path d="M17.385 11.176h-7.451v2.483h7.451v-2.483z"></path>
<path d="M13.721 26.077h-9.375c-0.165 0-0.323-0.065-0.439-0.182s-0.182-0.274-0.182-0.439v-14.901c0-0.165 0.065-0.323 0.182-0.439s0.274-0.182 0.439-0.182h13.659c0.165 0 0.323 0.065 0.439 0.182s0.182 0.274 0.182 0.439v5.054c1.16-0.582 2.429-0.912 3.725-0.969v-6.569c0.001-0.081-0.015-0.162-0.047-0.237s-0.079-0.142-0.139-0.198l-7.45-7.45c-0.055-0.060-0.123-0.107-0.198-0.139s-0.156-0.048-0.237-0.047h-13.659c-0.165 0-0.323 0.065-0.439 0.182s-0.182 0.274-0.182 0.439v28.56c0 0.165 0.065 0.323 0.182 0.439s0.274 0.182 0.439 0.182h14.901c-0.876-1.089-1.491-2.363-1.8-3.725zM13.659 1.242l7.45 7.451h-7.45v-7.451z"></path>
<path d="M9.934 21.11h3.961c0.29-0.884 0.708-1.721 1.242-2.483h-5.203v2.483z"></path>
<path d="M9.934 17.385h6.209c0.384-0.378 0.8-0.722 1.242-1.031v-1.453h-7.451v2.483z"></path>
<path d="M9.934 24.835h3.576c-0.019-0.302-0.019-0.605 0-0.907-0.001-0.529 0.049-1.057 0.149-1.577h-3.725v2.484z"></path>
<path d="M8.692 11.176h-3.725v2.483h3.725v-2.483z"></path>
<path d="M8.692 14.901h-3.725v2.484h3.725v-2.483z"></path>
<path d="M8.692 22.352h-3.725v2.484h3.725v-2.484z"></path>
<path d="M8.692 18.626h-3.725v2.483h3.725v-2.483z"></path>
<path d="M22.774 15.857c-1.596 0-3.157 0.473-4.484 1.36s-2.362 2.147-2.973 3.622-0.771 3.098-0.459 4.663c0.311 1.566 1.080 3.004 2.209 4.133s2.567 1.898 4.133 2.209c1.566 0.311 3.189 0.152 4.663-0.459s2.735-1.645 3.622-2.973c0.887-1.327 1.36-2.888 1.36-4.484-0.003-2.14-0.855-4.191-2.368-5.704s-3.564-2.364-5.704-2.368zM26.164 24.549h-2.769v2.769c0 0.165-0.065 0.323-0.182 0.439s-0.274 0.182-0.439 0.182c-0.165 0-0.323-0.065-0.439-0.182s-0.182-0.274-0.182-0.439v-2.769h-2.769c-0.165 0-0.323-0.065-0.439-0.182s-0.182-0.274-0.182-0.439c0.003-0.164 0.070-0.32 0.185-0.436s0.272-0.182 0.436-0.185h2.769v-2.769c0-0.165 0.065-0.323 0.182-0.439s0.274-0.182 0.439-0.182c0.165 0 0.323 0.065 0.439 0.182s0.182 0.274 0.182 0.439v2.769h2.769c0.164 0.003 0.32 0.070 0.436 0.185s0.182 0.272 0.185 0.436c0 0.165-0.065 0.323-0.182 0.439s-0.274 0.182-0.439 0.182z"></path>
</svg>
