<!-- Generated by IcoMoon.io -->
<svg version="1.1" xmlns="http://www.w3.org/2000/svg" width="32" height="32" viewBox="0 0 32 32">
<title>inactive-account</title>
<path d="M24.099 5.387l-11.285 11.185c-2.253-1.896-3.46-4.947-3.239-8.26l0.132-1.025 0.105-0.458c0.928-4.022 4.105-6.829 7.725-6.829 3.017 0 5.692 1.964 7.049 4.904l-0.488 0.483zM9.389 19.968l-2.311 0.812c-2.116 0.744-3.539 2.727-3.539 4.94v0.046l5.849-5.797zM27.999 20.78l-5.793-2.035v-2.118c1.965-1.633 3.2-4.291 3.308-7.015l-20.322 19.892h25.014c0.736 0 1.333-0.589 1.333-1.311v-2.473c0-2.212-1.423-4.196-3.54-4.94zM31.803 1.653l-30.666 30.159c-0.003 0.003-0.005 0.003-0.008 0.005-0.253 0.243-0.673 0.243-0.928 0-0.001-0.003-0.005-0.003-0.007-0.005-0.259-0.254-0.261-0.669 0-0.927l30.666-30.159c0.263-0.257 0.684-0.254 0.943 0 0.263 0.257 0.261 0.671 0 0.927z"></path>
</svg>
