<!-- Generated by IcoMoon.io -->
<svg version="1.1" xmlns="http://www.w3.org/2000/svg" width="32" height="32" viewBox="0 0 32 32">
<title>instagram</title>
<path d="M16.007 5.069c3.565 0 3.986 0.016 5.388 0.078 1.303 0.058 2.006 0.276 2.475 0.458 0.62 0.24 1.068 0.532 1.532 0.995 0.469 0.469 0.755 0.912 1.001 1.532 0.183 0.469 0.401 1.177 0.459 2.475 0.063 1.407 0.078 1.829 0.078 5.387s-0.016 3.985-0.078 5.387c-0.058 1.303-0.276 2.005-0.459 2.475-0.24 0.62-0.531 1.068-0.996 1.531-0.469 0.469-0.912 0.755-1.532 1-0.469 0.183-1.178 0.401-2.476 0.458-1.407 0.062-1.829 0.078-5.389 0.078s-3.986-0.016-5.389-0.078c-1.303-0.058-2.006-0.276-2.476-0.458-0.62-0.24-1.068-0.531-1.533-0.995-0.469-0.469-0.755-0.912-1.001-1.531-0.183-0.469-0.401-1.178-0.459-2.475-0.063-1.407-0.078-1.829-0.078-5.387s0.016-3.985 0.078-5.387c0.058-1.303 0.276-2.005 0.459-2.475 0.24-0.62 0.532-1.068 0.996-1.532 0.469-0.469 0.912-0.755 1.533-1 0.469-0.183 1.177-0.401 2.476-0.458 1.402-0.063 1.824-0.078 5.389-0.078h0.001zM16.007 2.667c-3.622 0-4.075 0.016-5.498 0.078-1.417 0.063-2.392 0.292-3.236 0.62-0.88 0.344-1.626 0.797-2.365 1.542-0.745 0.74-1.199 1.484-1.543 2.36-0.329 0.849-0.558 1.818-0.62 3.235-0.063 1.428-0.078 1.88-0.078 5.501s0.016 4.073 0.078 5.496c0.063 1.417 0.292 2.391 0.62 3.235 0.344 0.88 0.797 1.625 1.543 2.365 0.74 0.739 1.485 1.199 2.361 1.537 0.85 0.328 1.819 0.558 3.236 0.62 1.422 0.063 1.876 0.078 5.498 0.078s4.076-0.016 5.498-0.078c1.417-0.062 2.392-0.292 3.236-0.62 0.876-0.338 1.621-0.797 2.361-1.537s1.199-1.484 1.538-2.36c0.328-0.849 0.558-1.818 0.62-3.235 0.063-1.422 0.078-1.875 0.078-5.496s-0.016-4.073-0.078-5.496c-0.063-1.417-0.292-2.391-0.62-3.235-0.329-0.886-0.782-1.63-1.527-2.37-0.74-0.739-1.485-1.199-2.36-1.537-0.85-0.328-1.819-0.558-3.236-0.62-1.427-0.067-1.881-0.083-5.503-0.083l-0.001 0.001zM16.007 9.153c-3.783 0-6.853 3.068-6.853 6.85s3.069 6.85 6.853 6.85c3.784 0 6.853-3.068 6.853-6.85s-3.069-6.85-6.853-6.85zM16.007 20.446c-2.455 0-4.445-1.989-4.445-4.443s1.99-4.443 4.445-4.443c2.455 0 4.445 1.989 4.445 4.443s-1.99 4.443-4.445 4.443zM24.731 8.882c0 0.883-0.716 1.599-1.6 1.599s-1.6-0.716-1.6-1.599c0-0.883 0.716-1.599 1.6-1.599s1.6 0.716 1.6 1.599z"></path>
</svg>
