<!-- Generated by IcoMoon.io -->
<svg version="1.1" xmlns="http://www.w3.org/2000/svg" width="32" height="32" viewBox="0 0 32 32">
<title>invite-team-solid</title>
<path d="M24.781 4.446h-21.114c-0.306 0-0.554 0.248-0.554 0.554v15.561c0 0.306 0.248 0.554 0.554 0.554h4.446c0.306 0 0.554-0.248 0.554-0.554v-0.837c0-0.768 0.622-1.39 1.39-1.39s1.39 0.622 1.39 1.39v0.837c0 0.306 0.248 0.554 0.554 0.554 3.111 0 3.555 0.003 6.666 0v-2.448h4v-4h2.667v-9.666c0-0.306-0.247-0.554-0.553-0.554zM14.224 15.57h-7.781v-0.567c0-0.015 0-0.032 0-0.050 0-1.394 0.904-2.577 2.158-2.995l0.023-0.006c-0.307-0.377-0.493-0.864-0.493-1.394 0-1.226 0.993-2.219 2.219-2.219s2.219 0.993 2.219 2.219v0.008c0 0.527-0.187 1.013-0.5 1.39l0.003-0.004c1.276 0.425 2.179 1.607 2.179 3.001 0 0.017 0 0.035 0 0.053v-0.003l-0.027 0.565zM16.447 8.905h2.777v1.111h-2.777v-1.111zM22 14.445h-5.553v-1.111h5.553v1.111zM22 12.222h-5.553v-1.112h5.553v1.112z"></path>
<path d="M31.199 19.789h-4.015l0.012-4.015h-3.181v4.015h-4.015v3.182h4.015v4.015h3.181l-0.012-4.015h4.015v-3.182z"></path>
</svg>
