<!-- Generated by IcoMoon.io -->
<svg version="1.1" xmlns="http://www.w3.org/2000/svg" width="32" height="32" viewBox="0 0 32 32">
<title>invite-team-outline</title>
<path d="M11.507 16.755c0.202-0.255 0.277-0.588 0.204-0.905-0.13-0.559-0.387-1.146-0.797-1.653-0.368-0.456-0.853-0.837-1.456-1.075 0.403-0.379 0.657-0.916 0.657-1.518 0-1.172-0.96-2.094-2.109-2.094s-2.109 0.922-2.109 2.094c0 0.603 0.254 1.139 0.657 1.518-0.603 0.237-1.087 0.619-1.456 1.075-0.41 0.507-0.667 1.093-0.797 1.653-0.074 0.317 0.001 0.65 0.204 0.905s0.51 0.403 0.835 0.403h5.332c0.325 0 0.633-0.149 0.835-0.403zM5.34 16.092c0.085-0.364 0.239-0.737 0.469-1.067 0.037-0.054 0.077-0.106 0.118-0.157 0.436-0.539 1.101-0.942 2.078-0.942s1.643 0.403 2.078 0.942c0.041 0.051 0.081 0.104 0.118 0.157 0.23 0.33 0.385 0.703 0.469 1.067h-5.332zM8.006 10.577c0.576 0 1.043 0.46 1.043 1.027s-0.467 1.027-1.043 1.027c-0.576 0-1.043-0.46-1.043-1.027s0.467-1.027 1.043-1.027z"></path>
<path d="M14.241 14.975v1.295h5.667v-1.295h-5.667z"></path>
<path d="M19.908 12.743v1.295h-5.667v-1.295h5.667z"></path>
<path d="M14.241 11.805h2.834v-1.295h-2.834v1.295z"></path>
<path d="M25.179 15.897c0.425 0 0.769 0.344 0.769 0.769v3.845l3.846 0.001c0.425 0 0.769 0.345 0.769 0.769s-0.344 0.769-0.769 0.769l-3.846-0.001v3.847c0 0.425-0.344 0.769-0.769 0.769s-0.769-0.344-0.769-0.769v-3.847l-3.846 0.001c-0.425 0-0.769-0.344-0.769-0.769s0.344-0.769 0.769-0.769l3.846-0.001v-3.845c0-0.425 0.344-0.769 0.769-0.769z"></path>
<path d="M1.569 7.178c0-0.564 0.449-1.044 1.032-1.044h19.004c0.585 0 1.031 0.483 1.031 1.045v10.871c0 0.295-0.239 0.533-0.533 0.533s-0.533-0.239-0.533-0.533v-10.85h-18.933v14.317h3.932v-0.75c0-0.991 0.787-1.817 1.785-1.817s1.785 0.826 1.785 1.817v0.75h3.932v-0.733c-0.002-0.030-0.002-0.060-0.002-0.088 0-0.991 0.787-1.817 1.785-1.817s1.785 0.826 1.785 1.817c0 0.013-0 0.027-0.001 0.037l-0.001 0.030-0.001 0.019v0.736l0.058-0.001c0.295-0.007 0.539 0.227 0.545 0.521s-0.227 0.539-0.521 0.545l-0.113 0.003c-0.584 0-1.036-0.483-1.036-1.048v-0.768c0-0.011 0-0.022 0.001-0.033l0.001-0.014 0.001-0.018c0-0.004 0-0.006 0-0.007s0-0 0 0c0-0.427-0.334-0.75-0.718-0.75s-0.718 0.323-0.718 0.75c0 0.015 0.001 0.027 0.001 0.033l0.001 0.019v0.792c0 0.564-0.449 1.044-1.032 1.044h-4.002c-0.582 0-1.032-0.48-1.032-1.044v-0.772c0-0.427-0.334-0.75-0.718-0.75s-0.718 0.323-0.718 0.75v0.772c0 0.564-0.449 1.044-1.032 1.044h-4.002c-0.583 0-1.032-0.48-1.032-1.044v-14.362z"></path>
</svg>
