<!-- Generated by IcoMoon.io -->
<svg version="1.1" xmlns="http://www.w3.org/2000/svg" width="32" height="32" viewBox="0 0 32 32">
<title>invite</title>
<path d="M11.002 5.999h2.222c0.306 0 0.556-0.249 0.556-0.556s-0.249-0.556-0.556-0.556h-2.222c-0.306 0-0.556 0.249-0.556 0.556s0.249 0.556 0.556 0.556zM21.001 8.221h-7.778c-0.306 0-0.556 0.249-0.556 0.556s0.249 0.556 0.556 0.556h7.778c0.306 0 0.556-0.249 0.556-0.556s-0.249-0.556-0.556-0.556zM21.001 11.554h-10c-0.306 0-0.556 0.249-0.556 0.556s0.249 0.556 0.556 0.556h10c0.306 0 0.556-0.249 0.556-0.556s-0.249-0.556-0.556-0.556zM21.001 14.888h-10c-0.306 0-0.556 0.249-0.556 0.556s0.249 0.556 0.556 0.556h10c0.306 0 0.556-0.249 0.556-0.556s-0.249-0.556-0.556-0.556zM25.88 25.791c-0.193 0.24-0.541 0.278-0.781 0.087l-5.403-4.323h-7.388l-5.403 4.323c-0.24 0.193-0.589 0.151-0.781-0.087-0.193-0.24-0.152-0.589 0.087-0.781l5.555-4.445c0.099-0.079 0.221-0.121 0.347-0.121h7.778c0.126 0 0.249 0.042 0.347 0.121l5.555 4.446c0.24 0.191 0.279 0.54 0.087 0.78h-0.001zM8.223 17.111v-13.333h15.556v13.333h-15.556zM22.42 20.351c-0.255 0.171-0.6 0.101-0.771-0.153s-0.101-0.6 0.154-0.771l6.981-4.653-3.895-2.678v-8.874c0-0.308-0.248-0.556-0.556-0.556h-16.666c-0.306 0-0.556 0.248-0.556 0.556v8.874l-3.893 2.678 6.981 4.653c0.255 0.171 0.325 0.516 0.153 0.771-0.17 0.255-0.515 0.325-0.77 0.153l-6.916-4.61v11.369c0 1.225 0.997 2.223 2.222 2.223h22.222c1.225 0 2.222-0.998 2.222-2.223v-11.369l-6.913 4.61z"></path>
</svg>
