<!-- Generated by IcoMoon.io -->
<svg version="1.1" xmlns="http://www.w3.org/2000/svg" width="32" height="32" viewBox="0 0 32 32">
<title>kakao-talk</title>
<path d="M12.616 12.408l-0.923 2.601h1.844z"></path>
<path d="M16 1.333c-8.836 0-16 5.611-16 12.532 0 4.475 2.995 8.401 7.5 10.617-1.732 5.933-1.777 5.96-1.484 6.132 0.368 0.215 0.845-0.007 7.143-4.415 0.923 0.129 1.872 0.197 2.841 0.197 8.836 0 16-5.611 16-12.532s-7.164-12.532-16-12.532zM8.077 17.364c0 0.483-0.415 0.876-0.923 0.876s-0.923-0.393-0.923-0.876v-5.448h-1.44c-0.5 0-0.905-0.403-0.905-0.897s0.404-0.899 0.904-0.899h4.727c0.5 0 0.905 0.403 0.905 0.897s-0.407 0.899-0.905 0.899h-1.44zM15.248 18.228c-0.96 0-0.783-0.753-1.225-1.593h-2.815c-0.439 0.833-0.267 1.593-1.225 1.593-0.924 0.001-1.087-0.561-0.805-1.428l2.208-5.773c0.156-0.44 0.628-0.892 1.229-0.905 0.603 0.013 1.076 0.465 1.231 0.905 1.457 4.52 3.539 7.203 1.403 7.201zM20.5 18.105h-2.961c-1.545 0-0.605-2.087-0.884-7.068 0-0.505 0.423-0.917 0.943-0.917s0.943 0.411 0.943 0.917v5.387h1.961c0.488 0 0.884 0.377 0.884 0.84-0.001 0.464-0.397 0.841-0.885 0.841zM27.725 17.415c-0.033 0.241-0.163 0.459-0.359 0.605-1.273 0.961-2.215-1.841-3.457-3.028l-0.32 0.319v2c0 0.507-0.413 0.917-0.924 0.917-0.509 0-0.923-0.411-0.923-0.917v-6.273c0-0.505 0.413-0.917 0.923-0.917s0.923 0.411 0.923 0.917v1.971c1.703-1.277 2.647-3.56 3.723-2.492 1.056 1.048-1.131 1.965-2.036 3.229 2.139 2.949 2.545 3.023 2.451 3.669z"></path>
</svg>
