<!-- Generated by IcoMoon.io -->
<svg version="1.1" xmlns="http://www.w3.org/2000/svg" width="32" height="32" viewBox="0 0 32 32">
<title>kebab</title>
<path d="M15.333 9.333c-1.837 0-3.333-1.496-3.333-3.333s1.496-3.333 3.333-3.333c1.837 0 3.333 1.496 3.333 3.333s-1.496 3.333-3.333 3.333zM15.333 12.667c1.837 0 3.333 1.496 3.333 3.333s-1.496 3.333-3.333 3.333c-1.837 0-3.333-1.496-3.333-3.333s1.496-3.333 3.333-3.333zM15.333 22.667c1.837 0 3.333 1.496 3.333 3.333s-1.496 3.333-3.333 3.333c-1.837 0-3.333-1.496-3.333-3.333s1.496-3.333 3.333-3.333z"></path>
</svg>
