<!-- Generated by IcoMoon.io -->
<svg version="1.1" xmlns="http://www.w3.org/2000/svg" width="32" height="32" viewBox="0 0 32 32">
<title>learn</title>
<path d="M7.898 4.718c-0.283 0-0.513 0.229-0.513 0.513s0.229 0.513 0.513 0.513h16.405c0.283 0 0.513-0.229 0.513-0.513s-0.229-0.513-0.513-0.513h-16.405zM17.977 27.273c-1.459-1.020-2.389-2.691-2.389-4.603 0-3.109 2.53-5.639 5.64-5.639 1.906 0 3.592 0.954 4.613 2.406v-12.156c0-0.283-0.229-0.513-0.513-0.513h-17.431c-0.848 0-1.538-0.69-1.538-1.538s0.69-1.538 1.538-1.538h17.431c0.283 0 0.513-0.229 0.513-0.513s-0.229-0.513-0.513-0.513h-17.431c-1.414 0-2.564 1.15-2.564 2.564v19.481c0 1.414 1.15 2.564 2.564 2.564l10.080-0.002zM21.227 26.258c-1.98 0-3.59-1.61-3.59-3.588s1.61-3.588 3.59-3.588c1.978 0 3.587 1.61 3.587 3.588s-1.61 3.588-3.587 3.588zM27.741 28.458l-2.927-2.926c0.632-0.789 1.025-1.776 1.025-2.864 0-2.544-2.069-4.614-4.613-4.614s-4.615 2.070-4.615 4.614c0 2.543 2.071 4.613 4.615 4.613 1.087 0 2.073-0.395 2.862-1.025l2.927 2.926c0.2 0.2 0.524 0.2 0.725 0s0.2-0.525 0-0.726v0.001z"></path>
</svg>
