<!-- Generated by IcoMoon.io -->
<svg version="1.1" xmlns="http://www.w3.org/2000/svg" width="32" height="32" viewBox="0 0 32 32">
<title>lightning</title>
<path d="M18.559 2.715c-0.241-0.107-0.524-0.030-0.677 0.184l-11.111 15.556c-0.121 0.169-0.138 0.393-0.043 0.578s0.286 0.301 0.494 0.301h8.196l-2.071 9.323c-0.057 0.257 0.074 0.52 0.316 0.627 0.24 0.11 0.526 0.029 0.678-0.184l11.111-15.556c0.121-0.168 0.137-0.391 0.043-0.577-0.096-0.184-0.287-0.301-0.493-0.301h-8.197l2.073-9.324c0.057-0.257-0.076-0.52-0.317-0.627h-0.001z"></path>
</svg>
