<!-- Generated by IcoMoon.io -->
<svg version="1.1" xmlns="http://www.w3.org/2000/svg" width="32" height="32" viewBox="0 0 32 32">
<title>line-text</title>
<path d="M32 13.739c0-7.159-7.177-12.984-16-12.984-8.821 0-16 5.825-16 12.984 0 6.419 5.692 11.795 13.381 12.811 0.521 0.112 1.229 0.344 1.409 0.789 0.161 0.404 0.105 1.037 0.052 1.447l-0.228 1.369c-0.071 0.404-0.323 1.581 1.385 0.863 1.708-0.72 9.215-5.425 12.571-9.289 2.319-2.543 3.429-5.124 3.429-7.989zM6.683 10.279c0.172 0 0.312 0.14 0.312 0.312v5.537h3.049c0.172 0 0.311 0.139 0.311 0.311v1.123c0 0.172-0.139 0.312-0.311 0.312h-4.484c-0.084 0-0.159-0.033-0.215-0.087l-0.009-0.009c-0.053-0.056-0.087-0.132-0.087-0.215v-6.972c0-0.172 0.139-0.312 0.311-0.312h1.123zM26.672 10.279c0.172 0 0.311 0.14 0.311 0.312v1.123c0 0.172-0.139 0.312-0.311 0.312h-3.049v1.177h3.049c0.172 0 0.311 0.14 0.311 0.312v1.123c0 0.172-0.139 0.312-0.311 0.312h-3.049v1.179h3.049c0.172 0 0.311 0.14 0.311 0.311v1.123c0 0.172-0.139 0.312-0.311 0.312h-4.484c-0.084 0-0.16-0.033-0.216-0.087l-0.004-0.005-0.004-0.004c-0.053-0.056-0.088-0.132-0.088-0.215v-6.972c0-0.083 0.033-0.159 0.087-0.215l0.009-0.009c0.056-0.053 0.132-0.088 0.216-0.088h4.484zM12.749 10.28c0.172 0 0.312 0.139 0.312 0.311v6.972c0 0.171-0.14 0.311-0.312 0.311h-1.123c-0.172 0-0.312-0.14-0.312-0.311v-6.972c0-0.172 0.14-0.311 0.312-0.311h1.123zM15.585 10.28h0.011l0.016 0.001 0.017 0.001 0.013 0.001 0.017 0.004 0.011 0.004 0.019 0.005 0.011 0.004 0.017 0.008 0.009 0.004 0.017 0.009 0.009 0.005 0.016 0.012 0.008 0.005 0.017 0.015 0.027 0.027 0.024 0.031 3.195 4.315v-4.141c0-0.172 0.14-0.311 0.312-0.311h1.121c0.173 0 0.312 0.139 0.312 0.311v6.972c0 0.171-0.139 0.311-0.312 0.311h-1.121l-0.080-0.011-0.005-0.001-0.020-0.007-0.009-0.004-0.016-0.005-0.015-0.008-0.009-0.004-0.019-0.012-0.003-0.003-0.080-0.077-3.199-4.32v4.141c0 0.171-0.139 0.311-0.312 0.311h-1.121c-0.172 0-0.312-0.14-0.312-0.311v-6.972c0-0.172 0.14-0.311 0.312-0.311h1.121z"></path>
</svg>
