<!-- Generated by IcoMoon.io -->
<svg version="1.1" xmlns="http://www.w3.org/2000/svg" width="32" height="32" viewBox="0 0 32 32">
<title>linkedin2</title>
<path d="M12.19 11.619h5.271v2.702h0.075c0.733-1.315 2.529-2.702 5.204-2.702 5.564 0 6.592 3.464 6.592 7.969v9.174h-5.494v-8.133c0-1.94-0.040-4.435-2.858-4.435-2.862 0-3.298 2.112-3.298 4.294v8.274h-5.492v-17.143zM2.667 11.619h5.714v17.143h-5.714v-17.143zM8.381 6.857c0 1.578-1.279 2.857-2.857 2.857s-2.857-1.279-2.857-2.857c0-1.578 1.279-2.857 2.857-2.857s2.857 1.279 2.857 2.857z"></path>
</svg>
