<!-- Generated by IcoMoon.io -->
<svg version="1.1" xmlns="http://www.w3.org/2000/svg" width="32" height="32" viewBox="0 0 32 32">
<title>links</title>
<path d="M4.16 4.636c-0.493 0.162-0.89 0.501-1.123 0.941l-0.005 0.011-0.125 0.252v18.027l0.131 0.265c0.166 0.339 0.492 0.665 0.831 0.831l0.265 0.131h23.733l0.265-0.131c0.339-0.166 0.665-0.492 0.831-0.831l0.131-0.265v-18.027l-0.125-0.252c-0.187-0.353-0.468-0.636-0.809-0.821l-0.010-0.005-0.282-0.148-11.787-0.009c-6.483-0.005-11.846 0.010-11.92 0.032zM27.663 6.036l0.124 0.116v13.741h-23.573v-13.726l0.116-0.124 0.116-0.124h23.094l0.124 0.116zM11.973 12.26c-0.406 0.185-0.719 0.654-0.72 1.080 0 0.234 0.155 0.596 0.336 0.787 0.215 0.232 0.521 0.377 0.861 0.377 0.454 0 0.847-0.257 1.042-0.634l0.003-0.007c0.14-0.274 0.14-0.782 0.002-1.051-0.29-0.564-0.963-0.808-1.524-0.552zM15.574 12.23c-0.406 0.129-0.748 0.639-0.748 1.115 0 0.627 0.54 1.161 1.173 1.161 0.261 0 0.716-0.186 0.864-0.353 0.159-0.18 0.307-0.572 0.308-0.82 0.003-0.812-0.791-1.36-1.597-1.103zM19.093 12.245c-0.438 0.189-0.693 0.59-0.693 1.088-0 0.008-0 0.016-0 0.025 0 0.636 0.516 1.152 1.152 1.152 0.341 0 0.647-0.148 0.858-0.383l0.001-0.001c0.183-0.192 0.336-0.553 0.336-0.793 0-0.412-0.317-0.885-0.72-1.072-0.258-0.12-0.677-0.127-0.933-0.016zM27.787 22.383c0 1.114-0.004 1.161-0.116 1.28l-0.116 0.124h-23.094l-0.124-0.116c-0.122-0.115-0.124-0.132-0.124-1.28v-1.164h23.573v1.156zM9.915 26.895c-0.12 0.082-0.21 0.201-0.252 0.341l-0.001 0.005c-0.065 0.205-0.061 0.245 0.041 0.457 0.061 0.127 0.176 0.266 0.253 0.307 0.119 0.064 1.059 0.076 6.044 0.076s5.925-0.012 6.044-0.076c0.077-0.041 0.192-0.18 0.253-0.307 0.102-0.212 0.106-0.252 0.041-0.457-0.044-0.144-0.133-0.264-0.251-0.344l-0.002-0.001-0.181-0.122h-11.808l-0.181 0.122z"></path>
</svg>
