<!-- Generated by IcoMoon.io -->
<svg version="1.1" xmlns="http://www.w3.org/2000/svg" width="32" height="32" viewBox="0 0 32 32">
<title>list</title>
<path d="M28.381 23.039h-17.143c-0.527 0-0.953-0.426-0.953-0.953s0.426-0.952 0.953-0.952h17.143c0.527 0 0.952 0.425 0.952 0.952s-0.425 0.953-0.952 0.953zM28.381 28.754h-17.143c-0.527 0-0.953-0.425-0.953-0.952s0.426-0.953 0.953-0.953h17.143c0.527 0 0.952 0.427 0.952 0.953s-0.425 0.952-0.952 0.952zM5.523 23.039h-1.905c-0.526 0-0.952-0.426-0.952-0.953s0.426-0.952 0.952-0.952h1.905c0.527 0 0.953 0.425 0.953 0.952s-0.426 0.953-0.953 0.953zM5.523 28.754h-1.905c-0.526 0-0.952-0.425-0.952-0.952s0.426-0.953 0.952-0.953h1.905c0.527 0 0.953 0.427 0.953 0.953s-0.426 0.952-0.953 0.952zM28.381 5.904h-17.143c-0.527 0-0.953-0.425-0.953-0.952s0.426-0.952 0.953-0.952h17.143c0.527 0 0.952 0.425 0.952 0.952s-0.425 0.952-0.952 0.952zM28.381 11.619h-17.143c-0.527 0-0.953-0.426-0.953-0.952s0.426-0.953 0.953-0.953h17.143c0.527 0 0.952 0.426 0.952 0.953s-0.425 0.952-0.952 0.952zM28.381 17.333h-17.143c-0.527 0-0.953-0.426-0.953-0.953s0.426-0.952 0.953-0.952h17.143c0.527 0 0.952 0.426 0.952 0.952s-0.425 0.953-0.952 0.953zM5.523 5.904h-1.905c-0.526 0-0.952-0.425-0.952-0.952s0.426-0.952 0.952-0.952h1.905c0.527 0 0.953 0.425 0.953 0.952s-0.426 0.952-0.953 0.952zM5.523 11.619h-1.905c-0.526 0-0.952-0.426-0.952-0.952s0.426-0.953 0.952-0.953h1.905c0.527 0 0.953 0.426 0.953 0.953s-0.426 0.952-0.953 0.952zM5.523 17.333h-1.905c-0.526 0-0.952-0.426-0.952-0.953s0.426-0.952 0.952-0.952h1.905c0.527 0 0.953 0.426 0.953 0.952s-0.426 0.953-0.953 0.953z"></path>
</svg>
