<!-- Generated by IcoMoon.io -->
<svg version="1.1" xmlns="http://www.w3.org/2000/svg" width="32" height="32" viewBox="0 0 32 32">
<title>location-outline</title>
<path d="M16.4 30.8l-0.8-0.8c-0.4-0.4-8.6-10.4-8.6-19 0-5.2 4.2-9.4 9.4-9.4s9.4 4.2 9.4 9.4c0 8.6-8.2 18.6-8.6 19l-0.8 0.8zM16.4 3.6c-4 0-7.4 3.2-7.4 7.4 0 6.4 5.4 14 7.4 16.8 2-2.6 7.4-10.4 7.4-16.8-0.2-4-3.4-7.4-7.4-7.4zM16.4 17c-3.4 0-6-2.6-6-6s2.6-6 6-6c3.4 0 6 2.6 6 6s-2.8 6-6 6zM16.4 7c-2.2 0-4 1.8-4 4s1.8 4 4 4 4-1.8 4-4-1.8-4-4-4z"></path>
</svg>
