<!-- Generated by IcoMoon.io -->
<svg version="1.1" xmlns="http://www.w3.org/2000/svg" width="32" height="32" viewBox="0 0 32 32">
<title>lock</title>
<path d="M23.111 13.333h-0.444v-5.333c0-2.94-2.393-5.333-5.333-5.333h-3.556c-2.94 0-5.333 2.393-5.333 5.333v5.333h-0.444c-0.733 0-1.333 0.6-1.333 1.333v13.333c0 0.733 0.6 1.333 1.333 1.333h15.111c0.733 0 1.333-0.6 1.333-1.333v-13.333c0-0.733-0.6-1.333-1.333-1.333zM12 8c0-0.98 0.797-1.778 1.778-1.778h3.556c0.98 0 1.778 0.797 1.778 1.778v5.333h-7.111v-5.333z"></path>
</svg>
