<!-- Generated by IcoMoon.io -->
<svg version="1.1" xmlns="http://www.w3.org/2000/svg" width="32" height="32" viewBox="0 0 32 32">
<title>loop</title>
<path d="M25.835 6.997c-2.437-2.662-5.942-4.331-9.836-4.331-7.364 0-13.333 5.969-13.333 13.333h2.5c0-5.983 4.85-10.833 10.833-10.833 3.203 0 6.082 1.391 8.065 3.602l-3.898 3.898h9.167v-9.167l-3.497 3.498z"></path>
<path d="M26.833 16c0 5.983-4.85 10.833-10.833 10.833-3.203 0-6.082-1.391-8.065-3.602l3.898-3.898h-9.167v9.167l3.498-3.497c2.438 2.662 5.942 4.331 9.836 4.331 7.364 0 13.333-5.969 13.333-13.333h-2.5z"></path>
</svg>
