<!-- Generated by IcoMoon.io -->
<svg version="1.1" xmlns="http://www.w3.org/2000/svg" width="32" height="32" viewBox="0 0 32 32">
<title>merge</title>
<path d="M26.223 14.889h-21.112c-0.613 0-1.111 0.498-1.111 1.111s0.498 1.111 1.111 1.111h21.112c0.613 0 1.111-0.498 1.111-1.111s-0.498-1.111-1.111-1.111zM19.323 7.433l-2.544 2.556v-6.211c0-0.613-0.497-1.111-1.111-1.111s-1.111 0.498-1.111 1.111v6.211l-2.544-2.556c-0.202-0.202-0.481-0.327-0.789-0.327-0.616 0-1.116 0.499-1.116 1.116 0 0.308 0.125 0.587 0.327 0.789l4.444 4.444c0.202 0.203 0.481 0.328 0.789 0.328s0.588-0.126 0.789-0.328l4.444-4.444c0.202-0.202 0.327-0.481 0.327-0.789 0-0.616-0.499-1.116-1.116-1.116-0.308 0-0.587 0.125-0.789 0.327zM19.323 24.567l-2.544-2.556v6.211c0 0.613-0.497 1.111-1.111 1.111s-1.111-0.497-1.111-1.111v-6.211l-2.544 2.556c-0.202 0.202-0.481 0.327-0.789 0.327-0.616 0-1.116-0.499-1.116-1.116 0-0.308 0.125-0.587 0.327-0.789l4.444-4.445c0.202-0.203 0.481-0.328 0.789-0.328s0.588 0.126 0.789 0.328l4.444 4.445c0.202 0.202 0.327 0.481 0.327 0.789 0 0.616-0.499 1.116-1.116 1.116-0.308 0-0.587-0.125-0.789-0.327z"></path>
</svg>
