<!-- Generated by IcoMoon.io -->
<svg version="1.1" xmlns="http://www.w3.org/2000/svg" width="32" height="32" viewBox="0 0 32 32">
<title>merge1</title>
<path d="M25.007 6.61c0.428-0.417 0.695-0.998 0.695-1.643 0-1.268-1.033-2.3-2.301-2.3s-2.3 1.033-2.3 2.3c0 0.644 0.265 1.226 0.694 1.643-1.497 0.535-2.075 1.816-2.075 2.958 0 0.254 0.205 0.46 0.46 0.46h6.442c0.254 0 0.46-0.205 0.46-0.46 0-1.142-0.578-2.423-2.075-2.958h-0.001zM9.286 6.61c0.428-0.417 0.695-0.998 0.695-1.643 0-1.268-1.031-2.3-2.301-2.3-1.268 0-2.3 1.033-2.3 2.3 0 0.644 0.267 1.226 0.694 1.643-1.496 0.535-2.074 1.816-2.074 2.958 0 0.254 0.205 0.46 0.46 0.46h6.442c0.254 0 0.46-0.205 0.46-0.46 0-1.142-0.578-2.423-2.074-2.958h-0.001zM15.091 14.543h-0.049c-3.571 0-6.503-0.284-6.788-3.784l-1.24 0.006c0.291 4.18 3.775 5.016 8.028 5.016h0.049v4.258h1.24v-4.258h-0.065c4.253 0 7.737-0.837 8.028-5.016l-1.24-0.006c-0.285 3.5-3.218 3.784-6.788 3.784h-1.175zM15.091 15.264l-0.046 3.779-1.559-1.585c-0.239-0.243-0.632-0.246-0.876-0.006s-0.246 0.632-0.008 0.876l2.607 2.65c0.24 0.245 0.63 0.248 0.876 0.008l2.65-2.607c0.245-0.24 0.249-0.632 0.009-0.876s-0.632-0.248-0.877-0.008l-1.584 1.559 0.046-3.781c0.003-0.342-0.272-0.622-0.613-0.624s-0.622 0.273-0.625 0.614h0.001zM17.185 25.915c0.429-0.417 0.695-1 0.695-1.642 0-1.27-1.031-2.301-2.301-2.301-1.268 0-2.299 1.031-2.299 2.301 0 0.641 0.265 1.224 0.694 1.642-1.497 0.537-2.075 1.816-2.075 2.958 0 0.256 0.205 0.461 0.46 0.461h6.442c0.254 0 0.46-0.205 0.46-0.461 0-1.142-0.579-2.421-2.075-2.958h-0.002z"></path>
</svg>
