<!-- Generated by IcoMoon.io -->
<svg version="1.1" xmlns="http://www.w3.org/2000/svg" width="32" height="32" viewBox="0 0 32 32">
<title>messaged</title>
<path d="M16.002 4c-7.352 0-13.335 4.907-13.335 10.963 0 2.862 1.31 5.528 3.695 7.59l-2.692 5.345c-0.044 0.078-0.071 0.172-0.071 0.271 0 0.308 0.249 0.557 0.557 0.557 0.094 0 0.183-0.023 0.261-0.065l-0.003 0.002 7.153-3.325c1.307 0.384 2.809 0.604 4.362 0.604 0.026 0 0.052 0 0.077 0h-0.004c7.352 0 13.331-4.933 13.331-10.98s-5.979-10.963-13.331-10.963z"></path>
</svg>
