<!-- Generated by IcoMoon.io -->
<svg version="1.1" xmlns="http://www.w3.org/2000/svg" width="32" height="32" viewBox="0 0 32 32">
<title>messages</title>
<path d="M26.005 16.226h-1.768c-1.034 1.992-3.080 3.33-5.439 3.333h-3.901v2.223c0.003 1.84 1.493 3.332 3.332 3.337h2.541l3.172 3.168c0.101 0.101 0.24 0.165 0.394 0.165 0.306 0 0.555-0.249 0.555-0.555v-2.778h1.109c1.84-0.005 3.33-1.497 3.333-3.337v-2.223c-0.003-1.838-1.491-3.328-3.328-3.333h-0.001zM23.803 13.448v-4.447c-0.005-2.763-2.246-5.001-5.010-5.001-0.004 0-0.009 0-0.014 0h-11.111c-2.762 0.003-4.999 2.24-5.001 5.001v4.447c0.003 2.762 2.24 4.999 5.001 5.001h0.555v3.901c0 0.001 0 0.003 0 0.004 0 0.306 0.249 0.555 0.555 0.555 0.154 0 0.294-0.063 0.394-0.165l4.282-4.282h5.326c0.003 0 0.009 0 0.013 0 2.767 0 5.010-2.243 5.010-5.010 0-0.002 0-0.003 0-0.004z"></path>
</svg>
