<!-- Generated by IcoMoon.io -->
<svg version="1.1" xmlns="http://www.w3.org/2000/svg" width="32" height="32" viewBox="0 0 32 32">
<title>message-outline</title>
<path d="M24.4 29.067c-0.267 0-0.667-0.133-0.8-0.4l-2.933-2.933h-2.267c-2.267 0-4-1.867-4-4v-1.067h1.333v1.067c0 1.467 1.2 2.667 2.667 2.667h2.8l3.2 3.2v-3.2h1.733c1.467 0 2.667-1.2 2.667-2.667v-2.267c0-1.467-1.2-2.667-2.667-2.667h-0.533v-1.333h0.533c2.267 0 4 1.867 4 4v2.267c0 2.267-1.733 4-4 4h-0.4v2.133c-0.133 0.667-0.667 1.2-1.333 1.2zM8.8 23.6c-0.667 0-1.2-0.533-1.2-1.2v-3.2c-3.067 0-5.6-2.533-5.6-5.6v-4.533c0-3.067 2.533-5.6 5.733-5.733h11.067c3.2 0 5.733 2.533 5.733 5.6v4.4c0 3.067-2.533 5.733-5.733 5.733h-5.067l-4.133 4.133c-0.133 0.267-0.533 0.4-0.8 0.4zM7.733 4.667c-2.4 0-4.4 2-4.4 4.4v4.4c0 2.4 2 4.267 4.4 4.4h1.2v4.4l4.267-4.267h5.6c2.4 0 4.4-2 4.4-4.4v-4.533c0-2.4-2-4.4-4.4-4.4h-11.067z"></path>
</svg>
