<!-- Generated by IcoMoon.io -->
<svg version="1.1" xmlns="http://www.w3.org/2000/svg" width="41" height="32" viewBox="0 0 41 32">
<title>milestone-achieved-outline</title>
<path d="M41.089 32h-41.089l10.266-18.045 5.815 10.226 9.798-17.236v-6.944h0.969v6.944zM13.293 31.031h26.139l-8.414-14.79c-0.673 0.389-1.474 0.633-2.329 0.668l-0.010 0c-0.011 0-0.024 0-0.038 0-0.991 0-1.877-0.45-2.464-1.158l-0.004-0.005c-1.444-1.711-3.449-0.735-3.936-0.441zM1.664 31.031h10.52l3.342-5.875-1.751-3.101c-0.474 0.209-1.026 0.335-1.606 0.347l-0.005 0c-0.017 0-0.036 0.001-0.056 0.001-0.783 0-1.489-0.328-1.988-0.855l-0.001-0.001c-0.445-0.407-1.040-0.656-1.693-0.656-0.432 0-0.839 0.109-1.194 0.301l0.013-0.007zM8.561 19.963c0.012-0 0.026-0 0.040-0 0.866 0 1.647 0.358 2.205 0.935l0.001 0.001c0.39 0.356 0.912 0.575 1.485 0.575 0.366 0 0.71-0.089 1.014-0.246l-0.012 0.006-3.028-5.347-2.339 4.164c0.184-0.042 0.401-0.073 0.623-0.086l0.012-0.001zM24.16 13.815c0.010-0 0.021-0 0.033-0 1.087 0 2.059 0.495 2.703 1.271l0.005 0.006c1.223 1.397 2.907 0.715 3.642 0.307l-4.184-7.378-3.342 5.928c0.33-0.085 0.709-0.134 1.099-0.134 0.015 0 0.031 0 0.046 0l-0.002-0zM21.935 14.897v0h0.040z"></path>
<path d="M32.147 4.531c-0.649-0.005-1.264-0.144-1.82-0.392l0.029 0.011c-0.412-0.165-0.89-0.261-1.391-0.261-0.339 0-0.669 0.044-0.982 0.127l0.027-0.006-0.608 0.221v-3.937l0.328-0.114c0.39-0.117 0.838-0.185 1.301-0.185 0.617 0 1.205 0.119 1.745 0.336l-0.031-0.011c0.427 0.155 0.921 0.245 1.435 0.245 0.335 0 0.661-0.038 0.974-0.11l-0.029 0.006 0.615-0.16v3.87l-0.321 0.127c-0.357 0.148-0.772 0.235-1.207 0.235-0.022 0-0.044-0-0.066-0.001l0.003 0zM29.026 2.921c0.015-0 0.033-0 0.050-0 0.602 0 1.175 0.126 1.695 0.352l-0.027-0.011c0.407 0.188 0.884 0.298 1.386 0.298 0.219 0 0.433-0.021 0.64-0.061l-0.021 0.003v-2.005c-0.179 0.022-0.386 0.034-0.596 0.034-0.637 0-1.248-0.113-1.813-0.32l0.037 0.012c-0.418-0.164-0.901-0.26-1.407-0.26-0.211 0-0.418 0.017-0.621 0.049l0.022-0.003v1.958c0.196-0.029 0.423-0.046 0.654-0.047h0.001z"></path>
</svg>
