<!-- Generated by IcoMoon.io -->
<svg version="1.1" xmlns="http://www.w3.org/2000/svg" width="22" height="32" viewBox="0 0 22 32">
<title>mile-achieved-fill</title>
<path d="M11.39 16.352c-2.592-1.081-9.376-1.015-9.376-1.015v-13.9s13.538 0.044 9.916 1.903c-0.341 0.17-0.518 0.341-0.563 0.504z"></path>
<path d="M22.424 18.736c-5.532 0.074-10.287-0.385-10.457-1.044v-13.182c2.014 0.985 8.443 0.992 10.479 0.963z"></path>
<path d="M12.545 3.444v0.926c-0.286-0.071-0.535-0.202-0.743-0.38l0.002 0.002c0.259-0.289 0.526-0.348 0.741-0.548z"></path>
<path d="M0 31.533c0 0.259 0.274 0.467 0.615 0.467s0.615-0.207 0.615-0.467v-30.097h-1.229z"></path>
<path d="M1.229 0.585c-0.008-0.325-0.274-0.585-0.6-0.585-0.005 0-0.011 0-0.016 0l0.001-0c-0.004-0-0.010-0-0.015-0-0.326 0-0.592 0.26-0.6 0.584v0.453h1.229z"></path>
</svg>
