<!-- Generated by IcoMoon.io -->
<svg version="1.1" xmlns="http://www.w3.org/2000/svg" width="39" height="32" viewBox="0 0 39 32">
<title>milestone-achieved-fill</title>
<path d="M9.613 22.434c1.379 1.386 3.315 0.517 3.885 0.199l-4.143-7.292-3.613 6.364c0.405-0.168 0.875-0.266 1.368-0.266 0.97 0 1.852 0.379 2.505 0.997l-0.002-0.002z"></path>
<path d="M13.723 23.203c-0.658 0.362-1.437 0.585-2.266 0.61l-0.008 0c-0.025 0.001-0.055 0.001-0.084 0.001-0.813 0-1.549-0.327-2.084-0.857l0 0c-1.419-1.432-3.315-0.703-3.898-0.424l-5.383 9.467h10.448l4.21-7.127z"></path>
<path d="M25.642 16.905c1.816 2.068 4.389 0.789 5.178 0.312l-5.178-9.261v-7.955h-0.709v7.988l-4.322 7.849c0.526-0.245 1.142-0.387 1.792-0.387 1.287 0 2.442 0.56 3.236 1.451l0.004 0.004z"></path>
<path d="M31.052 17.826c-0.842 0.52-1.854 0.845-2.938 0.888l-0.012 0c-0.003 0-0.007 0-0.011 0-1.126 0-2.131-0.514-2.795-1.32l-0.005-0.006c-1.79-2.042-4.143-1.173-5.052-0.716l-8.704 15.327h27.578z"></path>
<path d="M30.86 4.495c-0.644-0.004-1.254-0.143-1.805-0.389l0.029 0.011c-0.409-0.164-0.883-0.26-1.379-0.26-0.337 0-0.663 0.044-0.974 0.126l0.026-0.006-0.663 0.206v-3.891l0.358-0.113c0.385-0.116 0.828-0.182 1.287-0.182 0.611 0 1.194 0.118 1.728 0.332l-0.031-0.011c0.427 0.156 0.921 0.245 1.435 0.245 0.337 0 0.666-0.039 0.981-0.112l-0.029 0.006 0.603-0.159v3.838l-0.278 0.126c-0.355 0.148-0.766 0.233-1.198 0.233-0.031 0-0.062-0-0.092-0.001l0.005 0z"></path>
</svg>
