<!-- Generated by IcoMoon.io -->
<svg version="1.1" xmlns="http://www.w3.org/2000/svg" width="21" height="32" viewBox="0 0 21 32">
<title>mile-achieved-outline</title>
<path d="M0.088 31.45c0.004 0.256 0.213 0.462 0.47 0.462 0 0 0 0 0 0v0c0.254-0.004 0.458-0.209 0.462-0.462v-29.821h-0.932z"></path>
<path d="M0.558 32c0 0-0 0-0 0-0.305 0-0.553-0.245-0.558-0.55v-29.909h1.108v29.909c-0.004 0.302-0.248 0.546-0.55 0.55h-0zM0.183 1.724v29.725c0.004 0.203 0.17 0.367 0.374 0.367 0 0 0 0 0 0v0c0.201-0.004 0.363-0.166 0.367-0.366v-29.726z"></path>
<path d="M1.020 0.558c0-0 0-0 0-0 0-0.257-0.206-0.465-0.462-0.47h-0c-0.259 0-0.47 0.21-0.47 0.47v0 0.36h0.932z"></path>
<path d="M1.108 1.005h-1.108v-0.455c0.033-0.279 0.269-0.494 0.554-0.494s0.521 0.215 0.554 0.491l0 0.003zM0.183 0.822h0.734v-0.272c-0.004-0.201-0.166-0.363-0.366-0.367h-0c-0 0-0 0-0 0-0.204 0-0.37 0.163-0.374 0.366v0z"></path>
<path d="M19.724 18.249c-4.072 0-8.981-0.235-9.268-1.335v-0.69c-2.385-0.815-7.639-0.815-8.255-0.815h-0.484v-13.861h0.484c6.758 0.037 10.273 0.558 10.537 1.541 0.003 0.018 0.005 0.038 0.005 0.059s-0.002 0.041-0.005 0.061l0-0.002v1.284c1.986 0.31 4.276 0.488 6.608 0.488 0.45 0 0.899-0.007 1.346-0.020l-0.066 0.002h0.477v13.281h-1.38zM11.388 16.642c0.536 0.271 3.786 0.734 8.805 0.66v-11.396c-2.047 0-6.604-0.037-8.805-0.69zM2.664 14.477c1.468 0 5.474 0.088 7.771 0.734v-11.007c0-0.095 0-0.455 0.778-0.851l0.176-0.103c-0.895-0.389-4.586-0.734-8.71-0.77zM11.418 4.205h0.492v-0.293l-0.352 0.191c-0.056 0.028-0.103 0.068-0.139 0.116l-0.001 0.001z"></path>
</svg>
