<!-- Generated by IcoMoon.io -->
<svg version="1.1" xmlns="http://www.w3.org/2000/svg" width="32" height="32" viewBox="0 0 32 32">
<title>mobile-manual</title>
<path d="M13.001 4.889h5.556c0.307 0 0.556 0.249 0.556 0.556s-0.249 0.556-0.556 0.556h-5.556c-0.307 0-0.556-0.249-0.556-0.556s0.249-0.556 0.556-0.556zM23.557 7.111v-1.667c0-1.532-1.247-2.777-2.777-2.777h-10c-1.533 0-2.777 1.246-2.777 2.777v1.667h15.555zM15.779 27.667c-0.613 0-1.111-0.497-1.111-1.111s0.497-1.111 1.111-1.111c0.612 0 1.111 0.498 1.111 1.111s-0.499 1.111-1.111 1.111zM8.001 24.889v1.667c0 1.532 1.246 2.777 2.777 2.777h10c1.531 0 2.777-1.246 2.777-2.777v-1.667h-15.555zM19.667 12.075h-7.777c-0.307 0-0.556-0.364-0.556-0.816s0.249-0.816 0.556-0.816h7.777c0.307 0 0.556 0.364 0.556 0.816s-0.249 0.816-0.556 0.816zM19.667 15.335h-7.777c-0.307 0-0.556-0.364-0.556-0.816s0.249-0.816 0.556-0.816h7.777c0.307 0 0.556 0.364 0.556 0.816s-0.249 0.816-0.556 0.816zM19.667 18.55h-7.777c-0.307 0-0.556-0.364-0.556-0.816s0.249-0.816 0.556-0.816h7.777c0.307 0 0.556 0.364 0.556 0.816s-0.249 0.816-0.556 0.816zM16.334 21.81h-4.444c-0.307 0-0.556-0.364-0.556-0.816s0.249-0.816 0.556-0.816h4.444c0.307 0 0.556 0.364 0.556 0.816s-0.249 0.816-0.556 0.816zM8.001 23.777h15.556v-15.556h-15.556v15.556z"></path>
</svg>
