<!-- Generated by IcoMoon.io -->
<svg version="1.1" xmlns="http://www.w3.org/2000/svg" width="32" height="32" viewBox="0 0 32 32">
<title>mobile-contact</title>
<path d="M15.779 27.667c-0.613 0-1.111-0.497-1.111-1.111s0.497-1.111 1.111-1.111c0.612 0 1.111 0.498 1.111 1.111s-0.499 1.111-1.111 1.111zM8.001 24.889v1.667c0 1.532 1.247 2.777 2.777 2.777h10c1.531 0 2.777-1.246 2.777-2.777v-1.667h-15.555zM13.001 4.889h5.556c0.307 0 0.556 0.249 0.556 0.556s-0.249 0.556-0.556 0.556h-5.556c-0.307 0-0.556-0.249-0.556-0.556s0.249-0.556 0.556-0.556zM23.557 7.111v-1.667c0-1.532-1.247-2.777-2.777-2.777h-10c-1.531 0-2.777 1.246-2.777 2.777v1.667h15.555zM20.328 20.41c0 0.277-0.224 0.503-0.503 0.503h-8.073c-0.277 0-0.502-0.226-0.502-0.503 0-1.853 1.119-3.443 2.714-4.143-0.727-0.553-1.206-1.417-1.206-2.399 0-1.664 1.354-3.019 3.020-3.019 1.664 0 3.019 1.354 3.019 3.019 0 0.983-0.479 1.847-1.207 2.4 1.553 0.683 2.657 2.204 2.714 3.993 0.014 0.047 0.022 0.097 0.022 0.149h0.001zM8.001 23.777h15.556v-15.556h-15.556v15.556z"></path>
</svg>
