<!-- Generated by IcoMoon.io -->
<svg version="1.1" xmlns="http://www.w3.org/2000/svg" width="32" height="32" viewBox="0 0 32 32">
<title>mobile_contacts</title>
<path d="M15.779 27.667c-0.613 0-1.111-0.497-1.111-1.111s0.497-1.111 1.111-1.111c0.612 0 1.111 0.498 1.111 1.111s-0.499 1.111-1.111 1.111zM8.001 24.889v1.667c0 1.532 1.246 2.777 2.777 2.777h10c1.531 0 2.777-1.246 2.777-2.777v-1.667h-15.555zM13.001 4.889h5.556c0.307 0 0.556 0.249 0.556 0.556s-0.249 0.556-0.556 0.556h-5.556c-0.307 0-0.556-0.249-0.556-0.556s0.249-0.556 0.556-0.556zM23.557 7.111v-1.667c0-1.532-1.247-2.777-2.777-2.777h-10c-1.533 0-2.777 1.246-2.777 2.777v1.667h15.555zM21.665 18.149h-0.369c-0.267-1.079-0.87-2.053-1.724-2.763 0.162-0.277 0.287-0.573 0.373-0.883 1.202 0.549 2.054 1.736 2.1 3.13 0.012 0.037 0.017 0.077 0.017 0.117 0 0.22-0.177 0.397-0.397 0.397v0.001zM19.911 19.843h-0.36c-0.261-1.303-0.973-2.479-2.007-3.309 0.169-0.273 0.298-0.566 0.397-0.869 1.378 0.63 2.353 1.99 2.406 3.587 0.013 0.043 0.020 0.089 0.020 0.136 0 0.253-0.206 0.456-0.456 0.456zM18.070 21.429h-8.072c-0.277 0-0.503-0.224-0.503-0.503 0-1.851 1.12-3.443 2.714-4.143-0.727-0.553-1.206-1.417-1.206-2.399 0-1.664 1.356-3.019 3.020-3.019 1.666 0 3.020 1.354 3.020 3.019 0 0.983-0.479 1.847-1.207 2.4 1.552 0.683 2.657 2.206 2.714 3.993 0.016 0.047 0.023 0.097 0.023 0.149 0 0.279-0.226 0.503-0.503 0.503h0.001zM16.247 10.729c1.507 0 2.734 1.226 2.734 2.733 0 0.843-0.396 1.58-0.997 2.081 0.11-0.371 0.17-0.76 0.17-1.16 0-1.574-0.896-2.929-2.194-3.626 0.096-0.010 0.189-0.029 0.287-0.029v0.001zM18.47 10.201c1.316 0 2.386 1.070 2.386 2.384 0 0.743-0.353 1.394-0.887 1.832 0.079-0.307 0.123-0.627 0.123-0.954 0-1.367-0.723-2.563-1.801-3.244 0.060-0.004 0.117-0.018 0.179-0.018l-0.001-0.001zM8.001 23.777h15.556v-15.556h-15.556v15.556z"></path>
</svg>
