<!-- Generated by IcoMoon.io -->
<svg version="1.1" xmlns="http://www.w3.org/2000/svg" width="32" height="32" viewBox="0 0 32 32">
<title>more-info</title>
<path d="M20.638 24.116c0 0.64-0.519 1.159-1.159 1.159h-6.957c-0.639 0-1.159-0.519-1.159-1.159s0.521-1.159 1.159-1.159h2.318v-8.116h-1.158c-0.639 0-1.159-0.521-1.159-1.159s0.521-1.159 1.159-1.159h2.319c0.311 0 0.602 0.121 0.821 0.341 0.218 0.219 0.339 0.511 0.337 0.821v9.273h2.32c0.64 0 1.159 0.519 1.159 1.159zM13.681 9.623c0-0.959 0.78-1.739 1.739-1.739s1.739 0.78 1.739 1.739-0.78 1.739-1.739 1.739c-0.959 0-1.739-0.78-1.739-1.739zM16 2.667c-7.353 0-13.333 5.98-13.333 13.333s5.98 13.333 13.333 13.333c7.352 0 13.333-5.98 13.333-13.333s-5.981-13.333-13.333-13.333z"></path>
</svg>
