<!-- Generated by IcoMoon.io -->
<svg version="1.1" xmlns="http://www.w3.org/2000/svg" width="32" height="32" viewBox="0 0 32 32">
<title>move-to</title>
<path d="M15.733 16h-2.933l0.133-0.933c0.8-2.4 3.333-8 10.267-8.267v-3.467l6.4 6.133-6.4 6.133v-3.6c-3.467 0.133-5.867 1.333-6.933 3.6l-0.133 0.133-0.4 0.267zM14.533 14.667h0.667c0.933-1.867 3.067-3.867 7.867-4h1.333v1.867l3.067-2.933-3.067-2.933v1.733h-1.333c-5.2 0-7.6 3.867-8.533 6.267z"></path>
<path d="M18.4 28.667h-15.067c-0.4 0-0.667-0.4-0.667-0.667v-13.067c0-0.4 0.267-0.667 0.667-0.667h6.267c0.133 0 0.4 0.133 0.533 0.267l1.6 1.733c0.133 0.133 0.267 0.267 0.533 0.267h6.267c0.4 0 0.667 0.267 0.667 0.667v10.8c-0.133 0.267-0.4 0.667-0.8 0.667zM4 27.333h13.733v-9.467h-5.6c-0.533 0-1.067-0.267-1.467-0.667l-1.467-1.6h-5.2v11.733z"></path>
</svg>
