<!-- Generated by IcoMoon.io -->
<svg version="1.1" xmlns="http://www.w3.org/2000/svg" width="32" height="32" viewBox="0 0 32 32">
<title>multi-sms</title>
<path d="M17.929 5.333c-6.289 0-11.405 4.214-11.405 9.392 0 2.445 1.118 4.738 3.16 6.492l-2.289 4.573c-0.203 0.405 0.225 0.833 0.624 0.644l6.118-2.846c1.215 0.351 2.489 0.53 3.792 0.53 6.289 0 11.405-4.213 11.405-9.392s-5.116-9.392-11.405-9.392v-0.001zM8.514 21.434c-1.902-1.865-2.94-4.22-2.94-6.708 0-4.082 2.846-7.608 6.957-9.289-5.494 0.277-9.865 4.037-9.865 8.63 0 2.253 1.031 4.366 2.913 5.982l-2.111 4.215c-0.187 0.373 0.207 0.768 0.576 0.593l3.592-1.671 0.877-1.751h-0.001z"></path>
</svg>
