<!-- Generated by IcoMoon.io -->
<svg version="1.1" xmlns="http://www.w3.org/2000/svg" width="32" height="32" viewBox="0 0 32 32">
<title>my-business-outline</title>
<path d="M22 2.667h4c0.326 0 0.604 0.236 0.658 0.557l0.676 3.443c0.061 0.363-0.185 0.707-0.548 0.767s-0.707-0.185-0.767-0.548l-0.45-2.087-5.742 6.316c-0.173 0.19-0.439 0.264-0.685 0.19l-6.332-1.899-6.394 5.115c-0.287 0.23-0.707 0.183-0.937-0.104s-0.183-0.707 0.104-0.937l6.667-5.333c0.171-0.137 0.398-0.181 0.608-0.118l6.264 1.879 5.37-5.907h-2.493c-0.368 0-0.667-0.298-0.667-0.667s0.299-0.667 0.667-0.667zM28.223 28.222h0.555c0.306 0 0.555-0.249 0.555-0.555s-0.248-0.555-0.555-0.555h-0.555v-16.111c0-0.306-0.248-0.555-0.555-0.555h-3.337c-0.306 0-0.555 0.248-0.555 0.555v16.111h-2.222v-8.333c0-0.306-0.248-0.555-0.555-0.555h-3.333c-0.306 0-0.555 0.248-0.555 0.555v8.333h-2.222v-10.556c0-0.306-0.248-0.555-0.555-0.555h-3.333c-0.306 0-0.555 0.248-0.555 0.555v10.556h-2.222v-5c0-0.306-0.248-0.555-0.555-0.555h-3.333c-0.306 0-0.555 0.248-0.555 0.555v5h-0.555c-0.306 0-0.555 0.249-0.555 0.555s0.248 0.555 0.555 0.555h25.001zM26.889 26.889h-1.781v-15.111h1.781v15.111zM20.22 19.556v7.333h-1.777v-7.333h1.777zM13.554 17.333v9.555h-1.777v-9.555h1.777zM6.888 22.889v3.999h-1.777v-3.999h1.777z"></path>
</svg>
