<!-- Generated by IcoMoon.io -->
<svg version="1.1" xmlns="http://www.w3.org/2000/svg" width="32" height="32" viewBox="0 0 32 32">
<title>my-business</title>
<path d="M27.667 10.445c0.307 0 0.555 0.249 0.555 0.555v16.111h0.555c0.307 0 0.555 0.249 0.555 0.555s-0.249 0.555-0.555 0.555h-25.556c-0.307 0-0.555-0.249-0.555-0.555s0.249-0.555 0.555-0.555h0.555v-5c0-0.307 0.249-0.555 0.555-0.555h3.333c0.307 0 0.555 0.249 0.555 0.555v5h2.222v-10.556c0-0.307 0.249-0.555 0.555-0.555h3.333c0.307 0 0.555 0.249 0.555 0.555v10.556h2.222v-8.333c0-0.307 0.249-0.555 0.555-0.555h3.333c0.307 0 0.555 0.249 0.555 0.555v8.333h2.222v-16.111c0-0.307 0.249-0.555 0.555-0.555h3.337zM26.557 2.667c0.307 0 0.555 0.249 0.555 0.555v4.445c0 0.307-0.249 0.555-0.555 0.555s-0.555-0.249-0.555-0.555v-3.070l-6.259 6.782c-0.148 0.159-0.378 0.218-0.583 0.15l-6.373-2.126-6.429 5.359c-0.239 0.198-0.587 0.162-0.782-0.072-0.197-0.235-0.165-0.586 0.071-0.782l6.667-5.556c0.148-0.122 0.346-0.163 0.531-0.1l6.327 2.108 6.074-6.581h-3.133c-0.307 0-0.555-0.249-0.555-0.555s0.249-0.555 0.555-0.555l4.445-0.002z"></path>
</svg>
