<!-- Generated by IcoMoon.io -->
<svg version="1.1" xmlns="http://www.w3.org/2000/svg" width="32" height="32" viewBox="0 0 32 32">
<title>note</title>
<path d="M27.885 4.89h-1.666v3.331c0 0.92-0.745 1.666-1.666 1.666s-1.666-0.745-1.666-1.666v-3.331h-2.224v3.331c0 0.92-0.745 1.666-1.666 1.666s-1.666-0.745-1.666-1.666v-3.331h-2.224v3.331c0 0.92-0.745 1.666-1.666 1.666s-1.666-0.745-1.666-1.666v-3.331h-2.224v3.331c0 0.92-0.745 1.666-1.666 1.666s-1.666-0.745-1.666-1.666v-3.331h-1.666c-0.307 0-0.555 0.247-0.558 0.554v23.335c0.003 0.307 0.251 0.554 0.558 0.554h16.665c0.153-0.001 0.292-0.064 0.392-0.166l6.662-6.662c0.102-0.101 0.166-0.24 0.166-0.395v-16.665c-0.003-0.307-0.251-0.554-0.558-0.554zM21.759 27.433v-4.767h4.771l-4.771 4.767zM7.889 8.78c-0.306 0-0.554-0.248-0.554-0.554 0-0.002 0-0.003 0-0.004v-5.001c0-0.306 0.248-0.554 0.554-0.554s0.554 0.248 0.554 0.554v5.001c0 0.002 0 0.003 0 0.004 0 0.306-0.248 0.554-0.554 0.554zM13.444 8.78c-0.306 0-0.554-0.248-0.554-0.554 0-0.002 0-0.003 0-0.004v-5.001c0-0.306 0.248-0.554 0.554-0.554s0.554 0.248 0.554 0.554v5.001c0 0.002 0 0.003 0 0.004 0 0.306-0.248 0.554-0.554 0.554zM18.999 8.78c-0.306 0-0.554-0.248-0.554-0.554 0-0.002 0-0.003 0-0.004v-5.001c0-0.306 0.248-0.554 0.554-0.554s0.554 0.248 0.554 0.554v5.001c0 0.002 0 0.003 0 0.004 0 0.306-0.248 0.554-0.554 0.554zM24.554 8.78c-0.306 0-0.554-0.248-0.554-0.554 0-0.002 0-0.003 0-0.004v-5.001c0-0.306 0.248-0.554 0.554-0.554s0.554 0.248 0.554 0.554v5.001c0 0.002 0 0.003 0 0.004 0 0.306-0.248 0.554-0.554 0.554z"></path>
</svg>
