<!-- Generated by IcoMoon.io -->
<svg version="1.1" xmlns="http://www.w3.org/2000/svg" width="32" height="32" viewBox="0 0 32 32">
<title>note-edit</title>
<path d="M9.852 24h-6.725c-0.252 0-0.458-0.192-0.46-0.43v-18.104c0.002-0.237 0.208-0.43 0.46-0.43h1.373v2.584c0 0.713 0.615 1.293 1.373 1.293s1.373-0.578 1.373-1.293v-2.584h1.833v2.584c0 0.713 0.615 1.293 1.373 1.293s1.373-0.578 1.373-1.293v-2.584h1.833v2.584c0 0.713 0.615 1.293 1.373 1.293s1.373-0.578 1.373-1.293v-2.584h1.833v2.584c0 0.713 0.615 1.293 1.373 1.293s1.373-0.578 1.373-1.293v-2.584h1.373c0.253 0 0.458 0.192 0.46 0.43v5.57l-12.969 12.964zM5.63 7.407c-0.158 0-0.309-0.046-0.421-0.127s-0.173-0.192-0.172-0.306v-3.878c0-0.237 0.265-0.429 0.593-0.429s0.593 0.192 0.593 0.429v3.878c0.001 0.114-0.061 0.224-0.172 0.306s-0.263 0.127-0.421 0.127zM10.37 7.407c-0.158 0-0.309-0.046-0.421-0.127s-0.173-0.192-0.172-0.306v-3.878c0-0.237 0.265-0.429 0.593-0.429s0.593 0.192 0.593 0.429v3.878c0.001 0.114-0.061 0.224-0.172 0.306s-0.262 0.127-0.421 0.127zM15.111 7.407c-0.158 0-0.309-0.046-0.421-0.127s-0.173-0.192-0.172-0.306v-3.878c0-0.237 0.265-0.429 0.593-0.429s0.593 0.192 0.593 0.429v3.878c0.001 0.114-0.061 0.224-0.172 0.306s-0.263 0.127-0.421 0.127zM19.852 7.407c-0.158 0-0.309-0.046-0.421-0.127s-0.173-0.192-0.172-0.306v-3.878c0-0.237 0.265-0.429 0.593-0.429s0.593 0.192 0.593 0.429v3.878c0.001 0.114-0.061 0.224-0.172 0.306s-0.262 0.127-0.421 0.127zM11.563 29.029c-0.020 0.083 0.005 0.171 0.066 0.232s0.148 0.086 0.232 0.066c0 0 3.232-0.762 3.252-0.777l-2.778-2.772c-0.010 0.017-0.772 3.252-0.772 3.252zM23.066 13.651l0.523-0.523 4.186 4.189-0.523 0.523-4.186-4.189zM13.274 23.443l9.268-9.268 4.188 4.188-9.268 9.268-4.188-4.188zM28.761 15.11l0.185-0.187c0.248-0.247 0.388-0.582 0.388-0.932s-0.14-0.685-0.388-0.932l-1.11-1.117c-0.247-0.249-0.584-0.389-0.935-0.389s-0.688 0.14-0.935 0.389l-0.187 0.184 2.982 2.983z"></path>
</svg>
