<!-- Generated by IcoMoon.io -->
<svg version="1.1" xmlns="http://www.w3.org/2000/svg" width="32" height="32" viewBox="0 0 32 32">
<title>notification-ns</title>
<path d="M12.167 4.667c-4.87 0-8.834 3.964-8.834 8.834 0 0.368-0.298 0.667-0.667 0.667s-0.667-0.299-0.667-0.667c0-5.607 4.561-10.167 10.167-10.167 0.368 0 0.667 0.298 0.667 0.667s-0.298 0.667-0.667 0.667zM17.834 4.001c0-0.368 0.299-0.667 0.667-0.667 5.606 0 10.166 4.56 10.166 10.166 0 0.368-0.299 0.667-0.667 0.667s-0.667-0.299-0.667-0.667c0-4.87-3.964-8.833-8.833-8.833-0.368 0-0.667-0.298-0.667-0.667zM12.167 7.834c-3.125 0-5.667 2.543-5.667 5.667 0 0.368-0.298 0.667-0.667 0.667s-0.667-0.299-0.667-0.667c0-3.861 3.14-7.001 7.001-7.001 0.368 0 0.667 0.298 0.667 0.667s-0.298 0.667-0.667 0.667zM17.834 7.167c0-0.368 0.299-0.667 0.667-0.667 3.86 0 7 3.139 7 7 0 0.368-0.299 0.667-0.667 0.667s-0.667-0.299-0.667-0.667c0-3.125-2.543-5.667-5.667-5.667-0.368 0-0.667-0.298-0.667-0.667zM15.334 9.945c-1.284 0-2.346 0.975-2.486 2.222l-0.041 0.371-0.337 0.159c-2.354 1.107-3.858 3.46-3.858 6.082v3.695c0 0.849-0.472 1.59-1.168 1.973h15.78c-0.696-0.383-1.168-1.123-1.168-1.973v-3.695c0-2.619-1.504-4.974-3.858-6.081l-0.337-0.159-0.041-0.371c-0.139-1.248-1.202-2.222-2.485-2.222zM11.583 11.648c0.368-1.732 1.909-3.036 3.751-3.036s3.382 1.305 3.75 3.037c2.637 1.384 4.305 4.113 4.305 7.129v3.695c0 0.505 0.412 0.917 0.917 0.917 0.659 0 1.195 0.535 1.195 1.195s-0.535 1.195-1.195 1.195h-5.693c-0.206 1.628-1.598 2.888-3.279 2.888s-3.073-1.261-3.279-2.888h-5.693c-0.66 0-1.195-0.535-1.195-1.195s0.535-1.195 1.195-1.195c0.505 0 0.917-0.412 0.917-0.917v-3.695c0-3.020 1.668-5.746 4.305-7.13zM13.406 25.779c0.192 0.887 0.984 1.555 1.927 1.555s1.735-0.667 1.927-1.555h-3.855z"></path>
</svg>
