<!-- Generated by IcoMoon.io -->
<svg version="1.1" xmlns="http://www.w3.org/2000/svg" width="32" height="32" viewBox="0 0 32 32">
<title>ordered</title>
<path d="M9.331 10.425v-2.204h-3.609c-0.142 0.001-0.271 0.055-0.368 0.143l0.001-0.001-2.321 2.062h6.297zM12.668 8.22h6.665v2.204h-6.665v-2.204zM11.557 10.425v-2.204c0-2.454 1.989-4.443 4.443-4.443s4.443 1.989 4.443 4.443v2.204h1.111v-2.204c0-3.067-2.487-5.554-5.554-5.554s-5.554 2.487-5.554 5.554v2.204h1.111zM28.966 10.425l-2.161-2.053c-0.099-0.093-0.233-0.15-0.38-0.151h-3.756v2.204h6.297zM2.667 11.553v16.112c0 0.305 0.248 0.553 0.553 0.553 0.002 0 0.003 0 0.004 0h25.552c0.002 0 0.003 0 0.004 0 0.305 0 0.553-0.248 0.553-0.553v-16.112h-26.667zM21.031 16.739l-5.619 6.427c-0.204 0.233-0.502 0.379-0.834 0.379-0.308 0-0.586-0.125-0.787-0.328l-2.779-2.775c-0.201-0.201-0.326-0.48-0.326-0.787 0-0.615 0.498-1.113 1.112-1.113 0.307 0 0.585 0.125 0.787 0.326l1.936 1.936 4.836-5.519c0.205-0.246 0.513-0.402 0.856-0.402 0.614 0 1.111 0.497 1.111 1.111 0 0.29-0.111 0.555-0.295 0.753l0.001-0.001v-0.009z"></path>
</svg>
