<!-- Generated by IcoMoon.io -->
<svg version="1.1" xmlns="http://www.w3.org/2000/svg" width="32" height="32" viewBox="0 0 32 32">
<title>order-delivered</title>
<path d="M10.467 2.667h-2.8c-0.001 0-0.001 0-0.002 0-0.153 0-0.291 0.064-0.39 0.166l-4.281 4.281h7.473v-4.447zM19.332 11.71v-3.485h-16.666v11.665c0.003 0.306 0.251 0.553 0.558 0.553 0.003 0 0.006 0 0.009 0h8.349c0.273-4.383 3.494-7.94 7.691-8.724l0.059-0.009zM14.723 2.833c-0.101-0.102-0.241-0.166-0.396-0.166h-2.771v4.447h7.452l-4.285-4.281zM21.001 12.668c-4.602 0-8.333 3.731-8.333 8.333s3.731 8.333 8.333 8.333c4.602 0 8.333-3.731 8.333-8.333-0.005-4.601-3.732-8.328-8.332-8.333h-0.001zM24.724 22.503l-3.332 3.332c-0.1 0.1-0.24 0.163-0.393 0.163s-0.293-0.062-0.393-0.163l-3.328-3.332c-0.089-0.099-0.143-0.229-0.143-0.373 0-0.308 0.249-0.557 0.558-0.557 0.144 0 0.274 0.054 0.373 0.143l-0.001-0.001 2.379 2.37v-6.418c-0.002-0.015-0.003-0.032-0.003-0.049 0-0.308 0.249-0.558 0.557-0.558s0.557 0.249 0.557 0.558c0 0.017-0.001 0.034-0.003 0.051v-0.003 6.418l2.387-2.387c0.1-0.1 0.238-0.162 0.392-0.162 0.306 0 0.555 0.249 0.555 0.555 0 0.154-0.063 0.293-0.163 0.393l0.001 0.019z"></path>
</svg>
