<!-- Generated by IcoMoon.io -->
<svg version="1.1" xmlns="http://www.w3.org/2000/svg" width="32" height="32" viewBox="0 0 32 32">
<title>order-add</title>
<path d="M2.667 9.507l9.248 4.439v10.93l-8.996-4.061c-0.14-0.063-0.235-0.195-0.251-0.344l-0.002-0.076v-10.887zM22.844 9.507v4.581l-1.681 0.001v5.045h-5.045v4.347l-3.363 1.386v-10.929l10.089-4.431zM5.38 12.89c-0.102 0.065-0.169 0.17-0.187 0.286l-0.005 0.072v4.203c0 0.142 0.069 0.272 0.184 0.351l0.060 0.035 4.203 2.102c0.131 0.056 0.282 0.043 0.402-0.034 0.096-0.062 0.162-0.159 0.186-0.268l0.010-0.084v-4.203c-0.001-0.139-0.071-0.267-0.184-0.344l-0.060-0.034-4.203-2.102c-0.13-0.065-0.283-0.057-0.405 0.020l-0.001 0.001zM7.904 6.909l8.542 4.607-4.111 1.69-8.987-4.313 4.557-1.984zM12.84 4.817l0.083 0.024 9.24 4.053-4.767 2.186-8.508-4.557 3.699-1.682c0.081-0.032 0.17-0.040 0.254-0.024z"></path>
<path d="M24.526 15.77v5.044l5.045 0.001v1.681l-5.045-0.001v5.045h-1.682v-5.045l-5.045 0.001v-1.681l5.045-0.001v-5.044h1.682z"></path>
</svg>
