<!-- Generated by IcoMoon.io -->
<svg version="1.1" xmlns="http://www.w3.org/2000/svg" width="32" height="32" viewBox="0 0 32 32">
<title>order-edit</title>
<path d="M2.667 8.507l9.808 4.708v11.592l-9.541-4.307c-0.149-0.067-0.249-0.207-0.266-0.365l-0.002-0.081v-11.547zM24.067 8.507v6.016l-8.009 8.606 0.004 0.557-2.696 1.112v-11.592l10.701-4.699zM5.544 12.095c-0.108 0.069-0.179 0.18-0.198 0.304l-0.005 0.076v4.458c0 0.15 0.074 0.289 0.195 0.373l0.064 0.037 4.458 2.229c0.139 0.059 0.299 0.045 0.426-0.036 0.102-0.065 0.171-0.169 0.197-0.284l0.011-0.089v-4.458c-0.001-0.148-0.075-0.284-0.195-0.365l-0.064-0.036-4.458-2.23c-0.137-0.069-0.301-0.061-0.43 0.021l-0.001 0.001zM8.221 5.752l9.059 4.886-4.36 1.792-9.532-4.575 4.833-2.104zM13.457 3.533l0.088 0.025 9.8 4.298-5.056 2.318-9.024-4.833 3.923-1.783c0.086-0.034 0.179-0.042 0.268-0.025h0.001z"></path>
<path d="M17.389 26.315l1.322 1.323-1.441 0.444c-0.099 0.030-0.195 0-0.26-0.065-0.068-0.069-0.093-0.169-0.065-0.26l0.444-1.442zM17.939 24.524l0.63 0.631c0.049 0.048 0.115 0.076 0.184 0.076h1.040v1.040c0 0.070 0.028 0.135 0.076 0.184l0.631 0.631-1.227 0.377-1.712-1.712 0.377-1.228zM25.646 19.749l1.17 1.17-5.874 5.874-0.628-0.628v-1.085l5.332-5.331zM24.107 18.21l1.17 1.17-5.332 5.332h-1.085l-0.628-0.629 5.875-5.873zM24.888 17.43l2.709 2.709-0.412 0.412-2.709-2.709 0.412-0.412zM26.816 16.042c0.348 0 0.675 0.135 0.92 0.379l0.869 0.869c0.245 0.245 0.381 0.571 0.381 0.92s-0.135 0.675-0.381 0.92l-0.641 0.641-2.709-2.709 0.641-0.641c0.245-0.245 0.571-0.379 0.92-0.379z"></path>
</svg>
