<!-- Generated by IcoMoon.io -->
<svg version="1.1" xmlns="http://www.w3.org/2000/svg" width="32" height="32" viewBox="0 0 32 32">
<title>order</title>
<path d="M9.59 5.442l-6.022 2.622 11.877 5.7 5.433-2.233-11.289-6.089zM2.668 23.264c-0.001 0.012-0.002 0.025-0.002 0.039 0 0.229 0.136 0.426 0.331 0.515l0.003 0.002 11.888 5.366v-14.444l-12.221-5.866 0.001 14.387zM6.002 13.819c0-0.004 0-0.009 0-0.013 0-0.3 0.244-0.544 0.544-0.544 0.089 0 0.174 0.022 0.247 0.060l5.552 2.776c0.19 0.089 0.32 0.28 0.322 0.5v5.556c-0.006 0.309-0.257 0.557-0.567 0.557-0.080 0-0.156-0.017-0.226-0.047l0.003 0.002-5.555-2.777c-0.192-0.093-0.322-0.287-0.322-0.511l0.001-5.556zM16.001 14.731v14.444l12.999-5.356c0.197-0.090 0.331-0.285 0.333-0.511v-14.433l-13.333 5.855zM28.434 8.065l-12.211-5.356c-0.066-0.026-0.142-0.042-0.223-0.042s-0.156 0.016-0.227 0.043l0.004-0.002-4.889 2.222 11.244 6.022 6.301-2.888z"></path>
</svg>
