<!-- Generated by IcoMoon.io -->
<svg version="1.1" xmlns="http://www.w3.org/2000/svg" width="32" height="32" viewBox="0 0 32 32">
<title>order-delete</title>
<path d="M2.667 9.792l10.090 4.843v11.925l-9.815-4.431c-0.153-0.069-0.255-0.213-0.273-0.376l-0.002-0.083v-11.879zM24.681 9.792v8.983l-4.429-4.43-3.891 3.891 3.891 3.891-2.911 2.91-3.668 1.512v-11.925l11.007-4.833zM5.627 13.483c-0.111 0.071-0.185 0.185-0.204 0.313l-0.005 0.078v4.586c0 0.155 0.076 0.297 0.2 0.384l0.066 0.039 4.586 2.293c0.143 0.061 0.307 0.047 0.438-0.038 0.104-0.068 0.176-0.174 0.203-0.292l0.010-0.092v-4.586c-0.001-0.152-0.077-0.292-0.2-0.376l-0.065-0.037-4.586-2.293c-0.141-0.071-0.309-0.063-0.443 0.021zM8.381 6.958l9.319 5.026-4.486 1.844-9.806-4.706 4.972-2.165zM13.767 4.675l0.090 0.026 10.081 4.421-5.201 2.385-9.283-4.971 4.036-1.834c0.089-0.034 0.184-0.043 0.276-0.026h0.001z"></path>
<path d="M20.252 16.94l3.891 3.891 3.892-3.891 1.298 1.297-3.892 3.891 3.892 3.892-1.298 1.298-3.892-3.892-3.891 3.892-1.298-1.298 3.891-3.892-3.891-3.891 1.298-1.297z"></path>
</svg>
