<!-- Generated by IcoMoon.io -->
<svg version="1.1" xmlns="http://www.w3.org/2000/svg" width="32" height="32" viewBox="0 0 32 32">
<title>pdf</title>
<path d="M16.093 9.951c0.165 0.408 0.258 0.915 0.274 1.513 0.022 0.864-0.24 1.959-0.718 3.295 0.301 0.467 0.667 0.965 1.111 1.49 0.523 0.595 1.033 1.078 1.519 1.47 0.323-0.052 0.643-0.096 0.955-0.13 1.112-0.123 2.199-0.135 3.074 0.080 0.478 0.117 0.886 0.291 1.187 0.533 0.306 0.246 0.547 0.606 0.522 1.048-0.024 0.433-0.294 0.758-0.59 0.962-0.298 0.205-0.674 0.331-1.078 0.388-1.137 0.16-2.728-0.182-4.454-1.399-0.59 0.111-1.194 0.248-1.79 0.399-1.074 0.273-2.101 0.592-2.967 0.896-0.123 0.255-0.249 0.516-0.379 0.782-0.629 1.289-1.336 2.139-2.032 2.612-0.662 0.45-1.514 0.663-2.17 0.202-0.679-0.476-0.661-1.317-0.353-1.968 0.322-0.68 1.016-1.369 2.099-1.963 0.394-0.215 1.009-0.483 1.761-0.764 0.852-1.788 1.515-3.273 1.987-4.5-1.25-2.203-1.334-3.999-0.821-5.074 0.171-0.358 0.435-0.684 0.805-0.868 0.398-0.198 0.86-0.198 1.265 0.028 0.374 0.209 0.629 0.568 0.791 0.968zM14.71 12.904c-0.441-1.236-0.348-2.098-0.155-2.503 0.030-0.062 0.058-0.107 0.082-0.139 0.028 0.041 0.063 0.102 0.099 0.191 0.088 0.218 0.164 0.558 0.176 1.045 0.009 0.363-0.054 0.825-0.202 1.406zM15.022 16.365c-0.302 0.726-0.655 1.52-1.058 2.389 0.568-0.175 1.164-0.344 1.769-0.498 0.262-0.067 0.527-0.131 0.792-0.192-0.294-0.281-0.588-0.588-0.883-0.924l-0.009-0.010c-0.219-0.259-0.422-0.514-0.611-0.765zM11.099 21.331c-0.025 0.013-0.048 0.026-0.071 0.038-0.915 0.501-1.34 0.998-1.497 1.329-0.056 0.117-0.073 0.202-0.076 0.255 0.074-0.009 0.213-0.048 0.431-0.197 0.336-0.228 0.766-0.669 1.213-1.425zM20.243 18.904c0.809 0.324 1.467 0.38 1.895 0.32 0.103-0.014 0.187-0.035 0.254-0.056-0.102-0.049-0.247-0.102-0.445-0.151zM20.243 18.904c0.68-0.032 1.259 0.004 1.704 0.113l-1.704-0.113z"></path>
<path d="M17.6 1.391h-10.327c-0.803 0-1.455 0.623-1.455 1.391v23.652c0 0.768 0.651 1.391 1.455 1.391h17.455c0.803 0 1.455-0.623 1.455-1.391v-16.513h-4.945c-2.008 0-3.636-1.557-3.636-3.478v-5.053zM27.636 9.227v17.208c0 1.537-1.302 2.783-2.909 2.783h-17.455c-1.607 0-2.909-1.246-2.909-2.783v-23.652c0-1.537 1.302-2.783 2.909-2.783h11.055l9.309 9.227zM24.913 8.531l-5.858-5.807v3.72c0 1.153 0.977 2.087 2.182 2.087h3.677z"></path>
</svg>
