<!-- Generated by IcoMoon.io -->
<svg version="1.1" xmlns="http://www.w3.org/2000/svg" width="32" height="32" viewBox="0 0 32 32">
<title>pending</title>
<path d="M21.556 16.223c-0.921 0-1.667-0.747-1.667-1.667s0.746-1.667 1.667-1.667c0.921 0 1.667 0.747 1.667 1.667s-0.746 1.667-1.667 1.667zM16 16.223c-0.921 0-1.667-0.747-1.667-1.667s0.746-1.667 1.667-1.667c0.921 0 1.667 0.747 1.667 1.667s-0.746 1.667-1.667 1.667zM10.444 16.223c-0.921 0-1.667-0.747-1.667-1.667s0.746-1.667 1.667-1.667c0.921 0 1.667 0.747 1.667 1.667s-0.746 1.667-1.667 1.667zM16 4c-7.352 0-13.333 4.927-13.333 10.981 0 2.86 1.308 5.539 3.694 7.59l-2.677 5.346c-0.237 0.473 0.263 0.974 0.73 0.753l7.152-3.327c1.421 0.411 2.91 0.62 4.433 0.62 7.353 0 13.333-4.926 13.333-10.98s-5.981-10.981-13.333-10.981v-0.001z"></path>
</svg>
