<!-- Generated by IcoMoon.io -->
<svg version="1.1" xmlns="http://www.w3.org/2000/svg" width="32" height="32" viewBox="0 0 32 32">
<title>penny</title>
<path d="M28.441 18.010c-0.282 0.096-0.447 0.158-0.364 0.565s0.248 0.263 0.418 0.633c0.169 0.37-0.299 0.687-0.537 0.805-0.115 0.049-0.221 0.119-0.311 0.207 0 0 0.749-0.082 0.847 0.41s-0.364 0.483-0.503 0.805c-0.138 0.323 0.051 0.433 0.113 0.831 0.147 0.517-0.103 1.063-0.591 1.288 0 0-1.209 0.636-4.010 0.477s-6.084 0.802-2.86 5.301c-5.253-1.627-6.398-7.065-6.556-7.997-0.413-2.571-0.178-6.604 3.024-11.625 0 0-3.976 3.874-4.256 11.142-3.21-1.255-5.437-5.217-5.466-9.015 0-0.203 0-0.402 0.020-0.597-0.096-0.028-0.234-0.065-0.404-0.102-0.345-0.071-0.737 0-1.252-0.169-0.481-0.208-0.856-0.605-1.037-1.097-0.185-0.457-0.258-0.951-0.215-1.441 0-0.034 0-0.071 0.014-0.11 0.127-0.731 0.435-1.417 0.896-1.998-0.545-0.088-1.413 1.302-1.413 1.302 0.613-1.834 2.117-2.137 2.117-2.137-0.492-0.173-1.237 0.161-1.237 0.161 0.327-0.337 1.107-0.565 1.515-0.587 0 0 0.528-0.037 0.698-0.373 0.146-0.393 0.38-0.748 0.684-1.037 0.265-0.261 0.562-0.487 0.884-0.672 0.378-0.207 0.803-0.314 1.235-0.313 0.517-0.015 1.015 0.19 1.371 0.565l0.023 0.026 0.017 0.022c0.352 0.44 0.537 0.991 0.522 1.554 0.667-0.344 1.372-0.612 2.1-0.797 9.766-2.072 11.818 4.406 11.818 4.406 0.353 0.432 0.673 0.891 0.958 1.371 0.902 1.812 0.805 3.442 0.689 3.778-0.133 0.263-0.196 0.554-0.187 0.847 0.336 0.008 0.658-0.134 0.879-0.387-0.162 0.317-0.492 0.514-0.847 0.506 0 0.022 0.014 0.042 0.022 0.067 0.155 0.402 1.831 2.001 1.936 2.447s-0.472 0.847-0.754 0.935l-0.002 0.002z"></path>
</svg>
