<!-- Generated by IcoMoon.io -->
<svg version="1.1" xmlns="http://www.w3.org/2000/svg" width="32" height="32" viewBox="0 0 32 32">
<title>phone-notification</title>
<path d="M6.667 2.667h17.5v26.667h-17.5v-26.667z"></path>
<path d="M21.675 23.482l0.273 1.283c0.245 1.154-0.474 2.293-1.61 2.574l-0.073 0.017-7.693 1.635c-1.153 0.245-2.293-0.473-2.574-1.61l-0.017-0.073-0.273-1.283 11.967-2.543zM15.782 25.181c-0.471 0.1-0.773 0.565-0.673 1.037s0.566 0.773 1.037 0.673c0.471-0.1 0.773-0.565 0.673-1.037s-0.566-0.773-1.037-0.673zM17.798 11.32c0.263 0.676 0.853 1.188 1.576 1.339l2.203 10.365-11.967 2.543-2.543-11.967 10.731-2.281zM16.005 7.733l-0.001 0.058v0.76l-0.037 0.023-0.058 0.037c-0.383 0.258-0.636 0.697-0.636 1.193 0 0.701 0.501 1.284 1.164 1.412l-9.45 2.008-0.272-1.283c-0.245-1.154 0.474-2.293 1.61-2.574l0.073-0.017 7.607-1.617zM14.745 9.788l-4.274 0.908c-0.236 0.050-0.387 0.283-0.337 0.518 0.047 0.222 0.256 0.368 0.477 0.343l0.042-0.007 4.274-0.908c0.236-0.050 0.387-0.283 0.337-0.518s-0.283-0.387-0.518-0.337z"></path>
<path d="M20.555 10.353c0.101 0 0.183 0.082 0.183 0.183 0 0.505-0.411 0.915-0.915 0.915s-0.915-0.41-0.915-0.915c0-0.101 0.082-0.183 0.183-0.183h1.463zM19.822 4.497c0.564 0 1.030 0.428 1.092 0.976 0.897 0.422 1.471 1.32 1.471 2.318v1.281c0 0.303 0.247 0.549 0.549 0.549 0.101 0 0.183 0.082 0.183 0.183s-0.082 0.183-0.183 0.183h-6.223c-0.101 0-0.183-0.082-0.183-0.183s0.082-0.183 0.183-0.183c0.303 0 0.549-0.247 0.549-0.549v-1.281c0-0.999 0.573-1.897 1.471-2.318 0.061-0.548 0.527-0.976 1.092-0.976h-0.001zM18.725 3.765c0.101 0 0.183 0.082 0.183 0.183s-0.082 0.183-0.183 0.183c-1.009 0-1.83 0.821-1.83 1.83 0 0.101-0.082 0.183-0.183 0.183s-0.183-0.082-0.183-0.183c0-1.211 0.985-2.196 2.196-2.196l0.001-0.001zM18.725 2.667c0.101 0 0.183 0.082 0.183 0.183s-0.082 0.183-0.183 0.183c-1.614 0-2.928 1.313-2.928 2.928 0 0.101-0.082 0.183-0.183 0.183s-0.183-0.082-0.183-0.183c0-1.817 1.477-3.294 3.294-3.294l0.001-0.001zM20.921 3.765c1.211 0 2.196 0.985 2.196 2.196 0 0.101-0.082 0.183-0.183 0.183s-0.183-0.082-0.183-0.183c0-1.009-0.821-1.83-1.83-1.83-0.101 0-0.183-0.082-0.183-0.183s0.082-0.183 0.183-0.183l0.001 0.001zM20.921 2.667c1.816 0 3.294 1.478 3.294 3.294 0 0.101-0.082 0.183-0.183 0.183s-0.183-0.082-0.183-0.183c0-1.614-1.313-2.928-2.928-2.928-0.101 0-0.183-0.082-0.183-0.183s0.082-0.183 0.183-0.183l0.001 0.001z"></path>
</svg>
