<!-- Generated by IcoMoon.io -->
<svg version="1.1" xmlns="http://www.w3.org/2000/svg" width="32" height="32" viewBox="0 0 32 32">
<title>phone</title>
<path d="M11.19 24.901l14.041-3.762-3.762-14.041-14.041 3.762 3.762 14.041zM19.15 26.531c-0.553 0.148-1.123-0.18-1.272-0.735s0.182-1.123 0.735-1.272c0.553-0.148 1.123 0.18 1.272 0.735s-0.182 1.123-0.735 1.272zM11.458 25.905l0.403 1.505c0.371 1.383 1.797 2.205 3.179 1.836l9.026-2.418c1.382-0.371 2.206-1.796 1.836-3.179l-0.403-1.504-14.041 3.762zM11.134 6.642l5.014-1.343c0.277-0.074 0.561 0.091 0.635 0.367s-0.091 0.561-0.367 0.635l-5.014 1.343c-0.277 0.074-0.561-0.091-0.635-0.367s0.091-0.561 0.367-0.635zM21.199 6.095l-0.403-1.505c-0.371-1.383-1.797-2.205-3.179-1.836l-9.026 2.418c-1.382 0.371-2.206 1.796-1.836 3.179l0.404 1.505 14.041-3.762z"></path>
</svg>
