<!-- Generated by IcoMoon.io -->
<svg version="1.1" xmlns="http://www.w3.org/2000/svg" width="32" height="32" viewBox="0 0 32 32">
<title>pinterest</title>
<path d="M16.001 2.667c-7.364 0-13.334 5.967-13.334 13.33 0 5.649 3.516 10.468 8.477 12.41-0.114-1.052-0.222-2.674 0.048-3.822 0.24-1.039 1.563-6.622 1.563-6.622s-0.396-0.799-0.396-1.977c0-1.851 1.076-3.239 2.41-3.239 1.136 0 1.689 0.853 1.689 1.875 0 1.142-0.727 2.855-1.106 4.436-0.318 1.328 0.662 2.41 1.972 2.41 2.368 0 4.19-2.5 4.19-6.106 0-3.191-2.296-5.421-5.566-5.421-3.793 0-6.017 2.842-6.017 5.788 0 1.148 0.439 2.374 0.992 3.041 0.109 0.132 0.126 0.246 0.090 0.385-0.102 0.421-0.325 1.328-0.372 1.515-0.061 0.246-0.192 0.294-0.445 0.181-1.665-0.775-2.706-3.209-2.706-5.163 0-4.207 3.054-8.065 8.807-8.065 4.623 0 8.218 3.293 8.218 7.698 0 4.591-2.897 8.293-6.919 8.293-1.352 0-2.621-0.703-3.054-1.533 0 0-0.667 2.542-0.83 3.167-0.301 1.16-1.112 2.608-1.659 3.491 1.25 0.385 2.573 0.595 3.949 0.595 7.364 0 13.334-5.967 13.334-13.33 0-7.367-5.969-13.336-13.334-13.336l0.001-0.001z"></path>
</svg>
