<!-- Generated by IcoMoon.io -->
<svg version="1.1" xmlns="http://www.w3.org/2000/svg" width="32" height="32" viewBox="0 0 32 32">
<title>post</title>
<path d="M5.333 5.974c-0.003-0.435 0.080-0.867 0.246-1.269s0.409-0.768 0.716-1.076c0.308-0.308 0.674-0.551 1.076-0.716s0.834-0.249 1.269-0.246h10.014c0.877 0 1.719 0.348 2.339 0.969s0.969 1.462 0.969 2.339v2.848c0.016 0.077 0.015 0.157-0.003 0.233s-0.054 0.148-0.103 0.209c-0.050 0.061-0.112 0.11-0.183 0.144s-0.149 0.051-0.227 0.051-0.156-0.018-0.227-0.051c-0.071-0.034-0.134-0.083-0.183-0.144s-0.085-0.133-0.103-0.209-0.019-0.156-0.003-0.233v-0.896h-14.562v14.585h14.562v-1.47c-0.016-0.077-0.015-0.157 0.003-0.233s0.054-0.148 0.103-0.209c0.049-0.061 0.112-0.111 0.183-0.144s0.149-0.051 0.227-0.051 0.156 0.017 0.227 0.051c0.071 0.034 0.133 0.083 0.183 0.144s0.085 0.133 0.103 0.209c0.018 0.077 0.019 0.156 0.003 0.233v5.007c-0.012 0.871-0.365 1.703-0.983 2.317s-1.453 0.961-2.324 0.967h-10.014c-0.877 0-1.718-0.349-2.339-0.969s-0.969-1.461-0.969-2.339v-20.052zM6.367 6.893h14.562v-0.919c0-0.609-0.242-1.193-0.673-1.624s-1.015-0.673-1.624-0.673h-9.991c-0.609 0-1.193 0.242-1.624 0.673s-0.673 1.015-0.673 1.624l0.023 0.919zM20.929 23.522h-14.562v2.504c0 0.609 0.242 1.193 0.673 1.624s1.015 0.673 1.624 0.673h9.991c0.609 0 1.193-0.242 1.624-0.673s0.673-1.015 0.673-1.624l-0.023-2.504zM10.341 5.147c0.012-0.132 0.072-0.255 0.17-0.344s0.226-0.139 0.358-0.138h5.558c0.077-0.016 0.157-0.015 0.233 0.003s0.148 0.054 0.209 0.103c0.061 0.050 0.111 0.112 0.144 0.183s0.051 0.149 0.051 0.227-0.018 0.156-0.051 0.227c-0.034 0.071-0.083 0.134-0.144 0.183s-0.133 0.085-0.209 0.103c-0.077 0.018-0.156 0.019-0.233 0.003h-5.558c-0.068 0.003-0.136-0.008-0.2-0.032s-0.122-0.061-0.172-0.108c-0.049-0.047-0.089-0.104-0.115-0.167s-0.041-0.13-0.041-0.199v-0.046zM13.648 25.429c-0.158 0-0.31 0.063-0.422 0.175s-0.175 0.264-0.175 0.422 0.063 0.31 0.175 0.422c0.112 0.112 0.264 0.175 0.422 0.175s0.31-0.063 0.422-0.175c0.112-0.112 0.175-0.264 0.175-0.422 0-0.078-0.015-0.156-0.045-0.229s-0.074-0.138-0.129-0.194c-0.055-0.055-0.121-0.099-0.194-0.129s-0.15-0.045-0.229-0.045zM12.017 26.026c0-0.323 0.096-0.638 0.275-0.906s0.434-0.477 0.732-0.601 0.626-0.156 0.942-0.093c0.316 0.063 0.607 0.218 0.835 0.446s0.383 0.519 0.446 0.835c0.063 0.316 0.031 0.644-0.093 0.942s-0.332 0.553-0.601 0.732c-0.268 0.179-0.584 0.275-0.906 0.275-0.432 0-0.847-0.172-1.153-0.478s-0.478-0.721-0.478-1.153z"></path>
<path d="M26.12 11.371c-0.474-0.48-1.039-0.862-1.663-1.122s-1.291-0.394-1.967-0.394c-1.371 0-2.685 0.544-3.654 1.514s-1.514 2.284-1.514 3.654c0.008 0.902 0.245 1.787 0.689 2.572l-0.735 2.664 2.733-0.712c0.762 0.411 1.615 0.624 2.481 0.62 1.020 0.001 2.017-0.301 2.864-0.868s1.508-1.373 1.897-2.315c0.389-0.943 0.489-1.98 0.287-2.979s-0.696-1.917-1.419-2.635zM22.491 19.319c-0.806 0.013-1.6-0.193-2.297-0.597h-0.161l-1.631 0.436 0.436-1.585v-0.161c-0.439-0.685-0.67-1.483-0.666-2.297-0.012-0.574 0.091-1.144 0.302-1.677s0.528-1.019 0.931-1.428c0.402-0.409 0.883-0.733 1.413-0.953s1.099-0.332 1.672-0.329c1.137 0.010 2.224 0.463 3.032 1.263 0.397 0.398 0.711 0.871 0.924 1.392s0.32 1.078 0.316 1.64c0 1.135-0.449 2.224-1.25 3.029s-1.887 1.26-3.022 1.266z"></path>
<path d="M22.559 17.137c0 0-0.161 0-0.207 0s-1.447-1.217-1.838-1.608c-0.39-0.39-0.505-0.597-0.505-1.034-0.010-0.186 0.019-0.371 0.086-0.545s0.17-0.33 0.303-0.461 0.291-0.231 0.466-0.295c0.175-0.064 0.361-0.091 0.546-0.077 0.253-0 0.502 0.071 0.717 0.205s0.389 0.326 0.5 0.553c0.095-0.212 0.245-0.394 0.435-0.528s0.413-0.213 0.644-0.23c0.174-0.003 0.347 0.029 0.508 0.093s0.309 0.16 0.433 0.282c0.124 0.122 0.223 0.267 0.29 0.427s0.102 0.333 0.102 0.506c0.002 0.2-0.043 0.397-0.131 0.577s-0.216 0.336-0.375 0.457c-0.368 0.391-1.769 1.562-1.837 1.631-0.041 0.027-0.089 0.043-0.138 0.046z"></path>
</svg>
