<!-- Generated by IcoMoon.io -->
<svg version="1.1" xmlns="http://www.w3.org/2000/svg" width="32" height="32" viewBox="0 0 32 32">
<title>product-tour</title>
<path d="M15.68 5.333c-4.307 0-7.806 2.883-7.806 6.423 0.041 1.779 0.872 3.356 2.155 4.398l0.011 0.009-1.533 3.166c-0.022 0.042-0.034 0.093-0.034 0.146 0 0.179 0.145 0.325 0.325 0.325 0.048 0 0.095-0.011 0.136-0.030l-0.002 0.001 4.165-1.949c0.775 0.233 1.667 0.367 2.59 0.367 0.003 0 0.007 0 0.010 0h-0.001c4.282 0 7.806-2.857 7.806-6.431s-3.524-6.423-7.822-6.423h0.001zM12.755 9.948h4.223c0.003 0 0.005 0 0.009 0 0.175 0 0.317 0.142 0.317 0.317 0 0.003 0 0.006 0 0.009v-0.001c0 0.18-0.145 0.325-0.325 0.325h-4.223c-0.18 0-0.325-0.145-0.325-0.325 0-0.003 0-0.005 0-0.009 0-0.175 0.142-0.317 0.317-0.317 0.003 0 0.006 0 0.009 0h-0.001l-0.001 0.001zM18.928 14.497h-6.173c-0.003 0-0.005 0-0.009 0-0.175 0-0.317-0.142-0.317-0.317 0-0.003 0-0.006 0-0.009v0.001c0-0.179 0.145-0.325 0.325-0.325h6.173c0.179 0 0.325 0.145 0.325 0.325 0 0.003 0 0.005 0 0.009 0 0.175-0.142 0.317-0.317 0.317-0.003 0-0.006 0-0.009 0h0.001l0.001-0.001zM18.928 12.548h-6.173c-0.18 0-0.325-0.145-0.325-0.325s0.145-0.325 0.325-0.325h6.173c0.179 0 0.325 0.145 0.325 0.325s-0.145 0.325-0.325 0.325zM26.734 21.653c-1.198 0.008-2.202 0.825-2.495 1.931l-0.004 0.018h-5.731c-0.31-1.108-1.311-1.908-2.499-1.908s-2.189 0.8-2.495 1.89l-0.004 0.018h-5.723c-0.299-1.13-1.312-1.949-2.517-1.949-1.436 0-2.599 1.164-2.599 2.599s1.164 2.599 2.599 2.599c1.204 0 2.218-0.82 2.512-1.931l0.004-0.018h5.723c0.31 1.108 1.311 1.908 2.499 1.908s2.189-0.799 2.495-1.889l0.004-0.018h5.715c0.299 1.13 1.312 1.949 2.516 1.949 1.436 0 2.599-1.164 2.599-2.599s-1.164-2.599-2.599-2.599c-0.006 0-0.012 0-0.018 0h0.018zM16.004 25.551c-0.717 0-1.3-0.582-1.3-1.3s0.582-1.3 1.3-1.3c0.717 0 1.3 0.582 1.3 1.3s-0.582 1.3-1.3 1.3zM26.734 25.551c-0.717 0-1.3-0.582-1.3-1.3s0.582-1.3 1.3-1.3c0.717 0 1.3 0.582 1.3 1.3s-0.582 1.3-1.3 1.3z"></path>
</svg>
