<!-- Generated by IcoMoon.io -->
<svg version="1.1" xmlns="http://www.w3.org/2000/svg" width="32" height="32" viewBox="0 0 32 32">
<title>promotions</title>
<path d="M16 2.667c-7.364 0-13.333 5.969-13.333 13.333s5.969 13.333 13.333 13.333c7.364 0 13.333-5.969 13.333-13.333-0.009-7.36-5.973-13.324-13.333-13.333h-0.001zM16 28.169c-6.721 0-12.169-5.448-12.169-12.169s5.448-12.169 12.169-12.169c6.721 0 12.169 5.448 12.169 12.169-0.008 6.717-5.451 12.161-12.168 12.169h-0.001zM16 7.674c-4.599 0-8.326 3.728-8.326 8.326s3.728 8.326 8.326 8.326c4.599 0 8.326-3.727 8.326-8.326-0.005-4.596-3.73-8.321-8.326-8.326h-0.001zM21.525 14.585l-2.809 2.159 1.075 3.362c0.018 0.056 0.028 0.121 0.028 0.189 0 0.355-0.287 0.642-0.642 0.642-0.138 0-0.266-0.043-0.371-0.117l0.002 0.002-2.809-2.002-2.793 2.044c-0.103 0.077-0.233 0.123-0.374 0.123-0.002 0-0.003 0-0.004 0-0.003 0-0.007 0-0.011 0-0.352 0-0.638-0.286-0.638-0.638 0-0.077 0.014-0.15 0.038-0.217l1.074-3.396-2.809-2.125c-0.161-0.118-0.264-0.306-0.264-0.519 0-0.354 0.287-0.642 0.642-0.642 0.004 0 0.009 0 0.014 0h3.45l1.067-3.277c0.105-0.236 0.337-0.398 0.608-0.398s0.503 0.162 0.606 0.394l0.002 0.004 1.067 3.277h3.451c0.001 0 0.002 0 0.003 0 0.276 0 0.511 0.175 0.599 0.421l0.002 0.004c0.024 0.064 0.037 0.138 0.037 0.214 0 0.201-0.094 0.379-0.241 0.495v0z"></path>
</svg>
