<!-- Generated by IcoMoon.io -->
<svg version="1.1" xmlns="http://www.w3.org/2000/svg" width="32" height="32" viewBox="0 0 32 32">
<title>prospects</title>
<path d="M23.631 8.357c-3.372-3.374-7.976-5.515-13.080-5.69l-0.033-0.001c-0.303 0.014-0.543 0.264-0.543 0.569 0 0.216 0.12 0.403 0.297 0.5l0.003 0.002c3.101 1.507 5.773 3.269 8.184 5.327l-0.052-0.044c0.129 0.105 0.211 0.265 0.211 0.444 0 0.163-0.069 0.309-0.177 0.413l-1.057 1.062 3.642 3.644 1.061-1.058c0.104-0.108 0.25-0.175 0.411-0.175 0.18 0 0.34 0.083 0.444 0.213l0.001 0.001c2.026 2.365 3.795 5.047 5.208 7.933l0.098 0.224c0.093 0.194 0.288 0.326 0.514 0.326 0.314 0 0.569-0.255 0.569-0.569 0-0.012 0-0.025-0.001-0.037v0.002c-0.182-5.129-2.326-9.723-5.7-13.085l-0.001-0.001h-0.001zM2.837 26.328c-0.105 0.103-0.17 0.246-0.17 0.405s0.065 0.301 0.17 0.404l2.024 2.025c0.103 0.105 0.246 0.17 0.405 0.17s0.302-0.065 0.404-0.17l14.174-14.177-2.837-2.835-14.17 14.177zM25.788 9.038l0.937-0.942c0.103-0.104 0.167-0.247 0.167-0.405s-0.064-0.301-0.167-0.405l-2.024-2.025c-0.104-0.103-0.247-0.167-0.405-0.167s-0.3 0.064-0.405 0.167l-0.941 0.938c0.513 0.428 1.014 0.856 1.489 1.349s0.924 0.976 1.348 1.49l0.001 0.001z"></path>
</svg>
