<!-- Generated by IcoMoon.io -->
<svg version="1.1" xmlns="http://www.w3.org/2000/svg" width="32" height="32" viewBox="0 0 32 32">
<title>prospect</title>
<path d="M26.842 14.948c-0.054-0.182-0.2-0.326-0.388-0.382s-0.394-0.016-0.545 0.105c-0.799 0.65-1.7 1.177-2.669 1.559-0.259-6.809-5.51-12.491-12.532-13.559-0.222-0.029-0.442 0.066-0.566 0.244s-0.133 0.408-0.020 0.594c1.75 2.844 1.941 6.327 0.514 9.331-0.681-0.906-1.197-1.915-1.528-2.985-0.054-0.181-0.201-0.324-0.39-0.379s-0.393-0.014-0.544 0.106c-4.145 3.328-5.36 8.949-2.937 13.581s7.853 7.061 13.115 5.867c5.263-1.194 8.979-5.696 8.979-10.878 0.003-1.085-0.163-2.166-0.492-3.205h0.001zM15.667 28.777c-1.259-0.005-2.464-0.496-3.341-1.361s-1.355-2.032-1.325-3.239c0.037-3.807 2.748-7.112 6.6-8.048-2.177 1.534-2.055 4.51-1.199 5.75 0.586-0.462 1.109-0.967 1.199-1.728 2.002 0.756 2.732 2.389 2.732 4.147 0.027 1.194-0.455 2.348-1.336 3.193s-2.083 1.31-3.33 1.286l-0.001-0.001z"></path>
</svg>
