<!-- Generated by IcoMoon.io -->
<svg version="1.1" xmlns="http://www.w3.org/2000/svg" width="32" height="32" viewBox="0 0 32 32">
<title>prospects-outline</title>
<path d="M10.036 3.586c0.118-0.474 0.546-0.919 1.172-0.919 0.011 0 0.022 0 0.032 0.001 3.975 0.194 7.958 1.541 11.311 4.185l1.056-1.056c0.26-0.26 0.683-0.26 0.943 0l2.032 2.032c0.128 0.128 0.198 0.302 0.195 0.483s-0.079 0.353-0.212 0.476l-1.038 0.969c2.851 3.421 4.371 7.55 4.472 11.687l0 0.016h-0c0 0.625-0.446 1.053-0.919 1.172-0.494 0.123-1.091-0.072-1.349-0.673-1.31-2.616-2.992-5.231-4.959-7.585l-0.926 0.926c-0.26 0.26-0.683 0.26-0.943 0l-0.457-0.457-14.647 14.647c-0.26 0.26-0.682 0.26-0.943 0l-1.995-1.995c-0.26-0.26-0.26-0.682 0-0.943l14.647-14.647-0.142-0.142c-0.125-0.125-0.195-0.295-0.195-0.471s0.070-0.346 0.195-0.471l0.938-0.938c-2.338-2.041-4.866-3.631-7.591-4.945-0.605-0.256-0.802-0.855-0.679-1.351zM24.641 8.76l0.511-0.477-1.072-1.072-0.506 0.506c0.239 0.217 0.474 0.44 0.705 0.671 0.123 0.123 0.244 0.247 0.362 0.372zM11.934 4.051c2.784 1.402 5.383 3.112 7.792 5.311 0.135 0.123 0.213 0.295 0.217 0.477s-0.066 0.358-0.195 0.487l-0.965 0.965 2.594 2.594 0.965-0.965c0.131-0.131 0.31-0.201 0.495-0.195s0.359 0.089 0.48 0.229c2.099 2.414 3.903 5.12 5.321 7.844-0.268-4.13-2.060-8.226-5.301-11.466-3.213-3.213-7.279-4.915-11.402-5.28zM4.276 27.023l1.053 1.053 14.167-14.168-1.052-1.052-14.168 14.168z"></path>
</svg>
