<!-- Generated by IcoMoon.io -->
<svg version="1.1" xmlns="http://www.w3.org/2000/svg" width="32" height="32" viewBox="0 0 32 32">
<title>quietbell</title>
<path d="M19.438 25.123c0.387 0 0.701 0.315 0.701 0.701 0 1.935-1.575 3.509-3.509 3.509s-3.509-1.574-3.509-3.509c0-0.387 0.315-0.701 0.701-0.701h5.616zM16.631 2.667c2.164 0 3.951 1.64 4.186 3.744 3.44 1.618 5.64 5.062 5.64 8.889v4.913c0 1.161 0.944 2.106 2.106 2.106 0.387 0 0.702 0.315 0.702 0.701s-0.315 0.701-0.702 0.701h-23.86c-0.387 0-0.702-0.315-0.702-0.701s0.315-0.701 0.702-0.701c1.161 0 2.106-0.944 2.106-2.106v-4.913c0-3.83 2.199-7.272 5.64-8.89 0.234-2.101 2.021-3.742 4.186-3.742l-0.003-0.001z"></path>
</svg>
