<!-- Generated by IcoMoon.io -->
<svg version="1.1" xmlns="http://www.w3.org/2000/svg" width="32" height="32" viewBox="0 0 32 32">
<title>reachout</title>
<path d="M22.621 24.857c-0.218-0.218-0.218-0.573 0-0.791l1.447-1.447h-5.363c-0.309 0-0.559-0.251-0.559-0.559s0.251-0.559 0.559-0.559h5.363l-1.447-1.447c-0.218-0.218-0.218-0.573 0-0.791s0.573-0.218 0.791 0l2.403 2.401c0.218 0.219 0.218 0.573 0 0.793l-2.403 2.401c-0.218 0.218-0.573 0.218-0.791 0v-0.001zM29.334 22.061c0-4.017-3.256-7.273-7.273-7.273s-7.273 3.256-7.273 7.273c0 4.017 3.256 7.273 7.273 7.273s7.273-3.256 7.273-7.273zM26.511 15.005c2.020-6.339-3.923-12.339-11.723-12.339-6.684 0-12.121 4.428-12.121 9.87 0 2.579 1.231 4.922 3.227 6.684l-2.076 4.608c-0.208 0.463 0.272 0.933 0.728 0.724l6.114-2.746c0.968 0.288 1.99 0.483 3.053 0.563-0.414-6.809 7.155-11.090 12.798-7.362v-0.002z"></path>
</svg>
