<!-- Generated by IcoMoon.io -->
<svg version="1.1" xmlns="http://www.w3.org/2000/svg" width="32" height="32" viewBox="0 0 32 32">
<title>recommended</title>
<path d="M29.133 15.568c0.267 0.223 0.267 0.634 0 0.854l-2.117 1.765 1.28 2.442c0.161 0.306 0.006 0.684-0.326 0.788l-2.633 0.821 0.25 2.745c0.031 0.338-0.247 0.634-0.603 0.604l-2.746-0.25-0.82 2.634c-0.103 0.333-0.483 0.486-0.787 0.327l-2.441-1.281-1.764 2.118c-0.22 0.264-0.629 0.268-0.853 0l-1.764-2.118-2.44 1.281c-0.313 0.163-0.688-0.003-0.789-0.327l-0.82-2.634-2.744 0.25c-0.354 0.030-0.634-0.263-0.604-0.604l0.249-2.745-2.63-0.821c-0.331-0.101-0.488-0.48-0.328-0.788l1.283-2.442-2.118-1.765c-0.264-0.219-0.267-0.631 0-0.854l2.118-1.765-1.283-2.441c-0.159-0.307-0.004-0.686 0.328-0.79l2.63-0.82-0.249-2.745c-0.030-0.343 0.253-0.63 0.604-0.604l2.744 0.249 0.82-2.632c0.102-0.329 0.48-0.489 0.789-0.326l2.44 1.28 1.764-2.118c0.211-0.253 0.643-0.253 0.853 0l1.764 2.118 2.441-1.28c0.3-0.16 0.683-0.011 0.787 0.326l0.82 2.632 2.746-0.249c0.353-0.027 0.634 0.264 0.603 0.604l-0.25 2.745 2.633 0.82c0.33 0.103 0.488 0.483 0.326 0.79l-1.28 2.441 2.117 1.765zM21.911 14.767c0.179-0.15 0.247-0.394 0.166-0.616-0.079-0.22-0.287-0.364-0.521-0.364h-3.524l-1.521-3.557c-0.087-0.203-0.29-0.338-0.511-0.338-0.223 0-0.423 0.134-0.511 0.338l-1.521 3.558h-3.524c-0.234 0-0.443 0.144-0.523 0.364s-0.013 0.466 0.166 0.616l3.050 2.524-1.528 4.078c-0.087 0.23-0.012 0.488 0.181 0.637s0.461 0.151 0.66 0.011l3.55-2.544 3.548 2.544c0.2 0.14 0.467 0.139 0.661-0.011s0.267-0.407 0.181-0.637l-1.528-4.078 3.048-2.524z"></path>
</svg>
