<!-- Generated by IcoMoon.io -->
<svg version="1.1" xmlns="http://www.w3.org/2000/svg" width="32" height="32" viewBox="0 0 32 32">
<title>reconnect1</title>
<path d="M18.746 27.194c4.883-0.378 10.587-1.991 10.587-5.27 0-2.535-3.463-4.192-7.868-4.936-0.406 0.784-0.926 1.451-1.547 2.006l-0.007 0.006c4.683 0.567 7.203 2.068 7.203 2.924s-2.575 2.591-8.535 3.047c-0.58 0.040-1.036 0.521-1.036 1.109 0 0.032 0.002 0.064 0.004 0.096v-0.004c0.094 0.583 0.593 1.023 1.195 1.023 0.002 0 0.003 0 0.004 0h-0.001zM19.889 6.558c0 2.149-1.739 3.892-3.885 3.892s-3.885-1.742-3.885-3.892c0-2.149 1.739-3.892 3.885-3.892s3.885 1.742 3.885 3.892zM20.999 11.561h-9.988c-0.306 0-0.555 0.249-0.555 0.556 0 2.557 1.166 5.67 3.33 6.671v4.448c0 0.003 0 0.007 0 0.012 0 0.295 0.239 0.533 0.533 0.533 0.007 0 0.016 0 0.023-0.001h3.329c0.003 0 0.007 0 0.011 0 0.3 0 0.544-0.244 0.544-0.545v-4.448c2.22-1.034 3.33-4.147 3.33-6.671 0-0.307-0.249-0.556-0.555-0.556l-0.001 0.001zM13.852 25.381l-2.597-3.48c-0.206-0.274-0.529-0.449-0.894-0.449-0.616 0-1.114 0.5-1.114 1.116 0 0.252 0.083 0.483 0.223 0.67l-0.002-0.003 1.021 1.356c-3.885-0.712-5.549-2.024-5.549-2.668 0-0.856 2.519-2.357 7.213-2.924-0.634-0.559-1.158-1.226-1.547-1.975l-0.017-0.037c-4.461 0.745-7.924 2.357-7.924 4.936s3.241 4.025 7.025 4.781l-0.954 0.567c-0.329 0.197-0.547 0.552-0.547 0.959 0 0.204 0.055 0.395 0.151 0.559l-0.002-0.005c0.196 0.331 0.552 0.549 0.958 0.549 0.212 0 0.41-0.060 0.579-0.163l-0.005 0.002 3.662-2.224c0.328-0.198 0.543-0.552 0.543-0.956 0-0.252-0.083-0.483-0.224-0.67l0.002 0.003-0.003 0.056z"></path>
</svg>
