<!-- Generated by IcoMoon.io -->
<svg version="1.1" xmlns="http://www.w3.org/2000/svg" width="32" height="32" viewBox="0 0 32 32">
<title>refund</title>
<path d="M16.533 4.667c6.4 0 11.467 5.067 11.467 11.333 0 5.733-4.4 10.4-10 11.2 0 0-0.133 0-0.133 0-0.4 0-0.933 0.133-1.333 0.133-6.4 0-11.467-5.067-11.467-11.333 0-0.4 0-0.8 0.133-1.2 0-0.133 0-0.133 0-0.267 0.133-1.467 0.667-2.933 1.467-4.133l-3.867 1.067c-0.267 0-0.667-0.133-0.8-0.4-0.133-0.4 0.133-0.8 0.4-0.8l2.667-0.8 2.533-0.667c0 0 0 0 0 0s0 0 0-0.133v0c0.133 0 0.267 0 0.4 0 0.133 0.133 0.267 0.267 0.267 0.4l0.133 0.4c0 0 0 0 0 0l0.533 2 0.8 2.667c0.133 0.4-0.133 0.667-0.4 0.8-0.4 0.133-0.667-0.133-0.8-0.4l-0.933-3.6c-0.667 1.067-1.067 2.267-1.333 3.6 0 0.133 0 0.133 0 0.267 0 0.4-0.133 0.8-0.133 1.2 0 5.6 4.533 10.133 10.267 10.133 0.4 0 0.8 0 1.2-0.133 0.133 0 0.133 0 0.267 0 0.4 0 0.667-0.133 1.067-0.267 0 0 0.133 0 0.133 0 0.8-0.267 1.6-0.533 2.4-0.933l0.4-0.267c0 0 0 0 0 0 1.333-0.8 2.533-2 3.333-3.467v0c0.933-1.467 1.333-3.2 1.333-5.067 0-5.6-4.533-10.133-10.267-10.133-0.133 0-0.267 0-0.4 0-0.4 0-0.667 0-0.933 0.133-0.133 0-0.267 0-0.267 0-0.267 0-0.667 0.133-0.933 0.133 0 0 0 0 0 0-0.8 0.4-1.6 0.667-2.4 1.2l-0.4 0.133c-0.267 0.267-0.667 0.133-0.8-0.133-0.267-0.267-0.133-0.667 0.133-0.8l0.4-0.267c0.133-0.133 0.267-0.133 0.4-0.267v0 0c0.4-0.133 0.8-0.4 1.2-0.533 0 0 0.133 0 0.133 0 0.4-0.133 0.8-0.267 1.2-0.4 0.133 0 0.4-0.133 0.533-0.133 0.267 0 0.533-0.133 0.8-0.133 0.533-0.133 1.067-0.133 1.6-0.133v0z"></path>
<path d="M16.4 15.467c1.6 0.133 2.933 1.333 2.933 2.8 0 1.333-0.933 2.4-2.267 2.8v0 1.067c0 0.267-0.267 0.533-0.667 0.533-0.267 0-0.533-0.267-0.533-0.533v0-1.067c-1.333-0.267-2.4-1.333-2.4-2.8v0c0-0.267 0.267-0.533 0.533-0.533s0.533 0.267 0.533 0.533c0 0.933 0.8 1.733 1.867 1.733s1.867-0.8 1.867-1.733c0-0.933-0.8-1.733-1.867-1.733 0 0 0 0 0 0v0c-1.6-0.133-2.8-1.333-2.8-2.8 0-1.333 0.933-2.4 2.267-2.8v0-1.067c-0.133-0.267 0.133-0.533 0.533-0.533 0.267 0 0.533 0.267 0.533 0.533 0 0 0 0 0 0v1.067c1.467 0.267 2.4 1.467 2.4 2.8 0 0.267-0.267 0.533-0.533 0.533s-0.533-0.267-0.533-0.533c0 0 0 0 0 0-0.133-0.933-0.933-1.733-1.867-1.733-1.067 0-1.867 0.8-1.867 1.733s0.8 1.733 1.867 1.733c0 0 0 0 0 0v0z"></path>
</svg>
