<!-- Generated by IcoMoon.io -->
<svg version="1.1" xmlns="http://www.w3.org/2000/svg" width="32" height="32" viewBox="0 0 32 32">
<title>reschedule</title>
<path d="M25.445 4.889h-3.889v-1.667c0-0.307-0.248-0.556-0.556-0.556h-3.333c-0.307 0-0.556 0.248-0.556 0.556v1.667h-5.555v-1.667c0-0.307-0.248-0.556-0.556-0.556h-3.333c-0.307 0-0.556 0.248-0.556 0.556v1.667h-3.889c-0.307 0-0.556 0.248-0.556 0.556v5h23.331v-5c0-0.307-0.248-0.556-0.556-0.556h0.003zM10.446 7.11h-2.222v-3.333h2.222v3.333zM20.445 7.11h-2.222v-3.333h2.222v3.333zM22.111 14.888c-3.988 0-7.222 3.233-7.222 7.222s3.233 7.222 7.222 7.222c3.988 0 7.222-3.233 7.222-7.222-0.007-3.985-3.235-7.215-7.221-7.222h-0.001zM17.112 20.443c0.713-1.957 2.557-3.33 4.721-3.333 1.528 0.017 2.904 0.656 3.887 1.676l0.002 0.002v-0.567c0-0.307 0.248-0.556 0.556-0.556s0.556 0.248 0.556 0.556v2.466c0 0.307-0.248 0.556-0.556 0.556h-2.433c-0.307 0-0.556-0.248-0.556-0.556s0.248-0.556 0.556-0.556h1.522c-0.763-1.144-2.042-1.892-3.497-1.911h-0.003c-1.68 0.009-3.105 1.085-3.635 2.584l-0.008 0.027c-0.085 0.212-0.285 0.36-0.522 0.367h-0.001c-0.028 0.006-0.061 0.008-0.094 0.008s-0.066-0.003-0.097-0.009l0.003 0.001c-0.253-0.061-0.437-0.284-0.437-0.552 0-0.073 0.014-0.143 0.039-0.207l-0.002 0.004-0.001-0.001zM27.111 23.775c-0.713 1.957-2.557 3.33-4.721 3.333-1.528-0.017-2.904-0.656-3.887-1.676l-0.002-0.002v0.567c0 0.307-0.248 0.556-0.556 0.556s-0.556-0.248-0.556-0.556v-2.422c0-0.307 0.248-0.556 0.556-0.556h2.5c0.307 0 0.556 0.248 0.556 0.556-0.006 0.304-0.251 0.549-0.555 0.556h-1.589c0.772 1.127 2.050 1.859 3.499 1.867h0.001c1.68-0.009 3.105-1.085 3.635-2.584l0.008-0.027c0.075-0.217 0.277-0.37 0.516-0.37 0.070 0 0.137 0.013 0.199 0.037l-0.003-0.002c0.247 0.064 0.427 0.286 0.427 0.549 0 0.062-0.010 0.122-0.028 0.177l0.001-0.004v0.002zM13.779 22.109c0.002-4.6 3.732-8.329 8.333-8.329 1.422 0 2.761 0.357 3.933 0.985l-0.044-0.022v-3.189h-23.331v11.666c0 0.307 0.248 0.556 0.556 0.556h10.721c-0.106-0.496-0.167-1.065-0.167-1.648 0-0.007 0-0.013 0-0.019l-0.001 0.001z"></path>
</svg>
