<!-- Generated by IcoMoon.io -->
<svg version="1.1" xmlns="http://www.w3.org/2000/svg" width="31" height="32" viewBox="0 0 31 32">
<title>reschedule-outline</title>
<path d="M29.913 18.783c-0.384 0-0.696 0.311-0.696 0.696v0 2.783h-2.783c-0.384 0-0.696 0.311-0.696 0.696v0c0 0.384 0.311 0.696 0.696 0.696v0h3.478c0.384-0 0.696-0.311 0.696-0.696v0-3.478c0-0.384-0.311-0.696-0.696-0.696v0z"></path>
<path d="M23.652 18.087c-3.084 0-5.965 1.944-6.916 4.639-0.025 0.069-0.039 0.148-0.039 0.23 0 0.301 0.191 0.557 0.458 0.654l0.005 0.002c0.069 0.025 0.148 0.039 0.23 0.039 0.301 0 0.557-0.191 0.654-0.458l0.002-0.005c0.718-2.036 3.125-3.709 5.606-3.709s4.888 1.674 5.606 3.709c0.099 0.272 0.355 0.463 0.656 0.463 0.082 0 0.162-0.014 0.235-0.041l-0.005 0.002c0.272-0.099 0.463-0.355 0.463-0.656 0-0.082-0.014-0.162-0.041-0.235l0.002 0.005c-0.951-2.695-3.832-4.639-6.916-4.639z"></path>
<path d="M17.391 26.435c-0.384 0-0.696 0.311-0.696 0.696v0 3.478c0 0.384 0.311 0.696 0.696 0.696v0c0.384 0 0.696-0.311 0.696-0.696v0-2.783h2.783c0.384 0 0.696-0.311 0.696-0.696v0c0-0.384-0.311-0.696-0.696-0.696v0z"></path>
<path d="M17.16 26.476c-0.272 0.099-0.463 0.355-0.463 0.656 0 0.082 0.014 0.162 0.041 0.235l-0.002-0.005c0.951 2.695 3.832 4.639 6.916 4.639s5.965-1.944 6.916-4.639c0.025-0.069 0.039-0.148 0.039-0.23 0-0.301-0.191-0.557-0.458-0.654l-0.005-0.002c-0.069-0.025-0.148-0.039-0.23-0.039-0.301 0-0.557 0.191-0.654 0.458l-0.002 0.005c-0.718 2.036-3.125 3.709-5.606 3.709s-4.888-1.674-5.606-3.709c-0.099-0.272-0.355-0.463-0.656-0.463-0.082 0-0.162 0.014-0.235 0.041l0.005-0.002z"></path>
<path d="M22.957 2.783c-0.384 0-0.696 0.311-0.696 0.696v0c0 0.384 0.311 0.696 0.696 0.696v0h4.87v11.826c0 0.384 0.311 0.696 0.696 0.696v0c0.384 0 0.696-0.311 0.696-0.696v0-12.522c-0-0.384-0.311-0.696-0.696-0.696v0z"></path>
<path d="M0.696 2.783c-0.384 0-0.696 0.311-0.696 0.696v0 22.261c0 0.384 0.311 0.696 0.696 0.696h13.913c0.384 0 0.696-0.311 0.696-0.696v0c0-0.384-0.311-0.696-0.696-0.696v0h-13.217v-20.87h4.87c0.384 0 0.696-0.311 0.696-0.696v0c0-0.384-0.311-0.696-0.696-0.696v0z"></path>
<path d="M6.261 0c-0.384 0-0.696 0.311-0.696 0.696v0 5.565c0 0.384 0.311 0.696 0.696 0.696h4.174c0.384-0 0.696-0.311 0.696-0.696v0-5.565c-0-0.384-0.311-0.696-0.696-0.696v0zM6.957 1.391h2.783v4.174h-2.783z"></path>
<path d="M18.783 0c-0.384 0-0.696 0.311-0.696 0.696v0 5.565c0 0.384 0.311 0.696 0.696 0.696h4.174c0.384-0 0.696-0.311 0.696-0.696v0-5.565c-0-0.384-0.311-0.696-0.696-0.696v0zM19.478 1.391h2.783v4.174h-2.783z"></path>
<path d="M10.435 2.783c-0.384 0-0.696 0.311-0.696 0.696v0c0 0.384 0.311 0.696 0.696 0.696v0h8.348c0.384 0 0.696-0.311 0.696-0.696v0c0-0.384-0.311-0.696-0.696-0.696v0z"></path>
<path d="M0.696 9.739c-0.384 0-0.696 0.311-0.696 0.696v0c0 0.384 0.311 0.696 0.696 0.696v0h27.826c0.384 0 0.696-0.311 0.696-0.696v0c0-0.384-0.311-0.696-0.696-0.696v0z"></path>
</svg>
