<!-- Generated by IcoMoon.io -->
<svg version="1.1" xmlns="http://www.w3.org/2000/svg" width="32" height="32" viewBox="0 0 32 32">
<title>rf-articles-videos</title>
<path d="M29.333 8.8c0-0.133-0.133-0.133 0 0l-4.4-4.4c0 0-0.133-0.133-0.133-0.133h-7.2c-0.267 0-0.4 0.133-0.4 0.4v1.333h-1.333c-0.267 0-0.4 0.133-0.4 0.4v4.133h0.933v-3.733h0.933v3.733h0.933v-5.333h5.733v3.867c0 0.267 0.133 0.4 0.4 0.4h4v9.467h-3.733v0.8h2v0.8h-2v0.8h2.4c0.267 0 0.4-0.133 0.4-0.4v-1.333h1.333c0.267 0 0.4-0.133 0.4-0.4v-10.133l0.133-0.267c0 0 0 0 0 0zM24.933 8.533v-2.8l2.933 2.8h-2.933z"></path>
<path d="M22.533 11.733h-17.067c-0.533 0-0.933 0.4-0.933 0.933v11.333c0 0.533 0.4 0.933 0.933 0.933h6.133l-0.533 1.867h-1.733c-0.267 0-0.4 0.267-0.4 0.533s0.267 0.533 0.533 0.533h9.867c0.267 0 0.4-0.267 0.4-0.533s-0.267-0.533-0.533-0.533h-1.867l-0.533-1.867h5.6c0.533 0 0.933-0.4 0.933-0.933v-11.333c0.133-0.4-0.267-0.933-0.8-0.933zM12.133 26.933l0.533-1.867h3.333l0.533 1.867h-4.4zM22.533 24h-17.067v-9.6h17.067v9.6zM22.533 13.467h-17.067v-0.8h17.067v0.8z"></path>
<path d="M13.333 20.667v-3.333l2.533 1.733-2.533 1.6z"></path>
</svg>
