<!-- Generated by IcoMoon.io -->
<svg version="1.1" xmlns="http://www.w3.org/2000/svg" width="32" height="32" viewBox="0 0 32 32">
<title>rf-calendar-outline</title>
<path d="M27.47 6.303v15.765c0 0.147-0.061 0.279-0.158 0.374l-6.345 6.302c-0.095 0.097-0.227 0.156-0.373 0.157h-15.871c-0.292 0-0.529-0.234-0.531-0.524v-22.074c0.002-0.29 0.239-0.524 0.531-0.524h1.586v3.151c0 0.87 0.71 1.576 1.586 1.576s1.586-0.705 1.586-1.576v-3.151h2.118v3.151c0 0.87 0.71 1.576 1.586 1.576s1.586-0.705 1.586-1.576v-3.151h2.118v3.151c0 0.87 0.71 1.576 1.586 1.576s1.586-0.705 1.586-1.576v-3.151h2.118v3.151c0 0.87 0.71 1.576 1.586 1.576s1.586-0.705 1.586-1.576v-3.151h1.586c0.292 0 0.529 0.234 0.532 0.524zM26.708 21.838v-15.302h-0.594v2.394c0 1.288-1.051 2.332-2.348 2.332s-2.348-1.044-2.348-2.332v-2.394h-0.594v2.394c0 1.288-1.051 2.332-2.348 2.332s-2.348-1.044-2.348-2.332v-2.394h-0.594v2.394c0 1.288-1.051 2.332-2.348 2.332s-2.348-1.044-2.348-2.332v-2.394h-0.594v2.394c0 1.288-1.051 2.332-2.348 2.332s-2.348-1.044-2.348-2.332v-2.394h-0.594v21.608h15.39v-6.306h6.365zM26.286 22.595h-5.182v5.045l5.182-5.045z"></path>
<path d="M7.394 4.455c0-0.256 0.209-0.464 0.468-0.464s0.468 0.208 0.468 0.464v4.403c0 0.256-0.209 0.464-0.468 0.464s-0.468-0.208-0.468-0.464v-4.403z"></path>
<path d="M17.905 4.455c0-0.256 0.209-0.464 0.467-0.464s0.468 0.208 0.468 0.464v4.403c0 0.256-0.209 0.464-0.468 0.464s-0.467-0.208-0.467-0.464v-4.403z"></path>
<path d="M12.571 4.455c0-0.256 0.209-0.464 0.467-0.464s0.468 0.208 0.468 0.464v4.403c0 0.256-0.209 0.464-0.468 0.464s-0.467-0.208-0.467-0.464v-4.403z"></path>
<path d="M23.238 4.455c0-0.256 0.209-0.464 0.467-0.464s0.468 0.208 0.468 0.464v4.403c0 0.256-0.209 0.464-0.468 0.464s-0.467-0.208-0.467-0.464v-4.403z"></path>
</svg>
