<!-- Generated by IcoMoon.io -->
<svg version="1.1" xmlns="http://www.w3.org/2000/svg" width="32" height="32" viewBox="0 0 32 32">
<title>rf-content</title>
<path d="M0.8 14.267h2.533l2.533 2.667v-2.533h8.4v-8.667h-13.467v8.533zM0.4 4.933h14.267c0.267 0 0.4 0.133 0.4 0.4v9.333c0 0.267-0.133 0.533-0.4 0.533h-8v3.067c0 0.267 0 0.267-0.133 0.4-0.133 0-0.133 0-0.267 0l-3.467-3.333h-2.4c-0.267-0.133-0.4-0.4-0.4-0.667v-9.333c0-0.267 0.133-0.4 0.4-0.4zM10.533 11.733h-6c-0.267 0-0.4-0.133-0.4-0.4v0c0-0.267 0.133-0.4 0.4-0.4h6c0.267 0 0.4 0.133 0.4 0.4v0.133c0 0.133-0.133 0.267-0.4 0.267zM8 9.2h2.667c0.267 0 0.4-0.133 0.4-0.4v0c0-0.267-0.133-0.4-0.4-0.4h-2.667c-0.267 0-0.4 0.133-0.4 0.4v0.133c0 0.133 0.133 0.267 0.4 0.267z"></path>
<path d="M9.2 25.867h2.533l2.533 2.667v-2.533h8.4v-8.667h-13.467v8.533zM8.8 16.4h14.267c0.267 0 0.4 0.133 0.4 0.4v9.333c0 0.267-0.133 0.533-0.4 0.533h-8v3.067c0 0.267 0 0.267-0.133 0.4-0.133 0-0.133 0-0.267 0l-3.333-3.467h-2.533c-0.267 0-0.4-0.267-0.4-0.533v-9.333c0-0.267 0.267-0.4 0.4-0.4z"></path>
<path d="M12.4 18.667c0.133-0.133 0.4-0.133 0.533 0v0l5.333 5.333 1.467-1.467c0.133-0.133 0.4-0.133 0.533 0v0l3.067 3.067-0.533 0.667-2.8-2.8-1.333 1.467c-0.133 0.133-0.4 0.133-0.533 0v0l-5.333-5.333-3.467 3.6-0.533-0.667 3.6-3.867z"></path>
<path d="M18.933 21.6c0.933 0 1.733-0.8 1.733-1.733s-0.8-1.733-1.733-1.733c-0.933 0-1.733 0.8-1.733 1.733s0.8 1.733 1.733 1.733z"></path>
<path d="M31.2 14.267h-2.533l-2.533 2.667v-2.533h-8.4v-10.267h13.467v10.133zM31.6 3.2h-14.267c-0.267 0-0.4 0.133-0.4 0.4v11.067c0 0.267 0.133 0.533 0.4 0.533h8v3.067c0 0.267 0 0.267 0.133 0.4 0.133 0 0.133 0 0.267 0l3.467-3.333h2.533c0.267 0 0.4-0.267 0.4-0.533v-11.2c-0.133-0.267-0.267-0.4-0.533-0.4z"></path>
<path d="M23.6 10.933v-3.867l2.4 2-2.4 1.867z"></path>
<path d="M28.133 8.933c0-2.133-1.733-3.867-3.867-3.867s-3.867 1.733-3.867 3.867 1.733 3.867 3.867 3.867c2.133 0 3.867-1.733 3.867-3.867zM21.333 8.933c0-1.6 1.333-2.933 2.933-2.933s2.933 1.333 2.933 2.933-1.333 2.933-2.933 2.933c-1.6 0-2.933-1.2-2.933-2.933z"></path>
</svg>
