<!-- Generated by IcoMoon.io -->
<svg version="1.1" xmlns="http://www.w3.org/2000/svg" width="32" height="32" viewBox="0 0 32 32">
<title>rf-download-outline</title>
<path d="M9.705 10.666c0.368 0 0.667 0.298 0.667 0.667 0 0.342-0.257 0.624-0.589 0.662l-0.078 0.004h-4.372v14.667h21.333v-14.667h-4.361c-0.342 0-0.624-0.257-0.662-0.589l-0.004-0.078c0-0.342 0.257-0.624 0.589-0.662l0.078-0.004h5.028c0.342 0 0.624 0.257 0.662 0.589l0.004 0.078v16c0 0.342-0.257 0.624-0.589 0.662l-0.078 0.004h-22.667c-0.342 0-0.624-0.257-0.662-0.589l-0.004-0.078v-16c0-0.342 0.257-0.624 0.589-0.662l0.078-0.004h5.038zM15.794 4.398c0.34-0.002 0.622 0.25 0.665 0.578l0.006 0.084 0.079 11.517 2.554-2.555c0.26-0.26 0.682-0.261 0.943-0 0.242 0.242 0.259 0.623 0.052 0.885l-0.052 0.058-3.748 3.75c-0.002 0.002-0.003 0.003-0.005 0.005-0.080 0.081-0.176 0.137-0.278 0.168l-0.078 0.019-0.078 0.009c-0.093 0.006-0.188-0.008-0.276-0.042-0.036-0.014-0.071-0.030-0.104-0.050-0.012-0.007-0.022-0.014-0.032-0.020-0.035-0.023-0.068-0.051-0.099-0.081l-0.002-0.002-3.784-3.752c-0.261-0.259-0.263-0.681-0.004-0.943 0.241-0.243 0.622-0.262 0.884-0.056l0.058 0.052 2.715 2.693-0.080-11.643c-0.003-0.368 0.294-0.669 0.662-0.671z"></path>
</svg>
