<!-- Generated by IcoMoon.io -->
<svg version="1.1" xmlns="http://www.w3.org/2000/svg" width="32" height="32" viewBox="0 0 32 32">
<title>rf-export-outline</title>
<path d="M21.333 9.705c0 0.368-0.298 0.667-0.667 0.667-0.342 0-0.624-0.257-0.662-0.589l-0.004-0.078v-4.372h-14.667v21.333h14.667v-4.361c0-0.342 0.257-0.624 0.589-0.662l0.078-0.004c0.342 0 0.624 0.257 0.662 0.589l0.004 0.078v5.028c0 0.342-0.257 0.624-0.589 0.662l-0.078 0.004h-16c-0.342 0-0.624-0.257-0.662-0.589l-0.004-0.078v-22.667c0-0.342 0.257-0.624 0.589-0.662l0.078-0.004h16c0.342 0 0.624 0.257 0.662 0.589l0.004 0.078v5.038zM13.083 15.794c-0.002 0.34 0.25 0.622 0.578 0.665l0.084 0.006 11.517 0.079-2.555 2.554c-0.26 0.26-0.261 0.682-0 0.943 0.242 0.242 0.623 0.259 0.885 0.052l0.058-0.052 3.755-3.753c0.081-0.080 0.137-0.176 0.168-0.278l0.019-0.078 0.009-0.078c0.006-0.093-0.008-0.188-0.042-0.276-0.014-0.036-0.030-0.071-0.050-0.104-0.007-0.012-0.014-0.022-0.020-0.032-0.024-0.035-0.051-0.068-0.081-0.099l-0.002-0.002-3.752-3.784c-0.259-0.261-0.681-0.263-0.943-0.004-0.243 0.241-0.262 0.622-0.055 0.884l0.052 0.058 2.693 2.715-11.643-0.080c-0.368-0.003-0.669 0.294-0.671 0.662z"></path>
</svg>
