<!-- Generated by IcoMoon.io -->
<svg version="1.1" xmlns="http://www.w3.org/2000/svg" width="32" height="32" viewBox="0 0 32 32">
<title>rf-grid-outline</title>
<path d="M19.52 10.24v11.52h4.96v-11.52h-4.96zM22.88 20.16h-1.76v-8.32h1.76v8.32z"></path>
<path d="M10.24 16.8v4.96h8.96v-4.96h-8.96zM17.6 20.16h-5.76v-1.76h5.76v1.76z"></path>
<path d="M7.52 16.8h2.24v4.96h-2.24v-4.96z"></path>
<path d="M7.52 10.24v6.24h11.68v-6.24h-11.68zM17.6 14.88h-8.48v-3.040h8.48v3.040z"></path>
<path d="M16 2.72c7.36 0 13.28 5.92 13.28 13.28s-5.92 13.28-13.28 13.28c-7.36 0-13.28-5.92-13.28-13.28s5.92-13.28 13.28-13.28zM16 3.36c-7.040 0-12.64 5.6-12.64 12.64s5.6 12.64 12.64 12.64c7.040 0 12.64-5.6 12.64-12.64s-5.6-12.64-12.64-12.64z"></path>
</svg>
