<!-- Generated by IcoMoon.io -->
<svg version="1.1" xmlns="http://www.w3.org/2000/svg" width="32" height="32" viewBox="0 0 32 32">
<title>rf-graph-outline</title>
<path d="M16 2.667c7.364 0 13.333 5.97 13.333 13.333s-5.969 13.333-13.333 13.333c-7.364 0-13.333-5.969-13.333-13.333s5.97-13.333 13.333-13.333zM16 3.333c-6.996 0-12.667 5.671-12.667 12.667s5.671 12.667 12.667 12.667c6.996 0 12.667-5.671 12.667-12.667s-5.671-12.667-12.667-12.667zM24 18.667v5.333h-16v-5.333h16zM23.333 19.333h-14.667v4h14.667v-4zM21.62 19.83c0.084 0.141 0.052 0.318-0.068 0.422l-0.049 0.035-3.313 1.967c-0.136 0.081-0.308 0.054-0.413-0.058l-0.036-0.046-0.751-1.142-3.715 1.953c-0.132 0.070-0.292 0.042-0.393-0.062l-0.040-0.049-0.457-0.69-1.567 0.803c-0.146 0.075-0.321 0.032-0.417-0.094l-0.032-0.051c-0.075-0.146-0.032-0.32 0.094-0.416l0.051-0.032 1.832-0.938c0.132-0.068 0.29-0.039 0.391 0.064l0.039 0.049 0.455 0.687 3.717-1.953c0.133-0.070 0.293-0.041 0.394 0.063l0.039 0.049 0.741 1.127 3.040-1.804c0.158-0.094 0.363-0.042 0.457 0.116zM17.333 8v9.333h-9.333v-9.333h9.333zM16.667 8.667h-8v8h8v-8zM12.064 9.333c0.14 0 0.254 0.107 0.254 0.238v6.005h0.709v-3.477c0-0.132 0.114-0.238 0.254-0.238h1.373c0.14 0 0.254 0.107 0.254 0.238v3.477h0.89c0.14 0 0.254 0.107 0.254 0.238s-0.114 0.238-0.254 0.238h-6.212c-0.14 0-0.254-0.107-0.254-0.238s0.114-0.238 0.254-0.238h0.849v-6.005c0-0.132 0.114-0.238 0.254-0.238h1.373zM22 9.333c1.841 0 3.333 1.492 3.333 3.333s-1.492 3.333-3.333 3.333c-1.841 0-3.333-1.492-3.333-3.333s1.492-3.333 3.333-3.333zM11.812 9.81h-0.864v5.626h0.864v-5.626zM14.401 12.336h-0.872l0.008 3.098h0.864v-3.098zM19.333 12.667c0 1.473 1.194 2.667 2.667 2.667 0.848 0 1.604-0.396 2.092-1.013-0.072 0.021-0.15 0.018-0.221-0.012l-0.053-0.028-2-1.301c-0.079-0.051-0.132-0.133-0.147-0.224l-0.005-0.056 0-2.678c-1.315 0.164-2.333 1.286-2.333 2.646zM22.334 10.021l-0 2.497 1.848 1.203c0.086 0.056 0.138 0.145 0.149 0.24 0.214-0.383 0.336-0.824 0.336-1.294 0-1.36-1.018-2.482-2.333-2.646z"></path>
</svg>
