<!-- Generated by IcoMoon.io -->
<svg version="1.1" xmlns="http://www.w3.org/2000/svg" width="32" height="32" viewBox="0 0 32 32">
<title>rf-info-outline</title>
<path d="M16 0.762c8.416 0 15.238 6.822 15.238 15.238s-6.822 15.238-15.238 15.238c-8.416 0-15.238-6.822-15.238-15.238s6.822-15.238 15.238-15.238zM16 2.286c-7.574 0-13.714 6.14-13.714 13.714s6.14 13.714 13.714 13.714c7.574 0 13.714-6.14 13.714-13.714s-6.14-13.714-13.714-13.714zM16 12.952c0.391 0 0.713 0.294 0.757 0.673l0.005 0.089v8.381c0 0.421-0.341 0.762-0.762 0.762-0.391 0-0.713-0.294-0.757-0.673l-0.005-0.089v-8.381c0-0.421 0.341-0.762 0.762-0.762zM16 9.905c0.421 0 0.762 0.341 0.762 0.762s-0.341 0.762-0.762 0.762c-0.421 0-0.762-0.341-0.762-0.762s0.341-0.762 0.762-0.762z"></path>
</svg>
