<!-- Generated by IcoMoon.io -->
<svg version="1.1" xmlns="http://www.w3.org/2000/svg" width="32" height="32" viewBox="0 0 32 32">
<title>rf-logo</title>
<path fill="#1470cc" d="M4.461 13.364h4.128c0.359 0 0.538 0 0.627 0.090 0.18 0.092 0.269 0.273 0.269 0.545v1.001c0 0.272-0.089 0.455-0.269 0.545-0.179 0.092-0.358 0.092-0.627 0.092h-4.128v-2.273zM4.461 17h1.796l3.14 3h2.603l-3.59-3h0.987c1.166 0 1.794-0.545 1.794-1.544v-1.909c0-1.001-0.629-1.546-1.794-1.546h-6.73v8h1.794v-3zM22 20h1.705v-2.999h3.156v-1.454h-3.156v-2.091h5.628v-1.456h-7.333v8zM29.333 6.667v1.333h-26.667v-1.333h26.667zM29.333 25.333v-1.333h-26.667v1.333h26.667zM20.333 15v1.333h-3v3h-1.333v-3h-3v-1.333h3v-3h1.333v3h3z"></path>
</svg>
