<!-- Generated by IcoMoon.io -->
<svg version="1.1" xmlns="http://www.w3.org/2000/svg" width="32" height="32" viewBox="0 0 32 32">
<title>rf-pulse</title>
<path d="M14.533 27.267c-0.333 0-0.667-0.267-0.8-0.6l-3.533-11.2-1.8 3.867c-0.133 0.267-0.4 0.467-0.733 0.467h-4.333c-0.467 0-0.8-0.4-0.8-0.8s0.4-0.8 0.8-0.8h3.8l2.467-5.333c0.133-0.333 0.467-0.533 0.8-0.467 0.333 0 0.667 0.267 0.733 0.6l3.067 9.667 2.267-16.733c0.067-0.4 0.4-0.733 0.8-0.733s0.8 0.267 0.8 0.733l2.667 16.733 1.067-3.8c0.133-0.333 0.4-0.6 0.8-0.6h6c0.467 0 0.8 0.4 0.8 0.8s-0.4 0.8-0.8 0.8h-5.4l-1.867 6.8c-0.133 0.4-0.467 0.6-0.867 0.6s-0.733-0.333-0.8-0.733l-2.333-14.867-2 14.867c-0.067 0.4-0.333 0.667-0.733 0.733-0.067 0-0.067 0-0.067 0z"></path>
</svg>
