<!-- Generated by IcoMoon.io -->
<svg version="1.1" xmlns="http://www.w3.org/2000/svg" width="32" height="32" viewBox="0 0 32 32">
<title>rf-reporting</title>
<path d="M28 6c0.736 0 1.333 0.597 1.333 1.333v17.333c0 0.736-0.597 1.333-1.333 1.333h-24c-0.736 0-1.333-0.597-1.333-1.333v-17.333c0-0.736 0.597-1.333 1.333-1.333h24zM28 10.667h-24v14h24v-14zM26 22c0.368 0 0.667 0.299 0.667 0.667 0 0.342-0.257 0.624-0.589 0.662l-0.078 0.005h-20c-0.368 0-0.667-0.299-0.667-0.667 0-0.342 0.257-0.624 0.589-0.662l0.078-0.005h20zM21.333 19.333c0.368 0 0.667 0.299 0.667 0.667 0 0.342-0.257 0.624-0.589 0.662l-0.078 0.005h-10.667c-0.368 0-0.667-0.299-0.667-0.667 0-0.342 0.257-0.624 0.589-0.662l0.078-0.005h10.667zM9.818 12c0.736 0 1.333 0.597 1.333 1.333v3.333c0 0.736-0.597 1.333-1.333 1.333h-3.152c-0.736 0-1.333-0.597-1.333-1.333v-3.333c0-0.736 0.597-1.333 1.333-1.333h3.152zM17.576 12c0.736 0 1.333 0.597 1.333 1.333v3.333c0 0.736-0.597 1.333-1.333 1.333h-3.151c-0.736 0-1.333-0.597-1.333-1.333v-3.333c0-0.736 0.597-1.333 1.333-1.333h3.151zM25.333 12c0.736 0 1.333 0.597 1.333 1.333v3.333c0 0.736-0.597 1.333-1.333 1.333h-3.151c-0.736 0-1.333-0.597-1.333-1.333v-3.333c0-0.736 0.597-1.333 1.333-1.333h3.151zM9.818 13.333h-3.152v3.333h3.152v-3.333zM17.576 13.333h-3.151v3.333h3.151v-3.333zM25.333 13.333h-3.151v3.333h3.151v-3.333zM28 7.333h-24v2h24v-2z"></path>
</svg>
