<!-- Generated by IcoMoon.io -->
<svg version="1.1" xmlns="http://www.w3.org/2000/svg" width="32" height="32" viewBox="0 0 32 32">
<title>rf-reporting-details</title>
<path d="M6 20.667c0.342 0 0.624 0.257 0.662 0.589l0.005 0.078v6c0 0.368-0.298 0.667-0.667 0.667-0.342 0-0.624-0.257-0.662-0.589l-0.004-0.078v-6c0-0.368 0.298-0.667 0.667-0.667zM10 18c0.342 0 0.624 0.257 0.662 0.589l0.005 0.078v8.667c0 0.368-0.298 0.667-0.667 0.667-0.342 0-0.624-0.257-0.662-0.589l-0.004-0.078v-8.667c0-0.368 0.298-0.667 0.667-0.667zM14 16c0.342 0 0.624 0.257 0.662 0.589l0.005 0.078v10.667c0 0.368-0.298 0.667-0.667 0.667-0.342 0-0.624-0.257-0.662-0.589l-0.005-0.078v-10.667c0-0.368 0.299-0.667 0.667-0.667zM18 20.667c0.342 0 0.624 0.257 0.662 0.589l0.005 0.078v6c0 0.368-0.298 0.667-0.667 0.667-0.342 0-0.624-0.257-0.662-0.589l-0.005-0.078v-6c0-0.368 0.299-0.667 0.667-0.667zM22 18c0.342 0 0.624 0.257 0.662 0.589l0.005 0.078v8.667c0 0.368-0.298 0.667-0.667 0.667-0.342 0-0.624-0.257-0.662-0.589l-0.005-0.078v-8.667c0-0.368 0.299-0.667 0.667-0.667zM26 13.979c0.342 0 0.624 0.257 0.662 0.589l0.005 0.078v12.688c0 0.368-0.298 0.667-0.667 0.667-0.342 0-0.624-0.257-0.662-0.589l-0.005-0.078v-12.688c0-0.368 0.299-0.667 0.667-0.667zM26.528 7.643c0.208 0.269 0.178 0.646-0.057 0.88l-0.063 0.055-8.666 6.695c-0.25 0.193-0.598 0.182-0.835-0.015l-0.062-0.059-3.351-3.608-7.082 5.599c-0.267 0.211-0.644 0.185-0.88-0.047l-0.056-0.062c-0.211-0.267-0.185-0.644 0.047-0.881l0.062-0.056 7.565-5.981c0.25-0.198 0.601-0.189 0.84 0.010l0.062 0.059 3.355 3.613 8.184-6.322c0.291-0.225 0.71-0.171 0.935 0.12z"></path>
</svg>
