<!-- Generated by IcoMoon.io -->
<svg version="1.1" xmlns="http://www.w3.org/2000/svg" width="32" height="32" viewBox="0 0 32 32">
<title>rf-teamcare</title>
<path d="M9.333 5.067c-2.267 0-4 1.733-4 3.867 0 1.2 0.533 2.267 1.467 3.067-2.4 0.933-4.133 3.2-4.133 5.867v2.533h5.467c0.267-0.4 0.4-0.933 0.667-1.333h-4.8v-1.467c0.133-2.8 2.4-4.933 5.333-4.933h0.133c0.4 0 0.933 0.133 1.333 0.133 0.267-1.2 1.2-2.4 2.4-3.067 0.133-0.267 0.133-0.533 0.133-0.8 0-2.133-1.733-3.867-4-3.867zM9.333 11.467c-1.467 0-2.667-1.2-2.667-2.533 0-1.467 1.2-2.533 2.667-2.533s2.667 1.2 2.667 2.533c0 1.467-1.2 2.533-2.667 2.533z"></path>
<path d="M25.2 12c0.933-0.8 1.467-1.867 1.467-3.067 0-2.133-1.733-3.867-4-3.867s-4 1.733-4 3.867c0 0.267 0 0.533 0.133 0.667 1.2 0.667 2.133 1.867 2.533 3.333 0.4-0.133 0.933-0.133 1.467-0.133h0.133c2.933 0.133 5.2 2.4 5.2 5.067v1.333h-4.8c0.267 0.4 0.533 0.8 0.667 1.333h5.333v-2.533c0-2.8-1.733-5.067-4.133-6zM22.667 11.467c-1.467 0-2.667-1.2-2.667-2.533 0-1.467 1.2-2.533 2.667-2.533s2.667 1.2 2.667 2.533c0 1.467-1.2 2.533-2.667 2.533z"></path>
<path d="M18.533 17.067c0.933-0.667 1.467-1.733 1.467-3.067 0-2.133-1.733-3.867-4-3.867s-4 1.867-4 3.867c0 1.2 0.533 2.267 1.467 3.067-2.4 0.933-4.133 3.2-4.133 5.867v2.533h13.333v-2.533c0-2.667-1.733-4.933-4.133-5.867zM13.333 14c0-1.467 1.2-2.533 2.667-2.533s2.667 1.2 2.667 2.533c0 1.467-1.2 2.533-2.667 2.533s-2.667-1.067-2.667-2.533zM21.333 24.267h-10.667v-1.467c0.133-2.8 2.4-4.933 5.333-4.933h0.133c2.933 0.133 5.2 2.4 5.2 5.067v1.333z"></path>
</svg>
