<!-- Generated by IcoMoon.io -->
<svg version="1.1" xmlns="http://www.w3.org/2000/svg" width="32" height="32" viewBox="0 0 32 32">
<title>rf-view-outline</title>
<path d="M16 10.667c-2.945 0-5.333 2.388-5.333 5.333s2.388 5.333 5.333 5.333c2.945 0 5.333-2.388 5.333-5.333s-2.388-5.333-5.333-5.333zM16 12c2.205 0 4 1.795 4 4s-1.795 4-4 4c-2.205 0-4-1.795-4-4s1.795-4 4-4z"></path>
<path d="M16 8c-7.363 0-13.333 6.281-13.333 8s5.971 8 13.333 8c7.363 0 13.333-6.385 13.333-8s-5.971-8-13.333-8zM16 9.333c6.243 0 11.46 5.177 11.98 6.667-0.52 1.489-5.737 6.667-11.98 6.667-6.395 0-11.555-5.213-11.987-6.667 0.432-1.453 5.592-6.667 11.987-6.667z"></path>
</svg>
