<!-- Generated by IcoMoon.io -->
<svg version="1.1" xmlns="http://www.w3.org/2000/svg" width="32" height="32" viewBox="0 0 32 32">
<title>rocket-outline</title>
<path d="M2.167 25.033c-0.147 0.001-0.291-0.042-0.413-0.125s-0.216-0.2-0.269-0.337c-0.054-0.137-0.064-0.287-0.031-0.431s0.11-0.273 0.219-0.372l3.462-3.127c0.145-0.116 0.328-0.173 0.513-0.158s0.357 0.099 0.482 0.237c0.124 0.137 0.192 0.317 0.188 0.503s-0.078 0.362-0.208 0.495l-3.462 3.127c-0.064 0.062-0.139 0.11-0.221 0.143s-0.17 0.048-0.259 0.046z"></path>
<path d="M3.796 27.84c-0.099 0.005-0.198-0.010-0.291-0.045s-0.177-0.089-0.248-0.159c-0.068-0.068-0.122-0.148-0.159-0.237s-0.056-0.184-0.056-0.28c0-0.096 0.019-0.191 0.056-0.28s0.091-0.169 0.159-0.237l3.462-3.113c0.066-0.068 0.146-0.121 0.233-0.158s0.181-0.056 0.276-0.056 0.189 0.019 0.276 0.056c0.087 0.037 0.167 0.091 0.233 0.158 0.068 0.068 0.122 0.148 0.159 0.237s0.056 0.184 0.056 0.28-0.019 0.191-0.056 0.28c-0.037 0.089-0.091 0.169-0.159 0.237l-3.462 3.113c-0.129 0.125-0.3 0.197-0.48 0.204z"></path>
<path d="M6.778 29.091c-0.146-0.002-0.288-0.048-0.408-0.131s-0.211-0.201-0.263-0.338c-0.052-0.136-0.061-0.285-0.027-0.427s0.11-0.27 0.218-0.369l3.447-3.098c0.068-0.068 0.148-0.122 0.237-0.159s0.184-0.056 0.28-0.056c0.096 0 0.191 0.019 0.28 0.056s0.169 0.091 0.237 0.159c0.068 0.068 0.122 0.148 0.159 0.237s0.056 0.184 0.056 0.28c0 0.096-0.019 0.191-0.056 0.28s-0.091 0.169-0.159 0.237l-3.505 3.171c-0.139 0.112-0.316 0.169-0.495 0.16z"></path>
<path d="M12.131 23.404c-0.093-0.001-0.185-0.021-0.27-0.058s-0.162-0.092-0.225-0.16l-3.767-3.753c-0.096-0.098-0.163-0.22-0.194-0.354s-0.024-0.273 0.020-0.403c1.243-3.723 3.177-7.177 5.702-10.182 2.794-3.303 6.419-5.799 10.502-7.229 0.091-0.034 0.187-0.050 0.284-0.045s0.192 0.028 0.279 0.071c0.087 0.042 0.165 0.102 0.228 0.175s0.111 0.158 0.14 0.251c0.332 1.043 0.907 1.992 1.679 2.769s1.717 1.358 2.758 1.697c0.504 0.164 0.553 0.364 0.451 0.975l-0.16 0.436c-1.127 3.133-2.896 5.996-5.193 8.407-2.107 2.186-4.566 4.006-7.273 5.382-1.51 0.787-3.075 1.463-4.684 2.022-0.091 0.017-0.185 0.017-0.276 0zM9.222 18.735l3.098 3.084c1.393-0.508 2.753-1.1 4.073-1.775 2.555-1.312 4.879-3.031 6.88-5.091 2.132-2.203 3.794-4.816 4.887-7.68-1.995-0.814-3.589-2.382-4.436-4.364-3.554 1.367-6.71 3.602-9.178 6.502-2.332 2.755-4.137 5.915-5.324 9.324zM20.553 14.546c-0.803 0-1.587-0.238-2.255-0.684s-1.188-1.080-1.495-1.821c-0.307-0.742-0.387-1.558-0.231-2.345s0.543-1.51 1.111-2.078 1.291-0.954 2.078-1.111c0.787-0.157 1.603-0.076 2.345 0.231s1.375 0.827 1.821 1.495c0.446 0.667 0.684 1.452 0.684 2.255 0 1.076-0.427 2.108-1.189 2.87s-1.793 1.189-2.87 1.189zM20.553 7.811c-0.515 0-1.018 0.225-1.446 0.512s-0.762 0.693-0.959 1.168-0.249 0.999-0.148 1.504c0.101 0.505 0.349 0.969 0.713 1.333s0.828 0.612 1.333 0.713c0.505 0.1 1.029 0.049 1.504-0.148s0.882-0.531 1.169-0.959c0.286-0.428 0.439-0.932 0.439-1.447 0.010-0.348-0.050-0.694-0.177-1.019s-0.317-0.62-0.559-0.87c-0.243-0.25-0.533-0.448-0.854-0.583s-0.665-0.205-1.014-0.205z"></path>
<path d="M0.727 17.731c-0.102-0.008-0.201-0.036-0.291-0.084s-0.169-0.113-0.233-0.193c-0.105-0.114-0.172-0.257-0.193-0.411s0.006-0.31 0.077-0.447c0.8-1.46 1.843-2.773 3.084-3.884 1.66-1.542 3.771-2.51 6.022-2.764h0.727c0.132-0.004 0.262 0.027 0.378 0.091s0.211 0.158 0.277 0.273c0.071 0.111 0.109 0.239 0.109 0.371s-0.038 0.26-0.109 0.371c-0.393 0.582-0.844 1.338-1.236 2.036s-0.785 1.527-1.149 2.284l-0.247 0.625c-0.071 0.145-0.188 0.262-0.333 0.333s-0.309 0.092-0.467 0.059c-1.177-0.195-2.384-0.105-3.52 0.262-0.886 0.27-1.743 0.626-2.56 1.062-0.108 0.033-0.224 0.038-0.335 0.015zM8.567 11.52c-1.635 0.341-3.145 1.126-4.364 2.269-0.532 0.478-1.019 1.004-1.455 1.571l0.538-0.16c1.177-0.38 2.42-0.513 3.651-0.393 0.393-0.829 0.771-1.614 1.193-2.4l0.436-0.887z"></path>
<path d="M29.716 5.498h-0.233c-0.91-0.31-1.737-0.825-2.415-1.506s-1.191-1.51-1.497-2.421c-0.073-0.187-0.073-0.395 0-0.582 0.106-0.171 0.272-0.295 0.465-0.349 1.387-0.35 2.805-0.564 4.233-0.64 0.102-0.003 0.204 0.015 0.299 0.053s0.181 0.094 0.254 0.166c0.071 0.070 0.126 0.154 0.164 0.247s0.056 0.192 0.054 0.291c-0.081 1.412-0.291 2.815-0.625 4.189-0.024 0.097-0.067 0.188-0.127 0.268s-0.136 0.147-0.222 0.197c-0.107 0.058-0.227 0.088-0.349 0.087zM27.273 1.847c0.446 0.805 1.112 1.466 1.92 1.905 0.153-0.759 0.265-1.527 0.335-2.298-0.759 0.084-1.512 0.215-2.255 0.393z"></path>
<path d="M13.527 31.055c-0.197-0-0.385-0.079-0.524-0.218-0.109-0.112-0.179-0.255-0.2-0.41s0.008-0.312 0.083-0.448c0.451-0.8 0.821-1.643 1.105-2.516 0.418-1.123 0.567-2.329 0.436-3.52-0.020-0.155 0.010-0.312 0.086-0.448s0.194-0.244 0.336-0.309l0.465-0.218c0.771-0.335 1.455-0.669 2.211-1.047s1.353-0.742 2.007-1.12c0.113-0.071 0.244-0.108 0.378-0.108s0.265 0.038 0.378 0.108c0.113 0.072 0.205 0.174 0.264 0.295s0.084 0.255 0.071 0.389c0 0.291 0 0.553-0.087 0.727-0.358 2.189-1.372 4.218-2.909 5.818-1.104 1.177-2.397 2.16-3.825 2.909-0.082 0.059-0.177 0.099-0.276 0.116zM16 24.291c0.047 1.236-0.141 2.47-0.553 3.636 0 0.145-0.087 0.291-0.145 0.436 0.494-0.384 0.956-0.807 1.382-1.265 1.101-1.208 1.868-2.682 2.225-4.276l-0.742 0.393c-0.742 0.378-1.455 0.727-2.24 1.062l0.073 0.015z"></path>
</svg>
