<!-- Generated by IcoMoon.io -->
<svg version="1.1" xmlns="http://www.w3.org/2000/svg" width="32" height="32" viewBox="0 0 32 32">
<title>rotate</title>
<path d="M11.396 0.885c0.499-0.478 1.293-0.469 1.78 0.027l0.006 0.006 4.032 4.199c0.418 0.431 0.475 1.098 0.13 1.594l-3.346 5.026c-0.248 0.346-0.638 0.528-1.029 0.528-0.253 0-0.507-0.076-0.727-0.23-0.566-0.397-0.706-1.176-0.312-1.744l1.911-2.909c-5.333 0.723-9.447 5.267-9.447 10.733 0 5.966 4.901 10.833 10.94 10.833s10.94-4.867 10.94-10.833c0-2.171-0.645-4.263-1.865-6.053-0.396-0.579-0.239-1.366 0.341-1.753 0.576-0.386 1.358-0.235 1.749 0.338 1.506 2.209 2.303 4.793 2.303 7.469 0 7.37-6.048 13.352-13.467 13.352s-13.467-5.982-13.467-13.352c0-6.748 5.071-12.332 11.622-13.225l-2.124-2.222c-0.487-0.501-0.471-1.299 0.030-1.781l0.002-0.001z"></path>
</svg>
