<!-- Generated by IcoMoon.io -->
<svg version="1.1" xmlns="http://www.w3.org/2000/svg" width="32" height="32" viewBox="0 0 32 32">
<title>sample</title>
<path d="M24.406 23.995c-0.453 0.656-1.51 2.28-1.51 3.164-0.002 0.028-0.003 0.061-0.003 0.094 0 1.15 0.931 2.081 2.081 2.081s2.081-0.931 2.081-2.081c0-0.033-0.001-0.066-0.003-0.098v0.004c0-0.884-1.053-2.508-1.51-3.164-0.133-0.171-0.338-0.279-0.569-0.279s-0.436 0.108-0.568 0.277l-0.001 0.002zM16.729 5.263l-8.797 8.818c-0.125 0.125-0.202 0.298-0.202 0.489 0 0.381 0.31 0.691 0.691 0.691 0.191 0 0.364-0.077 0.488-0.202l1.476-1.468 5.87 5.875c0.904 0.843 2.1 1.382 3.421 1.454l0.013 0.001 1.975 1.975c0.125 0.125 0.299 0.203 0.491 0.203s0.365-0.078 0.491-0.203l2.961-2.939c0.125-0.125 0.203-0.298 0.203-0.489s-0.078-0.364-0.203-0.488l-2.017-1.962c-0.076-1.327-0.616-2.515-1.457-3.417l0.003 0.003-5.879-5.892 1.472-1.468c0.124-0.126 0.2-0.299 0.2-0.491 0-0.387-0.313-0.7-0.699-0.7-0.195 0-0.372 0.080-0.499 0.209v-0.001zM12.339 3.795c-0.742-0.7-1.745-1.128-2.848-1.128-2.296 0-4.158 1.862-4.158 4.158 0 1.102 0.429 2.104 1.128 2.848l-0.002-0.003 1.962 1.962 5.875-5.879-1.958-1.958z"></path>
</svg>
