<!-- Generated by IcoMoon.io -->
<svg version="1.1" xmlns="http://www.w3.org/2000/svg" width="32" height="32" viewBox="0 0 32 32">
<title>sample-square</title>
<path d="M8.222 2.667h15.555c3.068 0 5.556 2.487 5.556 5.556v15.555c0 3.068-2.487 5.556-5.556 5.556h-15.555c-3.068 0-5.556-2.487-5.556-5.556v-15.555c0-3.068 2.487-5.556 5.556-5.556v0zM22.363 22.832c-0.242 0.389-0.806 1.352-0.806 1.877-0.001 0.017-0.001 0.036-0.001 0.056 0 0.682 0.497 1.235 1.111 1.235s1.111-0.553 1.111-1.235c0-0.019 0-0.039-0.001-0.058v0.003c0-0.524-0.562-1.488-0.806-1.877-0.071-0.101-0.181-0.166-0.303-0.166s-0.233 0.064-0.303 0.165l-0.001 0.001h-0.001zM10.581 17.114c-0.084 0.077-0.137 0.183-0.137 0.301 0 0.235 0.209 0.425 0.467 0.425 0.129 0 0.246-0.047 0.33-0.125l0.997-0.903 3.968 3.617c0.612 0.518 1.42 0.851 2.312 0.896h0.009l1.335 1.216c0.085 0.077 0.203 0.125 0.332 0.125s0.247-0.047 0.332-0.125l2.002-1.81c0.085-0.077 0.137-0.183 0.137-0.301s-0.053-0.224-0.137-0.301l-1.364-1.208c-0.051-0.817-0.416-1.548-0.986-2.103l-3.972-3.626 0.995-0.903c0.084-0.078 0.136-0.184 0.136-0.302 0-0.238-0.212-0.431-0.473-0.431-0.132 0-0.252 0.049-0.337 0.129l-5.945 5.43zM13.923 11.37c-0.437-0.457-1.043-0.755-1.726-0.791-1.421-0.074-2.633 1.017-2.708 2.437-0.036 0.682 0.197 1.316 0.607 1.799l-0.001-0.002 1.151 1.278 3.827-3.447-1.149-1.275z"></path>
</svg>
