<!-- Generated by IcoMoon.io -->
<svg version="1.1" xmlns="http://www.w3.org/2000/svg" width="32" height="32" viewBox="0 0 32 32">
<title>search</title>
<path d="M19.382 21.872c-1.731 1.233-3.847 1.958-6.134 1.958-5.844 0-10.582-4.737-10.582-10.582s4.737-10.582 10.582-10.582c5.844 0 10.582 4.737 10.582 10.582 0 2.286-0.725 4.403-1.958 6.134l6.952 6.952c0.685 0.685 0.68 1.781 0 2.461l-0.029 0.029c-0.678 0.678-1.781 0.68-2.461 0l-6.952-6.952zM13.249 21.341c4.469 0 8.092-3.623 8.092-8.092s-3.623-8.092-8.092-8.092-8.092 3.623-8.092 8.092c0 4.469 3.623 8.092 8.092 8.092z"></path>
</svg>
