<!-- Generated by IcoMoon.io -->
<svg version="1.1" xmlns="http://www.w3.org/2000/svg" width="32" height="32" viewBox="0 0 32 32">
<title>settings</title>
<path d="M28.77 13.776h-3.163c-0.236-0.993-0.536-1.856-0.91-2.676l0.037 0.090 2.259-2.259c0.099-0.101 0.16-0.24 0.16-0.393s-0.061-0.292-0.16-0.393l-3.132-3.141c-0.1-0.1-0.239-0.163-0.391-0.163s-0.291 0.062-0.391 0.163l-2.276 2.254c-0.732-0.338-1.595-0.638-2.492-0.854l-0.099-0.020v-3.163c0-0.307-0.248-0.555-0.555-0.555h-3.325c-0.307 0-0.555 0.248-0.555 0.555v3.163c-0.993 0.237-1.856 0.536-2.676 0.91l0.090-0.037-2.263-2.254c-0.1-0.1-0.239-0.163-0.393-0.163s-0.293 0.062-0.393 0.163l-3.141 3.128c-0.1 0.1-0.163 0.239-0.163 0.393s0.062 0.293 0.163 0.393l2.259 2.272c-0.34 0.733-0.64 1.597-0.855 2.494l-0.019 0.097h-3.163c-0.307 0-0.555 0.248-0.555 0.555v3.329c0 0.307 0.248 0.555 0.555 0.555h3.163c0.235 0.991 0.535 1.851 0.91 2.67l-0.037-0.088-2.259 2.263c-0.1 0.1-0.163 0.239-0.163 0.393s0.062 0.293 0.163 0.393l3.132 3.141c0.103 0.095 0.241 0.153 0.393 0.153s0.29-0.059 0.393-0.154l2.272-2.259c0.733 0.34 1.597 0.639 2.494 0.854l0.097 0.019v3.172c0 0.307 0.248 0.555 0.555 0.555h3.329c0.307 0 0.555-0.248 0.555-0.555v-3.172c0.991-0.236 1.852-0.536 2.671-0.911l-0.089 0.037 2.259 2.259c0.101 0.099 0.24 0.16 0.393 0.16s0.292-0.061 0.393-0.16l3.145-3.132c0.099-0.101 0.16-0.24 0.16-0.393s-0.061-0.292-0.16-0.393l-2.259-2.272c0.34-0.733 0.64-1.597 0.855-2.494l0.019-0.097h3.172c0.307 0 0.555-0.248 0.555-0.555v-3.325c0-0.307-0.248-0.555-0.555-0.555-0.003 0-0.006 0-0.010 0l0.001 0.001zM15.996 20.439c-2.453 0-4.443-1.99-4.443-4.443s1.989-4.443 4.443-4.443c2.453 0 4.443 1.989 4.443 4.443-0.003 2.453-1.99 4.44-4.443 4.443z"></path>
</svg>
