<!-- Generated by IcoMoon.io -->
<svg version="1.1" xmlns="http://www.w3.org/2000/svg" width="32" height="32" viewBox="0 0 32 32">
<title>share-arrow</title>
<path d="M19.772 7.714c-0.537-0.433-1.123-0.471-1.621-0.266l-0.147 0.071c-0.477 0.261-0.814 0.757-0.814 1.495l-0.001 2.291-4.523 0.002-0.298 0.007c-2.46 0.108-4.431 1.569-5.64 4.338-0.344 0.789-0.677 1.817-1.016 3.076-0.034 0.127-0.068 0.254-0.101 0.384l-0.203 0.803-0.211 0.879-0.426 1.843c-0.059 0.279-0.091 0.498-0.103 0.64-0.002 0.795 0.593 1.391 1.331 1.391 0.702 0 1.057-0.37 1.301-1.129l0.249-0.812 0.091-0.197c0.546-1.113 1.251-1.589 3.139-1.775l0.52-0.042 0.578-0.031c0.101-0.004 0.205-0.008 0.312-0.011l0.672-0.015 0.74-0.007 3.586-0.002 0.001 2.344 0.009 0.199c0.062 0.706 0.456 1.167 0.961 1.369 0.153 0.066 0.353 0.112 0.57 0.112 0.425 0 0.845-0.175 1.21-0.542l6.81-6.81 0.133-0.147c0.292-0.356 0.452-0.802 0.45-1.27l-0.011-0.199c-0.048-0.461-0.254-0.89-0.591-1.22l-6.8-6.623-0.16-0.142zM18.668 8.678c0.083-0.034 0.172-0.025 0.333 0.133l6.799 6.622 0.070 0.080c0.084 0.113 0.129 0.247 0.13 0.39 0.001 0.179-0.067 0.344-0.192 0.468l-6.877 6.873c-0.082 0.068-0.144 0.090-0.2 0.090-0.026 0-0.049-0.005-0.059-0.009-0.093-0.038-0.148-0.107-0.148-0.336v-3.676l-5.34 0.004-0.752 0.014-0.692 0.025-0.634 0.037c-2.831 0.206-3.899 0.876-4.748 2.731-0.035 0.077-0.066 0.157-0.096 0.249l-0.227 0.749 0.050-0.244 0.517-2.221 0.202-0.821 0.198-0.76c0.323-1.201 0.637-2.172 0.95-2.888 1.052-2.408 2.665-3.544 4.716-3.544l5.857-0.002v-3.625l0.005-0.102c0.015-0.149 0.066-0.204 0.139-0.235z"></path>
</svg>
