<!-- Generated by IcoMoon.io -->
<svg version="1.1" xmlns="http://www.w3.org/2000/svg" width="32" height="32" viewBox="0 0 32 32">
<title>share-plane</title>
<path d="M27.53 5.347c0.071-0.019 0.145-0.019 0.216 0 0.228 0 0.228 0.142 0.228 0.38l-4.415 20.358c-0.023 0.182-0.175 0.322-0.36 0.332-0.097 0.001-0.191-0.033-0.264-0.095l-4.883-3.417-2.831 3.369c-0.161 0.231-0.424 0.372-0.708 0.38-0.079 0.016-0.161 0.016-0.24 0-0.348-0.129-0.562-0.477-0.516-0.842v-5.79l-0.456-0.202-9.106-3.049c-0.288-0.107-0.3-0.32 0-0.451l23.336-10.974zM24.494 8.147l-17.625 8.245 6.827 2.302c0.176 0.060 0.349 0.131 0.516 0.213l10.282-10.76zM14.969 24.697v-3.927l2.088 1.459-2.088 2.468zM15.293 19.584l7.331 5.113 3.575-16.526-10.906 11.413z"></path>
</svg>
