<!-- Generated by IcoMoon.io -->
<svg version="1.1" xmlns="http://www.w3.org/2000/svg" width="32" height="32" viewBox="0 0 32 32">
<title>share-with</title>
<path d="M9.409 18.607c1.862 0 3.228 1.164 3.729 1.666 0.084 0.084 0.199 0.132 0.317 0.132h2.697c0.977 0 1.236 0.846 1.236 1.349 0 0.362-0.115 0.706-0.317 0.948-0.221 0.265-0.531 0.401-0.919 0.401h-4.946c-0.248 0-0.449 0.199-0.449 0.449 0 0.247 0.201 0.449 0.449 0.449h4.946c0.659 0 1.216-0.252 1.609-0.724 0.34-0.407 0.526-0.949 0.526-1.524 0-0.145-0.012-0.288-0.037-0.429l2.705-0.897c1.192-0.341 2.101-0.048 3.158 1.008 0.101 0.101 0.149 0.245 0.127 0.39-0.023 0.142-0.114 0.265-0.244 0.33-2.44 1.218-4.124 2.17-5.355 2.866-1.974 1.114-2.914 1.625-4.004 1.625-0.909 0-1.922-0.355-3.723-1.009-0.901-0.327-2.022-0.735-3.446-1.21-0.184-0.060-0.308-0.232-0.308-0.425v-4.945c0-0.25 0.201-0.449 0.449-0.449l1.799-0.001zM5.813 17.715c0.247 0 0.449 0.201 0.449 0.449v7.185c0 0.248-0.202 0.449-0.449 0.449h-2.697c-0.248 0-0.449-0.201-0.449-0.449v-7.185c0-0.249 0.201-0.449 0.449-0.449h2.697zM23.095 7.198c0-0.438 0.511-0.694 0.862-0.414l5.178 5.139c0.267 0.215 0.262 0.618 0 0.828l-5.178 5.139c-0.345 0.276-0.862 0.031-0.862-0.414v-2.478c-4.557 0.167-6.305 2.489-6.982 4.511h-2.474c-0.185-0.175-0.442-0.392-0.752-0.613 0.9-3.671 3.379-8.938 10.207-9.197l0.001-2.499z"></path>
</svg>
