<!-- Generated by IcoMoon.io -->
<svg version="1.1" xmlns="http://www.w3.org/2000/svg" width="32" height="32" viewBox="0 0 32 32">
<title>share</title>
<path d="M16.14 4.677l-3.186 3.082c-0.094 0.093-0.249 0.092-0.346-0.005l-0.397-0.404c-0.097-0.096-0.1-0.25-0.006-0.343l4.415-4.272c0.093-0.093 0.248-0.092 0.346 0.005l0.397 0.404c0.040 0.040 0.064 0.091 0.072 0.142l3.965 3.79c0.093 0.093 0.092 0.245-0.005 0.34l-0.435 0.398c-0.097 0.096-0.249 0.098-0.342 0.006l-3.424-3.273v15.228h-1.053v-15.098zM7.719 11.223v17.104h17.895v-17.104h-6.316v-1.006h7.368v19.116h-20v-19.116h7.368v1.006h-6.316z"></path>
</svg>
