<!-- Generated by IcoMoon.io -->
<svg version="1.1" xmlns="http://www.w3.org/2000/svg" width="32" height="32" viewBox="0 0 32 32">
<title>share-content</title>
<path d="M20.722 11.883c0.548 0 0.992 0.449 0.992 1.003v5.931c0 0.554-0.444 1.003-0.992 1.003h-5.788v1.893l-2.481-1.893h-2.034c-0.548 0-0.992-0.449-0.992-1.003v-5.931c0-0.554 0.444-1.003 0.992-1.003h10.303zM17.141 14.341c-0.073 0.003-0.147 0.033-0.198 0.088l-0.042 0.063-1.113 2.464-1.021-1.233c-0.053-0.063-0.135-0.097-0.217-0.092-0.055 0.004-0.107 0.027-0.147 0.062l-0.053 0.063-1.405 2.368h-1.42c-0.142 0-0.257 0.115-0.257 0.257 0 0.114 0.073 0.211 0.175 0.245l0.081 0.013h8.703c0.142 0 0.257-0.116 0.257-0.258 0-0.114-0.073-0.211-0.175-0.245l-0.081-0.013h-1.417l-1.438-3.623c-0.038-0.096-0.13-0.159-0.233-0.163zM13.727 13.113c-0.678 0-1.229 0.551-1.229 1.229s0.552 1.228 1.229 1.228 1.229-0.551 1.229-1.228c0-0.678-0.552-1.229-1.229-1.229zM14.577 3.896c0.548 0 0.993 0.449 0.993 1.003v5.317c0 0.554-0.444 1.003-0.993 1.003h-6.407v1.893l-2.481-1.893h-2.030c-0.548 0-0.993-0.449-0.993-1.003v-5.317c0-0.554 0.444-1.003 0.993-1.003h10.918zM27.481 2.667c0.498 0 0.911 0.371 0.982 0.855l0.011 0.148v5.931c0 0.504-0.367 0.921-0.846 0.992l-0.147 0.011h-1.58l-2.481 1.893v-1.893h-5.628c-0.498 0-0.911-0.371-0.982-0.855l-0.011-0.148v-5.931c0-0.504 0.367-0.921 0.846-0.993l0.147-0.011h9.689zM13.113 8.197h-7.987v0.614h7.987v-0.614zM23.404 5.124h-2.765c-0.063 0-0.118 0.038-0.142 0.093l-0.012 0.060v2.765c0 0.063 0.038 0.118 0.093 0.142l0.060 0.012h2.765c0.063 0 0.118-0.038 0.142-0.093l0.012-0.060v-0.798l0.994 0.621c0.085 0.053 0.192 0.011 0.225-0.074l0.010-0.056v-2.151c0-0.101-0.093-0.168-0.182-0.152l-0.053 0.021-0.994 0.622v-0.799c0-0.085-0.069-0.153-0.154-0.153v0.002zM9.426 6.353h-4.301v0.614h4.301v-0.614zM11.269 6.353h-1.229v0.614h1.229v-0.614z"></path>
<path d="M5.678 20.738h-2.581c-0.237 0-0.43 0.192-0.43 0.43v6.874c0 0.237 0.192 0.43 0.43 0.43h2.581c0.237 0 0.43-0.193 0.43-0.43v-6.874c0-0.238-0.193-0.43-0.43-0.43z"></path>
<path d="M23.185 24.298c-1.011-1.010-1.881-1.29-3.021-0.964l-2.588 0.858c0.023 0.134 0.035 0.272 0.035 0.41 0 0.551-0.178 1.068-0.503 1.458-0.377 0.452-0.909 0.693-1.54 0.693h-4.731c-0.238 0-0.43-0.193-0.43-0.43 0-0.239 0.193-0.43 0.43-0.43h4.731c0.372 0 0.667-0.13 0.879-0.383 0.193-0.232 0.303-0.561 0.303-0.907 0-0.481-0.248-1.29-1.183-1.29h-2.581c-0.113 0-0.223-0.046-0.303-0.127-0.479-0.481-1.787-1.594-3.567-1.594h-1.721c-0.237 0-0.43 0.191-0.43 0.43v4.731c0 0.184 0.118 0.349 0.294 0.406 1.362 0.455 2.435 0.846 3.298 1.157 1.724 0.626 2.693 0.966 3.562 0.966 1.043 0 1.943-0.488 3.831-1.554 1.177-0.665 2.788-1.576 5.122-2.742 0.124-0.062 0.211-0.18 0.233-0.316 0.021-0.138-0.024-0.276-0.122-0.373v0.001z"></path>
</svg>
