<!-- Generated by IcoMoon.io -->
<svg version="1.1" xmlns="http://www.w3.org/2000/svg" width="32" height="32" viewBox="0 0 32 32">
<title>sideline</title>
<path d="M29.31 15.705l-0.056-0.133-0.056-0.1v-0.056l-0.067-0.077-10.658-9.769c-0.155-0.147-0.365-0.236-0.595-0.236-0.258 0-0.489 0.112-0.648 0.291l-0.001 0.001c-0.141 0.157-0.227 0.365-0.227 0.594 0 0.256 0.108 0.487 0.282 0.649l0.001 0.001 8.882 8.137h-22.625c-0.485 0-0.877 0.393-0.877 0.877s0.393 0.877 0.877 0.877h22.625l-8.882 8.137c-0.181 0.162-0.294 0.395-0.294 0.655 0 0.485 0.393 0.877 0.877 0.877 0.006 0 0.012 0 0.017 0 0.227 0 0.435-0.089 0.588-0.233l10.547-9.669 0.067-0.077v-0.056l0.056-0.1 0.167-0.2c0.014-0.053 0.023-0.115 0.023-0.177s-0.008-0.124-0.023-0.182l0.001 0.005-0.001-0.034z"></path>
</svg>
