<!-- Generated by IcoMoon.io -->
<svg version="1.1" xmlns="http://www.w3.org/2000/svg" width="32" height="32" viewBox="0 0 32 32">
<title>signout</title>
<path d="M23.692 13.997c0.921 0 1.668 0.747 1.668 1.668s-0.747 1.668-1.668 1.668h-9.446v10.557c0 0.305 0.247 0.552 0.551 0.552 0.002 0 0.003 0 0.004 0h14.444c0.002 0 0.003 0 0.004 0 0.305 0 0.552-0.247 0.552-0.552v-23.338c0-0.305-0.247-0.552-0.552-0.552-0.002 0-0.003 0-0.004 0h-14.444c-0.002 0-0.003 0-0.004 0-0.305 0-0.551 0.247-0.551 0.552v9.446h9.446zM23.692 15.109h-18.674l4.603-4.608c0.137-0.102 0.225-0.264 0.225-0.446 0-0.307-0.249-0.556-0.556-0.556-0.175 0-0.331 0.081-0.433 0.207l-0.001 0.001-5.559 5.568c-0.101 0.101-0.162 0.24-0.162 0.393s0.063 0.293 0.162 0.393l5.559 5.554c0.1 0.097 0.236 0.157 0.387 0.157 0.307 0 0.556-0.249 0.556-0.556 0-0.15-0.060-0.287-0.157-0.387l-4.608-4.608h18.674c0.307 0 0.556-0.249 0.556-0.556s-0.249-0.556-0.556-0.556l-0.017-0.001z"></path>
</svg>
