<!-- Generated by IcoMoon.io -->
<svg version="1.1" xmlns="http://www.w3.org/2000/svg" width="24" height="32" viewBox="0 0 24 32">
<title>skincare-outline</title>
<path d="M10.283 26.245h-0.121c-0.386-0.038-0.684-0.361-0.684-0.754 0-0.023 0.001-0.045 0.003-0.067l-0 0.003 1.954-20.929c0.031-0.393 0.357-0.699 0.755-0.699 0.022 0 0.044 0.001 0.066 0.003l-0.003-0c0.394 0.039 0.699 0.368 0.699 0.769 0 0.023-0.001 0.045-0.003 0.067l0-0.003-1.908 20.96c-0.054 0.37-0.369 0.651-0.75 0.651-0.003 0-0.005 0-0.008-0h0z"></path>
<path d="M0.757 5.316v0c-0 0-0 0-0.001 0-0.41 0-0.742-0.332-0.742-0.742 0-0.011 0-0.021 0.001-0.032l-0 0.002 0.061-3.801c0-0 0-0 0-0 0-0.41 0.332-0.742 0.742-0.742 0.005 0 0.011 0 0.016 0h11.282c0 0 0 0 0 0 0.413 0 0.749 0.33 0.757 0.741v0.001l0.076 3.801c0 0.418-0.339 0.757-0.757 0.757s-0.757-0.339-0.757-0.757v0-3.029h-9.859v3.029c0 0 0 0.001 0 0.001 0 0.427-0.346 0.772-0.772 0.772-0.016 0-0.032-0-0.048-0.001l0.002 0z"></path>
<path d="M2.665 26.245c-0.005 0-0.011 0-0.018 0-0.389 0-0.707-0.299-0.739-0.679l-0-0.003-1.908-20.929c-0.003-0.024-0.004-0.051-0.004-0.079 0-0.393 0.299-0.716 0.683-0.754l0.003-0c0.019-0.002 0.041-0.003 0.064-0.003 0.401 0 0.73 0.305 0.769 0.696l0 0.003 1.893 20.96c0.003 0.023 0.004 0.050 0.004 0.078 0 0.39-0.301 0.71-0.683 0.74l-0.003 0z"></path>
<path d="M10.283 32h-7.572c-0.418 0-0.757-0.339-0.757-0.757v0-5.725c0-0.418 0.339-0.757 0.757-0.757v0h7.572c0.418 0 0.757 0.339 0.757 0.757v0 5.725c0 0.418-0.339 0.757-0.757 0.757v0zM3.423 30.486h6.058v-4.24h-6.058z"></path>
<path d="M10.283 30.092c-0.157-0.003-0.303-0.048-0.428-0.123l0.004 0.002c-2.59-1.742-4.18-1.742-6.785 0-0.117 0.078-0.261 0.124-0.416 0.124-0.261 0-0.492-0.132-0.628-0.334l-0.002-0.003c-0.079-0.119-0.125-0.265-0.125-0.422 0-0.264 0.133-0.497 0.335-0.637l0.003-0.002c3.12-2.075 5.331-2.075 8.466 0 0.205 0.141 0.337 0.374 0.337 0.638 0 0.157-0.047 0.303-0.127 0.425l0.002-0.003c-0.143 0.201-0.374 0.331-0.636 0.333h-0z"></path>
<path d="M11.676 5.982h-9.965c-0.418 0-0.757-0.339-0.757-0.757v0c0-0.418 0.339-0.757 0.757-0.757v0h9.965c0.418 0 0.757 0.339 0.757 0.757v0c0 0.418-0.339 0.757-0.757 0.757v0z"></path>
<path d="M10.283 20.566h-7.572c-0.418 0-0.757-0.339-0.757-0.757s0.339-0.757 0.757-0.757v0h7.572c0.418 0 0.757 0.339 0.757 0.757s-0.339 0.757-0.757 0.757v0z"></path>
<path d="M23.625 32h-7.572c-0.418 0-0.757-0.339-0.757-0.757v0-19.052c0-0.418 0.339-0.757 0.757-0.757v0h7.572c0.418 0 0.757 0.339 0.757 0.757v0 19.052c0 0.418-0.339 0.757-0.757 0.757v0zM16.75 30.486h6.058v-17.537h-6.058z"></path>
<path d="M23.625 10.662h-7.572c-0.415-0.008-0.749-0.342-0.757-0.756v-3.817c0-0.418 0.339-0.757 0.757-0.757v0h7.572c0.418 0 0.757 0.339 0.757 0.757v0 3.816c0 0.418-0.339 0.757-0.757 0.757v0zM16.75 9.147h6.058v-2.302h-6.058z"></path>
<path d="M23.625 23.428h-7.572c-0.415-0.008-0.749-0.342-0.757-0.756v-0.001c0-0.418 0.339-0.757 0.757-0.757v0h7.572c0.418 0 0.757 0.339 0.757 0.757v0c0 0.418-0.339 0.757-0.757 0.757v0z"></path>
<path d="M16.008 24.776h7.618v1.514h-7.618v-1.514z"></path>
</svg>
