<!-- Generated by IcoMoon.io -->
<svg version="1.1" xmlns="http://www.w3.org/2000/svg" width="32" height="32" viewBox="0 0 32 32">
<title>snoozed</title>
<path d="M24.213 2.667c-2.017 0-3.761 1.172-4.587 2.871l-0.014 0.031c3.27 1.108 5.877 3.432 7.33 6.421l0.032 0.075c1.427-0.919 2.359-2.501 2.359-4.299 0-2.816-2.282-5.098-5.098-5.098-0.008 0-0.015 0-0.023 0h0.001zM12.279 5.415c-0.871-1.635-2.565-2.729-4.514-2.729-2.816 0-5.098 2.282-5.098 5.098 0 1.605 0.742 3.036 1.9 3.971l0.009 0.008c1.589-3.066 4.319-5.353 7.614-6.325l0.088-0.022h0.001zM15.699 6.070c-6.27 0-11.352 5.082-11.352 11.352s5.082 11.352 11.352 11.352 11.352-5.082 11.352-11.352c-0.008-6.266-5.085-11.344-11.351-11.352h-0.001zM16.834 17.987c0 0.002 0 0.003 0 0.004 0 0.312-0.253 0.565-0.565 0.565h-4.542c-0.292-0.026-0.52-0.27-0.52-0.568s0.228-0.541 0.518-0.567h3.975v-6.245c0.026-0.292 0.27-0.52 0.568-0.52s0.541 0.228 0.567 0.518v0.003l-0.001 6.809zM23.444 27.197c-0.302 0.238-0.612 0.463-0.935 0.675l0.735 0.731c0.102 0.105 0.244 0.169 0.402 0.169s0.299-0.065 0.401-0.169c0.102-0.103 0.166-0.245 0.166-0.402s-0.064-0.298-0.166-0.402l-0.603-0.602zM7.959 27.197l-0.603 0.603c-0.103 0.103-0.167 0.245-0.167 0.402 0 0.313 0.253 0.566 0.566 0.566 0.155 0 0.297-0.063 0.399-0.165l0.735-0.731c-0.323-0.212-0.633-0.438-0.93-0.675z"></path>
</svg>
