<!-- Generated by IcoMoon.io -->
<svg version="1.1" xmlns="http://www.w3.org/2000/svg" width="30" height="32" viewBox="0 0 30 32">
<title>social-share</title>
<path d="M24.712 1.268c-2.989 0-5.413 2.423-5.413 5.413 0 0.708 0.136 1.385 0.383 2.004l-9.595 4.797c-0.951-1.555-2.665-2.592-4.621-2.592-2.989 0-5.413 2.423-5.413 5.413s2.423 5.413 5.413 5.413c1.653 0 3.133-0.741 4.126-1.909l9.793 5.154c-0.056 0.313-0.086 0.635-0.086 0.965 0 2.989 2.423 5.413 5.413 5.413s5.413-2.423 5.413-5.413c0-2.989-2.423-5.413-5.413-5.413-1.755 0-3.316 0.836-4.305 2.131l-9.673-5.091c0.095-0.401 0.145-0.82 0.145-1.25 0-0.129-0.005-0.258-0.014-0.385l10.201-5.1-0.128-0.256c0.975 0.948 2.306 1.531 3.773 1.531 2.989 0 5.413-2.423 5.413-5.413s-2.423-5.413-5.413-5.413z"></path>
</svg>
