<!-- Generated by IcoMoon.io -->
<svg version="1.1" xmlns="http://www.w3.org/2000/svg" width="32" height="32" viewBox="0 0 32 32">
<title>solution-tool</title>
<path d="M5.629 2.55c0.006-0.279 0.233-0.502 0.512-0.502h8.999c0.279 0 0.506 0.223 0.512 0.502l0.060 3.035 0 0.008c0 0.018-0.001 0.035-0.002 0.053l-1.518 16.697v4.537c0 0.283-0.229 0.512-0.512 0.512h-6.080c-0.283 0-0.512-0.229-0.512-0.512v-4.537l-1.517-16.689c-0.001-0.012-0.002-0.024-0.002-0.036s-0-0.024-0-0.036l0.060-3.033zM8.112 25.638v0.73h5.056v-0.73c-0.993-0.63-1.78-0.906-2.528-0.906s-1.535 0.276-2.528 0.906zM13.168 24.447c-0.868-0.478-1.685-0.739-2.528-0.739s-1.66 0.261-2.528 0.739v-1.615h5.056v1.615zM14.688 5.581l-0.004 0.042h-7.844c-0.086 0-0.167 0.021-0.238 0.059l-0.009-0.1 0.050-2.51h7.995l0.050 2.509zM13.627 17.248l0.964-10.601h-7.751c-0.053 0-0.105-0.008-0.153-0.023l0.966 10.624h5.974zM13.534 18.272l-0.322 3.536h-5.145l-0.321-3.536h5.788zM17.728 11.68c0-0.283 0.229-0.512 0.512-0.512h6.080c0.283 0 0.512 0.229 0.512 0.512v15.2c0 0.283-0.229 0.512-0.512 0.512h-6.080c-0.283 0-0.512-0.229-0.512-0.512v-15.2zM23.808 12.192v7.336h-5.056v-7.336h5.056zM23.808 20.552h-5.056v1.256h5.056v-1.256zM23.808 22.832h-5.056v3.536h5.056v-3.536zM18.24 6.304c-0.283 0-0.512 0.229-0.512 0.512v3.040c0 0.283 0.229 0.512 0.512 0.512h6.080c0.283 0 0.512-0.229 0.512-0.512v-3.040c0-0.283-0.229-0.512-0.512-0.512h-6.080zM18.752 9.344v-2.016h5.056v2.016h-5.056z"></path>
</svg>
