<!-- Generated by IcoMoon.io -->
<svg version="1.1" xmlns="http://www.w3.org/2000/svg" width="19" height="32" viewBox="0 0 19 32">
<title>sort-asc</title>
<path d="M14.466 8.764l-5.114-5.396v26.844c0 0.538-0.416 0.977-0.926 0.977-0.512 0-0.924-0.439-0.924-0.977v-26.834l-5.033 5.366c-0.361 0.382-0.946 0.382-1.309 0-0.361-0.38-0.361-0.998 0-1.38l6.602-7.062c0.186-0.193 0.429-0.306 0.67-0.302 0.241-0.004 0.482 0.101 0.668 0.294l6.675 7.074c0.361 0.382 0.361 1.010 0 1.39-0.361 0.382-0.948 0.386-1.309 0.006z"></path>
</svg>
