<!-- Generated by IcoMoon.io -->
<svg version="1.1" xmlns="http://www.w3.org/2000/svg" width="33" height="32" viewBox="0 0 33 32">
<title>star-outline</title>
<path fill="#fff" d="M7.196 30.42l9.396-5.124 9.396 5.124-1.791-10.505 7.605-7.447-10.512-1.52-4.698-9.565-4.698 9.565-10.512 1.52 7.605 7.447z"></path>
<path fill="#272525" d="M16.593 0.197c-0 0-0 0-0 0-0.465 0-0.867 0.268-1.062 0.657l-0.003 0.007-4.421 9.002-9.894 1.431c-0.578 0.085-1.016 0.578-1.016 1.173 0 0.332 0.137 0.632 0.357 0.847l0 0 7.162 7.014-1.688 9.891c-0.011 0.060-0.017 0.13-0.017 0.2 0 0.655 0.531 1.185 1.185 1.185 0.208 0 0.404-0.054 0.574-0.148l-0.006 0.003 8.829-4.815 8.829 4.815c0.164 0.091 0.36 0.145 0.568 0.145 0.655 0 1.185-0.531 1.185-1.185 0-0.071-0.006-0.14-0.018-0.207l0.001 0.007-1.688-9.891 7.162-7.014c0.22-0.215 0.357-0.516 0.357-0.848 0-0.595-0.438-1.088-1.010-1.172l-0.006-0.001-9.894-1.431-4.421-9.002c-0.197-0.397-0.6-0.664-1.065-0.664-0 0-0 0-0 0v0zM16.593 4.072l3.634 7.398c0.172 0.345 0.499 0.592 0.887 0.65l0.006 0.001 8.139 1.178-5.891 5.771c-0.219 0.215-0.355 0.515-0.355 0.846 0 0.070 0.006 0.139 0.018 0.206l-0.001-0.007 1.38 8.095-7.25-3.954c-0.164-0.091-0.359-0.144-0.567-0.144s-0.403 0.054-0.573 0.148l0.006-0.003-7.25 3.954 1.38-8.095c0.011-0.060 0.017-0.128 0.017-0.198 0-0.331-0.136-0.63-0.354-0.845l-5.891-5.771 8.139-1.178c0.395-0.059 0.721-0.305 0.89-0.644l0.003-0.007z"></path>
</svg>
