<!-- Generated by IcoMoon.io -->
<svg version="1.1" xmlns="http://www.w3.org/2000/svg" width="32" height="32" viewBox="0 0 32 32">
<title>sync</title>
<path d="M20.145 6.495l-2.222-3.333c-0.341-0.511-1.029-0.649-1.541-0.307-0.511 0.34-0.649 1.030-0.307 1.54l1.070 1.607h-7.367c-2.451 0-4.444 1.994-4.444 4.444v11.11c0 2.45 1.993 4.444 4.444 4.444 0.614 0 1.111-0.497 1.111-1.111s-0.497-1.111-1.111-1.111c-1.226 0-2.222-0.997-2.222-2.222v-11.11c0-1.227 0.997-2.222 2.222-2.222h7.367l-1.070 1.606c-0.341 0.51-0.203 1.2 0.307 1.541 0.512 0.34 1.2 0.203 1.541-0.309l2.222-3.333c0.249-0.373 0.249-0.859 0-1.232v0.001zM12.741 25.505l2.222 3.333c0.341 0.511 1.029 0.649 1.541 0.307 0.511-0.34 0.649-1.030 0.308-1.54l-1.070-1.607h7.367c2.451 0 4.444-1.994 4.444-4.444v-11.11c0-2.45-1.993-4.444-4.444-4.444-0.614 0-1.111 0.497-1.111 1.111s0.497 1.111 1.111 1.111c1.226 0 2.222 0.997 2.222 2.222v11.11c0 1.227-0.997 2.222-2.222 2.222h-7.367l1.070-1.606c0.341-0.51 0.203-1.2-0.308-1.541-0.512-0.34-1.2-0.203-1.541 0.309l-2.222 3.333c-0.249 0.373-0.249 0.859 0 1.232v-0.001z"></path>
</svg>
