<!-- Generated by IcoMoon.io -->
<svg version="1.1" xmlns="http://www.w3.org/2000/svg" width="32" height="32" viewBox="0 0 32 32">
<title>tag</title>
<path d="M29.333 2.667h-10.908c-0.167 0-0.317 0.068-0.426 0.179l-15.156 15.165c-0.109 0.109-0.177 0.26-0.177 0.426s0.068 0.317 0.177 0.426l10.287 10.299c0.11 0.106 0.261 0.172 0.426 0.172s0.316-0.066 0.426-0.172l15.173-15.161c0.11-0.109 0.178-0.259 0.179-0.426v-10.908zM25.741 9.096c0 1.832-1.485 3.317-3.315 3.317s-3.315-1.485-3.315-3.317c0-1.83 1.482-3.314 3.311-3.317 0.001 0 0.003 0 0.004 0 1.831 0 3.315 1.485 3.315 3.317z"></path>
</svg>
