<!-- Generated by IcoMoon.io -->
<svg version="1.1" xmlns="http://www.w3.org/2000/svg" width="39" height="32" viewBox="0 0 39 32">
<title>task-list-outline</title>
<path d="M-0 3.911c0 2.16 1.751 3.911 3.911 3.911s3.911-1.751 3.911-3.911c0-2.16-1.751-3.911-3.911-3.911s-3.911 1.751-3.911 3.911zM39.111 1.956v3.911h-27.378v-3.911h27.378zM39.111 17.6v-3.911h-27.378v3.911h27.378zM39.111 29.333v-3.911h-27.378v3.911h27.378zM-0 27.378c0 2.16 1.751 3.911 3.911 3.911s3.911-1.751 3.911-3.911c0-2.16-1.751-3.911-3.911-3.911s-3.911 1.751-3.911 3.911zM3.911 19.556c-2.16 0-3.911-1.751-3.911-3.911s1.751-3.911 3.911-3.911 3.911 1.751 3.911 3.911c0 2.16-1.751 3.911-3.911 3.911z"></path>
</svg>
