<!-- Generated by IcoMoon.io -->
<svg version="1.1" xmlns="http://www.w3.org/2000/svg" width="32" height="32" viewBox="0 0 32 32">
<title>task-add</title>
<path d="M16.978 20.658h4.014v-1.365h-6.837c-0.108-0.011-0.208-0.060-0.282-0.139s-0.118-0.181-0.123-0.289c-0-0.111 0.041-0.218 0.116-0.299s0.178-0.132 0.289-0.14h6.837v-1.782h3.147v-13.537c-0.003-0.118-0.052-0.229-0.136-0.312s-0.197-0.128-0.315-0.128h-20.57c-0.118-0-0.231 0.046-0.315 0.128s-0.133 0.194-0.136 0.312v20.56c-0.002 0.060 0.009 0.119 0.031 0.175s0.055 0.106 0.098 0.148c0.042 0.042 0.093 0.075 0.148 0.098s0.115 0.033 0.175 0.031h13.883v-3.471l-0.023 0.012zM14.155 10.476h7.057c0.058-0.005 0.117 0.004 0.171 0.026s0.103 0.057 0.141 0.101c0.041 0.041 0.074 0.089 0.096 0.143s0.033 0.111 0.032 0.169c0 0.117-0.046 0.228-0.129 0.311s-0.194 0.129-0.311 0.129h-7.057c-0.109-0.011-0.211-0.062-0.286-0.143s-0.117-0.186-0.119-0.296c-0-0.111 0.041-0.218 0.116-0.299s0.178-0.132 0.289-0.14zM12.744 15.637l-4.431 4.385c-0.084 0.081-0.196 0.126-0.312 0.126s-0.228-0.045-0.312-0.126l-1.782-1.735c-0.076-0.081-0.119-0.189-0.119-0.301s0.043-0.219 0.119-0.301c0.080-0.079 0.188-0.124 0.301-0.124s0.221 0.044 0.301 0.124l1.481 1.411 4.072-4.084c0.041-0.041 0.090-0.074 0.143-0.096s0.111-0.034 0.169-0.034c0.058 0 0.116 0.011 0.169 0.034s0.102 0.055 0.143 0.096h0.058c0.041 0.041 0.074 0.089 0.096 0.143s0.034 0.111 0.034 0.169-0.011 0.116-0.034 0.169c-0.022 0.054-0.055 0.102-0.096 0.143zM12.744 7.295l-4.431 4.373c-0.041 0.041-0.090 0.074-0.143 0.096s-0.111 0.034-0.169 0.034c-0.058 0-0.116-0.011-0.169-0.034s-0.102-0.055-0.143-0.096l-1.782-1.77c-0.083-0.083-0.129-0.195-0.129-0.312s0.047-0.23 0.129-0.312c0.083-0.083 0.195-0.129 0.312-0.129s0.23 0.047 0.312 0.129l1.458 1.492 4.095-4.13c0.051-0.066 0.119-0.116 0.196-0.144s0.162-0.035 0.243-0.018c0.083 0.020 0.159 0.063 0.218 0.125s0.1 0.138 0.117 0.222c0.030 0.082 0.035 0.17 0.014 0.255s-0.066 0.161-0.13 0.22z"></path>
<path d="M29.333 21.815h-4.015l0.012-4.015h-3.181v4.015h-4.015v3.182h4.015v4.015h3.181l-0.012-4.015h4.015v-3.182z"></path>
</svg>
