<!-- Generated by IcoMoon.io -->
<svg version="1.1" xmlns="http://www.w3.org/2000/svg" width="32" height="32" viewBox="0 0 32 32">
<title>team</title>
<path d="M8.779 11.556h-5.556c-0.307 0-0.556 0.249-0.556 0.556v3.333c0 1.203 0.373 1.922 1.111 2.147v4.52c0 0.307 0.249 0.556 0.556 0.556h3.333c0.307 0 0.556-0.249 0.556-0.556v-4.52c0.737-0.226 1.11-0.943 1.111-2.147v-3.333c0-0.307-0.249-0.556-0.556-0.556h0.001zM6.002 10.445c1.226 0 2.222-0.997 2.222-2.222s-0.997-2.222-2.222-2.222-2.222 0.996-2.222 2.222c0 1.226 0.997 2.222 2.222 2.222zM28.778 11.556h-5.556c-0.307 0-0.556 0.249-0.556 0.556v3.333c0 1.203 0.373 1.922 1.111 2.147v4.52c0 0.307 0.249 0.556 0.556 0.556h3.333c0.307 0 0.556-0.249 0.556-0.556v-4.52c0.737-0.226 1.11-0.943 1.111-2.147v-3.333c0-0.307-0.249-0.556-0.556-0.556h0.001zM26.001 10.445c1.226 0 2.222-0.997 2.222-2.222s-0.997-2.222-2.222-2.222c-1.226 0-2.222 0.996-2.222 2.222s0.997 2.222 2.222 2.222zM18.779 8.223h-5.556c-0.307 0-0.556 0.249-0.556 0.556v3.333c0 1.203 0.373 1.922 1.111 2.147v4.52c0 0.307 0.249 0.556 0.556 0.556h3.333c0.307 0 0.556-0.249 0.556-0.556v-4.52c0.737-0.226 1.11-0.943 1.111-2.147v-3.333c0-0.307-0.249-0.556-0.556-0.556h0.001zM16.001 7.112c1.226 0 2.223-0.997 2.223-2.222s-0.997-2.222-2.223-2.222c-1.226 0-2.222 0.996-2.222 2.222s0.997 2.222 2.222 2.222zM28.778 23.778h-7.222v-2.777c0-0.307-0.249-0.556-0.556-0.556h-10c-0.307 0-0.556 0.249-0.556 0.556v2.777h-7.222c-0.307 0-0.556 0.249-0.556 0.556v4.444c0 0.307 0.249 0.556 0.556 0.556h25.555c0.307 0 0.556-0.249 0.556-0.556v-4.444c0-0.307-0.249-0.556-0.556-0.556h0.001z"></path>
</svg>
