<!-- Generated by IcoMoon.io -->
<svg version="1.1" xmlns="http://www.w3.org/2000/svg" width="32" height="32" viewBox="0 0 32 32">
<title>teamcare</title>
<path d="M7.63 19.834c1.532 0 2.779 1.248 2.779 2.779 0 0.826-0.37 1.562-0.945 2.071 0.67 0.303 1.247 0.767 1.696 1.337-0.466 0.818-0.754 1.75-0.754 2.756v0.556h-6.718c-0.307 0-0.556-0.249-0.556-0.556 0-1.824 1.095-3.39 2.661-4.095-0.573-0.509-0.942-1.244-0.942-2.069 0-1.532 1.247-2.779 2.779-2.779v0.001zM24.307 19.834c1.532 0 2.779 1.248 2.779 2.779 0 0.827-0.37 1.562-0.945 2.073 1.517 0.683 2.595 2.173 2.659 3.926 0.017 0.053 0.026 0.108 0.026 0.166 0 0.308-0.249 0.556-0.556 0.556h-6.647v-0.556c0-1.035-0.302-1.993-0.793-2.826 0.442-0.538 0.998-0.978 1.64-1.267-0.573-0.509-0.942-1.244-0.942-2.070 0-1.532 1.247-2.779 2.779-2.779v-0.001zM16.015 19.834c1.532 0 2.779 1.248 2.779 2.779 0 0.827-0.37 1.562-0.945 2.073 1.517 0.683 2.595 2.173 2.659 3.926 0.017 0.053 0.026 0.108 0.026 0.166 0 0.308-0.249 0.556-0.556 0.556h-7.903c-0.307 0-0.556-0.247-0.556-0.556 0-1.823 1.095-3.388 2.659-4.093-0.573-0.509-0.943-1.243-0.943-2.070 0-1.532 1.247-2.779 2.779-2.779v-0.001zM16.015 2.667c2.007 0 3.64 1.632 3.64 3.639 0 1.218-0.606 2.29-1.528 2.951 1.934 0.809 3.311 2.694 3.377 4.902 0.016 0.053 0.023 0.108 0.023 0.164 0 0.307-0.249 0.556-0.556 0.556h-4.4v1.112h7.782c0.307 0 0.556 0.249 0.556 0.556v1.088c0 0.308-0.249 0.556-0.556 0.556s-0.556-0.247-0.556-0.556v-0.532h-7.227v0.532c0 0.308-0.249 0.556-0.556 0.556s-0.556-0.247-0.556-0.556v-0.532h-7.227v0.532c0 0.308-0.249 0.556-0.556 0.556s-0.556-0.247-0.556-0.556v-1.088c0-0.307 0.249-0.556 0.556-0.556h7.782v-1.112h-4.378c-0.307 0-0.556-0.249-0.556-0.556 0-2.279 1.397-4.237 3.378-5.065-0.922-0.66-1.527-1.734-1.527-2.952 0-2.007 1.632-3.639 3.639-3.639h-0.001z"></path>
</svg>
