<!-- Generated by IcoMoon.io -->
<svg version="1.1" xmlns="http://www.w3.org/2000/svg" width="32" height="32" viewBox="0 0 32 32">
<title>teamcare-2</title>
<path d="M16 10.8c-1.867 0-3.467-1.6-3.467-3.467s1.6-3.467 3.467-3.467 3.467 1.6 3.467 3.467-1.6 3.467-3.467 3.467zM16 5.2c-1.2 0-2.133 0.933-2.133 2.133s0.933 2.133 2.133 2.133 2.133-0.933 2.133-2.133-0.933-2.133-2.133-2.133z"></path>
<path d="M23.733 10.8c-1.333 0-2.4-1.067-2.4-2.4s1.067-2.4 2.4-2.4 2.4 1.067 2.4 2.4-1.067 2.4-2.4 2.4zM23.733 7.467c-0.533 0-1.067 0.4-1.067 1.067s0.4 1.067 1.067 1.067 1.067-0.4 1.067-1.067-0.533-1.067-1.067-1.067z"></path>
<path d="M8.267 10.8c-1.333 0-2.4-1.067-2.4-2.4s1.067-2.4 2.4-2.4 2.4 1.067 2.4 2.4-1.2 2.4-2.4 2.4zM8.267 7.467c-0.533 0-1.067 0.4-1.067 1.067s0.4 1.067 1.067 1.067 1.067-0.4 1.067-1.067-0.533-1.067-1.067-1.067z"></path>
<path d="M16 28.533c-1.333 0-13.467-0.133-13.467-2.933 0-0.533 0-2 7.733-2.667 0.4 0 0.667 0.267 0.667 0.667s-0.267 0.667-0.667 0.667c-4.267 0.4-6 1.067-6.533 1.333 0.8 0.533 4.8 1.6 12 1.6s11.2-0.933 12-1.6c-0.4-0.267-2.133-0.933-6.533-1.333-0.4 0-0.667-0.4-0.667-0.667 0-0.4 0.4-0.667 0.667-0.667 7.867 0.667 7.867 2.133 7.867 2.667 0.4 2.933-11.733 2.933-13.067 2.933z"></path>
<path d="M18.8 22.933h-5.6c-0.4 0-0.667-0.267-0.667-0.667v-7.2c0-0.933 0.4-1.733 1.067-2.4 1.333-1.333 3.6-1.333 4.933 0 0.667 0.667 1.067 1.467 1.067 2.4v7.2c-0.133 0.4-0.4 0.667-0.8 0.667zM13.867 21.6h4.267v-6.533c0-0.533-0.267-1.067-0.667-1.467-0.8-0.8-2.133-0.8-2.933 0-0.4 0.4-0.667 0.933-0.667 1.467v6.533z"></path>
<path d="M25.467 20.8h-3.333c-0.4 0-0.667-0.267-0.667-0.667v-6.133c0-0.667 0.267-1.2 0.667-1.6 0.933-0.933 2.4-0.933 3.333 0 0.4 0.4 0.667 1.067 0.667 1.6v6.133c0 0.4-0.267 0.667-0.667 0.667zM22.8 19.467h2v-5.467c0-0.267-0.133-0.533-0.267-0.667-0.4-0.4-1.067-0.4-1.467 0-0.133 0.133-0.267 0.4-0.267 0.667v5.467z"></path>
<path d="M9.867 20.8h-3.333c-0.4 0-0.667-0.267-0.667-0.667v-6.133c0-0.667 0.267-1.2 0.667-1.6 0.933-0.933 2.4-0.933 3.333 0 0.4 0.4 0.667 1.067 0.667 1.6v6.133c0 0.4-0.267 0.667-0.667 0.667zM7.2 19.467h2v-5.467c0-0.267-0.133-0.533-0.267-0.667-0.4-0.4-1.067-0.4-1.467 0-0.133 0.133-0.267 0.4-0.267 0.667v5.467z"></path>
</svg>
