<!-- Generated by IcoMoon.io -->
<svg version="1.1" xmlns="http://www.w3.org/2000/svg" width="32" height="32" viewBox="0 0 32 32">
<title>teammembers</title>
<path d="M25.978 16.275c0.83-0.629 1.374-1.617 1.374-2.736 0-1.9-1.544-3.444-3.445-3.444-0.923 0-1.76 0.371-2.379 0.966 0.124 0.474 0.211 0.962 0.211 1.475 0 1.016-0.28 1.961-0.743 2.79 0.226 0.364 0.504 0.695 0.845 0.952-0.292 0.129-0.567 0.292-0.832 0.47 1.514 1.189 2.603 2.882 3.020 4.83h4.471c0.318 0 0.574-0.256 0.574-0.574 0-2.112-1.277-3.927-3.097-4.727l0.001-0.001z"></path>
<path d="M10.735 16.751c-0.265-0.179-0.543-0.342-0.837-0.472 0.342-0.258 0.62-0.589 0.848-0.953-0.464-0.829-0.744-1.774-0.744-2.79 0-0.513 0.087-1.001 0.211-1.477-0.619-0.593-1.456-0.965-2.379-0.965-1.9 0-3.445 1.544-3.445 3.445 0 1.119 0.544 2.107 1.374 2.736-1.82 0.801-3.097 2.616-3.097 4.727 0 0.317 0.256 0.574 0.574 0.574h4.473c0.416-1.946 1.505-3.639 3.021-4.826v0.001z"></path>
<path d="M23.077 23.148c-0.070-3.038-2.033-5.612-4.75-6.601 1.353-0.832 2.264-2.313 2.264-4.012 0-2.603-2.117-4.72-4.72-4.72s-4.72 2.117-4.72 4.72c0 1.699 0.913 3.181 2.264 4.012-2.767 1.007-4.751 3.657-4.751 6.769 0 0.318 0.256 0.574 0.574 0.559h13.289c0.317 0 0.574-0.241 0.574-0.559 0-0.058-0.008-0.115-0.024-0.167l-0.001-0.001z"></path>
</svg>
