<!-- Generated by IcoMoon.io -->
<svg version="1.1" xmlns="http://www.w3.org/2000/svg" width="32" height="32" viewBox="0 0 32 32">
<title>thumbs-up</title>
<path d="M7.667 12.841c0.306 0 0.556 0.249 0.556 0.556v13.334c0 0.307-0.25 0.556-0.556 0.556h-4.444c-0.307 0-0.556-0.249-0.556-0.556v-13.334c0-0.307 0.249-0.556 0.556-0.556h4.444zM18.364 4c0.435 0 1.907 0.197 2.615 2.721 0.465 1.655-0.399 4.686-0.868 6.119h6.999c1.226 0 2.223 0.997 2.223 2.223 0 0.969-0.621 1.793-1.487 2.098 0.238 0.354 0.377 0.779 0.377 1.235 0 0.969-0.621 1.793-1.487 2.098 0.238 0.354 0.377 0.779 0.377 1.235 0 0.969-0.621 1.793-1.487 2.098 0.238 0.354 0.377 0.779 0.377 1.235 0 1.226-0.997 2.223-2.223 2.223h-6.111c-1.775 0-2.708-0.403-3.697-0.831-0.857-0.37-2.384-0.79-4.159-1.044-0.274-0.039-0.478-0.272-0.478-0.549v-9.444c0-0.308 0.249-0.556 0.556-0.556 2.834 0 6.667-5.38 6.667-8.889 0-1.124 0.778-1.971 1.809-1.971l-0.001-0.001zM6.555 23.952c-0.307 0-0.556 0.248-0.556 0.556 0 0.305 0.249 0.556 0.556 0.556 0.306 0 0.556-0.25 0.556-0.556 0-0.308-0.25-0.556-0.556-0.556z"></path>
</svg>
