<!-- Generated by IcoMoon.io -->
<svg version="1.1" xmlns="http://www.w3.org/2000/svg" width="32" height="32" viewBox="0 0 32 32">
<title>today-outline</title>
<path d="M13.756 23.949c-1.267-0.017-2.289-1.039-2.306-2.305l-0-0.009 0-1.022h-7.385l-0.064 0.111v6.804h24v-6.805l-0.064-0.11h-6.833v1.004c0 1.288-1.044 2.333-2.333 2.333l-5.015-0zM29.261 20.239c0.029 0.052 0.050 0.11 0.062 0.17 0.007 0.035 0.011 0.072 0.011 0.109v7.787c0 0.307-0.249 0.555-0.555 0.555h-25.556c-0.306 0-0.555-0.249-0.555-0.555v-7.787c0-0.102 0.028-0.199 0.073-0.28l3.876-6.675c0.095-0.164 0.271-0.273 0.473-0.273h1.118v-9.47c0-0.306 0.249-0.555 0.555-0.555h14.455c0.306 0 0.555 0.249 0.555 0.555v9.47h1.14c0.201 0 0.379 0.109 0.474 0.275l3.874 6.672zM7.542 14.625l-2.703 4.655h6.722c0.675 0 1.222 0.547 1.222 1.222v1.128c0.009 0.54 0.445 0.977 0.987 0.986h5.001c0.552 0 0.999-0.447 0.999-0.999v-1.115c0-0.675 0.547-1.222 1.222-1.222h6.17l-2.703-4.655h-0.686v2.982c0 0.675-0.547 1.222-1.222 1.222h-13.123c-0.675 0-1.222-0.547-1.222-1.222v-2.982h-0.666zM9.541 14.625v2.87h12.9v-2.87l-0.001-10.025h-12.899l-0 10.025zM28.085 20.869l0.015 0.025c-0.005-0.008-0.010-0.016-0.015-0.025z"></path>
<path d="M10.667 6.667c0-0.368 0.298-0.667 0.667-0.667h2c0.368 0 0.667 0.298 0.667 0.667s-0.299 0.667-0.667 0.667h-2c-0.368 0-0.667-0.298-0.667-0.667zM12.667 9.333c0-0.368 0.298-0.667 0.667-0.667h7.333c0.368 0 0.667 0.298 0.667 0.667s-0.299 0.667-0.667 0.667h-7.333c-0.368 0-0.667-0.298-0.667-0.667zM10.667 11.333c0-0.368 0.298-0.667 0.667-0.667h9.333c0.368 0 0.667 0.298 0.667 0.667s-0.299 0.667-0.667 0.667h-9.333c-0.368 0-0.667-0.298-0.667-0.667zM10.667 13.333c0-0.368 0.298-0.667 0.667-0.667h9.333c0.368 0 0.667 0.298 0.667 0.667s-0.299 0.667-0.667 0.667h-9.333c-0.368 0-0.667-0.299-0.667-0.667zM10.667 15.333c0-0.368 0.298-0.667 0.667-0.667h9.333c0.368 0 0.667 0.299 0.667 0.667s-0.299 0.667-0.667 0.667h-9.333c-0.368 0-0.667-0.299-0.667-0.667z"></path>
</svg>
