<!-- Generated by IcoMoon.io -->
<svg version="1.1" xmlns="http://www.w3.org/2000/svg" width="32" height="32" viewBox="0 0 32 32">
<title>today-ns</title>
<path d="M7.841 1.467c-0.368 0-0.667 0.298-0.667 0.667v8.704l-0.015-0h-1.141c-0.261 0-0.498 0.152-0.607 0.39l-3.346 7.333c-0.043 0.088-0.067 0.187-0.067 0.292v10.953c0 0.368 0.298 0.667 0.667 0.667h26.667c0.368 0 0.667-0.298 0.667-0.667v-10.953c0-0.105-0.024-0.204-0.067-0.292l-3.346-7.318c-0.109-0.237-0.345-0.389-0.606-0.389h-1.389v-8.719c0-0.368-0.298-0.667-0.667-0.667h-16.084zM24.591 12.185h0.961l2.743 6h-8.010c-0.368 0-0.667 0.298-0.667 0.667v2.928h-7.175v-2.928c0-0.368-0.298-0.667-0.667-0.667h-8.073l2.744-6.015 0.727-0v4.661c0 0.368 0.298 0.667 0.667 0.667s0.667-0.299 0.667-0.667v-14.031h14.75v14.031c0 0.368 0.299 0.667 0.667 0.667s0.667-0.299 0.667-0.667v-4.646zM3.333 29.139v-9.62h7.776v2.928c0 0.368 0.298 0.667 0.667 0.667h8.509c0.368 0 0.667-0.299 0.667-0.667v-2.928h7.715v9.62h-25.333zM10 6.64c0 0.368 0.298 0.667 0.667 0.667h10.497c0.368 0 0.667-0.298 0.667-0.667s-0.298-0.667-0.667-0.667h-10.497c-0.368 0-0.667 0.298-0.667 0.667zM10.667 8.846h10.497c0.368 0 0.667 0.298 0.667 0.667s-0.298 0.667-0.667 0.667h-10.497c-0.368 0-0.667-0.298-0.667-0.667s0.298-0.667 0.667-0.667zM10.031 12.393c0 0.368 0.298 0.667 0.667 0.667h10.497c0.368 0 0.667-0.298 0.667-0.667s-0.299-0.667-0.667-0.667h-10.497c-0.368 0-0.667 0.298-0.667 0.667zM10.698 14.606h10.497c0.368 0 0.667 0.298 0.667 0.667s-0.299 0.667-0.667 0.667h-10.497c-0.368 0-0.667-0.299-0.667-0.667s0.298-0.667 0.667-0.667z"></path>
</svg>
