<!-- Generated by IcoMoon.io -->
<svg version="1.1" xmlns="http://www.w3.org/2000/svg" width="32" height="32" viewBox="0 0 32 32">
<title>today-complete</title>
<path d="M20.516 10.975c-0.083 0.088-0.199 0.142-0.322 0.144h-0.011c-0.119 0-0.234-0.046-0.319-0.129l-1.791-1.714c-0.181-0.174-0.186-0.466-0.009-0.646 0.175-0.181 0.465-0.186 0.647-0.010l1.457 1.389 3.43-3.65c0.173-0.184 0.464-0.192 0.647-0.019s0.193 0.463 0.020 0.647l-3.748 3.988zM15.273 8.617c0 3.281 2.669 5.95 5.95 5.95s5.95-2.669 5.95-5.95c0-3.281-2.669-5.95-5.95-5.95s-5.95 2.669-5.95 5.95zM20.44 22.009c-0.253 0.001-0.457 0.205-0.457 0.458v0.916c0 0.757-0.617 1.373-1.373 1.373h-4.12c-0.757 0-1.373-0.616-1.373-1.373v-0.916c0-0.253-0.204-0.458-0.458-0.458h-6.069l2.67-4.577h0.652v3.204c0 0.253 0.206 0.458 0.458 0.458h11.902c0.252 0 0.458-0.205 0.458-0.458v-3.204h0.653l2.669 4.577h-5.612zM13.117 18.348h6.409c0.252 0 0.458 0.206 0.458 0.458s-0.206 0.458-0.458 0.458h-6.409c-0.252 0-0.458-0.205-0.458-0.458s0.206-0.458 0.458-0.458zM13.117 16.517h6.409c0.252 0 0.458 0.206 0.458 0.458s-0.206 0.458-0.458 0.458h-6.409c-0.252 0-0.458-0.205-0.458-0.458s0.206-0.458 0.458-0.458zM13.117 11.023h0.916c0.253 0 0.458 0.206 0.458 0.458s-0.205 0.458-0.458 0.458h-0.916c-0.252 0-0.458-0.205-0.458-0.458s0.206-0.458 0.458-0.458zM24.041 16.744c-0.082-0.141-0.234-0.227-0.395-0.227h-0.916v-1.205c-0.485 0.109-0.988 0.171-1.506 0.171-0.444 0-0.879-0.046-1.299-0.127-0.077 0.143-0.225 0.246-0.4 0.246h-6.409c-0.252 0-0.458-0.205-0.458-0.458s0.206-0.458 0.458-0.458h4.906c-0.476-0.253-0.918-0.562-1.321-0.916h-1.755c-0.252 0-0.458-0.205-0.458-0.458s0.206-0.458 0.458-0.458h0.886c-0.921-1.168-1.476-2.638-1.476-4.237 0-0.114 0.012-0.226 0.017-0.339h-4.005c-0.252 0-0.458 0.206-0.458 0.458v7.781h-0.916c-0.162 0-0.313 0.086-0.395 0.227l-3.204 5.492c-0.040 0.070-0.062 0.149-0.062 0.231v6.408c0 0.253 0.205 0.458 0.458 0.458h21.056c0.252 0 0.458-0.205 0.458-0.458v-6.408c0-0.082-0.021-0.161-0.062-0.231l-3.203-5.492z"></path>
</svg>
