<!-- Generated by IcoMoon.io -->
<svg version="1.1" xmlns="http://www.w3.org/2000/svg" width="32" height="32" viewBox="0 0 32 32">
<title>today</title>
<path d="M29.261 20.239l-3.874-6.672c-0.096-0.166-0.273-0.275-0.474-0.275-0.001 0-0.003 0-0.003 0h-1.136v-9.47c0-0.306-0.249-0.555-0.555-0.555h-14.455c-0.306 0-0.555 0.249-0.555 0.555v9.47h-1.115c-0.001 0-0.002 0-0.003 0-0.202 0-0.379 0.109-0.473 0.273l-0.002 0.003-3.874 6.672c-0.046 0.081-0.073 0.177-0.073 0.28v7.787c0 0.307 0.249 0.555 0.555 0.555h25.556c0.307 0 0.555-0.249 0.555-0.555v-7.787c0-0.102-0.028-0.199-0.075-0.282l0.002 0.003h0.001zM14.32 8.845h5.544c0.307 0 0.555 0.249 0.555 0.555s-0.249 0.555-0.555 0.555h-5.544c-0.307 0-0.555-0.249-0.555-0.555s0.249-0.555 0.555-0.555zM12.116 6.603h1.111c0.306 0 0.555 0.249 0.555 0.555s-0.249 0.555-0.555 0.555h-1.111c-0.306 0-0.555-0.249-0.555-0.555s0.249-0.555 0.555-0.555zM12.116 11.049h7.748c0.318 0 0.575 0.257 0.575 0.575s-0.257 0.575-0.575 0.575h-7.748c-0.288-0.026-0.511-0.266-0.511-0.557s0.223-0.531 0.509-0.557h0.003l-0.001-0.036zM12.116 13.275h7.748c0.307 0 0.555 0.249 0.555 0.555s-0.249 0.555-0.555 0.555h-7.748c-0.306 0-0.555-0.249-0.555-0.555s0.249-0.555 0.555-0.555zM12.116 15.5h7.748c0.307 0 0.555 0.249 0.555 0.555s-0.249 0.555-0.555 0.555h-7.748c-0.306 0-0.555-0.249-0.555-0.555s0.249-0.555 0.555-0.555zM20.992 19.947c-0.307 0-0.555 0.249-0.555 0.555v1.115c0 0.92-0.745 1.666-1.666 1.666h-5.006c-0.906-0.012-1.637-0.743-1.649-1.648v-1.116c0-0.005 0-0.011 0-0.017 0-0.307-0.249-0.555-0.555-0.555-0.006 0-0.012 0-0.018 0h-7.373l3.241-5.561h0.796v3.896c0 0.307 0.249 0.555 0.555 0.555h14.455c0.306 0 0.555-0.249 0.555-0.555v-3.874h0.796l3.241 5.54h-6.818z"></path>
</svg>
