<!-- Generated by IcoMoon.io -->
<svg version="1.1" xmlns="http://www.w3.org/2000/svg" width="32" height="32" viewBox="0 0 32 32">
<title>todos</title>
<path d="M29.333 3.213v25.561c0 0.002 0 0.003 0 0.004 0 0.306-0.248 0.555-0.554 0.555-0.002 0-0.004 0-0.005 0h-25.549c-0.309 0-0.559-0.25-0.559-0.559v-25.561c0.005-0.303 0.251-0.546 0.554-0.546 0.002 0 0.004 0 0.004 0h25.549c0.304 0 0.551 0.243 0.559 0.545v0.001zM6.685 11.658l2.218 2.193c0.099 0.099 0.237 0.161 0.389 0.161s0.288-0.061 0.389-0.161l5.434-5.479c0.133-0.1 0.218-0.259 0.218-0.437 0-0.302-0.244-0.546-0.546-0.546-0.172 0-0.326 0.080-0.426 0.205l-0.001 0.001-5.088 5.093-1.805-1.803c-0.099-0.1-0.238-0.163-0.39-0.163-0.303 0-0.549 0.246-0.549 0.55 0 0.151 0.060 0.287 0.159 0.386h-0.001zM15.113 18.011c-0.099-0.099-0.237-0.161-0.389-0.161s-0.288 0.061-0.389 0.161l-5.065 5.079-1.805-1.776c-0.096-0.086-0.224-0.139-0.364-0.139-0.302 0-0.546 0.244-0.546 0.546 0 0.134 0.049 0.258 0.13 0.353l-0.001-0.001 2.218 2.193c0.098 0.099 0.235 0.16 0.386 0.16s0.287-0.061 0.386-0.16l5.46-5.479c0.099-0.099 0.161-0.237 0.161-0.389s-0.061-0.289-0.161-0.389l-0.021 0.002zM26.246 22.78c0-0.302-0.244-0.546-0.546-0.546-0.002 0-0.003 0-0.004 0h-8.76c-0.282 0.026-0.5 0.262-0.5 0.548s0.219 0.522 0.499 0.548h8.762c0.002 0 0.003 0 0.004 0 0.302 0 0.546-0.244 0.546-0.546 0-0.002 0-0.004 0-0.005v0.001zM26.246 12.914c0-0.302-0.244-0.546-0.546-0.546-0.002 0-0.003 0-0.004 0h-8.76c-0.282 0.026-0.5 0.262-0.5 0.548s0.219 0.522 0.499 0.548h8.762c0.303 0 0.55-0.247 0.55-0.551v0.001z"></path>
</svg>
