<!-- Generated by IcoMoon.io -->
<svg version="1.1" xmlns="http://www.w3.org/2000/svg" width="32" height="32" viewBox="0 0 32 32">
<title>trash-can</title>
<path d="M27.667 6h-7.777v-2.777c0-0.307-0.248-0.556-0.556-0.556h-8.889c-0.307 0-0.556 0.248-0.556 0.556v2.777h-6.666c-0.307 0-0.556 0.248-0.556 0.556s0.248 0.556 0.556 0.556h2.222v21.666c0 0.307 0.248 0.556 0.556 0.556h17.777c0.307 0 0.556-0.248 0.556-0.556v-21.666h3.333c0.307 0 0.556-0.248 0.556-0.556s-0.248-0.556-0.556-0.556zM11.001 23.222c0 0.307-0.248 0.556-0.556 0.556s-0.556-0.248-0.556-0.556v-12.222c0-0.307 0.248-0.556 0.556-0.556s0.556 0.248 0.556 0.556v12.222zM11.001 3.777h7.777v2.222h-7.777v-2.222zM15.445 23.222c0 0.307-0.248 0.556-0.556 0.556s-0.556-0.248-0.556-0.556v-12.222c0-0.307 0.248-0.556 0.556-0.556s0.556 0.248 0.556 0.556v12.222zM19.889 23.222c0 0.307-0.248 0.556-0.556 0.556s-0.556-0.248-0.556-0.556v-12.222c0-0.307 0.248-0.556 0.556-0.556s0.556 0.248 0.556 0.556v12.222z"></path>
</svg>
