<!-- Generated by IcoMoon.io -->
<svg version="1.1" xmlns="http://www.w3.org/2000/svg" width="30" height="32" viewBox="0 0 30 32">
<title>trashcan-outline</title>
<path d="M15.238 0.381c-0.631 0-1.143 0.512-1.143 1.143v0 2.667h-12.571c-0.631 0-1.143 0.512-1.143 1.143v0c0 0.631 0.512 1.143 1.143 1.143v0h2.667v20.952c0 2.301 1.89 4.19 4.19 4.19h13.714c2.301 0 4.19-1.89 4.19-4.19v-20.952h2.667c0.631 0 1.143-0.512 1.143-1.143v0c0-0.631-0.512-1.143-1.143-1.143v0h-12.571v-2.667c0-0.631-0.512-1.143-1.143-1.143v0zM6.476 6.476h17.524v20.952c0 1.066-0.839 1.905-1.905 1.905h-13.714c-1.066 0-1.905-0.839-1.905-1.905zM9.905 8.762c-0.631 0-1.143 0.512-1.143 1.143v0 16c0 0.631 0.512 1.143 1.143 1.143v0c0.631 0 1.143-0.512 1.143-1.143v0-16c0-0.631-0.512-1.143-1.143-1.143v0zM15.238 8.762c-0.631 0-1.143 0.512-1.143 1.143v0 16c0 0.631 0.512 1.143 1.143 1.143v0c0.631 0 1.143-0.512 1.143-1.143v0-16c0-0.631-0.512-1.143-1.143-1.143v0zM20.571 8.762c-0.631 0-1.143 0.512-1.143 1.143v0 16c0 0.631 0.512 1.143 1.143 1.143v0c0.631 0 1.143-0.512 1.143-1.143v0-16c0-0.631-0.512-1.143-1.143-1.143v0z"></path>
</svg>
