<!-- Generated by IcoMoon.io -->
<svg version="1.1" xmlns="http://www.w3.org/2000/svg" width="32" height="32" viewBox="0 0 32 32">
<title>twitter</title>
<path d="M29.333 7.895c-0.979 0.437-2.036 0.729-3.14 0.859 1.13-0.677 1.995-1.75 2.405-3.025-1.057 0.625-2.229 1.083-3.474 1.328-1-1.062-2.421-1.724-3.994-1.724-3.020 0-5.468 2.448-5.468 5.468 0 0.427 0.047 0.843 0.141 1.245-4.546-0.229-8.577-2.406-11.274-5.717-0.469 0.807-0.739 1.75-0.739 2.749 0 1.895 0.963 3.572 2.432 4.552-0.896-0.026-1.739-0.276-2.479-0.682 0 0.021 0 0.047 0 0.068 0 2.65 1.885 4.864 4.39 5.363-0.458 0.125-0.942 0.192-1.442 0.192-0.354 0-0.692-0.037-1.031-0.099 0.698 2.171 2.719 3.754 5.108 3.802-1.875 1.468-4.228 2.344-6.795 2.344-0.442 0-0.875-0.026-1.307-0.078 2.427 1.557 5.301 2.458 8.389 2.458 10.061 0 15.565-8.337 15.565-15.565 0-0.239-0.005-0.474-0.016-0.708 1.067-0.766 1.995-1.729 2.729-2.828v-0.001z"></path>
</svg>
