<!-- Generated by IcoMoon.io -->
<svg version="1.1" xmlns="http://www.w3.org/2000/svg" width="32" height="32" viewBox="0 0 32 32">
<title>uncategorized-2</title>
<path d="M25.489 4.979c0.826 0 1.498 0.659 1.498 1.469s-0.672 1.469-1.498 1.469c-0.826 0-1.498-0.659-1.498-1.469s0.672-1.469 1.498-1.469zM21.346 11.223l2.793-2.72c0.39 0.247 0.852 0.394 1.35 0.394 1.378 0 2.497-1.098 2.497-2.448s-1.12-2.448-2.497-2.448c-1.377 0-2.497 1.098-2.497 2.448 0 0.508 0.159 0.98 0.43 1.372l-2.78 2.708c-0.195 0.19-0.197 0.5-0.002 0.692 0.196 0.194 0.512 0.191 0.706 0.002z"></path>
<path d="M24.139 8.502l0.071-0.113-0.089-0.056-0.075 0.073 0.093 0.096zM23.422 7.82l0.093 0.096 0.081-0.079-0.064-0.093-0.11 0.076zM20.642 10.528l-0.093-0.095-0 0 0.093 0.095zM20.64 11.221l0.094-0.095-0-0-0.093 0.095zM25.489 5.113c0.755 0 1.365 0.602 1.365 1.336h0.267c0-0.886-0.734-1.602-1.632-1.602v0.267zM26.854 6.448c0 0.734-0.61 1.336-1.365 1.336v0.267c0.897 0 1.632-0.716 1.632-1.602h-0.267zM25.489 7.784c-0.755 0-1.365-0.602-1.365-1.336h-0.267c0 0.886 0.734 1.602 1.632 1.602v-0.267zM24.124 6.448c0-0.734 0.61-1.336 1.365-1.336v-0.267c-0.898 0-1.632 0.716-1.632 1.602h0.267zM21.439 11.318l2.793-2.72-0.186-0.191-2.793 2.72 0.186 0.191zM24.068 8.615c0.41 0.26 0.896 0.415 1.421 0.415v-0.267c-0.472 0-0.909-0.139-1.279-0.374l-0.143 0.225zM25.489 9.030c1.449 0 2.631-1.156 2.631-2.582h-0.267c0 1.274-1.058 2.315-2.364 2.315v0.267zM28.12 6.448c0-1.426-1.182-2.582-2.631-2.582v0.267c1.306 0 2.364 1.041 2.364 2.315h0.267zM25.489 3.867c-1.449 0-2.631 1.156-2.631 2.582h0.267c0-1.274 1.058-2.315 2.364-2.315v-0.267zM22.859 6.448c0 0.536 0.168 1.035 0.454 1.448l0.219-0.152c-0.257-0.37-0.407-0.817-0.407-1.296h-0.267zM23.329 7.725l-2.78 2.708 0.186 0.191 2.78-2.708-0.186-0.191zM20.549 10.433c-0.248 0.242-0.251 0.638-0.002 0.883l0.187-0.19c-0.141-0.14-0.14-0.364 0.002-0.502l-0.186-0.191zM20.546 11.316c0.248 0.245 0.648 0.242 0.893 0.003l-0.186-0.191c-0.143 0.139-0.376 0.141-0.519-0.001l-0.187 0.19z"></path>
<path d="M6.509 4.979c0.826 0 1.498 0.659 1.498 1.469s-0.672 1.469-1.498 1.469c-0.826 0-1.498-0.659-1.498-1.469s0.672-1.469 1.498-1.469zM6.509 8.897c0.498 0 0.96-0.147 1.35-0.394l2.793 2.72c0.194 0.189 0.51 0.192 0.706-0.002 0.195-0.192 0.193-0.502-0.002-0.692l-2.78-2.708c0.271-0.392 0.43-0.864 0.43-1.372 0-1.35-1.12-2.448-2.497-2.448s-2.497 1.098-2.497 2.448c0 1.35 1.12 2.448 2.497 2.448z"></path>
<path d="M7.859 8.502l0.093-0.096-0.075-0.073-0.089 0.056 0.071 0.113zM10.652 11.223l0.093-0.095-0-0-0.093 0.095zM11.358 11.221l-0.094-0.095-0 0 0.094 0.095zM11.356 10.528l0.093-0.095-0-0-0.093 0.095zM8.576 7.82l-0.11-0.076-0.064 0.093 0.081 0.079 0.093-0.096zM6.509 5.113c0.755 0 1.365 0.602 1.365 1.336h0.267c0-0.886-0.734-1.602-1.632-1.602v0.267zM7.874 6.448c0 0.734-0.61 1.336-1.365 1.336v0.267c0.897 0 1.632-0.716 1.632-1.602h-0.267zM6.509 7.784c-0.755 0-1.365-0.602-1.365-1.336h-0.267c0 0.886 0.734 1.602 1.632 1.602v-0.267zM5.144 6.448c0-0.734 0.61-1.336 1.365-1.336v-0.267c-0.897 0-1.632 0.716-1.632 1.602h0.267zM6.509 9.030c0.525 0 1.011-0.155 1.421-0.415l-0.143-0.225c-0.37 0.234-0.807 0.374-1.279 0.374v0.267zM7.766 8.598l2.793 2.72 0.186-0.191-2.793-2.72-0.186 0.191zM10.559 11.318c0.245 0.239 0.645 0.243 0.893-0.003l-0.187-0.19c-0.144 0.142-0.377 0.141-0.519 0.001l-0.186 0.191zM11.452 11.316c0.248-0.245 0.246-0.641-0.002-0.883l-0.186 0.191c0.142 0.138 0.143 0.362 0.002 0.502l0.187 0.19zM11.449 10.433l-2.78-2.708-0.186 0.191 2.78 2.708 0.186-0.191zM8.686 7.896c0.286-0.413 0.454-0.912 0.454-1.448h-0.267c0 0.479-0.15 0.926-0.407 1.296l0.219 0.152zM9.14 6.448c0-1.426-1.182-2.582-2.631-2.582v0.267c1.306 0 2.364 1.041 2.364 2.315h0.267zM6.509 3.867c-1.449 0-2.631 1.156-2.631 2.582h0.267c0-1.274 1.058-2.315 2.364-2.315v-0.267zM3.878 6.448c0 1.426 1.182 2.582 2.631 2.582v-0.267c-1.306 0-2.364-1.041-2.364-2.315h-0.267z"></path>
<path d="M25.489 26.219c0.826 0 1.498-0.659 1.498-1.469s-0.672-1.469-1.498-1.469c-0.826 0-1.498 0.659-1.498 1.469s0.672 1.469 1.498 1.469zM21.346 19.975l2.793 2.72c0.39-0.247 0.852-0.394 1.35-0.394 1.378 0 2.497 1.098 2.497 2.448s-1.12 2.448-2.497 2.448c-1.377 0-2.497-1.098-2.497-2.448 0-0.508 0.159-0.98 0.43-1.372l-2.78-2.708c-0.195-0.19-0.197-0.5-0.002-0.692 0.196-0.194 0.512-0.191 0.706-0.002z"></path>
<path d="M24.139 22.696l0.071 0.113-0.089 0.056-0.075-0.073 0.093-0.096zM23.422 23.378l0.093-0.095 0.081 0.079-0.064 0.093-0.11-0.076zM20.642 20.67l-0.093 0.096-0-0 0.093-0.095zM20.64 19.977l0.094 0.095-0 0-0.093-0.095zM25.489 26.085c0.755 0 1.365-0.602 1.365-1.336h0.267c0 0.886-0.734 1.602-1.632 1.602v-0.267zM26.854 24.75c0-0.734-0.61-1.336-1.365-1.336v-0.267c0.897 0 1.632 0.716 1.632 1.602h-0.267zM25.489 23.414c-0.755 0-1.365 0.602-1.365 1.336h-0.267c0-0.886 0.734-1.602 1.632-1.602v0.267zM24.124 24.75c0 0.734 0.61 1.336 1.365 1.336v0.267c-0.898 0-1.632-0.716-1.632-1.602h0.267zM21.439 19.88l2.793 2.72-0.186 0.191-2.793-2.72 0.186-0.191zM24.068 22.583c0.41-0.26 0.896-0.415 1.421-0.415v0.267c-0.472 0-0.909 0.139-1.279 0.374l-0.143-0.225zM25.489 22.168c1.449 0 2.631 1.156 2.631 2.582h-0.267c0-1.274-1.058-2.315-2.364-2.315v-0.267zM28.12 24.75c0 1.426-1.182 2.582-2.631 2.582v-0.267c1.306 0 2.364-1.041 2.364-2.315h0.267zM25.489 27.331c-1.449 0-2.631-1.156-2.631-2.582h0.267c0 1.274 1.058 2.315 2.364 2.315v0.267zM22.859 24.75c0-0.536 0.168-1.035 0.454-1.448l0.219 0.152c-0.257 0.37-0.407 0.817-0.407 1.296h-0.267zM23.329 23.473l-2.78-2.708 0.186-0.191 2.78 2.708-0.186 0.191zM20.549 20.765c-0.248-0.242-0.251-0.638-0.002-0.883l0.187 0.19c-0.141 0.139-0.14 0.364 0.002 0.502l-0.186 0.191zM20.546 19.883c0.248-0.245 0.648-0.242 0.893-0.003l-0.186 0.191c-0.143-0.139-0.376-0.141-0.519 0.001l-0.187-0.19z"></path>
<path d="M6.509 26.219c0.826 0 1.498-0.659 1.498-1.469s-0.672-1.469-1.498-1.469c-0.826 0-1.498 0.659-1.498 1.469s0.672 1.469 1.498 1.469zM6.509 22.301c0.498 0 0.96 0.147 1.35 0.394l2.793-2.72c0.194-0.189 0.51-0.192 0.706 0.002 0.195 0.192 0.193 0.502-0.002 0.692l-2.78 2.708c0.271 0.392 0.43 0.864 0.43 1.372 0 1.35-1.12 2.448-2.497 2.448s-2.497-1.098-2.497-2.448c0-1.35 1.12-2.448 2.497-2.448z"></path>
<path d="M7.859 22.696l0.093 0.096-0.075 0.073-0.089-0.056 0.071-0.113zM10.652 19.975l0.093 0.095-0 0-0.093-0.095zM11.358 19.977l-0.094 0.095-0-0 0.094-0.095zM11.356 20.67l0.093 0.095-0 0-0.093-0.096zM8.576 23.378l-0.11 0.076-0.064-0.093 0.081-0.079 0.093 0.095zM6.509 26.085c0.755 0 1.365-0.602 1.365-1.336h0.267c0 0.886-0.734 1.602-1.632 1.602v-0.267zM7.874 24.75c0-0.734-0.61-1.336-1.365-1.336v-0.267c0.897 0 1.632 0.716 1.632 1.602h-0.267zM6.509 23.414c-0.755 0-1.365 0.602-1.365 1.336h-0.267c0-0.886 0.734-1.602 1.632-1.602v0.267zM5.144 24.75c0 0.734 0.61 1.336 1.365 1.336v0.267c-0.897 0-1.632-0.716-1.632-1.602h0.267zM6.509 22.168c0.525 0 1.011 0.155 1.421 0.415l-0.143 0.225c-0.37-0.234-0.807-0.374-1.279-0.374v-0.267zM7.766 22.6l2.793-2.72 0.186 0.191-2.793 2.72-0.186-0.191zM10.559 19.88c0.245-0.239 0.645-0.243 0.893 0.003l-0.187 0.19c-0.144-0.142-0.377-0.141-0.519-0.001l-0.186-0.191zM11.452 19.882c0.248 0.245 0.246 0.641-0.002 0.883l-0.186-0.191c0.142-0.138 0.143-0.362 0.002-0.502l0.187-0.19zM11.449 20.765l-2.78 2.708-0.186-0.191 2.78-2.708 0.186 0.191zM8.686 23.302c0.286 0.413 0.454 0.912 0.454 1.448h-0.267c0-0.479-0.15-0.926-0.407-1.296l0.219-0.152zM9.14 24.75c0 1.426-1.182 2.582-2.631 2.582v-0.267c1.306 0 2.364-1.041 2.364-2.315h0.267zM6.509 27.331c-1.449 0-2.631-1.156-2.631-2.582h0.267c0 1.274 1.058 2.315 2.364 2.315v0.267zM3.878 24.75c0-1.426 1.182-2.582 2.631-2.582v0.267c-1.306 0-2.364 1.041-2.364 2.315h-0.267z"></path>
<path d="M26.837 14.365c0.826 0 1.498 0.659 1.498 1.469s-0.672 1.469-1.498 1.469-1.498-0.659-1.498-1.469c0-0.81 0.672-1.469 1.498-1.469zM29.333 15.834c0-1.35-1.12-2.448-2.497-2.448-1.207 0-2.214 0.842-2.447 1.959h-3.894c-0.276 0-0.499 0.219-0.499 0.49s0.223 0.49 0.499 0.49h3.894c0.232 1.116 1.24 1.959 2.447 1.959 1.377 0 2.497-1.098 2.497-2.448z"></path>
<path d="M24.389 15.344v0.133h0.109l0.022-0.106-0.131-0.027zM24.389 16.324l0.131-0.027-0.022-0.106h-0.109v0.133zM26.837 14.498c0.755 0 1.365 0.602 1.365 1.336h0.267c0-0.886-0.734-1.602-1.632-1.602v0.267zM28.202 15.834c0 0.734-0.61 1.336-1.365 1.336v0.267c0.897 0 1.632-0.716 1.632-1.602h-0.267zM26.837 17.17c-0.755 0-1.365-0.602-1.365-1.336h-0.267c0 0.886 0.734 1.602 1.632 1.602v-0.267zM25.472 15.834c0-0.734 0.61-1.336 1.365-1.336v-0.267c-0.897 0-1.632 0.716-1.632 1.602h0.267zM29.467 15.834c0-1.426-1.182-2.582-2.631-2.582v0.267c1.306 0 2.364 1.041 2.364 2.315h0.267zM26.836 13.252c-1.27 0-2.332 0.886-2.577 2.065l0.261 0.054c0.219-1.054 1.172-1.853 2.316-1.853v-0.267zM24.389 15.211h-3.894v0.267h3.894v-0.267zM20.496 15.211c-0.347 0-0.633 0.276-0.633 0.623h0.267c0-0.195 0.161-0.356 0.366-0.356v-0.267zM19.863 15.834c0 0.347 0.286 0.623 0.633 0.623v-0.267c-0.205 0-0.366-0.162-0.366-0.356h-0.267zM20.496 16.457h3.894v-0.267h-3.894v0.267zM24.259 16.351c0.245 1.178 1.308 2.065 2.577 2.065v-0.267c-1.144 0-2.097-0.798-2.316-1.853l-0.261 0.054zM26.836 18.416c1.449 0 2.631-1.156 2.631-2.582h-0.267c0 1.274-1.058 2.315-2.364 2.315v0.267z"></path>
<path d="M5.164 17.303c-0.826 0-1.498-0.659-1.498-1.469s0.672-1.469 1.498-1.469 1.498 0.659 1.498 1.469c0 0.81-0.672 1.469-1.498 1.469zM7.611 15.344c-0.232-1.116-1.24-1.959-2.447-1.959-1.378 0-2.497 1.098-2.497 2.448s1.12 2.448 2.497 2.448c1.207 0 2.214-0.842 2.447-1.959h3.894c0.276 0 0.499-0.219 0.499-0.49s-0.224-0.49-0.499-0.49h-3.894z"></path>
<path d="M7.611 15.344l-0.131 0.027 0.022 0.106h0.108v-0.133zM7.611 16.324v-0.133h-0.108l-0.022 0.106 0.131 0.027zM5.164 17.17c-0.755 0-1.365-0.602-1.365-1.336h-0.267c0 0.886 0.734 1.602 1.632 1.602v-0.267zM3.799 15.834c0-0.734 0.61-1.336 1.365-1.336v-0.267c-0.897 0-1.632 0.716-1.632 1.602h0.267zM5.164 14.498c0.755 0 1.365 0.602 1.365 1.336h0.267c0-0.886-0.734-1.602-1.632-1.602v0.267zM6.529 15.834c0 0.734-0.61 1.336-1.365 1.336v0.267c0.897 0 1.632-0.716 1.632-1.602h-0.267zM7.741 15.317c-0.245-1.178-1.308-2.065-2.577-2.065v0.267c1.144 0 2.097 0.798 2.316 1.853l0.261-0.054zM5.164 13.252c-1.449 0-2.631 1.156-2.631 2.582h0.267c0-1.274 1.058-2.315 2.364-2.315v-0.267zM2.533 15.834c0 1.426 1.182 2.582 2.631 2.582v-0.267c-1.306 0-2.364-1.041-2.364-2.315h-0.267zM5.164 18.416c1.27 0 2.332-0.886 2.577-2.065l-0.261-0.054c-0.219 1.054-1.172 1.853-2.316 1.853v0.267zM7.611 16.457h3.894v-0.267h-3.894v0.267zM11.504 16.457c0.347 0 0.633-0.276 0.633-0.623h-0.267c0 0.194-0.161 0.356-0.366 0.356v0.267zM12.137 15.834c0-0.347-0.286-0.623-0.633-0.623v0.267c0.205 0 0.366 0.162 0.366 0.356h0.267zM11.504 15.211h-3.894v0.267h3.894v-0.267z"></path>
<path d="M15.489 19.18c-0.276 0-0.499-0.219-0.499-0.49v-2.448c0-0.271 0.224-0.49 0.499-0.49 1.101 0 1.998-0.879 1.998-1.959s-0.897-1.959-1.998-1.959-1.998 0.878-1.998 1.959c0 0.271-0.223 0.49-0.499 0.49s-0.499-0.219-0.499-0.49c0-1.62 1.344-2.938 2.997-2.938s2.997 1.318 2.997 2.938c0 1.453-1.082 2.664-2.497 2.897v1.999c0 0.271-0.223 0.49-0.499 0.49z"></path>
<path d="M16.487 21.139c0 0.541-0.447 0.979-0.999 0.979s-0.999-0.439-0.999-0.979c0-0.54 0.447-0.979 0.999-0.979s0.999 0.439 0.999 0.979z"></path>
</svg>
