<!-- Generated by IcoMoon.io -->
<svg version="1.1" xmlns="http://www.w3.org/2000/svg" width="32" height="32" viewBox="0 0 32 32">
<title>uncategorized</title>
<path d="M16 2.667c-7.364 0-13.333 5.969-13.333 13.333s5.969 13.333 13.333 13.333c7.364 0 13.333-5.969 13.333-13.333s-5.969-13.333-13.333-13.333zM16 23.537c-0.64 0-1.159-0.519-1.159-1.159s0.519-1.159 1.159-1.159c0.64 0 1.159 0.519 1.159 1.159s-0.519 1.159-1.159 1.159zM16.58 16.58v2.898c0 0.32-0.259 0.58-0.58 0.58s-0.58-0.259-0.58-0.58v-3.478c0-0.32 0.259-0.58 0.58-0.58 1.601 0 2.898-1.297 2.898-2.898s-1.297-2.898-2.898-2.898-2.898 1.297-2.898 2.898c0 0.32-0.259 0.58-0.58 0.58s-0.58-0.259-0.58-0.58c0.023-2.223 1.831-4.017 4.058-4.017 2.241 0 4.058 1.817 4.058 4.058 0 2.037-1.5 3.723-3.456 4.013l-0.023 0.003 0.001 0.001z"></path>
</svg>
