<!-- Generated by IcoMoon.io -->
<svg version="1.1" xmlns="http://www.w3.org/2000/svg" width="32" height="32" viewBox="0 0 32 32">
<title>unlocked</title>
<path d="M24 2.667c2.94 0 5.333 2.393 5.333 5.333v5.333h-3.556v-5.333c0-0.98-0.798-1.778-1.778-1.778h-3.556c-0.979 0-1.778 0.798-1.778 1.778v5.333h0.444c0.733 0 1.333 0.601 1.333 1.333v13.333c0 0.732-0.601 1.333-1.333 1.333h-15.111c-0.732 0-1.333-0.601-1.333-1.333v-13.333c0-0.732 0.601-1.333 1.333-1.333h11.111v-5.333c0-2.94 2.393-5.333 5.333-5.333h3.556z"></path>
</svg>
