<!-- Generated by IcoMoon.io -->
<svg version="1.1" xmlns="http://www.w3.org/2000/svg" width="32" height="32" viewBox="0 0 32 32">
<title>update-password</title>
<path d="M6 19.891c0-0.92 0.745-1.666 1.665-1.669h10.558v-7.224c0-0.305-0.248-0.553-0.553-0.553h-1.669v-2.222c0-3.068-2.487-5.556-5.556-5.556s-5.556 2.487-5.556 5.556v2.222h-1.669c-0.305 0-0.553 0.248-0.553 0.553v11.115c0 0.305 0.248 0.553 0.553 0.553h2.78v-2.776zM10.998 14.713v1.845c-0.026 0.287-0.265 0.509-0.555 0.509s-0.529-0.222-0.555-0.507v-1.847c-0.33-0.19-0.55-0.538-0.553-0.939v-0.001c0-0.614 0.498-1.111 1.111-1.111s1.111 0.498 1.111 1.111c-0.005 0.401-0.226 0.751-0.553 0.937l-0.005 0.003-0.001 0.001zM6 8.222c0-2.455 1.99-4.444 4.444-4.444s4.444 1.99 4.444 4.444v2.222h-8.889v-2.222zM28.78 19.333h-21.115c-0.306 0.003-0.553 0.251-0.553 0.558v8.889c0 0.305 0.248 0.553 0.553 0.553h21.115c0.002 0 0.003 0 0.004 0 0.303 0 0.549-0.246 0.549-0.549 0-0.002 0-0.003 0-0.004v-8.889c0-0.002 0-0.003 0-0.004 0-0.305-0.248-0.553-0.553-0.553zM14.168 25.61c0.101 0.1 0.163 0.239 0.163 0.392s-0.063 0.293-0.163 0.392c-0.1 0.099-0.239 0.161-0.392 0.161s-0.292-0.062-0.393-0.161l-1.287-1.287-1.287 1.287c-0.1 0.1-0.239 0.162-0.392 0.162-0.306 0-0.555-0.249-0.555-0.555 0-0.153 0.062-0.292 0.163-0.392l1.287-1.287-1.287-1.287c-0.1-0.1-0.161-0.239-0.161-0.392s0.062-0.292 0.161-0.393c0.1-0.101 0.239-0.163 0.392-0.163s0.293 0.063 0.392 0.163l1.287 1.287 1.287-1.287c0.1-0.1 0.239-0.162 0.392-0.162 0.306 0 0.555 0.249 0.555 0.555 0 0.154-0.062 0.292-0.163 0.392l-1.287 1.287 1.288 1.288zM20.29 25.61c0.101 0.1 0.163 0.239 0.163 0.392s-0.063 0.293-0.163 0.392c-0.1 0.099-0.239 0.161-0.392 0.161s-0.292-0.062-0.393-0.161l-1.287-1.287-1.287 1.287c-0.1 0.099-0.239 0.161-0.392 0.161s-0.292-0.062-0.393-0.161c-0.101-0.1-0.163-0.239-0.163-0.392s0.063-0.293 0.163-0.392l1.287-1.287-1.287-1.287c-0.1-0.1-0.163-0.239-0.163-0.392 0-0.306 0.249-0.555 0.555-0.555 0.154 0 0.292 0.062 0.392 0.162l1.287 1.287 1.287-1.287c0.101-0.099 0.24-0.159 0.392-0.159 0.311 0 0.565 0.252 0.565 0.565 0 0.159-0.066 0.303-0.172 0.405l-1.287 1.287 1.288 1.261zM26.566 27.111h-4.453c-0.015 0.002-0.032 0.003-0.049 0.003-0.308 0-0.558-0.25-0.558-0.558s0.25-0.558 0.558-0.558c0.017 0 0.034 0.001 0.051 0.003h4.442c0.287 0.026 0.509 0.265 0.509 0.556s-0.222 0.529-0.507 0.555h-0.003l0.010-0.001z"></path>
</svg>
