<!-- Generated by IcoMoon.io -->
<svg version="1.1" xmlns="http://www.w3.org/2000/svg" width="32" height="32" viewBox="0 0 32 32">
<title>upline</title>
<path d="M15.715 2.668l-0.167 0.078-0.156 0.078-0.056 0.044c-0.029 0.023-0.054 0.049-0.077 0.077l-0.001 0.001-9.689 10.567c-0.147 0.155-0.237 0.365-0.237 0.595 0 0.258 0.112 0.489 0.292 0.648l0.001 0.001c0.157 0.141 0.365 0.227 0.594 0.227 0.257 0 0.488-0.108 0.65-0.283l0.001-0.001 8.144-8.889v22.645c0 0.485 0.393 0.877 0.877 0.877s0.878-0.393 0.878-0.877v-22.645l8.144 8.889c0.162 0.181 0.395 0.294 0.656 0.294 0.485 0 0.877-0.393 0.877-0.877 0-0.006 0-0.012 0-0.018v0.001c0-0.001 0-0.001 0-0.002 0-0.227-0.089-0.434-0.233-0.587v0.001l-9.678-10.556c-0.026-0.033-0.056-0.063-0.088-0.088l-0.001-0.001v-0.044l-0.156-0.056-0.189-0.1h-0.211l-0.177 0.002z"></path>
</svg>
