<!-- Generated by IcoMoon.io -->
<svg version="1.1" xmlns="http://www.w3.org/2000/svg" width="32" height="32" viewBox="0 0 32 32">
<title>warning</title>
<path d="M16 29.333c-7.364 0-13.333-5.969-13.333-13.333s5.97-13.333 13.333-13.333c7.364 0 13.333 5.969 13.333 13.333s-5.97 13.333-13.333 13.333zM16.011 25.054c0.636 0 1.183-0.234 1.639-0.702s0.685-1.029 0.685-1.682-0.228-1.213-0.685-1.682c-0.457-0.468-1.003-0.702-1.639-0.702-0.62 0-1.159 0.234-1.615 0.702s-0.685 1.029-0.685 1.682 0.228 1.213 0.685 1.682c0.457 0.468 0.995 0.702 1.615 0.702zM17.674 18.227l0.759-8.082c0.033-0.352 0.049-0.686 0.049-1.004 0-1.137-0.816-1.707-2.447-1.707s-2.447 0.569-2.447 1.707c0 0.151 0.024 0.485 0.073 1.004l0.759 8.082c0.081 0.837 0.465 1.255 1.15 1.255h0.955c0.685 0 1.068-0.418 1.15-1.255h-0.001z"></path>
</svg>
