<!-- Generated by IcoMoon.io -->
<svg version="1.1" xmlns="http://www.w3.org/2000/svg" width="32" height="32" viewBox="0 0 32 32">
<title>wechat</title>
<path d="M28.669 26.033c2.032-1.473 3.331-3.651 3.331-6.072 0-4.435-4.316-8.031-9.639-8.031s-9.639 3.596-9.639 8.031c0 4.436 4.316 8.032 9.639 8.032 1.1 0 2.161-0.156 3.147-0.44l0.283-0.043c0.185 0 0.353 0.057 0.512 0.148l2.111 1.219 0.185 0.060c0.177 0 0.321-0.144 0.321-0.321l-0.052-0.235-0.435-1.62-0.033-0.205c0-0.216 0.107-0.407 0.269-0.523zM11.567 3.063c-6.388 0-11.567 4.315-11.567 9.639 0 2.904 1.557 5.519 3.996 7.285 0.196 0.139 0.324 0.368 0.324 0.628l-0.040 0.245-0.521 1.944-0.063 0.281c0 0.213 0.173 0.387 0.385 0.387l0.224-0.072 2.532-1.463c0.189-0.109 0.391-0.177 0.613-0.177l0.34 0.051c1.181 0.34 2.456 0.529 3.776 0.529l0.635-0.016c-0.251-0.752-0.388-1.544-0.388-2.361 0-4.855 4.723-8.791 10.548-8.791l0.628 0.016c-0.871-4.604-5.653-8.125-11.423-8.125zM19.148 18.677c-0.709 0-1.284-0.576-1.284-1.285 0-0.711 0.575-1.285 1.284-1.285 0.711 0 1.285 0.575 1.285 1.285 0 0.709-0.575 1.285-1.285 1.285zM25.575 18.677c-0.711 0-1.285-0.576-1.285-1.285 0-0.711 0.575-1.285 1.285-1.285 0.709 0 1.284 0.575 1.284 1.285 0 0.709-0.575 1.285-1.284 1.285zM7.711 11.159c-0.852 0-1.541-0.691-1.541-1.541 0-0.852 0.689-1.543 1.541-1.543s1.543 0.691 1.543 1.543c0 0.851-0.691 1.541-1.543 1.541zM15.421 11.159c-0.852 0-1.541-0.691-1.541-1.541 0-0.852 0.689-1.543 1.541-1.543s1.543 0.691 1.543 1.543c0 0.851-0.691 1.541-1.543 1.541z"></path>
</svg>
