<!-- Generated by IcoMoon.io -->
<svg version="1.1" xmlns="http://www.w3.org/2000/svg" width="32" height="32" viewBox="0 0 32 32">
<title>whatsapp</title>
<path d="M25.333 6.542c-2.495-2.5-5.813-3.875-9.349-3.875-7.282 0-13.208 5.927-13.208 13.213 0 2.328 0.609 4.604 1.766 6.604l-1.875 6.849 7.005-1.838c1.933 1.052 4.104 1.609 6.312 1.609h0.005c7.282 0 13.213-5.927 13.213-13.213 0-3.532-1.375-6.849-3.87-9.349h0.001zM15.99 26.875c-1.974 0-3.907-0.531-5.594-1.531l-0.401-0.24-4.156 1.088 1.109-4.053-0.261-0.417c-1.104-1.745-1.683-3.766-1.683-5.843 0-6.058 4.927-10.984 10.99-10.984 2.932 0 5.692 1.146 7.766 3.218 2.073 2.078 3.213 4.833 3.213 7.771-0.005 6.062-4.933 10.99-10.984 10.99zM22.011 18.646c-0.328-0.167-1.953-0.963-2.255-1.073s-0.521-0.167-0.745 0.167c-0.218 0.328-0.854 1.073-1.047 1.297-0.192 0.218-0.385 0.25-0.713 0.083s-1.396-0.516-2.657-1.641c-0.979-0.875-1.646-1.958-1.838-2.287s-0.021-0.511 0.146-0.672c0.151-0.146 0.328-0.386 0.495-0.578s0.218-0.328 0.328-0.552c0.109-0.218 0.058-0.412-0.026-0.578s-0.745-1.792-1.016-2.453c-0.266-0.646-0.542-0.557-0.745-0.568-0.193-0.010-0.412-0.010-0.63-0.010s-0.578 0.083-0.88 0.412c-0.303 0.328-1.156 1.13-1.156 2.755s1.183 3.192 1.349 3.417c0.167 0.218 2.328 3.557 5.641 4.984 0.787 0.338 1.401 0.542 1.88 0.698 0.792 0.25 1.511 0.213 2.078 0.13 0.635-0.094 1.953-0.797 2.229-1.567s0.276-1.433 0.193-1.568c-0.078-0.146-0.297-0.229-0.63-0.396l-0.002 0.001z"></path>
</svg>
